<?xml version="1.0" encoding="utf-8" standalone="no"?>
<!DOCTYPE svg PUBLIC "-//W3C//DTD SVG 1.1//EN"
  "http://www.w3.org/Graphics/SVG/1.1/DTD/svg11.dtd">
<!-- Created with matplotlib (http://matplotlib.org/) -->
<svg height="374pt" version="1.1" viewBox="0 0 429 374" width="429pt" xmlns="http://www.w3.org/2000/svg" xmlns:xlink="http://www.w3.org/1999/xlink">
 <defs>
  <style type="text/css">
*{stroke-linecap:butt;stroke-linejoin:round;}
  </style>
 </defs>
 <g id="figure_1">
  <g id="patch_1">
   <path d="
M0 374.963
L429.12 374.963
L429.12 0
L0 0
z
" style="fill:#ffffff;"/>
  </g>
  <g id="axes_1">
   <g id="patch_2">
    <path d="
M7.2 367.763
L421.92 367.763
L421.92 22.1626
L7.2 22.1626
z
" style="fill:#ffffff;"/>
   </g>
   <g id="patch_3">
    <path clip-path="url(#p59b5b4f9de)" d="
M214.56 335.795
C215.247 335.795 215.907 335.522 216.393 335.035
C216.879 334.549 217.152 333.89 217.152 333.203
C217.152 332.515 216.879 331.856 216.393 331.37
C215.907 330.884 215.247 330.611 214.56 330.611
C213.873 330.611 213.213 330.884 212.727 331.37
C212.241 331.856 211.968 332.515 211.968 333.203
C211.968 333.89 212.241 334.549 212.727 335.035
C213.213 335.522 213.873 335.795 214.56 335.795
z
" style="stroke:#000000;"/>
   </g>
   <g id="patch_4">
    <path clip-path="url(#p59b5b4f9de)" d="
M208.574 329.747
C209.36 328.386 209.167 326.535 208.039 324.6
C206.91 322.666 204.938 320.807 202.557 319.432
C200.176 318.057 197.58 317.279 195.341 317.269
C193.101 317.259 191.402 318.018 190.616 319.379
C189.831 320.739 190.023 322.591 191.151 324.525
C192.28 326.459 194.252 328.318 196.633 329.693
C199.014 331.068 201.61 331.846 203.85 331.856
C206.089 331.866 207.788 331.107 208.574 329.747
z
" style="fill:#0000ff;stroke:#000000;"/>
   </g>
   <g id="patch_5">
    <path clip-path="url(#p59b5b4f9de)" d="
M184.63 318.515
C185.318 318.515 185.977 318.242 186.463 317.755
C186.949 317.269 187.222 316.61 187.222 315.923
C187.222 315.235 186.949 314.576 186.463 314.09
C185.977 313.604 185.318 313.331 184.63 313.331
C183.943 313.331 183.283 313.604 182.797 314.09
C182.311 314.576 182.038 315.235 182.038 315.923
C182.038 316.61 182.311 317.269 182.797 317.755
C183.283 318.242 183.943 318.515 184.63 318.515
z
" style="stroke:#000000;"/>
   </g>
   <g id="patch_6">
    <path clip-path="url(#p59b5b4f9de)" d="
M184.63 309.011
C185.926 309.011 187.169 307.918 188.085 305.974
C189.001 304.03 189.516 301.392 189.516 298.643
C189.516 295.893 189.001 293.256 188.085 291.311
C187.169 289.367 185.926 288.275 184.63 288.275
C183.334 288.275 182.091 289.367 181.175 291.311
C180.259 293.256 179.744 295.893 179.744 298.643
C179.744 301.392 180.259 304.03 181.175 305.974
C182.091 307.918 183.334 309.011 184.63 309.011
z
" style="fill:#ff6600;stroke:#000000;"/>
   </g>
   <g id="patch_7">
    <path clip-path="url(#p59b5b4f9de)" d="
M184.63 283.955
C185.318 283.955 185.977 283.682 186.463 283.195
C186.949 282.709 187.222 282.05 187.222 281.363
C187.222 280.675 186.949 280.016 186.463 279.53
C185.977 279.044 185.318 278.771 184.63 278.771
C183.943 278.771 183.283 279.044 182.797 279.53
C182.311 280.016 182.038 280.675 182.038 281.363
C182.038 282.05 182.311 282.709 182.797 283.195
C183.283 283.682 183.943 283.955 184.63 283.955
z
" style="stroke:#000000;"/>
   </g>
   <g id="patch_8">
    <path clip-path="url(#p59b5b4f9de)" d="
M178.644 277.907
C179.291 276.787 178.965 275.166 177.738 273.402
C176.512 271.638 174.485 269.874 172.104 268.499
C169.722 267.125 167.181 266.251 165.04 266.071
C162.899 265.891 161.333 266.419 160.686 267.539
C160.04 268.659 160.365 270.279 161.592 272.043
C162.819 273.807 164.846 275.571 167.227 276.946
C169.608 278.321 172.149 279.194 174.29 279.375
C176.431 279.555 177.998 279.027 178.644 277.907
z
" style="fill:#ff6600;stroke:#000000;"/>
   </g>
   <g id="patch_9">
    <path clip-path="url(#p59b5b4f9de)" d="
M154.7 266.675
C155.388 266.675 156.047 266.402 156.533 265.915
C157.019 265.429 157.292 264.77 157.292 264.083
C157.292 263.395 157.019 262.736 156.533 262.25
C156.047 261.764 155.388 261.491 154.7 261.491
C154.013 261.491 153.354 261.764 152.868 262.25
C152.381 262.736 152.108 263.395 152.108 264.083
C152.108 264.77 152.381 265.429 152.868 265.915
C153.354 266.402 154.013 266.675 154.7 266.675
z
" style="stroke:#000000;"/>
   </g>
   <g id="patch_10">
    <path clip-path="url(#p59b5b4f9de)" d="
M154.7 257.171
C156.273 257.171 157.782 256.078 158.894 254.134
C160.007 252.19 160.632 249.552 160.632 246.803
C160.632 244.053 160.007 241.416 158.894 239.471
C157.782 237.527 156.273 236.435 154.7 236.435
C153.127 236.435 151.619 237.527 150.506 239.471
C149.394 241.416 148.769 244.053 148.769 246.803
C148.769 249.552 149.394 252.19 150.506 254.134
C151.619 256.078 153.127 257.171 154.7 257.171
z
" style="fill:#0000ff;stroke:#000000;"/>
   </g>
   <g id="patch_11">
    <path clip-path="url(#p59b5b4f9de)" d="
M154.7 232.115
C155.388 232.115 156.047 231.842 156.533 231.355
C157.019 230.869 157.292 230.21 157.292 229.523
C157.292 228.835 157.019 228.176 156.533 227.69
C156.047 227.204 155.388 226.931 154.7 226.931
C154.013 226.931 153.354 227.204 152.868 227.69
C152.381 228.176 152.108 228.835 152.108 229.523
C152.108 230.21 152.381 230.869 152.868 231.355
C153.354 231.842 154.013 232.115 154.7 232.115
z
" style="stroke:#000000;"/>
   </g>
   <g id="patch_12">
    <path clip-path="url(#p59b5b4f9de)" d="
M148.714 226.067
C149.364 224.942 149.04 223.317 147.815 221.55
C146.591 219.783 144.565 218.017 142.183 216.643
C139.802 215.268 137.26 214.396 135.117 214.219
C132.974 214.042 131.406 214.574 130.756 215.699
C130.107 216.823 130.431 218.448 131.655 220.215
C132.88 221.982 134.906 223.748 137.287 225.123
C139.669 226.498 142.211 227.369 144.353 227.546
C146.496 227.723 148.065 227.191 148.714 226.067
z
" style="fill:#ff6600;stroke:#000000;"/>
   </g>
   <g id="patch_13">
    <path clip-path="url(#p59b5b4f9de)" d="
M124.77 214.835
C125.458 214.835 126.117 214.562 126.603 214.075
C127.089 213.589 127.362 212.93 127.362 212.243
C127.362 211.555 127.089 210.896 126.603 210.41
C126.117 209.924 125.458 209.651 124.77 209.651
C124.083 209.651 123.424 209.924 122.938 210.41
C122.452 210.896 122.178 211.555 122.178 212.243
C122.178 212.93 122.452 213.589 122.938 214.075
C123.424 214.562 124.083 214.835 124.77 214.835
z
" style="stroke:#000000;"/>
   </g>
   <g id="patch_14">
    <path clip-path="url(#p59b5b4f9de)" d="
M124.77 205.331
C126.059 205.331 127.296 204.238 128.207 202.294
C129.119 200.35 129.631 197.712 129.631 194.963
C129.631 192.213 129.119 189.576 128.207 187.631
C127.296 185.687 126.059 184.595 124.77 184.595
C123.482 184.595 122.245 185.687 121.334 187.631
C120.422 189.576 119.91 192.213 119.91 194.963
C119.91 197.712 120.422 200.35 121.334 202.294
C122.245 204.238 123.482 205.331 124.77 205.331
z
" style="fill:#ff6600;stroke:#000000;"/>
   </g>
   <g id="patch_15">
    <path clip-path="url(#p59b5b4f9de)" d="
M124.77 180.275
C125.458 180.275 126.117 180.002 126.603 179.515
C127.089 179.029 127.362 178.37 127.362 177.683
C127.362 176.995 127.089 176.336 126.603 175.85
C126.117 175.364 125.458 175.091 124.77 175.091
C124.083 175.091 123.424 175.364 122.938 175.85
C122.452 176.336 122.178 176.995 122.178 177.683
C122.178 178.37 122.452 179.029 122.938 179.515
C123.424 180.002 124.083 180.275 124.77 180.275
z
" style="stroke:#000000;"/>
   </g>
   <g id="patch_16">
    <path clip-path="url(#p59b5b4f9de)" d="
M118.785 174.227
C119.573 172.86 119.384 171.004 118.258 169.065
C117.132 167.127 115.161 165.266 112.78 163.891
C110.399 162.516 107.801 161.74 105.56 161.734
C103.318 161.728 101.615 162.492 100.827 163.859
C100.038 165.225 100.227 167.082 101.353 169.02
C102.479 170.958 104.45 172.819 106.831 174.194
C109.212 175.569 111.81 176.345 114.051 176.351
C116.293 176.357 117.996 175.593 118.785 174.227
z
" style="fill:#0000ff;stroke:#000000;"/>
   </g>
   <g id="patch_17">
    <path clip-path="url(#p59b5b4f9de)" d="
M94.8406 162.995
C95.5281 162.995 96.1874 162.722 96.6735 162.235
C97.1595 161.749 97.4326 161.09 97.4326 160.403
C97.4326 159.715 97.1595 159.056 96.6735 158.57
C96.1874 158.084 95.5281 157.811 94.8406 157.811
C94.1532 157.811 93.4939 158.084 93.0078 158.57
C92.5218 159.056 92.2486 159.715 92.2486 160.403
C92.2486 161.09 92.5218 161.749 93.0078 162.235
C93.4939 162.722 94.1532 162.995 94.8406 162.995
z
" style="stroke:#000000;"/>
   </g>
   <g id="patch_18">
    <path clip-path="url(#p59b5b4f9de)" d="
M94.8406 153.491
C96.1348 153.491 97.3761 152.398 98.2912 150.454
C99.2063 148.51 99.7205 145.872 99.7205 143.123
C99.7205 140.373 99.2063 137.736 98.2912 135.791
C97.3761 133.847 96.1348 132.755 94.8406 132.755
C93.5465 132.755 92.3052 133.847 91.3901 135.791
C90.475 137.736 89.9608 140.373 89.9608 143.123
C89.9608 145.872 90.475 148.51 91.3901 150.454
C92.3052 152.398 93.5465 153.491 94.8406 153.491
z
" style="fill:#ff6600;stroke:#000000;"/>
   </g>
   <g id="patch_19">
    <path clip-path="url(#p59b5b4f9de)" d="
M94.8406 128.435
C95.5281 128.435 96.1874 128.162 96.6735 127.675
C97.1595 127.189 97.4326 126.53 97.4326 125.843
C97.4326 125.155 97.1595 124.496 96.6735 124.01
C96.1874 123.524 95.5281 123.251 94.8406 123.251
C94.1532 123.251 93.4939 123.524 93.0078 124.01
C92.5218 124.496 92.2486 125.155 92.2486 125.843
C92.2486 126.53 92.5218 127.189 93.0078 127.675
C93.4939 128.162 94.1532 128.435 94.8406 128.435
z
" style="stroke:#000000;"/>
   </g>
   <g id="patch_20">
    <path clip-path="url(#p59b5b4f9de)" d="
M88.8547 122.387
C89.5009 121.267 89.1747 119.647 87.9479 117.884
C86.7211 116.12 84.6938 114.357 82.3126 112.982
C79.9313 111.607 77.3905 110.733 75.2498 110.552
C73.109 110.372 71.543 110.899 70.8968 112.019
C70.2505 113.138 70.5767 114.758 71.8035 116.522
C73.0304 118.285 75.0576 120.049 77.4389 121.423
C79.8201 122.798 82.3609 123.672 84.5017 123.853
C86.6425 124.033 88.2084 123.506 88.8547 122.387
z
" style="fill:#ff6600;stroke:#000000;"/>
   </g>
   <g id="patch_21">
    <path clip-path="url(#p59b5b4f9de)" d="
M64.9108 111.155
C65.5982 111.155 66.2576 110.882 66.7436 110.395
C67.2297 109.909 67.5028 109.25 67.5028 108.563
C67.5028 107.875 67.2297 107.216 66.7436 106.73
C66.2576 106.244 65.5982 105.971 64.9108 105.971
C64.2234 105.971 63.5641 106.244 63.078 106.73
C62.5919 107.216 62.3188 107.875 62.3188 108.563
C62.3188 109.25 62.5919 109.909 63.078 110.395
C63.5641 110.882 64.2234 111.155 64.9108 111.155
z
" style="stroke:#000000;"/>
   </g>
   <g id="patch_22">
    <path clip-path="url(#p59b5b4f9de)" d="
M64.9108 101.651
C66.4836 101.651 67.9923 100.558 69.1044 98.6139
C70.2166 96.6696 70.8415 94.0323 70.8415 91.2826
C70.8415 88.533 70.2166 85.8956 69.1044 83.9513
C67.9923 82.0071 66.4836 80.9146 64.9108 80.9146
C63.338 80.9146 61.8293 82.0071 60.7172 83.9513
C59.605 85.8956 58.9801 88.533 58.9801 91.2826
C58.9801 94.0323 59.605 96.6696 60.7172 98.6139
C61.8293 100.558 63.338 101.651 64.9108 101.651
z
" style="fill:#0000ff;stroke:#000000;"/>
   </g>
   <g id="patch_23">
    <path clip-path="url(#p59b5b4f9de)" d="
M64.9108 76.5946
C65.5982 76.5946 66.2576 76.3215 66.7436 75.8354
C67.2297 75.3494 67.5028 74.69 67.5028 74.0026
C67.5028 73.3152 67.2297 72.6559 66.7436 72.1698
C66.2576 71.6837 65.5982 71.4106 64.9108 71.4106
C64.2234 71.4106 63.5641 71.6837 63.078 72.1698
C62.5919 72.6559 62.3188 73.3152 62.3188 74.0026
C62.3188 74.69 62.5919 75.3494 63.078 75.8354
C63.5641 76.3215 64.2234 76.5946 64.9108 76.5946
z
" style="stroke:#000000;"/>
   </g>
   <g id="patch_24">
    <path clip-path="url(#p59b5b4f9de)" d="
M58.9248 70.5466
C59.5723 69.4251 59.2473 67.8032 58.0214 66.0381
C56.7954 64.2729 54.7686 62.5087 52.3874 61.1338
C50.0061 59.759 47.4648 58.8859 45.3232 58.7068
C43.1816 58.5277 41.6144 59.0571 40.9669 60.1786
C40.3195 61.3001 40.6445 62.922 41.8704 64.6872
C43.0964 66.4523 45.1232 68.2166 47.5044 69.5914
C49.8857 70.9662 52.4269 71.8393 54.5686 72.0185
C56.7102 72.1976 58.2774 71.6681 58.9248 70.5466
z
" style="fill:#ff6600;stroke:#000000;"/>
   </g>
   <g id="patch_25">
    <path clip-path="url(#p59b5b4f9de)" d="
M34.981 59.3146
C35.6684 59.3146 36.3277 59.0415 36.8138 58.5554
C37.2999 58.0694 37.573 57.41 37.573 56.7226
C37.573 56.0352 37.2999 55.3759 36.8138 54.8898
C36.3277 54.4037 35.6684 54.1306 34.981 54.1306
C34.2936 54.1306 33.6342 54.4037 33.1482 54.8898
C32.6621 55.3759 32.389 56.0352 32.389 56.7226
C32.389 57.41 32.6621 58.0694 33.1482 58.5554
C33.6342 59.0415 34.2936 59.3146 34.981 59.3146
z
" style="stroke:#000000;"/>
   </g>
   <g id="patch_26">
    <path clip-path="url(#p59b5b4f9de)" d="
M34.981 49.8106
C36.274 49.8106 37.5143 48.7182 38.4286 46.7739
C39.3429 44.8296 39.8566 42.1923 39.8566 39.4426
C39.8566 36.693 39.3429 34.0556 38.4286 32.1113
C37.5143 30.1671 36.274 29.0746 34.981 29.0746
C33.6879 29.0746 32.4477 30.1671 31.5334 32.1113
C30.6191 34.0556 30.1053 36.693 30.1053 39.4426
C30.1053 42.1923 30.6191 44.8296 31.5334 46.7739
C32.4477 48.7182 33.6879 49.8106 34.981 49.8106
z
" style="fill:#ff6600;stroke:#000000;"/>
   </g>
   <g id="patch_27">
    <path clip-path="url(#p59b5b4f9de)" d="
M214.56 360.851
C215.853 360.851 217.093 359.758 218.008 357.814
C218.922 355.87 219.436 353.232 219.436 350.483
C219.436 347.733 218.922 345.096 218.008 343.151
C217.093 341.207 215.853 340.115 214.56 340.115
C213.267 340.115 212.027 341.207 211.112 343.151
C210.198 345.096 209.684 347.733 209.684 350.483
C209.684 353.232 210.198 355.87 211.112 357.814
C212.027 359.758 213.267 360.851 214.56 360.851
z
" style="fill:#ff6600;stroke:#000000;"/>
   </g>
   <g id="patch_28">
    <path clip-path="url(#p59b5b4f9de)" d="
M274.42 335.795
C275.107 335.795 275.766 335.522 276.252 335.035
C276.739 334.549 277.012 333.89 277.012 333.203
C277.012 332.515 276.739 331.856 276.252 331.37
C275.766 330.884 275.107 330.611 274.42 330.611
C273.732 330.611 273.073 330.884 272.587 331.37
C272.101 331.856 271.828 332.515 271.828 333.203
C271.828 333.89 272.101 334.549 272.587 335.035
C273.073 335.522 273.732 335.795 274.42 335.795
z
" style="stroke:#000000;"/>
   </g>
   <g id="patch_29">
    <path clip-path="url(#p59b5b4f9de)" d="
M268.434 329.747
C269.079 328.629 268.752 327.011 267.524 325.248
C266.297 323.486 264.269 321.723 261.888 320.348
C259.507 318.973 256.966 318.099 254.826 317.917
C252.686 317.735 251.121 318.261 250.476 319.379
C249.83 320.496 250.158 322.115 251.385 323.877
C252.613 325.64 254.64 327.402 257.021 328.777
C259.403 330.152 261.943 331.027 264.083 331.208
C266.223 331.39 267.788 330.864 268.434 329.747
z
" style="fill:#ff6600;stroke:#000000;"/>
   </g>
   <g id="patch_30">
    <path clip-path="url(#p59b5b4f9de)" d="
M244.49 318.515
C245.177 318.515 245.837 318.242 246.323 317.755
C246.809 317.269 247.082 316.61 247.082 315.923
C247.082 315.235 246.809 314.576 246.323 314.09
C245.837 313.604 245.177 313.331 244.49 313.331
C243.802 313.331 243.143 313.604 242.657 314.09
C242.171 314.576 241.898 315.235 241.898 315.923
C241.898 316.61 242.171 317.269 242.657 317.755
C243.143 318.242 243.802 318.515 244.49 318.515
z
" style="stroke:#000000;"/>
   </g>
   <g id="patch_31">
    <path clip-path="url(#p59b5b4f9de)" d="
M244.49 309.011
C246.063 309.011 247.571 307.918 248.683 305.974
C249.796 304.03 250.421 301.392 250.421 298.643
C250.421 295.893 249.796 293.256 248.683 291.311
C247.571 289.367 246.063 288.275 244.49 288.275
C242.917 288.275 241.408 289.367 240.296 291.311
C239.184 293.256 238.559 295.893 238.559 298.643
C238.559 301.392 239.184 304.03 240.296 305.974
C241.408 307.918 242.917 309.011 244.49 309.011
z
" style="fill:#0000ff;stroke:#000000;"/>
   </g>
   <g id="patch_32">
    <path clip-path="url(#p59b5b4f9de)" d="
M244.49 283.955
C245.177 283.955 245.837 283.682 246.323 283.195
C246.809 282.709 247.082 282.05 247.082 281.363
C247.082 280.675 246.809 280.016 246.323 279.53
C245.837 279.044 245.177 278.771 244.49 278.771
C243.802 278.771 243.143 279.044 242.657 279.53
C242.171 280.016 241.898 280.675 241.898 281.363
C241.898 282.05 242.171 282.709 242.657 283.195
C243.143 283.682 243.802 283.955 244.49 283.955
z
" style="stroke:#000000;"/>
   </g>
   <g id="patch_33">
    <path clip-path="url(#p59b5b4f9de)" d="
M238.504 277.907
C239.152 276.784 238.828 275.16 237.603 273.394
C236.377 271.628 234.351 269.863 231.97 268.488
C229.589 267.113 227.047 266.241 224.905 266.063
C222.762 265.885 221.194 266.416 220.546 267.539
C219.898 268.662 220.222 270.285 221.447 272.051
C222.672 273.818 224.699 275.582 227.08 276.957
C229.461 278.332 232.003 279.205 234.145 279.383
C236.287 279.561 237.855 279.03 238.504 277.907
z
" style="fill:#ff6600;stroke:#000000;"/>
   </g>
   <g id="patch_34">
    <path clip-path="url(#p59b5b4f9de)" d="
M214.56 266.675
C215.247 266.675 215.907 266.402 216.393 265.915
C216.879 265.429 217.152 264.77 217.152 264.083
C217.152 263.395 216.879 262.736 216.393 262.25
C215.907 261.764 215.247 261.491 214.56 261.491
C213.873 261.491 213.213 261.764 212.727 262.25
C212.241 262.736 211.968 263.395 211.968 264.083
C211.968 264.77 212.241 265.429 212.727 265.915
C213.213 266.402 213.873 266.675 214.56 266.675
z
" style="stroke:#000000;"/>
   </g>
   <g id="patch_35">
    <path clip-path="url(#p59b5b4f9de)" d="
M214.56 257.171
C215.85 257.171 217.087 256.078 217.999 254.134
C218.911 252.19 219.424 249.552 219.424 246.803
C219.424 244.053 218.911 241.416 217.999 239.471
C217.087 237.527 215.85 236.435 214.56 236.435
C213.27 236.435 212.033 237.527 211.121 239.471
C210.209 241.416 209.696 244.053 209.696 246.803
C209.696 249.552 210.209 252.19 211.121 254.134
C212.033 256.078 213.27 257.171 214.56 257.171
z
" style="fill:#ff6600;stroke:#000000;"/>
   </g>
   <g id="patch_36">
    <path clip-path="url(#p59b5b4f9de)" d="
M214.56 232.115
C215.247 232.115 215.907 231.842 216.393 231.355
C216.879 230.869 217.152 230.21 217.152 229.523
C217.152 228.835 216.879 228.176 216.393 227.69
C215.907 227.204 215.247 226.931 214.56 226.931
C213.873 226.931 213.213 227.204 212.727 227.69
C212.241 228.176 211.968 228.835 211.968 229.523
C211.968 230.21 212.241 230.869 212.727 231.355
C213.213 231.842 213.873 232.115 214.56 232.115
z
" style="stroke:#000000;"/>
   </g>
   <g id="patch_37">
    <path clip-path="url(#p59b5b4f9de)" d="
M208.574 226.067
C209.363 224.7 209.173 222.844 208.047 220.905
C206.921 218.967 204.951 217.106 202.569 215.731
C200.188 214.356 197.591 213.58 195.349 213.574
C193.108 213.568 191.405 214.332 190.616 215.699
C189.827 217.065 190.017 218.922 191.143 220.86
C192.269 222.798 194.239 224.66 196.621 226.034
C199.002 227.409 201.599 228.185 203.841 228.191
C206.083 228.197 207.785 227.433 208.574 226.067
z
" style="fill:#0000ff;stroke:#000000;"/>
   </g>
   <g id="patch_38">
    <path clip-path="url(#p59b5b4f9de)" d="
M184.63 214.835
C185.318 214.835 185.977 214.562 186.463 214.075
C186.949 213.589 187.222 212.93 187.222 212.243
C187.222 211.555 186.949 210.896 186.463 210.41
C185.977 209.924 185.318 209.651 184.63 209.651
C183.943 209.651 183.283 209.924 182.797 210.41
C182.311 210.896 182.038 211.555 182.038 212.243
C182.038 212.93 182.311 213.589 182.797 214.075
C183.283 214.562 183.943 214.835 184.63 214.835
z
" style="stroke:#000000;"/>
   </g>
   <g id="patch_39">
    <path clip-path="url(#p59b5b4f9de)" d="
M184.63 205.331
C185.923 205.331 187.164 204.238 188.078 202.294
C188.993 200.35 189.507 197.712 189.507 194.963
C189.507 192.213 188.993 189.576 188.078 187.631
C187.164 185.687 185.923 184.595 184.63 184.595
C183.337 184.595 182.096 185.687 181.182 187.631
C180.267 189.576 179.754 192.213 179.754 194.963
C179.754 197.712 180.267 200.35 181.182 202.294
C182.096 204.238 183.337 205.331 184.63 205.331
z
" style="fill:#ff6600;stroke:#000000;"/>
   </g>
   <g id="patch_40">
    <path clip-path="url(#p59b5b4f9de)" d="
M184.63 180.275
C185.318 180.275 185.977 180.002 186.463 179.515
C186.949 179.029 187.222 178.37 187.222 177.683
C187.222 176.995 186.949 176.336 186.463 175.85
C185.977 175.364 185.318 175.091 184.63 175.091
C183.943 175.091 183.283 175.364 182.797 175.85
C182.311 176.336 182.038 176.995 182.038 177.683
C182.038 178.37 182.311 179.029 182.797 179.515
C183.283 180.002 183.943 180.275 184.63 180.275
z
" style="stroke:#000000;"/>
   </g>
   <g id="patch_41">
    <path clip-path="url(#p59b5b4f9de)" d="
M178.644 174.227
C179.291 173.106 178.966 171.485 177.74 169.72
C176.513 167.955 174.486 166.191 172.105 164.817
C169.724 163.442 167.183 162.568 165.041 162.389
C162.9 162.209 161.333 162.738 160.686 163.859
C160.039 164.979 160.365 166.601 161.591 168.365
C162.817 170.13 164.844 171.894 167.225 173.269
C169.607 174.644 172.148 175.517 174.289 175.697
C176.43 175.876 177.997 175.347 178.644 174.227
z
" style="fill:#ff6600;stroke:#000000;"/>
   </g>
   <g id="patch_42">
    <path clip-path="url(#p59b5b4f9de)" d="
M154.7 162.995
C155.388 162.995 156.047 162.722 156.533 162.235
C157.019 161.749 157.292 161.09 157.292 160.403
C157.292 159.715 157.019 159.056 156.533 158.57
C156.047 158.084 155.388 157.811 154.7 157.811
C154.013 157.811 153.354 158.084 152.868 158.57
C152.381 159.056 152.108 159.715 152.108 160.403
C152.108 161.09 152.381 161.749 152.868 162.235
C153.354 162.722 154.013 162.995 154.7 162.995
z
" style="stroke:#000000;"/>
   </g>
   <g id="patch_43">
    <path clip-path="url(#p59b5b4f9de)" d="
M154.7 153.491
C156.273 153.491 157.782 152.398 158.894 150.454
C160.007 148.51 160.632 145.872 160.632 143.123
C160.632 140.373 160.007 137.736 158.894 135.791
C157.782 133.847 156.273 132.755 154.7 132.755
C153.127 132.755 151.619 133.847 150.506 135.791
C149.394 137.736 148.769 140.373 148.769 143.123
C148.769 145.872 149.394 148.51 150.506 150.454
C151.619 152.398 153.127 153.491 154.7 153.491
z
" style="fill:#0000ff;stroke:#000000;"/>
   </g>
   <g id="patch_44">
    <path clip-path="url(#p59b5b4f9de)" d="
M154.7 128.435
C155.388 128.435 156.047 128.162 156.533 127.675
C157.019 127.189 157.292 126.53 157.292 125.843
C157.292 125.155 157.019 124.496 156.533 124.01
C156.047 123.524 155.388 123.251 154.7 123.251
C154.013 123.251 153.354 123.524 152.868 124.01
C152.381 124.496 152.108 125.155 152.108 125.843
C152.108 126.53 152.381 127.189 152.868 127.675
C153.354 128.162 154.013 128.435 154.7 128.435
z
" style="stroke:#000000;"/>
   </g>
   <g id="patch_45">
    <path clip-path="url(#p59b5b4f9de)" d="
M148.714 122.387
C149.363 121.263 149.039 119.639 147.814 117.872
C146.589 116.105 144.563 114.34 142.182 112.965
C139.801 111.59 137.259 110.718 135.116 110.541
C132.974 110.363 131.405 110.895 130.756 112.019
C130.108 113.142 130.431 114.766 131.656 116.533
C132.881 118.3 134.908 120.065 137.289 121.44
C139.67 122.815 142.212 123.687 144.355 123.865
C146.497 124.042 148.066 123.51 148.714 122.387
z
" style="fill:#ff6600;stroke:#000000;"/>
   </g>
   <g id="patch_46">
    <path clip-path="url(#p59b5b4f9de)" d="
M124.77 111.155
C125.458 111.155 126.117 110.882 126.603 110.395
C127.089 109.909 127.362 109.25 127.362 108.563
C127.362 107.875 127.089 107.216 126.603 106.73
C126.117 106.244 125.458 105.971 124.77 105.971
C124.083 105.971 123.424 106.244 122.938 106.73
C122.452 107.216 122.178 107.875 122.178 108.563
C122.178 109.25 122.452 109.909 122.938 110.395
C123.424 110.882 124.083 111.155 124.77 111.155
z
" style="stroke:#000000;"/>
   </g>
   <g id="patch_47">
    <path clip-path="url(#p59b5b4f9de)" d="
M124.77 101.651
C126.062 101.651 127.301 100.558 128.214 98.6139
C129.127 96.6696 129.64 94.0323 129.64 91.2826
C129.64 88.533 129.127 85.8956 128.214 83.9513
C127.301 82.0071 126.062 80.9146 124.77 80.9146
C123.479 80.9146 122.24 82.0071 121.327 83.9513
C120.414 85.8956 119.901 88.533 119.901 91.2826
C119.901 94.0323 120.414 96.6696 121.327 98.6139
C122.24 100.558 123.479 101.651 124.77 101.651
z
" style="fill:#ff6600;stroke:#000000;"/>
   </g>
   <g id="patch_48">
    <path clip-path="url(#p59b5b4f9de)" d="
M124.77 76.5946
C125.458 76.5946 126.117 76.3215 126.603 75.8354
C127.089 75.3494 127.362 74.69 127.362 74.0026
C127.362 73.3152 127.089 72.6559 126.603 72.1698
C126.117 71.6837 125.458 71.4106 124.77 71.4106
C124.083 71.4106 123.424 71.6837 122.938 72.1698
C122.452 72.6559 122.178 73.3152 122.178 74.0026
C122.178 74.69 122.452 75.3494 122.938 75.8354
C123.424 76.3215 124.083 76.5946 124.77 76.5946
z
" style="stroke:#000000;"/>
   </g>
   <g id="patch_49">
    <path clip-path="url(#p59b5b4f9de)" d="
M118.785 70.5466
C119.57 69.186 119.378 67.3346 118.249 65.4003
C117.121 63.4661 115.149 61.6068 112.768 60.232
C110.387 58.8572 107.79 58.0791 105.551 58.0691
C103.312 58.0591 101.612 58.818 100.827 60.1786
C100.041 61.5393 100.234 63.3906 101.362 65.3249
C102.49 67.2592 104.462 69.1185 106.843 70.4933
C109.225 71.8681 111.821 72.6462 114.06 72.6562
C116.299 72.6662 117.999 71.9073 118.785 70.5466
z
" style="fill:#0000ff;stroke:#000000;"/>
   </g>
   <g id="patch_50">
    <path clip-path="url(#p59b5b4f9de)" d="
M94.8406 59.3146
C95.5281 59.3146 96.1874 59.0415 96.6735 58.5554
C97.1595 58.0694 97.4326 57.41 97.4326 56.7226
C97.4326 56.0352 97.1595 55.3759 96.6735 54.8898
C96.1874 54.4037 95.5281 54.1306 94.8406 54.1306
C94.1532 54.1306 93.4939 54.4037 93.0078 54.8898
C92.5218 55.3759 92.2486 56.0352 92.2486 56.7226
C92.2486 57.41 92.5218 58.0694 93.0078 58.5554
C93.4939 59.0415 94.1532 59.3146 94.8406 59.3146
z
" style="stroke:#000000;"/>
   </g>
   <g id="patch_51">
    <path clip-path="url(#p59b5b4f9de)" d="
M94.8406 49.8106
C96.1379 49.8106 97.3823 48.7182 98.2996 46.7739
C99.2169 44.8296 99.7324 42.1923 99.7324 39.4426
C99.7324 36.693 99.2169 34.0556 98.2996 32.1113
C97.3823 30.1671 96.1379 29.0746 94.8406 29.0746
C93.5433 29.0746 92.299 30.1671 91.3817 32.1113
C90.4644 34.0556 89.9489 36.693 89.9489 39.4426
C89.9489 42.1923 90.4644 44.8296 91.3817 46.7739
C92.299 48.7182 93.5433 49.8106 94.8406 49.8106
z
" style="fill:#ff6600;stroke:#000000;"/>
   </g>
   <g id="patch_52">
    <path clip-path="url(#p59b5b4f9de)" d="
M274.42 360.851
C275.717 360.851 276.961 359.758 277.879 357.814
C278.796 355.87 279.311 353.232 279.311 350.483
C279.311 347.733 278.796 345.096 277.879 343.151
C276.961 341.207 275.717 340.115 274.42 340.115
C273.122 340.115 271.878 341.207 270.961 343.151
C270.043 345.096 269.528 347.733 269.528 350.483
C269.528 353.232 270.043 355.87 270.961 357.814
C271.878 359.758 273.122 360.851 274.42 360.851
z
" style="fill:#ff6600;stroke:#000000;"/>
   </g>
   <g id="patch_53">
    <path clip-path="url(#p59b5b4f9de)" d="
M334.279 335.795
C334.967 335.795 335.626 335.522 336.112 335.035
C336.598 334.549 336.871 333.89 336.871 333.203
C336.871 332.515 336.598 331.856 336.112 331.37
C335.626 330.884 334.967 330.611 334.279 330.611
C333.592 330.611 332.933 330.884 332.447 331.37
C331.96 331.856 331.687 332.515 331.687 333.203
C331.687 333.89 331.96 334.549 332.447 335.035
C332.933 335.522 333.592 335.795 334.279 335.795
z
" style="stroke:#000000;"/>
   </g>
   <g id="patch_54">
    <path clip-path="url(#p59b5b4f9de)" d="
M328.293 329.747
C328.94 328.626 328.615 327.005 327.389 325.24
C326.162 323.475 324.136 321.711 321.754 320.337
C319.373 318.962 316.832 318.088 314.691 317.909
C312.549 317.729 310.983 318.258 310.335 319.379
C309.688 320.499 310.014 322.121 311.24 323.885
C312.466 325.65 314.493 327.414 316.875 328.789
C319.256 330.163 321.797 331.037 323.938 331.216
C326.08 331.396 327.646 330.867 328.293 329.747
z
" style="fill:#ff6600;stroke:#000000;"/>
   </g>
   <g id="patch_55">
    <path clip-path="url(#p59b5b4f9de)" d="
M304.35 318.515
C305.037 318.515 305.696 318.242 306.182 317.755
C306.668 317.269 306.942 316.61 306.942 315.923
C306.942 315.235 306.668 314.576 306.182 314.09
C305.696 313.604 305.037 313.331 304.35 313.331
C303.662 313.331 303.003 313.604 302.517 314.09
C302.031 314.576 301.758 315.235 301.758 315.923
C301.758 316.61 302.031 317.269 302.517 317.755
C303.003 318.242 303.662 318.515 304.35 318.515
z
" style="stroke:#000000;"/>
   </g>
   <g id="patch_56">
    <path clip-path="url(#p59b5b4f9de)" d="
M304.35 309.011
C305.641 309.011 306.88 307.918 307.793 305.974
C308.706 304.03 309.22 301.392 309.22 298.643
C309.22 295.893 308.706 293.256 307.793 291.311
C306.88 289.367 305.641 288.275 304.35 288.275
C303.058 288.275 301.819 289.367 300.906 291.311
C299.993 293.256 299.479 295.893 299.479 298.643
C299.479 301.392 299.993 304.03 300.906 305.974
C301.819 307.918 303.058 309.011 304.35 309.011
z
" style="fill:#ff6600;stroke:#000000;"/>
   </g>
   <g id="patch_57">
    <path clip-path="url(#p59b5b4f9de)" d="
M304.35 283.955
C305.037 283.955 305.696 283.682 306.182 283.195
C306.668 282.709 306.942 282.05 306.942 281.363
C306.942 280.675 306.668 280.016 306.182 279.53
C305.696 279.044 305.037 278.771 304.35 278.771
C303.662 278.771 303.003 279.044 302.517 279.53
C302.031 280.016 301.758 280.675 301.758 281.363
C301.758 282.05 302.031 282.709 302.517 283.195
C303.003 283.682 303.662 283.955 304.35 283.955
z
" style="stroke:#000000;"/>
   </g>
   <g id="patch_58">
    <path clip-path="url(#p59b5b4f9de)" d="
M298.364 277.907
C299.151 276.542 298.961 274.688 297.834 272.751
C296.707 270.814 294.736 268.954 292.354 267.579
C289.973 266.204 287.376 265.427 285.135 265.42
C282.895 265.412 281.193 266.174 280.406 267.539
C279.618 268.903 279.809 270.757 280.936 272.694
C282.062 274.631 284.034 276.492 286.415 277.866
C288.796 279.241 291.393 280.018 293.634 280.026
C295.874 280.033 297.576 279.271 298.364 277.907
z
" style="fill:#0000ff;stroke:#000000;"/>
   </g>
   <g id="patch_59">
    <path clip-path="url(#p59b5b4f9de)" d="
M274.42 266.675
C275.107 266.675 275.766 266.402 276.252 265.915
C276.739 265.429 277.012 264.77 277.012 264.083
C277.012 263.395 276.739 262.736 276.252 262.25
C275.766 261.764 275.107 261.491 274.42 261.491
C273.732 261.491 273.073 261.764 272.587 262.25
C272.101 262.736 271.828 263.395 271.828 264.083
C271.828 264.77 272.101 265.429 272.587 265.915
C273.073 266.402 273.732 266.675 274.42 266.675
z
" style="stroke:#000000;"/>
   </g>
   <g id="patch_60">
    <path clip-path="url(#p59b5b4f9de)" d="
M274.42 257.171
C275.714 257.171 276.955 256.078 277.87 254.134
C278.785 252.19 279.299 249.552 279.299 246.803
C279.299 244.053 278.785 241.416 277.87 239.471
C276.955 237.527 275.714 236.435 274.42 236.435
C273.126 236.435 271.885 237.527 270.97 239.471
C270.055 241.416 269.54 244.053 269.54 246.803
C269.54 249.552 270.055 252.19 270.97 254.134
C271.885 256.078 273.126 257.171 274.42 257.171
z
" style="fill:#ff6600;stroke:#000000;"/>
   </g>
   <g id="patch_61">
    <path clip-path="url(#p59b5b4f9de)" d="
M274.42 232.115
C275.107 232.115 275.766 231.842 276.252 231.355
C276.739 230.869 277.012 230.21 277.012 229.523
C277.012 228.835 276.739 228.176 276.252 227.69
C275.766 227.204 275.107 226.931 274.42 226.931
C273.732 226.931 273.073 227.204 272.587 227.69
C272.101 228.176 271.828 228.835 271.828 229.523
C271.828 230.21 272.101 230.869 272.587 231.355
C273.073 231.842 273.732 232.115 274.42 232.115
z
" style="stroke:#000000;"/>
   </g>
   <g id="patch_62">
    <path clip-path="url(#p59b5b4f9de)" d="
M268.434 226.067
C269.081 224.946 268.756 223.324 267.53 221.559
C266.303 219.794 264.277 218.03 261.895 216.655
C259.514 215.281 256.973 214.407 254.831 214.228
C252.69 214.048 251.123 214.578 250.476 215.699
C249.829 216.82 250.154 218.441 251.38 220.206
C252.606 221.971 254.633 223.735 257.014 225.11
C259.395 226.485 261.937 227.358 264.078 227.537
C266.22 227.717 267.786 227.188 268.434 226.067
z
" style="fill:#ff6600;stroke:#000000;"/>
   </g>
   <g id="patch_63">
    <path clip-path="url(#p59b5b4f9de)" d="
M244.49 214.835
C245.177 214.835 245.837 214.562 246.323 214.075
C246.809 213.589 247.082 212.93 247.082 212.243
C247.082 211.555 246.809 210.896 246.323 210.41
C245.837 209.924 245.177 209.651 244.49 209.651
C243.802 209.651 243.143 209.924 242.657 210.41
C242.171 210.896 241.898 211.555 241.898 212.243
C241.898 212.93 242.171 213.589 242.657 214.075
C243.143 214.562 243.802 214.835 244.49 214.835
z
" style="stroke:#000000;"/>
   </g>
   <g id="patch_64">
    <path clip-path="url(#p59b5b4f9de)" d="
M244.49 205.331
C246.063 205.331 247.572 204.238 248.684 202.294
C249.796 200.35 250.421 197.712 250.421 194.963
C250.421 192.213 249.796 189.576 248.684 187.631
C247.572 185.687 246.063 184.595 244.49 184.595
C242.917 184.595 241.408 185.687 240.296 187.631
C239.183 189.576 238.558 192.213 238.558 194.963
C238.558 197.712 239.183 200.35 240.296 202.294
C241.408 204.238 242.917 205.331 244.49 205.331
z
" style="fill:#0000ff;stroke:#000000;"/>
   </g>
   <g id="patch_65">
    <path clip-path="url(#p59b5b4f9de)" d="
M244.49 180.275
C245.177 180.275 245.837 180.002 246.323 179.515
C246.809 179.029 247.082 178.37 247.082 177.683
C247.082 176.995 246.809 176.336 246.323 175.85
C245.837 175.364 245.177 175.091 244.49 175.091
C243.802 175.091 243.143 175.364 242.657 175.85
C242.171 176.336 241.898 176.995 241.898 177.683
C241.898 178.37 242.171 179.029 242.657 179.515
C243.143 180.002 243.802 180.275 244.49 180.275
z
" style="stroke:#000000;"/>
   </g>
   <g id="patch_66">
    <path clip-path="url(#p59b5b4f9de)" d="
M238.504 174.227
C239.153 173.102 238.83 171.477 237.606 169.709
C236.381 167.942 234.355 166.176 231.974 164.801
C229.592 163.426 227.05 162.555 224.907 162.378
C222.764 162.201 221.195 162.734 220.546 163.859
C219.897 164.983 220.22 166.609 221.444 168.376
C222.669 170.144 224.695 171.909 227.076 173.284
C229.457 174.659 231.999 175.531 234.142 175.707
C236.285 175.884 237.854 175.351 238.504 174.227
z
" style="fill:#ff6600;stroke:#000000;"/>
   </g>
   <g id="patch_67">
    <path clip-path="url(#p59b5b4f9de)" d="
M214.56 162.995
C215.247 162.995 215.907 162.722 216.393 162.235
C216.879 161.749 217.152 161.09 217.152 160.403
C217.152 159.715 216.879 159.056 216.393 158.57
C215.907 158.084 215.247 157.811 214.56 157.811
C213.873 157.811 213.213 158.084 212.727 158.57
C212.241 159.056 211.968 159.715 211.968 160.403
C211.968 161.09 212.241 161.749 212.727 162.235
C213.213 162.722 213.873 162.995 214.56 162.995
z
" style="stroke:#000000;"/>
   </g>
   <g id="patch_68">
    <path clip-path="url(#p59b5b4f9de)" d="
M214.56 153.491
C215.85 153.491 217.087 152.398 217.999 150.454
C218.911 148.51 219.423 145.872 219.423 143.123
C219.423 140.373 218.911 137.736 217.999 135.791
C217.087 133.847 215.85 132.755 214.56 132.755
C213.27 132.755 212.033 133.847 211.121 135.791
C210.209 137.736 209.697 140.373 209.697 143.123
C209.697 145.872 210.209 148.51 211.121 150.454
C212.033 152.398 213.27 153.491 214.56 153.491
z
" style="fill:#ff6600;stroke:#000000;"/>
   </g>
   <g id="patch_69">
    <path clip-path="url(#p59b5b4f9de)" d="
M214.56 128.435
C215.247 128.435 215.907 128.162 216.393 127.675
C216.879 127.189 217.152 126.53 217.152 125.843
C217.152 125.155 216.879 124.496 216.393 124.01
C215.907 123.524 215.247 123.251 214.56 123.251
C213.873 123.251 213.213 123.524 212.727 124.01
C212.241 124.496 211.968 125.155 211.968 125.843
C211.968 126.53 212.241 127.189 212.727 127.675
C213.213 128.162 213.873 128.435 214.56 128.435
z
" style="stroke:#000000;"/>
   </g>
   <g id="patch_70">
    <path clip-path="url(#p59b5b4f9de)" d="
M208.574 122.387
C209.362 121.022 209.171 119.168 208.044 117.231
C206.917 115.294 204.946 113.434 202.565 112.059
C200.184 110.684 197.587 109.907 195.346 109.9
C193.105 109.892 191.404 110.654 190.616 112.019
C189.829 113.383 190.019 115.237 191.146 117.174
C192.273 119.111 194.244 120.972 196.625 122.346
C199.007 123.721 201.603 124.498 203.844 124.506
C206.085 124.513 207.786 123.751 208.574 122.387
z
" style="fill:#0000ff;stroke:#000000;"/>
   </g>
   <g id="patch_71">
    <path clip-path="url(#p59b5b4f9de)" d="
M184.63 111.155
C185.318 111.155 185.977 110.882 186.463 110.395
C186.949 109.909 187.222 109.25 187.222 108.563
C187.222 107.875 186.949 107.216 186.463 106.73
C185.977 106.244 185.318 105.971 184.63 105.971
C183.943 105.971 183.283 106.244 182.797 106.73
C182.311 107.216 182.038 107.875 182.038 108.563
C182.038 109.25 182.311 109.909 182.797 110.395
C183.283 110.882 183.943 111.155 184.63 111.155
z
" style="stroke:#000000;"/>
   </g>
   <g id="patch_72">
    <path clip-path="url(#p59b5b4f9de)" d="
M184.63 101.651
C185.926 101.651 187.169 100.558 188.085 98.6139
C189.002 96.6696 189.516 94.0323 189.516 91.2826
C189.516 88.533 189.002 85.8956 188.085 83.9513
C187.169 82.0071 185.926 80.9146 184.63 80.9146
C183.334 80.9146 182.091 82.0071 181.175 83.9513
C180.259 85.8956 179.744 88.533 179.744 91.2826
C179.744 94.0323 180.259 96.6696 181.175 98.6139
C182.091 100.558 183.334 101.651 184.63 101.651
z
" style="fill:#ff6600;stroke:#000000;"/>
   </g>
   <g id="patch_73">
    <path clip-path="url(#p59b5b4f9de)" d="
M184.63 76.5946
C185.318 76.5946 185.977 76.3215 186.463 75.8354
C186.949 75.3494 187.222 74.69 187.222 74.0026
C187.222 73.3152 186.949 72.6559 186.463 72.1698
C185.977 71.6837 185.318 71.4106 184.63 71.4106
C183.943 71.4106 183.283 71.6837 182.797 72.1698
C182.311 72.6559 182.038 73.3152 182.038 74.0026
C182.038 74.69 182.311 75.3494 182.797 75.8354
C183.283 76.3215 183.943 76.5946 184.63 76.5946
z
" style="stroke:#000000;"/>
   </g>
   <g id="patch_74">
    <path clip-path="url(#p59b5b4f9de)" d="
M178.644 70.5466
C179.289 69.4295 178.962 67.8118 177.734 66.0497
C176.506 64.2877 174.478 62.5251 172.097 61.1503
C169.716 59.7755 167.176 58.9007 165.036 58.7184
C162.896 58.5362 161.331 59.0615 160.686 60.1786
C160.041 61.2957 160.369 62.9135 161.596 64.6755
C162.824 66.4376 164.852 68.2001 167.233 69.5749
C169.615 70.9497 172.155 71.8246 174.295 72.0068
C176.435 72.189 177.999 71.6637 178.644 70.5466
z
" style="fill:#ff6600;stroke:#000000;"/>
   </g>
   <g id="patch_75">
    <path clip-path="url(#p59b5b4f9de)" d="
M154.7 59.3146
C155.388 59.3146 156.047 59.0415 156.533 58.5554
C157.019 58.0694 157.292 57.41 157.292 56.7226
C157.292 56.0352 157.019 55.3759 156.533 54.8898
C156.047 54.4037 155.388 54.1306 154.7 54.1306
C154.013 54.1306 153.354 54.4037 152.868 54.8898
C152.381 55.3759 152.108 56.0352 152.108 56.7226
C152.108 57.41 152.381 58.0694 152.868 58.5554
C153.354 59.0415 154.013 59.3146 154.7 59.3146
z
" style="stroke:#000000;"/>
   </g>
   <g id="patch_76">
    <path clip-path="url(#p59b5b4f9de)" d="
M154.7 49.8106
C156.273 49.8106 157.782 48.7182 158.894 46.7739
C160.007 44.8296 160.632 42.1923 160.632 39.4426
C160.632 36.693 160.007 34.0556 158.894 32.1113
C157.782 30.1671 156.273 29.0746 154.7 29.0746
C153.127 29.0746 151.619 30.1671 150.506 32.1113
C149.394 34.0556 148.769 36.693 148.769 39.4426
C148.769 42.1923 149.394 44.8296 150.506 46.7739
C151.619 48.7182 153.127 49.8106 154.7 49.8106
z
" style="fill:#0000ff;stroke:#000000;"/>
   </g>
   <g id="patch_77">
    <path clip-path="url(#p59b5b4f9de)" d="
M334.279 360.851
C335.852 360.851 337.361 359.758 338.473 357.814
C339.586 355.87 340.211 353.232 340.211 350.483
C340.211 347.733 339.586 345.096 338.473 343.151
C337.361 341.207 335.852 340.115 334.279 340.115
C332.706 340.115 331.198 341.207 330.085 343.151
C328.973 345.096 328.348 347.733 328.348 350.483
C328.348 353.232 328.973 355.87 330.085 357.814
C331.198 359.758 332.706 360.851 334.279 360.851
z
" style="fill:#0000ff;stroke:#000000;"/>
   </g>
   <g id="patch_78">
    <path clip-path="url(#p59b5b4f9de)" d="
M394.139 335.795
C394.826 335.795 395.486 335.522 395.972 335.035
C396.458 334.549 396.731 333.89 396.731 333.203
C396.731 332.515 396.458 331.856 395.972 331.37
C395.486 330.884 394.826 330.611 394.139 330.611
C393.452 330.611 392.792 330.884 392.306 331.37
C391.82 331.856 391.547 332.515 391.547 333.203
C391.547 333.89 391.82 334.549 392.306 335.035
C392.792 335.522 393.452 335.795 394.139 335.795
z
" style="stroke:#000000;"/>
   </g>
   <g id="patch_79">
    <path clip-path="url(#p59b5b4f9de)" d="
M388.153 329.747
C388.939 328.386 388.746 326.535 387.618 324.6
C386.489 322.666 384.517 320.807 382.136 319.432
C379.755 318.057 377.159 317.279 374.92 317.269
C372.68 317.259 370.981 318.018 370.195 319.379
C369.41 320.739 369.602 322.591 370.731 324.525
C371.859 326.459 373.831 328.318 376.212 329.693
C378.593 331.068 381.189 331.846 383.429 331.856
C385.668 331.866 387.368 331.107 388.153 329.747
z
" style="fill:#0000ff;stroke:#000000;"/>
   </g>
   <g id="patch_80">
    <path clip-path="url(#p59b5b4f9de)" d="
M364.209 318.515
C364.897 318.515 365.556 318.242 366.042 317.755
C366.528 317.269 366.801 316.61 366.801 315.923
C366.801 315.235 366.528 314.576 366.042 314.09
C365.556 313.604 364.897 313.331 364.209 313.331
C363.522 313.331 362.862 313.604 362.376 314.09
C361.89 314.576 361.617 315.235 361.617 315.923
C361.617 316.61 361.89 317.269 362.376 317.755
C362.862 318.242 363.522 318.515 364.209 318.515
z
" style="stroke:#000000;"/>
   </g>
   <g id="patch_81">
    <path clip-path="url(#p59b5b4f9de)" d="
M364.209 309.011
C365.505 309.011 366.748 307.918 367.664 305.974
C368.58 304.03 369.095 301.392 369.095 298.643
C369.095 295.893 368.58 293.256 367.664 291.311
C366.748 289.367 365.505 288.275 364.209 288.275
C362.913 288.275 361.67 289.367 360.754 291.311
C359.838 293.256 359.323 295.893 359.323 298.643
C359.323 301.392 359.838 304.03 360.754 305.974
C361.67 307.918 362.913 309.011 364.209 309.011
z
" style="fill:#ff6600;stroke:#000000;"/>
   </g>
   <g id="patch_82">
    <path clip-path="url(#p59b5b4f9de)" d="
M364.209 283.955
C364.897 283.955 365.556 283.682 366.042 283.195
C366.528 282.709 366.801 282.05 366.801 281.363
C366.801 280.675 366.528 280.016 366.042 279.53
C365.556 279.044 364.897 278.771 364.209 278.771
C363.522 278.771 362.862 279.044 362.376 279.53
C361.89 280.016 361.617 280.675 361.617 281.363
C361.617 282.05 361.89 282.709 362.376 283.195
C362.862 283.682 363.522 283.955 364.209 283.955
z
" style="stroke:#000000;"/>
   </g>
   <g id="patch_83">
    <path clip-path="url(#p59b5b4f9de)" d="
M358.223 277.907
C358.87 276.787 358.544 275.166 357.317 273.402
C356.091 271.638 354.064 269.874 351.683 268.499
C349.301 267.125 346.76 266.251 344.619 266.071
C342.478 265.891 340.912 266.419 340.265 267.539
C339.619 268.659 339.945 270.279 341.171 272.043
C342.398 273.807 344.425 275.571 346.806 276.946
C349.187 278.321 351.728 279.194 353.869 279.375
C356.01 279.555 357.577 279.027 358.223 277.907
z
" style="fill:#ff6600;stroke:#000000;"/>
   </g>
   <g id="patch_84">
    <path clip-path="url(#p59b5b4f9de)" d="
M334.279 266.675
C334.967 266.675 335.626 266.402 336.112 265.915
C336.598 265.429 336.871 264.77 336.871 264.083
C336.871 263.395 336.598 262.736 336.112 262.25
C335.626 261.764 334.967 261.491 334.279 261.491
C333.592 261.491 332.933 261.764 332.447 262.25
C331.96 262.736 331.687 263.395 331.687 264.083
C331.687 264.77 331.96 265.429 332.447 265.915
C332.933 266.402 333.592 266.675 334.279 266.675
z
" style="stroke:#000000;"/>
   </g>
   <g id="patch_85">
    <path clip-path="url(#p59b5b4f9de)" d="
M334.279 257.171
C335.852 257.171 337.361 256.078 338.473 254.134
C339.586 252.19 340.211 249.552 340.211 246.803
C340.211 244.053 339.586 241.416 338.473 239.471
C337.361 237.527 335.852 236.435 334.279 236.435
C332.706 236.435 331.198 237.527 330.085 239.471
C328.973 241.416 328.348 244.053 328.348 246.803
C328.348 249.552 328.973 252.19 330.085 254.134
C331.198 256.078 332.706 257.171 334.279 257.171
z
" style="fill:#0000ff;stroke:#000000;"/>
   </g>
   <g id="patch_86">
    <path clip-path="url(#p59b5b4f9de)" d="
M334.279 232.115
C334.967 232.115 335.626 231.842 336.112 231.355
C336.598 230.869 336.871 230.21 336.871 229.523
C336.871 228.835 336.598 228.176 336.112 227.69
C335.626 227.204 334.967 226.931 334.279 226.931
C333.592 226.931 332.933 227.204 332.447 227.69
C331.96 228.176 331.687 228.835 331.687 229.523
C331.687 230.21 331.96 230.869 332.447 231.355
C332.933 231.842 333.592 232.115 334.279 232.115
z
" style="stroke:#000000;"/>
   </g>
   <g id="patch_87">
    <path clip-path="url(#p59b5b4f9de)" d="
M328.293 226.067
C328.943 224.942 328.619 223.317 327.395 221.55
C326.17 219.783 324.144 218.017 321.762 216.643
C319.381 215.268 316.839 214.396 314.696 214.219
C312.553 214.042 310.985 214.574 310.335 215.699
C309.686 216.823 310.01 218.448 311.234 220.215
C312.459 221.982 314.485 223.748 316.866 225.123
C319.248 226.498 321.79 227.369 323.933 227.546
C326.075 227.723 327.644 227.191 328.293 226.067
z
" style="fill:#ff6600;stroke:#000000;"/>
   </g>
   <g id="patch_88">
    <path clip-path="url(#p59b5b4f9de)" d="
M304.35 214.835
C305.037 214.835 305.696 214.562 306.182 214.075
C306.668 213.589 306.942 212.93 306.942 212.243
C306.942 211.555 306.668 210.896 306.182 210.41
C305.696 209.924 305.037 209.651 304.35 209.651
C303.662 209.651 303.003 209.924 302.517 210.41
C302.031 210.896 301.758 211.555 301.758 212.243
C301.758 212.93 302.031 213.589 302.517 214.075
C303.003 214.562 303.662 214.835 304.35 214.835
z
" style="stroke:#000000;"/>
   </g>
   <g id="patch_89">
    <path clip-path="url(#p59b5b4f9de)" d="
M304.35 205.331
C305.638 205.331 306.875 204.238 307.786 202.294
C308.698 200.35 309.21 197.712 309.21 194.963
C309.21 192.213 308.698 189.576 307.786 187.631
C306.875 185.687 305.638 184.595 304.35 184.595
C303.061 184.595 301.824 185.687 300.913 187.631
C300.001 189.576 299.489 192.213 299.489 194.963
C299.489 197.712 300.001 200.35 300.913 202.294
C301.824 204.238 303.061 205.331 304.35 205.331
z
" style="fill:#ff6600;stroke:#000000;"/>
   </g>
   <g id="patch_90">
    <path clip-path="url(#p59b5b4f9de)" d="
M304.35 180.275
C305.037 180.275 305.696 180.002 306.182 179.515
C306.668 179.029 306.942 178.37 306.942 177.683
C306.942 176.995 306.668 176.336 306.182 175.85
C305.696 175.364 305.037 175.091 304.35 175.091
C303.662 175.091 303.003 175.364 302.517 175.85
C302.031 176.336 301.758 176.995 301.758 177.683
C301.758 178.37 302.031 179.029 302.517 179.515
C303.003 180.002 303.662 180.275 304.35 180.275
z
" style="stroke:#000000;"/>
   </g>
   <g id="patch_91">
    <path clip-path="url(#p59b5b4f9de)" d="
M298.364 174.227
C299.152 172.86 298.963 171.004 297.837 169.065
C296.711 167.127 294.74 165.266 292.359 163.891
C289.978 162.516 287.38 161.74 285.139 161.734
C282.897 161.728 281.194 162.492 280.406 163.859
C279.617 165.225 279.806 167.082 280.932 169.02
C282.058 170.958 284.029 172.819 286.41 174.194
C288.792 175.569 291.389 176.345 293.631 176.351
C295.872 176.357 297.575 175.593 298.364 174.227
z
" style="fill:#0000ff;stroke:#000000;"/>
   </g>
   <g id="patch_92">
    <path clip-path="url(#p59b5b4f9de)" d="
M274.42 162.995
C275.107 162.995 275.766 162.722 276.252 162.235
C276.739 161.749 277.012 161.09 277.012 160.403
C277.012 159.715 276.739 159.056 276.252 158.57
C275.766 158.084 275.107 157.811 274.42 157.811
C273.732 157.811 273.073 158.084 272.587 158.57
C272.101 159.056 271.828 159.715 271.828 160.403
C271.828 161.09 272.101 161.749 272.587 162.235
C273.073 162.722 273.732 162.995 274.42 162.995
z
" style="stroke:#000000;"/>
   </g>
   <g id="patch_93">
    <path clip-path="url(#p59b5b4f9de)" d="
M274.42 153.491
C275.714 153.491 276.955 152.398 277.87 150.454
C278.785 148.51 279.299 145.872 279.299 143.123
C279.299 140.373 278.785 137.736 277.87 135.791
C276.955 133.847 275.714 132.755 274.42 132.755
C273.126 132.755 271.884 133.847 270.969 135.791
C270.054 137.736 269.54 140.373 269.54 143.123
C269.54 145.872 270.054 148.51 270.969 150.454
C271.884 152.398 273.126 153.491 274.42 153.491
z
" style="fill:#ff6600;stroke:#000000;"/>
   </g>
   <g id="patch_94">
    <path clip-path="url(#p59b5b4f9de)" d="
M274.42 128.435
C275.107 128.435 275.766 128.162 276.252 127.675
C276.739 127.189 277.012 126.53 277.012 125.843
C277.012 125.155 276.739 124.496 276.252 124.01
C275.766 123.524 275.107 123.251 274.42 123.251
C273.732 123.251 273.073 123.524 272.587 124.01
C272.101 124.496 271.828 125.155 271.828 125.843
C271.828 126.53 272.101 127.189 272.587 127.675
C273.073 128.162 273.732 128.435 274.42 128.435
z
" style="stroke:#000000;"/>
   </g>
   <g id="patch_95">
    <path clip-path="url(#p59b5b4f9de)" d="
M268.434 122.387
C269.08 121.267 268.754 119.647 267.527 117.884
C266.3 116.12 264.273 114.357 261.892 112.982
C259.51 111.607 256.97 110.733 254.829 110.552
C252.688 110.372 251.122 110.899 250.476 112.019
C249.83 113.138 250.156 114.758 251.383 116.522
C252.609 118.285 254.637 120.049 257.018 121.423
C259.399 122.798 261.94 123.672 264.081 123.853
C266.221 124.033 267.787 123.506 268.434 122.387
z
" style="fill:#ff6600;stroke:#000000;"/>
   </g>
   <g id="patch_96">
    <path clip-path="url(#p59b5b4f9de)" d="
M244.49 111.155
C245.177 111.155 245.837 110.882 246.323 110.395
C246.809 109.909 247.082 109.25 247.082 108.563
C247.082 107.875 246.809 107.216 246.323 106.73
C245.837 106.244 245.177 105.971 244.49 105.971
C243.802 105.971 243.143 106.244 242.657 106.73
C242.171 107.216 241.898 107.875 241.898 108.563
C241.898 109.25 242.171 109.909 242.657 110.395
C243.143 110.882 243.802 111.155 244.49 111.155
z
" style="stroke:#000000;"/>
   </g>
   <g id="patch_97">
    <path clip-path="url(#p59b5b4f9de)" d="
M244.49 101.651
C246.063 101.651 247.571 100.558 248.683 98.6139
C249.796 96.6696 250.421 94.0323 250.421 91.2826
C250.421 88.533 249.796 85.8956 248.683 83.9513
C247.571 82.0071 246.063 80.9146 244.49 80.9146
C242.917 80.9146 241.408 82.0071 240.296 83.9513
C239.184 85.8956 238.559 88.533 238.559 91.2826
C238.559 94.0323 239.184 96.6696 240.296 98.6139
C241.408 100.558 242.917 101.651 244.49 101.651
z
" style="fill:#0000ff;stroke:#000000;"/>
   </g>
   <g id="patch_98">
    <path clip-path="url(#p59b5b4f9de)" d="
M244.49 76.5946
C245.177 76.5946 245.837 76.3215 246.323 75.8354
C246.809 75.3494 247.082 74.69 247.082 74.0026
C247.082 73.3152 246.809 72.6559 246.323 72.1698
C245.837 71.6837 245.177 71.4106 244.49 71.4106
C243.802 71.4106 243.143 71.6837 242.657 72.1698
C242.171 72.6559 241.898 73.3152 241.898 74.0026
C241.898 74.69 242.171 75.3494 242.657 75.8354
C243.143 76.3215 243.802 76.5946 244.49 76.5946
z
" style="stroke:#000000;"/>
   </g>
   <g id="patch_99">
    <path clip-path="url(#p59b5b4f9de)" d="
M238.504 70.5466
C239.151 69.4251 238.826 67.8032 237.6 66.0381
C236.374 64.2729 234.348 62.5087 231.966 61.1338
C229.585 59.759 227.044 58.8859 224.902 58.7068
C222.761 58.5277 221.193 59.0571 220.546 60.1786
C219.898 61.3001 220.223 62.922 221.449 64.6872
C222.675 66.4523 224.702 68.2166 227.083 69.5914
C229.465 70.9662 232.006 71.8393 234.148 72.0185
C236.289 72.1976 237.856 71.6681 238.504 70.5466
z
" style="fill:#ff6600;stroke:#000000;"/>
   </g>
   <g id="patch_100">
    <path clip-path="url(#p59b5b4f9de)" d="
M214.56 59.3146
C215.247 59.3146 215.907 59.0415 216.393 58.5554
C216.879 58.0694 217.152 57.41 217.152 56.7226
C217.152 56.0352 216.879 55.3759 216.393 54.8898
C215.907 54.4037 215.247 54.1306 214.56 54.1306
C213.873 54.1306 213.213 54.4037 212.727 54.8898
C212.241 55.3759 211.968 56.0352 211.968 56.7226
C211.968 57.41 212.241 58.0694 212.727 58.5554
C213.213 59.0415 213.873 59.3146 214.56 59.3146
z
" style="stroke:#000000;"/>
   </g>
   <g id="patch_101">
    <path clip-path="url(#p59b5b4f9de)" d="
M214.56 49.8106
C215.853 49.8106 217.093 48.7182 218.008 46.7739
C218.922 44.8296 219.436 42.1923 219.436 39.4426
C219.436 36.693 218.922 34.0556 218.008 32.1113
C217.093 30.1671 215.853 29.0746 214.56 29.0746
C213.267 29.0746 212.027 30.1671 211.112 32.1113
C210.198 34.0556 209.684 36.693 209.684 39.4426
C209.684 42.1923 210.198 44.8296 211.112 46.7739
C212.027 48.7182 213.267 49.8106 214.56 49.8106
z
" style="fill:#ff6600;stroke:#000000;"/>
   </g>
   <g id="patch_102">
    <path clip-path="url(#p59b5b4f9de)" d="
M394.139 360.851
C395.432 360.851 396.672 359.758 397.587 357.814
C398.501 355.87 399.015 353.232 399.015 350.483
C399.015 347.733 398.501 345.096 397.587 343.151
C396.672 341.207 395.432 340.115 394.139 340.115
C392.846 340.115 391.606 341.207 390.691 343.151
C389.777 345.096 389.263 347.733 389.263 350.483
C389.263 353.232 389.777 355.87 390.691 357.814
C391.606 359.758 392.846 360.851 394.139 360.851
z
" style="fill:#ff6600;stroke:#000000;"/>
   </g>
   <g id="patch_103">
    <path clip-path="url(#p59b5b4f9de)" d="
M220.546 329.747
C221.168 330.824 222.71 331.31 224.834 331.1
C226.957 330.889 229.488 329.999 231.87 328.624
C234.251 327.249 236.288 325.502 237.532 323.769
C238.776 322.035 239.126 320.456 238.504 319.379
C237.882 318.302 236.34 317.815 234.216 318.025
C232.093 318.236 229.561 319.127 227.18 320.501
C224.799 321.876 222.762 323.623 221.518 325.357
C220.274 327.09 219.924 328.67 220.546 329.747
z
" style="fill:#ff6600;stroke:#000000;"/>
   </g>
   <g id="patch_104">
    <path clip-path="url(#p59b5b4f9de)" d="
M190.616 277.907
C191.375 279.221 193.049 279.935 195.269 279.893
C197.49 279.85 200.075 279.053 202.456 277.679
C204.838 276.304 206.82 274.463 207.967 272.561
C209.115 270.66 209.333 268.853 208.574 267.539
C207.815 266.224 206.141 265.51 203.921 265.553
C201.701 265.595 199.115 266.392 196.734 267.767
C194.353 269.142 192.37 270.982 191.223 272.884
C190.076 274.785 189.857 276.592 190.616 277.907
z
" style="fill:#0000ff;stroke:#000000;"/>
   </g>
   <g id="patch_105">
    <path clip-path="url(#p59b5b4f9de)" d="
M160.686 226.067
C161.303 227.135 162.841 227.614 164.961 227.398
C167.081 227.181 169.611 226.287 171.992 224.912
C174.373 223.538 176.412 221.794 177.66 220.067
C178.907 218.339 179.261 216.767 178.644 215.699
C178.027 214.63 176.489 214.151 174.369 214.367
C172.249 214.584 169.72 215.478 167.339 216.853
C164.957 218.228 162.918 219.971 161.671 221.699
C160.423 223.427 160.069 224.998 160.686 226.067
z
" style="fill:#ff6600;stroke:#000000;"/>
   </g>
   <g id="patch_106">
    <path clip-path="url(#p59b5b4f9de)" d="
M130.756 174.227
C131.376 175.299 132.916 175.782 135.037 175.568
C137.159 175.354 139.689 174.461 142.07 173.087
C144.451 171.712 146.489 169.967 147.735 168.237
C148.981 166.506 149.334 164.931 148.714 163.859
C148.095 162.786 146.555 162.304 144.434 162.517
C142.312 162.731 139.782 163.624 137.401 164.999
C135.019 166.373 132.981 168.118 131.735 169.849
C130.489 171.579 130.137 173.154 130.756 174.227
z
" style="fill:#ff6600;stroke:#000000;"/>
   </g>
   <g id="patch_107">
    <path clip-path="url(#p59b5b4f9de)" d="
M100.827 122.387
C101.585 123.701 103.259 124.415 105.48 124.373
C107.7 124.33 110.286 123.533 112.667 122.159
C115.048 120.784 117.031 118.943 118.178 117.041
C119.325 115.14 119.543 113.333 118.785 112.019
C118.026 110.704 116.352 109.99 114.131 110.033
C111.911 110.075 109.326 110.872 106.944 112.247
C104.563 113.622 102.58 115.462 101.433 117.364
C100.286 119.265 100.068 121.072 100.827 122.387
z
" style="fill:#0000ff;stroke:#000000;"/>
   </g>
   <g id="patch_108">
    <path clip-path="url(#p59b5b4f9de)" d="
M70.8968 70.5466
C71.5166 71.6201 73.0571 72.1035 75.1791 71.8905
C77.3012 71.6774 79.8315 70.7852 82.2127 69.4104
C84.594 68.0356 86.6318 66.2904 87.8773 64.5592
C89.1228 62.828 89.4745 61.2521 88.8547 60.1786
C88.2349 59.1051 86.6944 58.6217 84.5723 58.8348
C82.4503 59.0479 79.92 59.94 77.5388 61.3149
C75.1575 62.6897 73.1197 64.4349 71.8742 66.1661
C70.6286 67.8973 70.277 69.4731 70.8968 70.5466
z
" style="fill:#ff6600;stroke:#000000;"/>
   </g>
   <g id="patch_109">
    <path clip-path="url(#p59b5b4f9de)" d="
M280.406 329.747
C281.166 331.064 282.842 331.781 285.063 331.74
C287.285 331.7 289.871 330.904 292.252 329.53
C294.634 328.155 296.615 326.313 297.761 324.409
C298.907 322.506 299.124 320.696 298.364 319.379
C297.603 318.061 295.927 317.344 293.706 317.385
C291.484 317.425 288.898 318.221 286.517 319.596
C284.136 320.97 282.154 322.812 281.008 324.716
C279.862 326.62 279.645 328.429 280.406 329.747
z
" style="fill:#0000ff;stroke:#000000;"/>
   </g>
   <g id="patch_110">
    <path clip-path="url(#p59b5b4f9de)" d="
M250.476 277.907
C251.094 278.977 252.632 279.457 254.753 279.241
C256.873 279.026 259.403 278.132 261.784 276.757
C264.165 275.382 266.204 273.639 267.451 271.91
C268.698 270.181 269.051 268.609 268.434 267.539
C267.816 266.469 266.277 265.989 264.157 266.204
C262.036 266.42 259.507 267.313 257.125 268.688
C254.744 270.063 252.706 271.807 251.459 273.535
C250.212 275.264 249.858 276.837 250.476 277.907
z
" style="fill:#ff6600;stroke:#000000;"/>
   </g>
   <g id="patch_111">
    <path clip-path="url(#p59b5b4f9de)" d="
M220.546 226.067
C221.165 227.139 222.705 227.621 224.826 227.406
C226.947 227.192 229.477 226.3 231.859 224.925
C234.24 223.55 236.278 221.805 237.524 220.075
C238.77 218.345 239.123 216.771 238.504 215.699
C237.885 214.627 236.345 214.145 234.224 214.359
C232.102 214.573 229.572 215.466 227.191 216.84
C224.81 218.215 222.772 219.96 221.526 221.69
C220.279 223.42 219.927 224.995 220.546 226.067
z
" style="fill:#ff6600;stroke:#000000;"/>
   </g>
   <g id="patch_112">
    <path clip-path="url(#p59b5b4f9de)" d="
M190.616 174.227
C191.375 175.541 193.049 176.255 195.269 176.212
C197.489 176.169 200.075 175.373 202.456 173.998
C204.837 172.623 206.82 170.782 207.967 168.881
C209.114 166.979 209.333 165.173 208.574 163.859
C207.815 162.545 206.142 161.83 203.921 161.873
C201.701 161.916 199.115 162.713 196.734 164.087
C194.353 165.462 192.37 167.303 191.223 169.204
C190.076 171.106 189.857 172.913 190.616 174.227
z
" style="fill:#0000ff;stroke:#000000;"/>
   </g>
   <g id="patch_113">
    <path clip-path="url(#p59b5b4f9de)" d="
M160.686 122.387
C161.304 123.456 162.842 123.935 164.962 123.719
C167.082 123.503 169.611 122.609 171.993 121.234
C174.374 119.859 176.413 118.116 177.66 116.387
C178.907 114.659 179.261 113.088 178.644 112.019
C178.027 110.95 176.489 110.47 174.369 110.687
C172.248 110.903 169.719 111.797 167.338 113.171
C164.957 114.546 162.918 116.29 161.67 118.018
C160.423 119.746 160.069 121.318 160.686 122.387
z
" style="fill:#ff6600;stroke:#000000;"/>
   </g>
   <g id="patch_114">
    <path clip-path="url(#p59b5b4f9de)" d="
M130.756 70.5466
C131.379 71.6249 132.922 72.1129 135.046 71.9032
C137.17 71.6935 139.702 70.8032 142.083 69.4284
C144.464 68.0536 146.501 66.3065 147.744 64.5719
C148.988 62.8373 149.337 61.2569 148.714 60.1786
C148.092 59.1004 146.549 58.6123 144.425 58.822
C142.301 59.0317 139.769 59.922 137.388 61.2968
C135.007 62.6716 132.97 64.4187 131.726 66.1533
C130.483 67.8879 130.134 69.4684 130.756 70.5466
z
" style="fill:#ff6600;stroke:#000000;"/>
   </g>
   <g id="patch_115">
    <path clip-path="url(#p59b5b4f9de)" d="
M340.265 329.747
C340.886 330.821 342.427 331.305 344.549 331.093
C346.672 330.881 349.202 329.989 351.583 328.614
C353.965 327.239 356.002 325.494 357.247 323.762
C358.492 322.03 358.844 320.453 358.223 319.379
C357.603 318.304 356.062 317.82 353.939 318.032
C351.817 318.245 349.287 319.137 346.905 320.511
C344.524 321.886 342.486 323.632 341.241 325.364
C339.996 327.095 339.645 328.672 340.265 329.747
z
" style="fill:#ff6600;stroke:#000000;"/>
   </g>
   <g id="patch_116">
    <path clip-path="url(#p59b5b4f9de)" d="
M310.335 277.907
C310.955 278.979 312.495 279.462 314.617 279.249
C316.739 279.035 319.269 278.143 321.65 276.768
C324.031 275.393 326.069 273.648 327.315 271.917
C328.561 270.187 328.913 268.611 328.293 267.539
C327.674 266.466 326.134 265.983 324.012 266.197
C321.89 266.41 319.36 267.303 316.979 268.678
C314.598 270.052 312.56 271.797 311.314 273.528
C310.068 275.259 309.716 276.834 310.335 277.907
z
" style="fill:#ff6600;stroke:#000000;"/>
   </g>
   <g id="patch_117">
    <path clip-path="url(#p59b5b4f9de)" d="
M280.406 226.067
C281.164 227.381 282.838 228.095 285.058 228.052
C287.279 228.009 289.864 227.213 292.245 225.838
C294.627 224.463 296.609 222.622 297.757 220.721
C298.904 218.819 299.122 217.013 298.364 215.699
C297.605 214.385 295.931 213.67 293.711 213.713
C291.49 213.756 288.905 214.553 286.524 215.927
C284.142 217.302 282.16 219.143 281.013 221.044
C279.865 222.946 279.647 224.753 280.406 226.067
z
" style="fill:#0000ff;stroke:#000000;"/>
   </g>
   <g id="patch_118">
    <path clip-path="url(#p59b5b4f9de)" d="
M250.476 174.227
C251.093 175.295 252.63 175.773 254.75 175.557
C256.87 175.34 259.399 174.445 261.78 173.071
C264.162 171.696 266.201 169.953 267.448 168.225
C268.696 166.498 269.05 164.927 268.434 163.859
C267.817 162.79 266.279 162.312 264.159 162.529
C262.04 162.746 259.51 163.64 257.129 165.015
C254.748 166.389 252.709 168.133 251.461 169.86
C250.214 171.588 249.859 173.158 250.476 174.227
z
" style="fill:#ff6600;stroke:#000000;"/>
   </g>
   <g id="patch_119">
    <path clip-path="url(#p59b5b4f9de)" d="
M220.546 122.387
C221.166 123.46 222.707 123.944 224.829 123.731
C226.951 123.518 229.481 122.626 231.862 121.251
C234.244 119.877 236.281 118.131 237.527 116.4
C238.772 114.669 239.124 113.092 238.504 112.019
C237.884 110.945 236.343 110.461 234.221 110.674
C232.099 110.887 229.569 111.779 227.187 113.154
C224.806 114.529 222.768 116.274 221.523 118.005
C220.277 119.737 219.926 121.313 220.546 122.387
z
" style="fill:#ff6600;stroke:#000000;"/>
   </g>
   <g id="patch_120">
    <path clip-path="url(#p59b5b4f9de)" d="
M190.616 70.5466
C191.377 71.864 193.052 72.5813 195.274 72.5407
C197.495 72.5 200.082 71.7047 202.463 70.3299
C204.844 68.9551 206.826 67.113 207.972 65.2094
C209.118 63.3057 209.335 61.496 208.574 60.1786
C207.813 58.8613 206.138 58.144 203.916 58.1846
C201.695 58.2252 199.108 59.0205 196.727 60.3954
C194.346 61.7702 192.364 63.6122 191.218 65.5159
C190.072 67.4195 189.856 69.2293 190.616 70.5466
z
" style="fill:#0000ff;stroke:#000000;"/>
   </g>
   <g id="matplotlib.axis_1"/>
   <g id="matplotlib.axis_2"/>
   <g id="patch_121">
    <path d="
M7.2 22.1626
L421.92 22.1626" style="fill:none;stroke:#000000;"/>
   </g>
   <g id="patch_122">
    <path d="
M421.92 367.763
L421.92 22.1626" style="fill:none;stroke:#000000;"/>
   </g>
   <g id="patch_123">
    <path d="
M7.2 367.763
L421.92 367.763" style="fill:none;stroke:#000000;"/>
   </g>
   <g id="patch_124">
    <path d="
M7.2 367.763
L7.2 22.1626" style="fill:none;stroke:#000000;"/>
   </g>
   <g id="text_1">
    <!-- $V_1 = 5.6, \ V_2 = 1.6$ -->
    <defs>
     <path d="
M61.9062 56.7188
C65.2969 62.1094 68.4062 64.5 73.5 64.9062
C74.5 65 75.2969 65 75.2969 66.7344
C75.2969 67.125 75.0938 67.7031 74.2031 67.7031
C72.4062 67.7031 68.0938 67.7031 66.2969 67.7031
C63.4062 67.7031 60.4062 67.7031 57.5938 67.7031
C56.7969 67.7031 55.7969 67.7031 55.7969 65.9375
C55.7969 65.0938 56.7031 65 57.0938 65
C60.7969 64.7031 61.2031 62.9062 61.2031 61.7031
C61.2031 60.1875 59.7969 57.8906 59.7031 57.7969
L28.2969 7.98438
L21.2969 61.8125
C21.2969 65 26.5 65 27.5938 65
C29.0938 65 30 65 30 66.7656
C30 67.7031 28.9062 67.7031 28.5938 67.7031
C26.9062 67.7031 24.9062 67.7031 23.2031 67.7031
L17.5938 67.7031
C10.2969 67.7031 7.29688 67.7031 7.20312 67.7031
C6.59375 67.7031 5.40625 67.7031 5.40625 66.0156
C5.40625 65 6.09375 65 7.70312 65
C12.7969 65 13.0938 64.0938 13.4062 61.6094
L21.4062 -0.109375
C21.7031 -2.20312 21.7031 -2.5 23.0938 -2.5
C24.2969 -2.5 24.7969 -2.20312 25.7969 -0.609375
z
" id="CMMI12-86"/>
     <path d="
M64.2969 31.5156
C65.7969 31.5156 67.2969 31.5156 67.2969 33.2031
C67.2969 35 65.5938 35 63.9062 35
L8 35
C6.29688 35 4.59375 35 4.59375 33.2031
C4.59375 31.5156 6.09375 31.5156 7.59375 31.5156
z

M63.9062 14
C65.5938 14 67.2969 14 67.2969 15.7969
C67.2969 17.4844 65.7969 17.4844 64.2969 17.4844
L7.59375 17.4844
C6.09375 17.4844 4.59375 17.4844 4.59375 15.7969
C4.59375 14 6.29688 14 8 14
z
" id="CMR17-61"/>
     <path d="
M41.7031 15.4531
L39.9062 15.4531
C38.9062 8.375 38.0938 7.17188 37.7031 6.5625
C37.2031 5.76562 30 5.76562 28.5938 5.76562
L9.40625 5.76562
C13 9.67188 20 16.75 28.5 24.9531
C34.5938 30.7344 41.7031 37.5312 41.7031 47.4219
C41.7031 59.2188 32.2969 66 21.7969 66
C10.7969 66 4.09375 56.3125 4.09375 47.3438
C4.09375 43.4375 7 42.9375 8.20312 42.9375
C9.20312 42.9375 12.2031 43.5469 12.2031 47.0312
C12.2031 50.1094 9.59375 51 8.20312 51
C7.59375 51 7 50.9062 6.59375 50.7031
C8.5 59.2188 14.2969 63.4062 20.4062 63.4062
C29.0938 63.4062 34.7969 56.5156 34.7969 47.4219
C34.7969 38.7344 29.7031 31.25 24 24.75
L4.09375 2.28125
L4.09375 0
L39.2969 0
z
" id="CMR17-50"/>
     <path d="
M11.4062 57.6875
C12.4062 57.2812 16.5 56 20.7031 56
C30 56 35.0938 61.0156 38 63.9219
C38 64.7344 38 65.25 37.4062 65.25
C37.2969 65.25 37.0938 65.25 36.2969 64.8281
C32.7969 63.3125 28.7031 62.0781 23.7031 62.0781
C20.7031 62.0781 16.2031 62.5 11.2969 64.7344
C10.2031 65.25 10 65.25 9.90625 65.25
C9.40625 65.25 9.29688 65.1406 9.29688 63.1562
L9.29688 34.2812
C9.29688 32.5 9.29688 32 10.2969 32
C10.7969 32 11 32.2031 11.5 32.9062
C14.7031 37.4844 19.0938 39.4062 24.0938 39.4062
C27.5938 39.4062 35.0938 37.2188 35.0938 20.1406
C35.0938 16.9531 35.0938 11.1719 32.0938 6.57812
C29.5938 2.48438 25.7031 0.390625 21.4062 0.390625
C14.7969 0.390625 8.09375 5 6.29688 12.7188
C6.70312 12.6094 7.5 12.4219 7.90625 12.4219
C9.20312 12.4219 11.7031 13.125 11.7031 16.2188
C11.7031 18.9062 9.79688 20 7.90625 20
C5.59375 20 4.09375 18.5938 4.09375 15.7969
C4.09375 7.09375 11 -2 21.5938 -2
C31.9062 -2 41.7031 6.875 41.7031 19.75
C41.7031 31.7188 33.9062 41 24.2031 41
C19.0938 41 14.7969 39.0938 11.4062 35.4531
z
" id="CMR17-53"/>
     <path d="
M10.5938 34
C10.5938 57.6562 21.7969 63 28.2969 63
C30.4062 63 35.5 62.6406 37.5 59
C35.9062 59 32.9062 59 32.9062 55.5156
C32.9062 52.8281 35.0938 51.9219 36.5 51.9219
C37.4062 51.9219 40.0938 52.3125 40.0938 55.625
C40.0938 61.7812 35.0938 65.2969 28.2031 65.2969
C16.2969 65.2969 3.79688 52.9688 3.79688 31
C3.79688 3.95312 15.0938 -2 23.0938 -2
C32.7969 -2 42 6.67188 42 20.0469
C42 32.5156 33.9062 41.5938 23.7031 41.5938
C17.5938 41.5938 13.0938 37.6094 10.5938 30.625
z

M23.0938 0.390625
C10.7969 0.390625 10.7969 18.75 10.7969 22.4375
C10.7969 29.625 14.2031 40 23.5 40
C25.2031 40 30.0938 40 33.4062 33.125
C35.2031 29.2188 35.2031 25.1406 35.2031 20.1406
C35.2031 14.75 35.2031 10.7812 33.0938 6.78125
C30.9062 2.67188 27.7031 0.390625 23.0938 0.390625" id="CMR17-54"/>
     <path d="
M26.5938 63.3125
C26.5938 65.4062 26.5 65.5 25.0938 65.5
C21.2031 61.1875 15.2969 59.7969 9.70312 59.7969
C9.40625 59.7969 8.90625 59.7969 8.79688 59.5
C8.70312 59.2969 8.70312 59.0938 8.70312 57
C11.7969 57 17 57.5938 21 59.9844
L21 7.20312
C21 3.6875 20.7969 2.5 12.2031 2.5
L9.20312 2.5
L9.20312 0
C14 0 19 0 23.7969 0
C28.5938 0 33.5938 0 38.4062 0
L38.4062 2.5
L35.4062 2.5
C26.7969 2.5 26.5938 3.59375 26.5938 7.15625
z
" id="CMR17-49"/>
     <path d="
M18.4062 4.79688
C18.4062 7.6875 16 9.67188 13.5938 9.67188
C10.7031 9.67188 8.70312 7.28125 8.70312 4.89062
C8.70312 2 11.0938 0 13.5 0
C16.4062 0 18.4062 2.39062 18.4062 4.79688" id="CMMI12-58"/>
     <path d="
M19.5 -0.484375
C19.5 5.35938 17.5938 9.67188 13.5 9.67188
C10.2969 9.67188 8.70312 7.07812 8.70312 4.89062
C8.70312 2.6875 10.2031 0 13.5938 0
C14.9062 0 16 0.40625 16.9062 1.29688
C17.0938 1.5 17.2031 1.5 17.2969 1.5
C17.5 1.5 17.5 0.078125 17.5 -0.421875
C17.5 -3.75 16.9062 -10.2969 11.0938 -16.875
C10 -18.0781 10 -18.2812 10 -18.4844
C10 -19 10.5 -19.5 11 -19.5
C11.7969 -19.5 19.5 -12.0469 19.5 -0.484375" id="CMMI12-59"/>
    </defs>
    <g transform="translate(158.55895959 17.1626248978)scale(0.144 -0.144)">
     <use transform="translate(0.0 14.9439145441)scale(0.996264009963)" xlink:href="#CMMI12-86"/>
     <use transform="translate(56.8695790444 0.0)scale(0.697381766617)" xlink:href="#CMR17-49"/>
     <use transform="translate(117.024901736 14.9439145441)scale(0.996264009963)" xlink:href="#CMR17-61"/>
     <use transform="translate(216.413698873 14.9439145441)scale(0.996264009963)" xlink:href="#CMR17-53"/>
     <use transform="translate(262.10417599 14.9439145441)scale(0.996264009963)" xlink:href="#CMMI12-58"/>
     <use transform="translate(289.20135308 14.9439145441)scale(0.996264009963)" xlink:href="#CMR17-54"/>
     <use transform="translate(334.891830197 14.9439145441)scale(0.996264009963)" xlink:href="#CMMI12-59"/>
     <use transform="translate(408.669378867 14.9439145441)scale(0.996264009963)" xlink:href="#CMMI12-86"/>
     <use transform="translate(465.538957912 0.0)scale(0.697381766617)" xlink:href="#CMR17-50"/>
     <use transform="translate(525.694280603 14.9439145441)scale(0.996264009963)" xlink:href="#CMR17-61"/>
     <use transform="translate(625.083077741 14.9439145441)scale(0.996264009963)" xlink:href="#CMR17-49"/>
     <use transform="translate(670.773554858 14.9439145441)scale(0.996264009963)" xlink:href="#CMMI12-58"/>
     <use transform="translate(697.870731948 14.9439145441)scale(0.996264009963)" xlink:href="#CMR17-54"/>
    </g>
   </g>
  </g>
 </g>
 <defs>
  <clipPath id="p59b5b4f9de">
   <rect height="345.6" width="414.72" x="7.2" y="22.1626248978"/>
  </clipPath>
 </defs>
</svg>
