<?xml version="1.0" encoding="utf-8" standalone="no"?>
<!DOCTYPE svg PUBLIC "-//W3C//DTD SVG 1.1//EN"
  "http://www.w3.org/Graphics/SVG/1.1/DTD/svg11.dtd">
<!-- Created with matplotlib (http://matplotlib.org/) -->
<svg height="374pt" version="1.1" viewBox="0 0 429 374" width="429pt" xmlns="http://www.w3.org/2000/svg" xmlns:xlink="http://www.w3.org/1999/xlink">
 <defs>
  <style type="text/css">
*{stroke-linecap:butt;stroke-linejoin:round;}
  </style>
 </defs>
 <g id="figure_1">
  <g id="patch_1">
   <path d="
M0 374.963
L429.12 374.963
L429.12 0
L0 0
z
" style="fill:#ffffff;"/>
  </g>
  <g id="axes_1">
   <g id="patch_2">
    <path d="
M7.2 367.763
L421.92 367.763
L421.92 22.1626
L7.2 22.1626
z
" style="fill:#ffffff;"/>
   </g>
   <g id="line2d_1">
    <path clip-path="url(#p59b5b4f9de)" d="
M214.56 333.203
L184.63 315.923" style="fill:none;opacity:0.5;stroke:#262626;stroke-linecap:square;stroke-width:2;"/>
   </g>
   <g id="line2d_2">
    <path clip-path="url(#p59b5b4f9de)" d="
M184.63 315.923
L184.63 281.363" style="fill:none;opacity:0.5;stroke:#262626;stroke-linecap:square;stroke-width:2;"/>
   </g>
   <g id="line2d_3">
    <path clip-path="url(#p59b5b4f9de)" d="
M184.63 281.363
L154.7 264.083" style="fill:none;opacity:0.5;stroke:#262626;stroke-linecap:square;stroke-width:2;"/>
   </g>
   <g id="line2d_4">
    <path clip-path="url(#p59b5b4f9de)" d="
M154.7 264.083
L154.7 229.523" style="fill:none;opacity:0.5;stroke:#262626;stroke-linecap:square;stroke-width:2;"/>
   </g>
   <g id="line2d_5">
    <path clip-path="url(#p59b5b4f9de)" d="
M154.7 229.523
L124.77 212.243" style="fill:none;opacity:0.5;stroke:#262626;stroke-linecap:square;stroke-width:2;"/>
   </g>
   <g id="line2d_6">
    <path clip-path="url(#p59b5b4f9de)" d="
M124.77 212.243
L124.77 177.683" style="fill:none;opacity:0.5;stroke:#262626;stroke-linecap:square;stroke-width:2;"/>
   </g>
   <g id="line2d_7">
    <path clip-path="url(#p59b5b4f9de)" d="
M124.77 177.683
L94.8406 160.403" style="fill:none;opacity:0.5;stroke:#262626;stroke-linecap:square;stroke-width:2;"/>
   </g>
   <g id="line2d_8">
    <path clip-path="url(#p59b5b4f9de)" d="
M94.8406 160.403
L94.8406 125.843" style="fill:none;opacity:0.5;stroke:#262626;stroke-linecap:square;stroke-width:2;"/>
   </g>
   <g id="line2d_9">
    <path clip-path="url(#p59b5b4f9de)" d="
M94.8406 125.843
L64.9108 108.563" style="fill:none;opacity:0.5;stroke:#262626;stroke-linecap:square;stroke-width:2;"/>
   </g>
   <g id="line2d_10">
    <path clip-path="url(#p59b5b4f9de)" d="
M64.9108 108.563
L64.9108 74.0026" style="fill:none;opacity:0.5;stroke:#262626;stroke-linecap:square;stroke-width:2;"/>
   </g>
   <g id="line2d_11">
    <path clip-path="url(#p59b5b4f9de)" d="
M64.9108 74.0026
L34.981 56.7226" style="fill:none;opacity:0.5;stroke:#262626;stroke-linecap:square;stroke-width:2;"/>
   </g>
   <g id="line2d_12">
    <path clip-path="url(#p59b5b4f9de)" d="
M274.42 333.203
L244.49 315.923" style="fill:none;opacity:0.5;stroke:#262626;stroke-linecap:square;stroke-width:2;"/>
   </g>
   <g id="line2d_13">
    <path clip-path="url(#p59b5b4f9de)" d="
M244.49 315.923
L244.49 281.363" style="fill:none;opacity:0.5;stroke:#262626;stroke-linecap:square;stroke-width:2;"/>
   </g>
   <g id="line2d_14">
    <path clip-path="url(#p59b5b4f9de)" d="
M244.49 281.363
L214.56 264.083" style="fill:none;opacity:0.5;stroke:#262626;stroke-linecap:square;stroke-width:2;"/>
   </g>
   <g id="line2d_15">
    <path clip-path="url(#p59b5b4f9de)" d="
M214.56 264.083
L214.56 229.523" style="fill:none;opacity:0.5;stroke:#262626;stroke-linecap:square;stroke-width:2;"/>
   </g>
   <g id="line2d_16">
    <path clip-path="url(#p59b5b4f9de)" d="
M214.56 229.523
L184.63 212.243" style="fill:none;opacity:0.5;stroke:#262626;stroke-linecap:square;stroke-width:2;"/>
   </g>
   <g id="line2d_17">
    <path clip-path="url(#p59b5b4f9de)" d="
M184.63 212.243
L184.63 177.683" style="fill:none;opacity:0.5;stroke:#262626;stroke-linecap:square;stroke-width:2;"/>
   </g>
   <g id="line2d_18">
    <path clip-path="url(#p59b5b4f9de)" d="
M184.63 177.683
L154.7 160.403" style="fill:none;opacity:0.5;stroke:#262626;stroke-linecap:square;stroke-width:2;"/>
   </g>
   <g id="line2d_19">
    <path clip-path="url(#p59b5b4f9de)" d="
M154.7 160.403
L154.7 125.843" style="fill:none;opacity:0.5;stroke:#262626;stroke-linecap:square;stroke-width:2;"/>
   </g>
   <g id="line2d_20">
    <path clip-path="url(#p59b5b4f9de)" d="
M154.7 125.843
L124.77 108.563" style="fill:none;opacity:0.5;stroke:#262626;stroke-linecap:square;stroke-width:2;"/>
   </g>
   <g id="line2d_21">
    <path clip-path="url(#p59b5b4f9de)" d="
M124.77 108.563
L124.77 74.0026" style="fill:none;opacity:0.5;stroke:#262626;stroke-linecap:square;stroke-width:2;"/>
   </g>
   <g id="line2d_22">
    <path clip-path="url(#p59b5b4f9de)" d="
M124.77 74.0026
L94.8406 56.7226" style="fill:none;opacity:0.5;stroke:#262626;stroke-linecap:square;stroke-width:2;"/>
   </g>
   <g id="line2d_23">
    <path clip-path="url(#p59b5b4f9de)" d="
M334.279 333.203
L304.35 315.923" style="fill:none;opacity:0.5;stroke:#262626;stroke-linecap:square;stroke-width:2;"/>
   </g>
   <g id="line2d_24">
    <path clip-path="url(#p59b5b4f9de)" d="
M304.35 315.923
L304.35 281.363" style="fill:none;opacity:0.5;stroke:#262626;stroke-linecap:square;stroke-width:2;"/>
   </g>
   <g id="line2d_25">
    <path clip-path="url(#p59b5b4f9de)" d="
M304.35 281.363
L274.42 264.083" style="fill:none;opacity:0.5;stroke:#262626;stroke-linecap:square;stroke-width:2;"/>
   </g>
   <g id="line2d_26">
    <path clip-path="url(#p59b5b4f9de)" d="
M274.42 264.083
L274.42 229.523" style="fill:none;opacity:0.5;stroke:#262626;stroke-linecap:square;stroke-width:2;"/>
   </g>
   <g id="line2d_27">
    <path clip-path="url(#p59b5b4f9de)" d="
M274.42 229.523
L244.49 212.243" style="fill:none;opacity:0.5;stroke:#262626;stroke-linecap:square;stroke-width:2;"/>
   </g>
   <g id="line2d_28">
    <path clip-path="url(#p59b5b4f9de)" d="
M244.49 212.243
L244.49 177.683" style="fill:none;opacity:0.5;stroke:#262626;stroke-linecap:square;stroke-width:2;"/>
   </g>
   <g id="line2d_29">
    <path clip-path="url(#p59b5b4f9de)" d="
M244.49 177.683
L214.56 160.403" style="fill:none;opacity:0.5;stroke:#262626;stroke-linecap:square;stroke-width:2;"/>
   </g>
   <g id="line2d_30">
    <path clip-path="url(#p59b5b4f9de)" d="
M214.56 160.403
L214.56 125.843" style="fill:none;opacity:0.5;stroke:#262626;stroke-linecap:square;stroke-width:2;"/>
   </g>
   <g id="line2d_31">
    <path clip-path="url(#p59b5b4f9de)" d="
M214.56 125.843
L184.63 108.563" style="fill:none;opacity:0.5;stroke:#262626;stroke-linecap:square;stroke-width:2;"/>
   </g>
   <g id="line2d_32">
    <path clip-path="url(#p59b5b4f9de)" d="
M184.63 108.563
L184.63 74.0026" style="fill:none;opacity:0.5;stroke:#262626;stroke-linecap:square;stroke-width:2;"/>
   </g>
   <g id="line2d_33">
    <path clip-path="url(#p59b5b4f9de)" d="
M184.63 74.0026
L154.7 56.7226" style="fill:none;opacity:0.5;stroke:#262626;stroke-linecap:square;stroke-width:2;"/>
   </g>
   <g id="line2d_34">
    <path clip-path="url(#p59b5b4f9de)" d="
M394.139 333.203
L364.209 315.923" style="fill:none;opacity:0.5;stroke:#262626;stroke-linecap:square;stroke-width:2;"/>
   </g>
   <g id="line2d_35">
    <path clip-path="url(#p59b5b4f9de)" d="
M364.209 315.923
L364.209 281.363" style="fill:none;opacity:0.5;stroke:#262626;stroke-linecap:square;stroke-width:2;"/>
   </g>
   <g id="line2d_36">
    <path clip-path="url(#p59b5b4f9de)" d="
M364.209 281.363
L334.279 264.083" style="fill:none;opacity:0.5;stroke:#262626;stroke-linecap:square;stroke-width:2;"/>
   </g>
   <g id="line2d_37">
    <path clip-path="url(#p59b5b4f9de)" d="
M334.279 264.083
L334.279 229.523" style="fill:none;opacity:0.5;stroke:#262626;stroke-linecap:square;stroke-width:2;"/>
   </g>
   <g id="line2d_38">
    <path clip-path="url(#p59b5b4f9de)" d="
M334.279 229.523
L304.35 212.243" style="fill:none;opacity:0.5;stroke:#262626;stroke-linecap:square;stroke-width:2;"/>
   </g>
   <g id="line2d_39">
    <path clip-path="url(#p59b5b4f9de)" d="
M304.35 212.243
L304.35 177.683" style="fill:none;opacity:0.5;stroke:#262626;stroke-linecap:square;stroke-width:2;"/>
   </g>
   <g id="line2d_40">
    <path clip-path="url(#p59b5b4f9de)" d="
M304.35 177.683
L274.42 160.403" style="fill:none;opacity:0.5;stroke:#262626;stroke-linecap:square;stroke-width:2;"/>
   </g>
   <g id="line2d_41">
    <path clip-path="url(#p59b5b4f9de)" d="
M274.42 160.403
L274.42 125.843" style="fill:none;opacity:0.5;stroke:#262626;stroke-linecap:square;stroke-width:2;"/>
   </g>
   <g id="line2d_42">
    <path clip-path="url(#p59b5b4f9de)" d="
M274.42 125.843
L244.49 108.563" style="fill:none;opacity:0.5;stroke:#262626;stroke-linecap:square;stroke-width:2;"/>
   </g>
   <g id="line2d_43">
    <path clip-path="url(#p59b5b4f9de)" d="
M244.49 108.563
L244.49 74.0026" style="fill:none;opacity:0.5;stroke:#262626;stroke-linecap:square;stroke-width:2;"/>
   </g>
   <g id="line2d_44">
    <path clip-path="url(#p59b5b4f9de)" d="
M244.49 74.0026
L214.56 56.7226" style="fill:none;opacity:0.5;stroke:#262626;stroke-linecap:square;stroke-width:2;"/>
   </g>
   <g id="line2d_45">
    <path clip-path="url(#p59b5b4f9de)" d="
M214.56 333.203
L244.49 315.923" style="fill:none;opacity:0.5;stroke:#262626;stroke-linecap:square;stroke-width:2;"/>
   </g>
   <g id="line2d_46">
    <path clip-path="url(#p59b5b4f9de)" d="
M184.63 281.363
L214.56 264.083" style="fill:none;opacity:0.5;stroke:#262626;stroke-linecap:square;stroke-width:2;"/>
   </g>
   <g id="line2d_47">
    <path clip-path="url(#p59b5b4f9de)" d="
M154.7 229.523
L184.63 212.243" style="fill:none;opacity:0.5;stroke:#262626;stroke-linecap:square;stroke-width:2;"/>
   </g>
   <g id="line2d_48">
    <path clip-path="url(#p59b5b4f9de)" d="
M124.77 177.683
L154.7 160.403" style="fill:none;opacity:0.5;stroke:#262626;stroke-linecap:square;stroke-width:2;"/>
   </g>
   <g id="line2d_49">
    <path clip-path="url(#p59b5b4f9de)" d="
M94.8406 125.843
L124.77 108.563" style="fill:none;opacity:0.5;stroke:#262626;stroke-linecap:square;stroke-width:2;"/>
   </g>
   <g id="line2d_50">
    <path clip-path="url(#p59b5b4f9de)" d="
M64.9108 74.0026
L94.8406 56.7226" style="fill:none;opacity:0.5;stroke:#262626;stroke-linecap:square;stroke-width:2;"/>
   </g>
   <g id="line2d_51">
    <path clip-path="url(#p59b5b4f9de)" d="
M274.42 333.203
L304.35 315.923" style="fill:none;opacity:0.5;stroke:#262626;stroke-linecap:square;stroke-width:2;"/>
   </g>
   <g id="line2d_52">
    <path clip-path="url(#p59b5b4f9de)" d="
M244.49 281.363
L274.42 264.083" style="fill:none;opacity:0.5;stroke:#262626;stroke-linecap:square;stroke-width:2;"/>
   </g>
   <g id="line2d_53">
    <path clip-path="url(#p59b5b4f9de)" d="
M214.56 229.523
L244.49 212.243" style="fill:none;opacity:0.5;stroke:#262626;stroke-linecap:square;stroke-width:2;"/>
   </g>
   <g id="line2d_54">
    <path clip-path="url(#p59b5b4f9de)" d="
M184.63 177.683
L214.56 160.403" style="fill:none;opacity:0.5;stroke:#262626;stroke-linecap:square;stroke-width:2;"/>
   </g>
   <g id="line2d_55">
    <path clip-path="url(#p59b5b4f9de)" d="
M154.7 125.843
L184.63 108.563" style="fill:none;opacity:0.5;stroke:#262626;stroke-linecap:square;stroke-width:2;"/>
   </g>
   <g id="line2d_56">
    <path clip-path="url(#p59b5b4f9de)" d="
M124.77 74.0026
L154.7 56.7226" style="fill:none;opacity:0.5;stroke:#262626;stroke-linecap:square;stroke-width:2;"/>
   </g>
   <g id="line2d_57">
    <path clip-path="url(#p59b5b4f9de)" d="
M334.279 333.203
L364.209 315.923" style="fill:none;opacity:0.5;stroke:#262626;stroke-linecap:square;stroke-width:2;"/>
   </g>
   <g id="line2d_58">
    <path clip-path="url(#p59b5b4f9de)" d="
M304.35 281.363
L334.279 264.083" style="fill:none;opacity:0.5;stroke:#262626;stroke-linecap:square;stroke-width:2;"/>
   </g>
   <g id="line2d_59">
    <path clip-path="url(#p59b5b4f9de)" d="
M274.42 229.523
L304.35 212.243" style="fill:none;opacity:0.5;stroke:#262626;stroke-linecap:square;stroke-width:2;"/>
   </g>
   <g id="line2d_60">
    <path clip-path="url(#p59b5b4f9de)" d="
M244.49 177.683
L274.42 160.403" style="fill:none;opacity:0.5;stroke:#262626;stroke-linecap:square;stroke-width:2;"/>
   </g>
   <g id="line2d_61">
    <path clip-path="url(#p59b5b4f9de)" d="
M214.56 125.843
L244.49 108.563" style="fill:none;opacity:0.5;stroke:#262626;stroke-linecap:square;stroke-width:2;"/>
   </g>
   <g id="line2d_62">
    <path clip-path="url(#p59b5b4f9de)" d="
M184.63 74.0026
L214.56 56.7226" style="fill:none;opacity:0.5;stroke:#262626;stroke-linecap:square;stroke-width:2;"/>
   </g>
   <g id="matplotlib.axis_1"/>
   <g id="matplotlib.axis_2"/>
   <g id="patch_3">
    <path d="
M7.2 22.1626
L421.92 22.1626" style="fill:none;stroke:#000000;"/>
   </g>
   <g id="patch_4">
    <path d="
M421.92 367.763
L421.92 22.1626" style="fill:none;stroke:#000000;"/>
   </g>
   <g id="patch_5">
    <path d="
M7.2 367.763
L421.92 367.763" style="fill:none;stroke:#000000;"/>
   </g>
   <g id="patch_6">
    <path d="
M7.2 367.763
L7.2 22.1626" style="fill:none;stroke:#000000;"/>
   </g>
   <g id="PathCollection_1">
    <defs>
     <path d="
M0 9.49401
C2.51784 9.49401 4.9329 8.49366 6.71328 6.71328
C8.49366 4.9329 9.49401 2.51784 9.49401 0
C9.49401 -2.51784 8.49366 -4.9329 6.71328 -6.71328
C4.9329 -8.49366 2.51784 -9.49401 0 -9.49401
C-2.51784 -9.49401 -4.9329 -8.49366 -6.71328 -6.71328
C-8.49366 -4.9329 -9.49401 -2.51784 -9.49401 0
C-9.49401 2.51784 -8.49366 4.9329 -6.71328 6.71328
C-4.9329 8.49366 -2.51784 9.49401 0 9.49401
z
" id="C0_0_3ac37b6711"/>
     <path d="
M0 9.47929
C2.51394 9.47929 4.92525 8.48049 6.70287 6.70287
C8.48049 4.92525 9.47929 2.51394 9.47929 0
C9.47929 -2.51394 8.48049 -4.92525 6.70287 -6.70287
C4.92525 -8.48049 2.51394 -9.47929 0 -9.47929
C-2.51394 -9.47929 -4.92525 -8.48049 -6.70287 -6.70287
C-8.48049 -4.92525 -9.47929 -2.51394 -9.47929 0
C-9.47929 2.51394 -8.48049 4.92525 -6.70287 6.70287
C-4.92525 8.48049 -2.51394 9.47929 0 9.47929
z
" id="C0_1_13c45a4c29"/>
     <path d="
M0 9.49195
C2.51729 9.49195 4.93183 8.49182 6.71182 6.71182
C8.49182 4.93183 9.49195 2.51729 9.49195 0
C9.49195 -2.51729 8.49182 -4.93183 6.71182 -6.71182
C4.93183 -8.49182 2.51729 -9.49195 0 -9.49195
C-2.51729 -9.49195 -4.93183 -8.49182 -6.71182 -6.71182
C-8.49182 -4.93183 -9.49195 -2.51729 -9.49195 0
C-9.49195 2.51729 -8.49182 4.93183 -6.71182 6.71182
C-4.93183 8.49182 -2.51729 9.49195 0 9.49195
z
" id="C0_2_891d2680dd"/>
     <path d="
M0 9.4791
C2.51389 9.4791 4.92515 8.48032 6.70273 6.70273
C8.48032 4.92515 9.4791 2.51389 9.4791 0
C9.4791 -2.51389 8.48032 -4.92515 6.70273 -6.70273
C4.92515 -8.48032 2.51389 -9.4791 0 -9.4791
C-2.51389 -9.4791 -4.92515 -8.48032 -6.70273 -6.70273
C-8.48032 -4.92515 -9.4791 -2.51389 -9.4791 0
C-9.4791 2.51389 -8.48032 4.92515 -6.70273 6.70273
C-4.92515 8.48032 -2.51389 9.4791 0 9.4791
z
" id="C0_3_7008c9cbae"/>
     <path d="
M0 9.49448
C2.51797 9.49448 4.93314 8.49408 6.71361 6.71361
C8.49408 4.93314 9.49448 2.51797 9.49448 0
C9.49448 -2.51797 8.49408 -4.93314 6.71361 -6.71361
C4.93314 -8.49408 2.51797 -9.49448 0 -9.49448
C-2.51797 -9.49448 -4.93314 -8.49408 -6.71361 -6.71361
C-8.49408 -4.93314 -9.49448 -2.51797 -9.49448 0
C-9.49448 2.51797 -8.49408 4.93314 -6.71361 6.71361
C-4.93314 8.49408 -2.51797 9.49448 0 9.49448
z
" id="C0_4_8aa738947b"/>
     <path d="
M0 9.48168
C2.51457 9.48168 4.92649 8.48263 6.70456 6.70456
C8.48263 4.92649 9.48168 2.51457 9.48168 0
C9.48168 -2.51457 8.48263 -4.92649 6.70456 -6.70456
C4.92649 -8.48263 2.51457 -9.48168 0 -9.48168
C-2.51457 -9.48168 -4.92649 -8.48263 -6.70456 -6.70456
C-8.48263 -4.92649 -9.48168 -2.51457 -9.48168 0
C-9.48168 2.51457 -8.48263 4.92649 -6.70456 6.70456
C-4.92649 8.48263 -2.51457 9.48168 0 9.48168
z
" id="C0_5_072c5ba6ae"/>
     <path d="
M0 9.49438
C2.51794 9.49438 4.93309 8.494 6.71354 6.71354
C8.494 4.93309 9.49438 2.51794 9.49438 0
C9.49438 -2.51794 8.494 -4.93309 6.71354 -6.71354
C4.93309 -8.494 2.51794 -9.49438 0 -9.49438
C-2.51794 -9.49438 -4.93309 -8.494 -6.71354 -6.71354
C-8.494 -4.93309 -9.49438 -2.51794 -9.49438 0
C-9.49438 2.51794 -8.494 4.93309 -6.71354 6.71354
C-4.93309 8.494 -2.51794 9.49438 0 9.49438
z
" id="C0_6_fc3c81fc97"/>
     <path d="
M0 9.47913
C2.51389 9.47913 4.92517 8.48035 6.70276 6.70276
C8.48035 4.92517 9.47913 2.51389 9.47913 0
C9.47913 -2.51389 8.48035 -4.92517 6.70276 -6.70276
C4.92517 -8.48035 2.51389 -9.47913 0 -9.47913
C-2.51389 -9.47913 -4.92517 -8.48035 -6.70276 -6.70276
C-8.48035 -4.92517 -9.47913 -2.51389 -9.47913 0
C-9.47913 2.51389 -8.48035 4.92517 -6.70276 6.70276
C-4.92517 8.48035 -2.51389 9.47913 0 9.47913
z
" id="C0_7_567c393274"/>
     <path d="
M0 9.49204
C2.51732 9.49204 4.93187 8.4919 6.71189 6.71189
C8.4919 4.93187 9.49204 2.51732 9.49204 0
C9.49204 -2.51732 8.4919 -4.93187 6.71189 -6.71189
C4.93187 -8.4919 2.51732 -9.49204 0 -9.49204
C-2.51732 -9.49204 -4.93187 -8.4919 -6.71189 -6.71189
C-8.4919 -4.93187 -9.49204 -2.51732 -9.49204 0
C-9.49204 2.51732 -8.4919 4.93187 -6.71189 6.71189
C-4.93187 8.4919 -2.51732 9.49204 0 9.49204
z
" id="C0_8_e91dfe9c4f"/>
     <path d="
M0 9.47924
C2.51392 9.47924 4.92522 8.48045 6.70284 6.70284
C8.48045 4.92522 9.47924 2.51392 9.47924 0
C9.47924 -2.51392 8.48045 -4.92522 6.70284 -6.70284
C4.92522 -8.48045 2.51392 -9.47924 0 -9.47924
C-2.51392 -9.47924 -4.92522 -8.48045 -6.70284 -6.70284
C-8.48045 -4.92522 -9.47924 -2.51392 -9.47924 0
C-9.47924 2.51392 -8.48045 4.92522 -6.70284 6.70284
C-4.92522 8.48045 -2.51392 9.47924 0 9.47924
z
" id="C0_9_af93a4c1a6"/>
     <path d="
M0 9.49434
C2.51793 9.49434 4.93307 8.49395 6.71351 6.71351
C8.49395 4.93307 9.49434 2.51793 9.49434 0
C9.49434 -2.51793 8.49395 -4.93307 6.71351 -6.71351
C4.93307 -8.49395 2.51793 -9.49434 0 -9.49434
C-2.51793 -9.49434 -4.93307 -8.49395 -6.71351 -6.71351
C-8.49395 -4.93307 -9.49434 -2.51793 -9.49434 0
C-9.49434 2.51793 -8.49395 4.93307 -6.71351 6.71351
C-4.93307 8.49395 -2.51793 9.49434 0 9.49434
z
" id="C0_a_89ce91abb5"/>
     <path d="
M0 9.482
C2.51466 9.482 4.92666 8.48292 6.70479 6.70479
C8.48292 4.92666 9.482 2.51466 9.482 0
C9.482 -2.51466 8.48292 -4.92666 6.70479 -6.70479
C4.92666 -8.48292 2.51466 -9.482 0 -9.482
C-2.51466 -9.482 -4.92666 -8.48292 -6.70479 -6.70479
C-8.48292 -4.92666 -9.482 -2.51466 -9.482 0
C-9.482 2.51466 -8.48292 4.92666 -6.70479 6.70479
C-4.92666 8.48292 -2.51466 9.482 0 9.482
z
" id="C0_b_4f09a28607"/>
     <path d="
M0 9.49171
C2.51723 9.49171 4.9317 8.4916 6.71165 6.71165
C8.4916 4.9317 9.49171 2.51723 9.49171 0
C9.49171 -2.51723 8.4916 -4.9317 6.71165 -6.71165
C4.9317 -8.4916 2.51723 -9.49171 0 -9.49171
C-2.51723 -9.49171 -4.9317 -8.4916 -6.71165 -6.71165
C-8.4916 -4.9317 -9.49171 -2.51723 -9.49171 0
C-9.49171 2.51723 -8.4916 4.9317 -6.71165 6.71165
C-4.9317 8.4916 -2.51723 9.49171 0 9.49171
z
" id="C0_c_7f2d560773"/>
     <path d="
M0 9.47934
C2.51395 9.47934 4.92528 8.48054 6.70291 6.70291
C8.48054 4.92528 9.47934 2.51395 9.47934 0
C9.47934 -2.51395 8.48054 -4.92528 6.70291 -6.70291
C4.92528 -8.48054 2.51395 -9.47934 0 -9.47934
C-2.51395 -9.47934 -4.92528 -8.48054 -6.70291 -6.70291
C-8.48054 -4.92528 -9.47934 -2.51395 -9.47934 0
C-9.47934 2.51395 -8.48054 4.92528 -6.70291 6.70291
C-4.92528 8.48054 -2.51395 9.47934 0 9.47934
z
" id="C0_d_b96d446dcd"/>
     <path d="
M0 9.49447
C2.51796 9.49447 4.93313 8.49407 6.7136 6.7136
C8.49407 4.93313 9.49447 2.51796 9.49447 0
C9.49447 -2.51796 8.49407 -4.93313 6.7136 -6.7136
C4.93313 -8.49407 2.51796 -9.49447 0 -9.49447
C-2.51796 -9.49447 -4.93313 -8.49407 -6.7136 -6.7136
C-8.49407 -4.93313 -9.49447 -2.51796 -9.49447 0
C-9.49447 2.51796 -8.49407 4.93313 -6.7136 6.7136
C-4.93313 8.49407 -2.51796 9.49447 0 9.49447
z
" id="C0_e_24823b809c"/>
     <path d="
M0 9.48165
C2.51456 9.48165 4.92648 8.48261 6.70454 6.70454
C8.48261 4.92648 9.48165 2.51456 9.48165 0
C9.48165 -2.51456 8.48261 -4.92648 6.70454 -6.70454
C4.92648 -8.48261 2.51456 -9.48165 0 -9.48165
C-2.51456 -9.48165 -4.92648 -8.48261 -6.70454 -6.70454
C-8.48261 -4.92648 -9.48165 -2.51456 -9.48165 0
C-9.48165 2.51456 -8.48261 4.92648 -6.70454 6.70454
C-4.92648 8.48261 -2.51456 9.48165 0 9.48165
z
" id="C0_f_0bb9f10ba7"/>
     <path d="
M0 9.49449
C2.51797 9.49449 4.93315 8.49409 6.71362 6.71362
C8.49409 4.93315 9.49449 2.51797 9.49449 0
C9.49449 -2.51797 8.49409 -4.93315 6.71362 -6.71362
C4.93315 -8.49409 2.51797 -9.49449 0 -9.49449
C-2.51797 -9.49449 -4.93315 -8.49409 -6.71362 -6.71362
C-8.49409 -4.93315 -9.49449 -2.51797 -9.49449 0
C-9.49449 2.51797 -8.49409 4.93315 -6.71362 6.71362
C-4.93315 8.49409 -2.51797 9.49449 0 9.49449
z
" id="C0_10_e11ad13eac"/>
     <path d="
M0 9.47924
C2.51392 9.47924 4.92522 8.48044 6.70283 6.70283
C8.48044 4.92522 9.47924 2.51392 9.47924 0
C9.47924 -2.51392 8.48044 -4.92522 6.70283 -6.70283
C4.92522 -8.48044 2.51392 -9.47924 0 -9.47924
C-2.51392 -9.47924 -4.92522 -8.48044 -6.70283 -6.70283
C-8.48044 -4.92522 -9.47924 -2.51392 -9.47924 0
C-9.47924 2.51392 -8.48044 4.92522 -6.70283 6.70283
C-4.92522 8.48044 -2.51392 9.47924 0 9.47924
z
" id="C0_11_ab0816616b"/>
     <path d="
M0 9.49199
C2.5173 9.49199 4.93185 8.49185 6.71185 6.71185
C8.49185 4.93185 9.49199 2.5173 9.49199 0
C9.49199 -2.5173 8.49185 -4.93185 6.71185 -6.71185
C4.93185 -8.49185 2.5173 -9.49199 0 -9.49199
C-2.5173 -9.49199 -4.93185 -8.49185 -6.71185 -6.71185
C-8.49185 -4.93185 -9.49199 -2.5173 -9.49199 0
C-9.49199 2.5173 -8.49185 4.93185 -6.71185 6.71185
C-4.93185 8.49185 -2.5173 9.49199 0 9.49199
z
" id="C0_12_1297ddde35"/>
     <path d="
M0 9.47923
C2.51392 9.47923 4.92521 8.48043 6.70282 6.70282
C8.48043 4.92521 9.47923 2.51392 9.47923 0
C9.47923 -2.51392 8.48043 -4.92521 6.70282 -6.70282
C4.92521 -8.48043 2.51392 -9.47923 0 -9.47923
C-2.51392 -9.47923 -4.92521 -8.48043 -6.70282 -6.70282
C-8.48043 -4.92521 -9.47923 -2.51392 -9.47923 0
C-9.47923 2.51392 -8.48043 4.92521 -6.70282 6.70282
C-4.92521 8.48043 -2.51392 9.47923 0 9.47923
z
" id="C0_13_423d9f004f"/>
     <path d="
M0 9.49455
C2.51798 9.49455 4.93318 8.49415 6.71366 6.71366
C8.49415 4.93318 9.49455 2.51798 9.49455 0
C9.49455 -2.51798 8.49415 -4.93318 6.71366 -6.71366
C4.93318 -8.49415 2.51798 -9.49455 0 -9.49455
C-2.51798 -9.49455 -4.93318 -8.49415 -6.71366 -6.71366
C-8.49415 -4.93318 -9.49455 -2.51798 -9.49455 0
C-9.49455 2.51798 -8.49415 4.93318 -6.71366 6.71366
C-4.93318 8.49415 -2.51798 9.49455 0 9.49455
z
" id="C0_14_010516dffe"/>
     <path d="
M0 9.48174
C2.51459 9.48174 4.92652 8.48269 6.70461 6.70461
C8.48269 4.92652 9.48174 2.51459 9.48174 0
C9.48174 -2.51459 8.48269 -4.92652 6.70461 -6.70461
C4.92652 -8.48269 2.51459 -9.48174 0 -9.48174
C-2.51459 -9.48174 -4.92652 -8.48269 -6.70461 -6.70461
C-8.48269 -4.92652 -9.48174 -2.51459 -9.48174 0
C-9.48174 2.51459 -8.48269 4.92652 -6.70461 6.70461
C-4.92652 8.48269 -2.51459 9.48174 0 9.48174
z
" id="C0_15_30162db6f2"/>
     <path d="
M0 9.49428
C2.51791 9.49428 4.93304 8.4939 6.71347 6.71347
C8.4939 4.93304 9.49428 2.51791 9.49428 0
C9.49428 -2.51791 8.4939 -4.93304 6.71347 -6.71347
C4.93304 -8.4939 2.51791 -9.49428 0 -9.49428
C-2.51791 -9.49428 -4.93304 -8.4939 -6.71347 -6.71347
C-8.4939 -4.93304 -9.49428 -2.51791 -9.49428 0
C-9.49428 2.51791 -8.4939 4.93304 -6.71347 6.71347
C-4.93304 8.4939 -2.51791 9.49428 0 9.49428
z
" id="C0_16_b7d7f8bbfa"/>
     <path d="
M0 9.47948
C2.51399 9.47948 4.92535 8.48066 6.703 6.703
C8.48066 4.92535 9.47948 2.51399 9.47948 0
C9.47948 -2.51399 8.48066 -4.92535 6.703 -6.703
C4.92535 -8.48066 2.51399 -9.47948 0 -9.47948
C-2.51399 -9.47948 -4.92535 -8.48066 -6.703 -6.703
C-8.48066 -4.92535 -9.47948 -2.51399 -9.47948 0
C-9.47948 2.51399 -8.48066 4.92535 -6.703 6.703
C-4.92535 8.48066 -2.51399 9.47948 0 9.47948
z
" id="C0_17_d795a07147"/>
     <path d="
M0 9.49416
C2.51788 9.49416 4.93298 8.4938 6.71339 6.71339
C8.4938 4.93298 9.49416 2.51788 9.49416 0
C9.49416 -2.51788 8.4938 -4.93298 6.71339 -6.71339
C4.93298 -8.4938 2.51788 -9.49416 0 -9.49416
C-2.51788 -9.49416 -4.93298 -8.4938 -6.71339 -6.71339
C-8.4938 -4.93298 -9.49416 -2.51788 -9.49416 0
C-9.49416 2.51788 -8.4938 4.93298 -6.71339 6.71339
C-4.93298 8.4938 -2.51788 9.49416 0 9.49416
z
" id="C0_18_dfbc6088b6"/>
     <path d="
M0 9.4819
C2.51463 9.4819 4.92661 8.48283 6.70472 6.70472
C8.48283 4.92661 9.4819 2.51463 9.4819 0
C9.4819 -2.51463 8.48283 -4.92661 6.70472 -6.70472
C4.92661 -8.48283 2.51463 -9.4819 0 -9.4819
C-2.51463 -9.4819 -4.92661 -8.48283 -6.70472 -6.70472
C-8.48283 -4.92661 -9.4819 -2.51463 -9.4819 0
C-9.4819 2.51463 -8.48283 4.92661 -6.70472 6.70472
C-4.92661 8.48283 -2.51463 9.4819 0 9.4819
z
" id="C0_19_3d7cf88bd7"/>
     <path d="
M0 9.49443
C2.51795 9.49443 4.93311 8.49403 6.71357 6.71357
C8.49403 4.93311 9.49443 2.51795 9.49443 0
C9.49443 -2.51795 8.49403 -4.93311 6.71357 -6.71357
C4.93311 -8.49403 2.51795 -9.49443 0 -9.49443
C-2.51795 -9.49443 -4.93311 -8.49403 -6.71357 -6.71357
C-8.49403 -4.93311 -9.49443 -2.51795 -9.49443 0
C-9.49443 2.51795 -8.49403 4.93311 -6.71357 6.71357
C-4.93311 8.49403 -2.51795 9.49443 0 9.49443
z
" id="C0_1a_a162e1621b"/>
     <path d="
M0 9.4791
C2.51389 9.4791 4.92515 8.48032 6.70273 6.70273
C8.48032 4.92515 9.4791 2.51389 9.4791 0
C9.4791 -2.51389 8.48032 -4.92515 6.70273 -6.70273
C4.92515 -8.48032 2.51389 -9.4791 0 -9.4791
C-2.51389 -9.4791 -4.92515 -8.48032 -6.70273 -6.70273
C-8.48032 -4.92515 -9.4791 -2.51389 -9.4791 0
C-9.4791 2.51389 -8.48032 4.92515 -6.70273 6.70273
C-4.92515 8.48032 -2.51389 9.4791 0 9.4791
z
" id="C0_1b_7008c9cbae"/>
     <path d="
M0 9.49211
C2.51734 9.49211 4.93191 8.49196 6.71194 6.71194
C8.49196 4.93191 9.49211 2.51734 9.49211 0
C9.49211 -2.51734 8.49196 -4.93191 6.71194 -6.71194
C4.93191 -8.49196 2.51734 -9.49211 0 -9.49211
C-2.51734 -9.49211 -4.93191 -8.49196 -6.71194 -6.71194
C-8.49196 -4.93191 -9.49211 -2.51734 -9.49211 0
C-9.49211 2.51734 -8.49196 4.93191 -6.71194 6.71194
C-4.93191 8.49196 -2.51734 9.49211 0 9.49211
z
" id="C0_1c_7deaaf16c2"/>
     <path d="
M0 9.47904
C2.51387 9.47904 4.92512 8.48027 6.70269 6.70269
C8.48027 4.92512 9.47904 2.51387 9.47904 0
C9.47904 -2.51387 8.48027 -4.92512 6.70269 -6.70269
C4.92512 -8.48027 2.51387 -9.47904 0 -9.47904
C-2.51387 -9.47904 -4.92512 -8.48027 -6.70269 -6.70269
C-8.48027 -4.92512 -9.47904 -2.51387 -9.47904 0
C-9.47904 2.51387 -8.48027 4.92512 -6.70269 6.70269
C-4.92512 8.48027 -2.51387 9.47904 0 9.47904
z
" id="C0_1d_ff9789eded"/>
     <path d="
M0 9.49458
C2.51799 9.49458 4.93319 8.49417 6.71368 6.71368
C8.49417 4.93319 9.49458 2.51799 9.49458 0
C9.49458 -2.51799 8.49417 -4.93319 6.71368 -6.71368
C4.93319 -8.49417 2.51799 -9.49458 0 -9.49458
C-2.51799 -9.49458 -4.93319 -8.49417 -6.71368 -6.71368
C-8.49417 -4.93319 -9.49458 -2.51799 -9.49458 0
C-9.49458 2.51799 -8.49417 4.93319 -6.71368 6.71368
C-4.93319 8.49417 -2.51799 9.49458 0 9.49458
z
" id="C0_1e_d25db47d99"/>
     <path d="
M0 9.48171
C2.51458 9.48171 4.92651 8.48266 6.70458 6.70458
C8.48266 4.92651 9.48171 2.51458 9.48171 0
C9.48171 -2.51458 8.48266 -4.92651 6.70458 -6.70458
C4.92651 -8.48266 2.51458 -9.48171 0 -9.48171
C-2.51458 -9.48171 -4.92651 -8.48266 -6.70458 -6.70458
C-8.48266 -4.92651 -9.48171 -2.51458 -9.48171 0
C-9.48171 2.51458 -8.48266 4.92651 -6.70458 6.70458
C-4.92651 8.48266 -2.51458 9.48171 0 9.48171
z
" id="C0_1f_2bfb7a780d"/>
     <path d="
M0 9.49442
C2.51795 9.49442 4.93311 8.49402 6.71357 6.71357
C8.49402 4.93311 9.49442 2.51795 9.49442 0
C9.49442 -2.51795 8.49402 -4.93311 6.71357 -6.71357
C4.93311 -8.49402 2.51795 -9.49442 0 -9.49442
C-2.51795 -9.49442 -4.93311 -8.49402 -6.71357 -6.71357
C-8.49402 -4.93311 -9.49442 -2.51795 -9.49442 0
C-9.49442 2.51795 -8.49402 4.93311 -6.71357 6.71357
C-4.93311 8.49402 -2.51795 9.49442 0 9.49442
z
" id="C0_20_53d07e67b8"/>
     <path d="
M0 9.47917
C2.5139 9.47917 4.92518 8.48038 6.70278 6.70278
C8.48038 4.92518 9.47917 2.5139 9.47917 0
C9.47917 -2.5139 8.48038 -4.92518 6.70278 -6.70278
C4.92518 -8.48038 2.5139 -9.47917 0 -9.47917
C-2.5139 -9.47917 -4.92518 -8.48038 -6.70278 -6.70278
C-8.48038 -4.92518 -9.47917 -2.5139 -9.47917 0
C-9.47917 2.5139 -8.48038 4.92518 -6.70278 6.70278
C-4.92518 8.48038 -2.5139 9.47917 0 9.47917
z
" id="C0_21_6844eecb52"/>
     <path d="
M0 9.49185
C2.51727 9.49185 4.93178 8.49173 6.71175 6.71175
C8.49173 4.93178 9.49185 2.51727 9.49185 0
C9.49185 -2.51727 8.49173 -4.93178 6.71175 -6.71175
C4.93178 -8.49173 2.51727 -9.49185 0 -9.49185
C-2.51727 -9.49185 -4.93178 -8.49173 -6.71175 -6.71175
C-8.49173 -4.93178 -9.49185 -2.51727 -9.49185 0
C-9.49185 2.51727 -8.49173 4.93178 -6.71175 6.71175
C-4.93178 8.49173 -2.51727 9.49185 0 9.49185
z
" id="C0_22_666a02055d"/>
     <path d="
M0 9.47963
C2.51403 9.47963 4.92543 8.4808 6.70311 6.70311
C8.4808 4.92543 9.47963 2.51403 9.47963 0
C9.47963 -2.51403 8.4808 -4.92543 6.70311 -6.70311
C4.92543 -8.4808 2.51403 -9.47963 0 -9.47963
C-2.51403 -9.47963 -4.92543 -8.4808 -6.70311 -6.70311
C-8.4808 -4.92543 -9.47963 -2.51403 -9.47963 0
C-9.47963 2.51403 -8.4808 4.92543 -6.70311 6.70311
C-4.92543 8.4808 -2.51403 9.47963 0 9.47963
z
" id="C0_23_5b9eb8ca03"/>
    </defs>
    <g clip-path="url(#p59b5b4f9de)">
     <use style="fill:#0000ff;stroke:#000000;" x="214.56" xlink:href="#C0_0_3ac37b6711" y="333.202624898"/>
    </g>
    <g clip-path="url(#p59b5b4f9de)">
     <use style="fill:#0000ff;stroke:#000000;" x="184.630162045" xlink:href="#C0_1_13c45a4c29" y="315.922624898"/>
    </g>
    <g clip-path="url(#p59b5b4f9de)">
     <use style="fill:#0000ff;stroke:#000000;" x="184.630162045" xlink:href="#C0_2_891d2680dd" y="281.362624898"/>
    </g>
    <g clip-path="url(#p59b5b4f9de)">
     <use style="fill:#0000ff;stroke:#000000;" x="154.70032409" xlink:href="#C0_3_7008c9cbae" y="264.082624898"/>
    </g>
    <g clip-path="url(#p59b5b4f9de)">
     <use style="fill:#0000ff;stroke:#000000;" x="154.70032409" xlink:href="#C0_4_8aa738947b" y="229.522624898"/>
    </g>
    <g clip-path="url(#p59b5b4f9de)">
     <use style="fill:#0000ff;stroke:#000000;" x="124.770486136" xlink:href="#C0_5_072c5ba6ae" y="212.242624898"/>
    </g>
    <g clip-path="url(#p59b5b4f9de)">
     <use style="fill:#0000ff;stroke:#000000;" x="124.770486136" xlink:href="#C0_6_fc3c81fc97" y="177.682624898"/>
    </g>
    <g clip-path="url(#p59b5b4f9de)">
     <use style="fill:#0000ff;stroke:#000000;" x="94.8406481808" xlink:href="#C0_7_567c393274" y="160.402624898"/>
    </g>
    <g clip-path="url(#p59b5b4f9de)">
     <use style="fill:#0000ff;stroke:#000000;" x="94.8406481808" xlink:href="#C0_8_e91dfe9c4f" y="125.842624898"/>
    </g>
    <g clip-path="url(#p59b5b4f9de)">
     <use style="fill:#0000ff;stroke:#000000;" x="64.910810226" xlink:href="#C0_9_af93a4c1a6" y="108.562624898"/>
    </g>
    <g clip-path="url(#p59b5b4f9de)">
     <use style="fill:#0000ff;stroke:#000000;" x="64.910810226" xlink:href="#C0_a_89ce91abb5" y="74.0026248978"/>
    </g>
    <g clip-path="url(#p59b5b4f9de)">
     <use style="fill:#0000ff;stroke:#000000;" x="34.9809722713" xlink:href="#C0_b_4f09a28607" y="56.7226248978"/>
    </g>
    <g clip-path="url(#p59b5b4f9de)">
     <use style="fill:#0000ff;stroke:#000000;" x="274.41967591" xlink:href="#C0_c_7f2d560773" y="333.202624898"/>
    </g>
    <g clip-path="url(#p59b5b4f9de)">
     <use style="fill:#0000ff;stroke:#000000;" x="244.489837955" xlink:href="#C0_d_b96d446dcd" y="315.922624898"/>
    </g>
    <g clip-path="url(#p59b5b4f9de)">
     <use style="fill:#0000ff;stroke:#000000;" x="244.489837955" xlink:href="#C0_e_24823b809c" y="281.362624898"/>
    </g>
    <g clip-path="url(#p59b5b4f9de)">
     <use style="fill:#0000ff;stroke:#000000;" x="214.56" xlink:href="#C0_f_0bb9f10ba7" y="264.082624898"/>
    </g>
    <g clip-path="url(#p59b5b4f9de)">
     <use style="fill:#0000ff;stroke:#000000;" x="214.56" xlink:href="#C0_10_e11ad13eac" y="229.522624898"/>
    </g>
    <g clip-path="url(#p59b5b4f9de)">
     <use style="fill:#0000ff;stroke:#000000;" x="184.630162045" xlink:href="#C0_11_ab0816616b" y="212.242624898"/>
    </g>
    <g clip-path="url(#p59b5b4f9de)">
     <use style="fill:#0000ff;stroke:#000000;" x="184.630162045" xlink:href="#C0_12_1297ddde35" y="177.682624898"/>
    </g>
    <g clip-path="url(#p59b5b4f9de)">
     <use style="fill:#0000ff;stroke:#000000;" x="154.70032409" xlink:href="#C0_13_423d9f004f" y="160.402624898"/>
    </g>
    <g clip-path="url(#p59b5b4f9de)">
     <use style="fill:#0000ff;stroke:#000000;" x="154.70032409" xlink:href="#C0_14_010516dffe" y="125.842624898"/>
    </g>
    <g clip-path="url(#p59b5b4f9de)">
     <use style="fill:#0000ff;stroke:#000000;" x="124.770486136" xlink:href="#C0_15_30162db6f2" y="108.562624898"/>
    </g>
    <g clip-path="url(#p59b5b4f9de)">
     <use style="fill:#0000ff;stroke:#000000;" x="124.770486136" xlink:href="#C0_16_b7d7f8bbfa" y="74.0026248978"/>
    </g>
    <g clip-path="url(#p59b5b4f9de)">
     <use style="fill:#0000ff;stroke:#000000;" x="94.8406481808" xlink:href="#C0_17_d795a07147" y="56.7226248978"/>
    </g>
    <g clip-path="url(#p59b5b4f9de)">
     <use style="fill:#0000ff;stroke:#000000;" x="334.279351819" xlink:href="#C0_18_dfbc6088b6" y="333.202624898"/>
    </g>
    <g clip-path="url(#p59b5b4f9de)">
     <use style="fill:#0000ff;stroke:#000000;" x="304.349513864" xlink:href="#C0_19_3d7cf88bd7" y="315.922624898"/>
    </g>
    <g clip-path="url(#p59b5b4f9de)">
     <use style="fill:#0000ff;stroke:#000000;" x="304.349513864" xlink:href="#C0_1a_a162e1621b" y="281.362624898"/>
    </g>
    <g clip-path="url(#p59b5b4f9de)">
     <use style="fill:#0000ff;stroke:#000000;" x="274.41967591" xlink:href="#C0_1b_7008c9cbae" y="264.082624898"/>
    </g>
    <g clip-path="url(#p59b5b4f9de)">
     <use style="fill:#0000ff;stroke:#000000;" x="274.41967591" xlink:href="#C0_1c_7deaaf16c2" y="229.522624898"/>
    </g>
    <g clip-path="url(#p59b5b4f9de)">
     <use style="fill:#0000ff;stroke:#000000;" x="244.489837955" xlink:href="#C0_1d_ff9789eded" y="212.242624898"/>
    </g>
    <g clip-path="url(#p59b5b4f9de)">
     <use style="fill:#0000ff;stroke:#000000;" x="244.489837955" xlink:href="#C0_1e_d25db47d99" y="177.682624898"/>
    </g>
    <g clip-path="url(#p59b5b4f9de)">
     <use style="fill:#0000ff;stroke:#000000;" x="214.56" xlink:href="#C0_1f_2bfb7a780d" y="160.402624898"/>
    </g>
    <g clip-path="url(#p59b5b4f9de)">
     <use style="fill:#0000ff;stroke:#000000;" x="214.56" xlink:href="#C0_20_53d07e67b8" y="125.842624898"/>
    </g>
    <g clip-path="url(#p59b5b4f9de)">
     <use style="fill:#0000ff;stroke:#000000;" x="184.630162045" xlink:href="#C0_21_6844eecb52" y="108.562624898"/>
    </g>
    <g clip-path="url(#p59b5b4f9de)">
     <use style="fill:#0000ff;stroke:#000000;" x="184.630162045" xlink:href="#C0_22_666a02055d" y="74.0026248978"/>
    </g>
    <g clip-path="url(#p59b5b4f9de)">
     <use style="fill:#0000ff;stroke:#000000;" x="154.70032409" xlink:href="#C0_23_5b9eb8ca03" y="56.7226248978"/>
    </g>
    <g clip-path="url(#p59b5b4f9de)">
     <use style="fill:#0000ff;stroke:#000000;" x="394.139027729" xlink:href="#C0_0_3ac37b6711" y="333.202624898"/>
    </g>
    <g clip-path="url(#p59b5b4f9de)">
     <use style="fill:#0000ff;stroke:#000000;" x="364.209189774" xlink:href="#C0_1_13c45a4c29" y="315.922624898"/>
    </g>
    <g clip-path="url(#p59b5b4f9de)">
     <use style="fill:#0000ff;stroke:#000000;" x="364.209189774" xlink:href="#C0_2_891d2680dd" y="281.362624898"/>
    </g>
    <g clip-path="url(#p59b5b4f9de)">
     <use style="fill:#0000ff;stroke:#000000;" x="334.279351819" xlink:href="#C0_3_7008c9cbae" y="264.082624898"/>
    </g>
    <g clip-path="url(#p59b5b4f9de)">
     <use style="fill:#0000ff;stroke:#000000;" x="334.279351819" xlink:href="#C0_4_8aa738947b" y="229.522624898"/>
    </g>
    <g clip-path="url(#p59b5b4f9de)">
     <use style="fill:#0000ff;stroke:#000000;" x="304.349513864" xlink:href="#C0_5_072c5ba6ae" y="212.242624898"/>
    </g>
    <g clip-path="url(#p59b5b4f9de)">
     <use style="fill:#0000ff;stroke:#000000;" x="304.349513864" xlink:href="#C0_6_fc3c81fc97" y="177.682624898"/>
    </g>
    <g clip-path="url(#p59b5b4f9de)">
     <use style="fill:#0000ff;stroke:#000000;" x="274.41967591" xlink:href="#C0_7_567c393274" y="160.402624898"/>
    </g>
    <g clip-path="url(#p59b5b4f9de)">
     <use style="fill:#0000ff;stroke:#000000;" x="274.41967591" xlink:href="#C0_8_e91dfe9c4f" y="125.842624898"/>
    </g>
    <g clip-path="url(#p59b5b4f9de)">
     <use style="fill:#0000ff;stroke:#000000;" x="244.489837955" xlink:href="#C0_9_af93a4c1a6" y="108.562624898"/>
    </g>
    <g clip-path="url(#p59b5b4f9de)">
     <use style="fill:#0000ff;stroke:#000000;" x="244.489837955" xlink:href="#C0_a_89ce91abb5" y="74.0026248978"/>
    </g>
    <g clip-path="url(#p59b5b4f9de)">
     <use style="fill:#0000ff;stroke:#000000;" x="214.56" xlink:href="#C0_b_4f09a28607" y="56.7226248978"/>
    </g>
   </g>
   <g id="text_1">
    <!-- $V_1 = 5.6, \ V_2 = 1.6$ -->
    <defs>
     <path d="
M61.9062 56.7188
C65.2969 62.1094 68.4062 64.5 73.5 64.9062
C74.5 65 75.2969 65 75.2969 66.7344
C75.2969 67.125 75.0938 67.7031 74.2031 67.7031
C72.4062 67.7031 68.0938 67.7031 66.2969 67.7031
C63.4062 67.7031 60.4062 67.7031 57.5938 67.7031
C56.7969 67.7031 55.7969 67.7031 55.7969 65.9375
C55.7969 65.0938 56.7031 65 57.0938 65
C60.7969 64.7031 61.2031 62.9062 61.2031 61.7031
C61.2031 60.1875 59.7969 57.8906 59.7031 57.7969
L28.2969 7.98438
L21.2969 61.8125
C21.2969 65 26.5 65 27.5938 65
C29.0938 65 30 65 30 66.7656
C30 67.7031 28.9062 67.7031 28.5938 67.7031
C26.9062 67.7031 24.9062 67.7031 23.2031 67.7031
L17.5938 67.7031
C10.2969 67.7031 7.29688 67.7031 7.20312 67.7031
C6.59375 67.7031 5.40625 67.7031 5.40625 66.0156
C5.40625 65 6.09375 65 7.70312 65
C12.7969 65 13.0938 64.0938 13.4062 61.6094
L21.4062 -0.109375
C21.7031 -2.20312 21.7031 -2.5 23.0938 -2.5
C24.2969 -2.5 24.7969 -2.20312 25.7969 -0.609375
z
" id="CMMI12-86"/>
     <path d="
M64.2969 31.5156
C65.7969 31.5156 67.2969 31.5156 67.2969 33.2031
C67.2969 35 65.5938 35 63.9062 35
L8 35
C6.29688 35 4.59375 35 4.59375 33.2031
C4.59375 31.5156 6.09375 31.5156 7.59375 31.5156
z

M63.9062 14
C65.5938 14 67.2969 14 67.2969 15.7969
C67.2969 17.4844 65.7969 17.4844 64.2969 17.4844
L7.59375 17.4844
C6.09375 17.4844 4.59375 17.4844 4.59375 15.7969
C4.59375 14 6.29688 14 8 14
z
" id="CMR17-61"/>
     <path d="
M41.7031 15.4531
L39.9062 15.4531
C38.9062 8.375 38.0938 7.17188 37.7031 6.5625
C37.2031 5.76562 30 5.76562 28.5938 5.76562
L9.40625 5.76562
C13 9.67188 20 16.75 28.5 24.9531
C34.5938 30.7344 41.7031 37.5312 41.7031 47.4219
C41.7031 59.2188 32.2969 66 21.7969 66
C10.7969 66 4.09375 56.3125 4.09375 47.3438
C4.09375 43.4375 7 42.9375 8.20312 42.9375
C9.20312 42.9375 12.2031 43.5469 12.2031 47.0312
C12.2031 50.1094 9.59375 51 8.20312 51
C7.59375 51 7 50.9062 6.59375 50.7031
C8.5 59.2188 14.2969 63.4062 20.4062 63.4062
C29.0938 63.4062 34.7969 56.5156 34.7969 47.4219
C34.7969 38.7344 29.7031 31.25 24 24.75
L4.09375 2.28125
L4.09375 0
L39.2969 0
z
" id="CMR17-50"/>
     <path d="
M11.4062 57.6875
C12.4062 57.2812 16.5 56 20.7031 56
C30 56 35.0938 61.0156 38 63.9219
C38 64.7344 38 65.25 37.4062 65.25
C37.2969 65.25 37.0938 65.25 36.2969 64.8281
C32.7969 63.3125 28.7031 62.0781 23.7031 62.0781
C20.7031 62.0781 16.2031 62.5 11.2969 64.7344
C10.2031 65.25 10 65.25 9.90625 65.25
C9.40625 65.25 9.29688 65.1406 9.29688 63.1562
L9.29688 34.2812
C9.29688 32.5 9.29688 32 10.2969 32
C10.7969 32 11 32.2031 11.5 32.9062
C14.7031 37.4844 19.0938 39.4062 24.0938 39.4062
C27.5938 39.4062 35.0938 37.2188 35.0938 20.1406
C35.0938 16.9531 35.0938 11.1719 32.0938 6.57812
C29.5938 2.48438 25.7031 0.390625 21.4062 0.390625
C14.7969 0.390625 8.09375 5 6.29688 12.7188
C6.70312 12.6094 7.5 12.4219 7.90625 12.4219
C9.20312 12.4219 11.7031 13.125 11.7031 16.2188
C11.7031 18.9062 9.79688 20 7.90625 20
C5.59375 20 4.09375 18.5938 4.09375 15.7969
C4.09375 7.09375 11 -2 21.5938 -2
C31.9062 -2 41.7031 6.875 41.7031 19.75
C41.7031 31.7188 33.9062 41 24.2031 41
C19.0938 41 14.7969 39.0938 11.4062 35.4531
z
" id="CMR17-53"/>
     <path d="
M10.5938 34
C10.5938 57.6562 21.7969 63 28.2969 63
C30.4062 63 35.5 62.6406 37.5 59
C35.9062 59 32.9062 59 32.9062 55.5156
C32.9062 52.8281 35.0938 51.9219 36.5 51.9219
C37.4062 51.9219 40.0938 52.3125 40.0938 55.625
C40.0938 61.7812 35.0938 65.2969 28.2031 65.2969
C16.2969 65.2969 3.79688 52.9688 3.79688 31
C3.79688 3.95312 15.0938 -2 23.0938 -2
C32.7969 -2 42 6.67188 42 20.0469
C42 32.5156 33.9062 41.5938 23.7031 41.5938
C17.5938 41.5938 13.0938 37.6094 10.5938 30.625
z

M23.0938 0.390625
C10.7969 0.390625 10.7969 18.75 10.7969 22.4375
C10.7969 29.625 14.2031 40 23.5 40
C25.2031 40 30.0938 40 33.4062 33.125
C35.2031 29.2188 35.2031 25.1406 35.2031 20.1406
C35.2031 14.75 35.2031 10.7812 33.0938 6.78125
C30.9062 2.67188 27.7031 0.390625 23.0938 0.390625" id="CMR17-54"/>
     <path d="
M26.5938 63.3125
C26.5938 65.4062 26.5 65.5 25.0938 65.5
C21.2031 61.1875 15.2969 59.7969 9.70312 59.7969
C9.40625 59.7969 8.90625 59.7969 8.79688 59.5
C8.70312 59.2969 8.70312 59.0938 8.70312 57
C11.7969 57 17 57.5938 21 59.9844
L21 7.20312
C21 3.6875 20.7969 2.5 12.2031 2.5
L9.20312 2.5
L9.20312 0
C14 0 19 0 23.7969 0
C28.5938 0 33.5938 0 38.4062 0
L38.4062 2.5
L35.4062 2.5
C26.7969 2.5 26.5938 3.59375 26.5938 7.15625
z
" id="CMR17-49"/>
     <path d="
M18.4062 4.79688
C18.4062 7.6875 16 9.67188 13.5938 9.67188
C10.7031 9.67188 8.70312 7.28125 8.70312 4.89062
C8.70312 2 11.0938 0 13.5 0
C16.4062 0 18.4062 2.39062 18.4062 4.79688" id="CMMI12-58"/>
     <path d="
M19.5 -0.484375
C19.5 5.35938 17.5938 9.67188 13.5 9.67188
C10.2969 9.67188 8.70312 7.07812 8.70312 4.89062
C8.70312 2.6875 10.2031 0 13.5938 0
C14.9062 0 16 0.40625 16.9062 1.29688
C17.0938 1.5 17.2031 1.5 17.2969 1.5
C17.5 1.5 17.5 0.078125 17.5 -0.421875
C17.5 -3.75 16.9062 -10.2969 11.0938 -16.875
C10 -18.0781 10 -18.2812 10 -18.4844
C10 -19 10.5 -19.5 11 -19.5
C11.7969 -19.5 19.5 -12.0469 19.5 -0.484375" id="CMMI12-59"/>
    </defs>
    <g transform="translate(158.55895959 17.1626248978)scale(0.144 -0.144)">
     <use transform="translate(0.0 14.9439145441)scale(0.996264009963)" xlink:href="#CMMI12-86"/>
     <use transform="translate(56.8695790444 0.0)scale(0.697381766617)" xlink:href="#CMR17-49"/>
     <use transform="translate(117.024901736 14.9439145441)scale(0.996264009963)" xlink:href="#CMR17-61"/>
     <use transform="translate(216.413698873 14.9439145441)scale(0.996264009963)" xlink:href="#CMR17-53"/>
     <use transform="translate(262.10417599 14.9439145441)scale(0.996264009963)" xlink:href="#CMMI12-58"/>
     <use transform="translate(289.20135308 14.9439145441)scale(0.996264009963)" xlink:href="#CMR17-54"/>
     <use transform="translate(334.891830197 14.9439145441)scale(0.996264009963)" xlink:href="#CMMI12-59"/>
     <use transform="translate(408.669378867 14.9439145441)scale(0.996264009963)" xlink:href="#CMMI12-86"/>
     <use transform="translate(465.538957912 0.0)scale(0.697381766617)" xlink:href="#CMR17-50"/>
     <use transform="translate(525.694280603 14.9439145441)scale(0.996264009963)" xlink:href="#CMR17-61"/>
     <use transform="translate(625.083077741 14.9439145441)scale(0.996264009963)" xlink:href="#CMR17-49"/>
     <use transform="translate(670.773554858 14.9439145441)scale(0.996264009963)" xlink:href="#CMMI12-58"/>
     <use transform="translate(697.870731948 14.9439145441)scale(0.996264009963)" xlink:href="#CMR17-54"/>
    </g>
   </g>
  </g>
 </g>
 <defs>
  <clipPath id="p59b5b4f9de">
   <rect height="345.6" width="414.72" x="7.2" y="22.1626248978"/>
  </clipPath>
 </defs>
</svg>
