<?xml version="1.0" encoding="utf-8" standalone="no"?>
<!DOCTYPE svg PUBLIC "-//W3C//DTD SVG 1.1//EN"
  "http://www.w3.org/Graphics/SVG/1.1/DTD/svg11.dtd">
<!-- Created with matplotlib (http://matplotlib.org/) -->
<svg height="348pt" version="1.1" viewBox="0 0 460 348" width="460pt" xmlns="http://www.w3.org/2000/svg" xmlns:xlink="http://www.w3.org/1999/xlink">
 <defs>
  <style type="text/css">
*{stroke-linecap:butt;stroke-linejoin:round;}
  </style>
 </defs>
 <g id="figure_1">
  <g id="patch_1">
   <path d="
M0 348.22
L460.8 348.22
L460.8 0
L0 0
z
" style="fill:#ffffff;"/>
  </g>
  <g id="axes_1">
   <g id="patch_2">
    <path d="
M7.2 341.02
L453.6 341.02
L453.6 22.1626
L7.2 22.1626
z
" style="fill:#ffffff;"/>
   </g>
   <g id="PathCollection_1">
    <defs>
     <path d="
M0 11.4249
C3.02993 11.4249 5.93617 10.2211 8.07865 8.07865
C10.2211 5.93617 11.4249 3.02993 11.4249 0
C11.4249 -3.02993 10.2211 -5.93617 8.07865 -8.07865
C5.93617 -10.2211 3.02993 -11.4249 0 -11.4249
C-3.02993 -11.4249 -5.93617 -10.2211 -8.07865 -8.07865
C-10.2211 -5.93617 -11.4249 -3.02993 -11.4249 0
C-11.4249 3.02993 -10.2211 5.93617 -8.07865 8.07865
C-5.93617 10.2211 -3.02993 11.4249 0 11.4249
z
" id="C0_0_9e5ec1131e"/>
     <path d="
M0 9.40593
C2.49448 9.40593 4.88713 8.41486 6.65099 6.65099
C8.41486 4.88713 9.40593 2.49448 9.40593 0
C9.40593 -2.49448 8.41486 -4.88713 6.65099 -6.65099
C4.88713 -8.41486 2.49448 -9.40593 0 -9.40593
C-2.49448 -9.40593 -4.88713 -8.41486 -6.65099 -6.65099
C-8.41486 -4.88713 -9.40593 -2.49448 -9.40593 0
C-9.40593 2.49448 -8.41486 4.88713 -6.65099 6.65099
C-4.88713 8.41486 -2.49448 9.40593 0 9.40593
z
" id="C0_1_913db26d63"/>
     <path d="
M0 9.55471
C2.53394 9.55471 4.96443 8.54796 6.7562 6.7562
C8.54796 4.96443 9.55471 2.53394 9.55471 0
C9.55471 -2.53394 8.54796 -4.96443 6.7562 -6.7562
C4.96443 -8.54796 2.53394 -9.55471 0 -9.55471
C-2.53394 -9.55471 -4.96443 -8.54796 -6.7562 -6.7562
C-8.54796 -4.96443 -9.55471 -2.53394 -9.55471 0
C-9.55471 2.53394 -8.54796 4.96443 -6.7562 6.7562
C-4.96443 8.54796 -2.53394 9.55471 0 9.55471
z
" id="C0_2_4bb4a421d7"/>
     <path d="
M0 11.3787
C3.01767 11.3787 5.91215 10.1798 8.04596 8.04596
C10.1798 5.91215 11.3787 3.01767 11.3787 0
C11.3787 -3.01767 10.1798 -5.91215 8.04596 -8.04596
C5.91215 -10.1798 3.01767 -11.3787 0 -11.3787
C-3.01767 -11.3787 -5.91215 -10.1798 -8.04596 -8.04596
C-10.1798 -5.91215 -11.3787 -3.01767 -11.3787 0
C-11.3787 3.01767 -10.1798 5.91215 -8.04596 8.04596
C-5.91215 10.1798 -3.01767 11.3787 0 11.3787
z
" id="C0_3_399ed460ab"/>
     <path d="
M0 7.10153
C1.88335 7.10153 3.68981 6.35327 5.02154 5.02154
C6.35327 3.68981 7.10153 1.88335 7.10153 0
C7.10153 -1.88335 6.35327 -3.68981 5.02154 -5.02154
C3.68981 -6.35327 1.88335 -7.10153 0 -7.10153
C-1.88335 -7.10153 -3.68981 -6.35327 -5.02154 -5.02154
C-6.35327 -3.68981 -7.10153 -1.88335 -7.10153 0
C-7.10153 1.88335 -6.35327 3.68981 -5.02154 5.02154
C-3.68981 6.35327 -1.88335 7.10153 0 7.10153
z
" id="C0_4_69efde95a7"/>
     <path d="
M0 11.4349
C3.03258 11.4349 5.94137 10.2301 8.08572 8.08572
C10.2301 5.94137 11.4349 3.03258 11.4349 0
C11.4349 -3.03258 10.2301 -5.94137 8.08572 -8.08572
C5.94137 -10.2301 3.03258 -11.4349 0 -11.4349
C-3.03258 -11.4349 -5.94137 -10.2301 -8.08572 -8.08572
C-10.2301 -5.94137 -11.4349 -3.03258 -11.4349 0
C-11.4349 3.03258 -10.2301 5.94137 -8.08572 8.08572
C-5.94137 10.2301 -3.03258 11.4349 0 11.4349
z
" id="C0_5_f74eda11bc"/>
     <path d="
M0 7.02102
C1.862 7.02102 3.64798 6.28124 4.96461 4.96461
C6.28124 3.64798 7.02102 1.862 7.02102 0
C7.02102 -1.862 6.28124 -3.64798 4.96461 -4.96461
C3.64798 -6.28124 1.862 -7.02102 0 -7.02102
C-1.862 -7.02102 -3.64798 -6.28124 -4.96461 -4.96461
C-6.28124 -3.64798 -7.02102 -1.862 -7.02102 0
C-7.02102 1.862 -6.28124 3.64798 -4.96461 4.96461
C-3.64798 6.28124 -1.862 7.02102 0 7.02102
z
" id="C0_6_d440a9d285"/>
     <path d="
M0 9.57124
C2.53832 9.57124 4.97302 8.56276 6.76789 6.76789
C8.56276 4.97302 9.57124 2.53832 9.57124 0
C9.57124 -2.53832 8.56276 -4.97302 6.76789 -6.76789
C4.97302 -8.56276 2.53832 -9.57124 0 -9.57124
C-2.53832 -9.57124 -4.97302 -8.56276 -6.76789 -6.76789
C-8.56276 -4.97302 -9.57124 -2.53832 -9.57124 0
C-9.57124 2.53832 -8.56276 4.97302 -6.76789 6.76789
C-4.97302 8.56276 -2.53832 9.57124 0 9.57124
z
" id="C0_7_5620971515"/>
     <path d="
M0 9.41346
C2.49648 9.41346 4.89104 8.4216 6.65632 6.65632
C8.4216 4.89104 9.41346 2.49648 9.41346 0
C9.41346 -2.49648 8.4216 -4.89104 6.65632 -6.65632
C4.89104 -8.4216 2.49648 -9.41346 0 -9.41346
C-2.49648 -9.41346 -4.89104 -8.4216 -6.65632 -6.65632
C-8.4216 -4.89104 -9.41346 -2.49648 -9.41346 0
C-9.41346 2.49648 -8.4216 4.89104 -6.65632 6.65632
C-4.89104 8.4216 -2.49648 9.41346 0 9.41346
z
" id="C0_8_45fb878db4"/>
     <path d="
M0 7.1136
C1.88655 7.1136 3.69608 6.36407 5.03007 5.03007
C6.36407 3.69608 7.1136 1.88655 7.1136 0
C7.1136 -1.88655 6.36407 -3.69608 5.03007 -5.03007
C3.69608 -6.36407 1.88655 -7.1136 0 -7.1136
C-1.88655 -7.1136 -3.69608 -6.36407 -5.03007 -5.03007
C-6.36407 -3.69608 -7.1136 -1.88655 -7.1136 0
C-7.1136 1.88655 -6.36407 3.69608 -5.03007 5.03007
C-3.69608 6.36407 -1.88655 7.1136 0 7.1136
z
" id="C0_9_23f8f6c148"/>
     <path d="
M0 11.3776
C3.01737 11.3776 5.91156 10.1788 8.04516 8.04516
C10.1788 5.91156 11.3776 3.01737 11.3776 0
C11.3776 -3.01737 10.1788 -5.91156 8.04516 -8.04516
C5.91156 -10.1788 3.01737 -11.3776 0 -11.3776
C-3.01737 -11.3776 -5.91156 -10.1788 -8.04516 -8.04516
C-10.1788 -5.91156 -11.3776 -3.01737 -11.3776 0
C-11.3776 3.01737 -10.1788 5.91156 -8.04516 8.04516
C-5.91156 10.1788 -3.01737 11.3776 0 11.3776
z
" id="C0_a_1d02865152"/>
     <path d="
M0 7.02577
C1.86325 7.02577 3.65045 6.28549 4.96797 4.96797
C6.28549 3.65045 7.02577 1.86325 7.02577 0
C7.02577 -1.86325 6.28549 -3.65045 4.96797 -4.96797
C3.65045 -6.28549 1.86325 -7.02577 0 -7.02577
C-1.86325 -7.02577 -3.65045 -6.28549 -4.96797 -4.96797
C-6.28549 -3.65045 -7.02577 -1.86325 -7.02577 0
C-7.02577 1.86325 -6.28549 3.65045 -4.96797 4.96797
C-3.65045 6.28549 -1.86325 7.02577 0 7.02577
z
" id="C0_b_ea7d0c9f3d"/>
     <path d="
M0 9.41717
C2.49746 9.41717 4.89297 8.42492 6.65894 6.65894
C8.42492 4.89297 9.41717 2.49746 9.41717 0
C9.41717 -2.49746 8.42492 -4.89297 6.65894 -6.65894
C4.89297 -8.42492 2.49746 -9.41717 0 -9.41717
C-2.49746 -9.41717 -4.89297 -8.42492 -6.65894 -6.65894
C-8.42492 -4.89297 -9.41717 -2.49746 -9.41717 0
C-9.41717 2.49746 -8.42492 4.89297 -6.65894 6.65894
C-4.89297 8.42492 -2.49746 9.41717 0 9.41717
z
" id="C0_c_eebbec352c"/>
     <path d="
M0 7.11388
C1.88662 7.11388 3.69623 6.36432 5.03028 5.03028
C6.36432 3.69623 7.11388 1.88662 7.11388 0
C7.11388 -1.88662 6.36432 -3.69623 5.03028 -5.03028
C3.69623 -6.36432 1.88662 -7.11388 0 -7.11388
C-1.88662 -7.11388 -3.69623 -6.36432 -5.03028 -5.03028
C-6.36432 -3.69623 -7.11388 -1.88662 -7.11388 0
C-7.11388 1.88662 -6.36432 3.69623 -5.03028 5.03028
C-3.69623 6.36432 -1.88662 7.11388 0 7.11388
z
" id="C0_d_13c057dd9c"/>
     <path d="
M0 11.3806
C3.01816 11.3806 5.91312 10.1814 8.04728 8.04728
C10.1814 5.91312 11.3806 3.01816 11.3806 0
C11.3806 -3.01816 10.1814 -5.91312 8.04728 -8.04728
C5.91312 -10.1814 3.01816 -11.3806 0 -11.3806
C-3.01816 -11.3806 -5.91312 -10.1814 -8.04728 -8.04728
C-10.1814 -5.91312 -11.3806 -3.01816 -11.3806 0
C-11.3806 3.01816 -10.1814 5.91312 -8.04728 8.04728
C-5.91312 10.1814 -3.01816 11.3806 0 11.3806
z
" id="C0_e_38924ffce7"/>
     <path d="
M0 7.02097
C1.86198 7.02097 3.64796 6.2812 4.96458 4.96458
C6.2812 3.64796 7.02097 1.86198 7.02097 0
C7.02097 -1.86198 6.2812 -3.64796 4.96458 -4.96458
C3.64796 -6.2812 1.86198 -7.02097 0 -7.02097
C-1.86198 -7.02097 -3.64796 -6.2812 -4.96458 -4.96458
C-6.2812 -3.64796 -7.02097 -1.86198 -7.02097 0
C-7.02097 1.86198 -6.2812 3.64796 -4.96458 4.96458
C-3.64796 6.2812 -1.86198 7.02097 0 7.02097
z
" id="C0_f_55abe391e5"/>
     <path d="
M0 11.4316
C3.03169 11.4316 5.93961 10.2271 8.08334 8.08334
C10.2271 5.93961 11.4316 3.03169 11.4316 0
C11.4316 -3.03169 10.2271 -5.93961 8.08334 -8.08334
C5.93961 -10.2271 3.03169 -11.4316 0 -11.4316
C-3.03169 -11.4316 -5.93961 -10.2271 -8.08334 -8.08334
C-10.2271 -5.93961 -11.4316 -3.03169 -11.4316 0
C-11.4316 3.03169 -10.2271 5.93961 -8.08334 8.08334
C-5.93961 10.2271 -3.03169 11.4316 0 11.4316
z
" id="C0_10_7bcc400161"/>
     <path d="
M0 9.40345
C2.49382 9.40345 4.88584 8.41264 6.64924 6.64924
C8.41264 4.88584 9.40345 2.49382 9.40345 0
C9.40345 -2.49382 8.41264 -4.88584 6.64924 -6.64924
C4.88584 -8.41264 2.49382 -9.40345 0 -9.40345
C-2.49382 -9.40345 -4.88584 -8.41264 -6.64924 -6.64924
C-8.41264 -4.88584 -9.40345 -2.49382 -9.40345 0
C-9.40345 2.49382 -8.41264 4.88584 -6.64924 6.64924
C-4.88584 8.41264 -2.49382 9.40345 0 9.40345
z
" id="C0_11_403320ee40"/>
     <path d="
M0 9.55768
C2.53473 9.55768 4.96598 8.55062 6.7583 6.7583
C8.55062 4.96598 9.55768 2.53473 9.55768 0
C9.55768 -2.53473 8.55062 -4.96598 6.7583 -6.7583
C4.96598 -8.55062 2.53473 -9.55768 0 -9.55768
C-2.53473 -9.55768 -4.96598 -8.55062 -6.7583 -6.7583
C-8.55062 -4.96598 -9.55768 -2.53473 -9.55768 0
C-9.55768 2.53473 -8.55062 4.96598 -6.7583 6.7583
C-4.96598 8.55062 -2.53473 9.55768 0 9.55768
z
" id="C0_12_aa22272d7a"/>
     <path d="
M0 11.3791
C3.01777 11.3791 5.91235 10.1801 8.04624 8.04624
C10.1801 5.91235 11.3791 3.01777 11.3791 0
C11.3791 -3.01777 10.1801 -5.91235 8.04624 -8.04624
C5.91235 -10.1801 3.01777 -11.3791 0 -11.3791
C-3.01777 -11.3791 -5.91235 -10.1801 -8.04624 -8.04624
C-10.1801 -5.91235 -11.3791 -3.01777 -11.3791 0
C-11.3791 3.01777 -10.1801 5.91235 -8.04624 8.04624
C-5.91235 10.1801 -3.01777 11.3791 0 11.3791
z
" id="C0_13_cc55da0ca7"/>
     <path d="
M0 7.10476
C1.8842 7.10476 3.69149 6.35616 5.02382 5.02382
C6.35616 3.69149 7.10476 1.8842 7.10476 0
C7.10476 -1.8842 6.35616 -3.69149 5.02382 -5.02382
C3.69149 -6.35616 1.8842 -7.10476 0 -7.10476
C-1.8842 -7.10476 -3.69149 -6.35616 -5.02382 -5.02382
C-6.35616 -3.69149 -7.10476 -1.8842 -7.10476 0
C-7.10476 1.8842 -6.35616 3.69149 -5.02382 5.02382
C-3.69149 6.35616 -1.8842 7.10476 0 7.10476
z
" id="C0_14_1247ae2ba4"/>
     <path d="
M0 11.4323
C3.03188 11.4323 5.93998 10.2277 8.08384 8.08384
C10.2277 5.93998 11.4323 3.03188 11.4323 0
C11.4323 -3.03188 10.2277 -5.93998 8.08384 -8.08384
C5.93998 -10.2277 3.03188 -11.4323 0 -11.4323
C-3.03188 -11.4323 -5.93998 -10.2277 -8.08384 -8.08384
C-10.2277 -5.93998 -11.4323 -3.03188 -11.4323 0
C-11.4323 3.03188 -10.2277 5.93998 -8.08384 8.08384
C-5.93998 10.2277 -3.03188 11.4323 0 11.4323
z
" id="C0_15_5d0dad5ded"/>
     <path d="
M0 7.02981
C1.86433 7.02981 3.65255 6.2891 4.97082 4.97082
C6.2891 3.65255 7.02981 1.86433 7.02981 0
C7.02981 -1.86433 6.2891 -3.65255 4.97082 -4.97082
C3.65255 -6.2891 1.86433 -7.02981 0 -7.02981
C-1.86433 -7.02981 -3.65255 -6.2891 -4.97082 -4.97082
C-6.2891 -3.65255 -7.02981 -1.86433 -7.02981 0
C-7.02981 1.86433 -6.2891 3.65255 -4.97082 4.97082
C-3.65255 6.2891 -1.86433 7.02981 0 7.02981
z
" id="C0_16_731266d0f7"/>
     <path d="
M0 9.57055
C2.53814 9.57055 4.97267 8.56214 6.7674 6.7674
C8.56214 4.97267 9.57055 2.53814 9.57055 0
C9.57055 -2.53814 8.56214 -4.97267 6.7674 -6.7674
C4.97267 -8.56214 2.53814 -9.57055 0 -9.57055
C-2.53814 -9.57055 -4.97267 -8.56214 -6.7674 -6.7674
C-8.56214 -4.97267 -9.57055 -2.53814 -9.57055 0
C-9.57055 2.53814 -8.56214 4.97267 -6.7674 6.7674
C-4.97267 8.56214 -2.53814 9.57055 0 9.57055
z
" id="C0_17_219fcb943d"/>
     <path d="
M0 7.109
C1.88533 7.109 3.69369 6.35995 5.02682 5.02682
C6.35995 3.69369 7.109 1.88533 7.109 0
C7.109 -1.88533 6.35995 -3.69369 5.02682 -5.02682
C3.69369 -6.35995 1.88533 -7.109 0 -7.109
C-1.88533 -7.109 -3.69369 -6.35995 -5.02682 -5.02682
C-6.35995 -3.69369 -7.109 -1.88533 -7.109 0
C-7.109 1.88533 -6.35995 3.69369 -5.02682 5.02682
C-3.69369 6.35995 -1.88533 7.109 0 7.109
z
" id="C0_18_ad0af117fa"/>
     <path d="
M0 11.4296
C3.03117 11.4296 5.9386 10.2253 8.08195 8.08195
C10.2253 5.9386 11.4296 3.03117 11.4296 0
C11.4296 -3.03117 10.2253 -5.9386 8.08195 -8.08195
C5.9386 -10.2253 3.03117 -11.4296 0 -11.4296
C-3.03117 -11.4296 -5.9386 -10.2253 -8.08195 -8.08195
C-10.2253 -5.9386 -11.4296 -3.03117 -11.4296 0
C-11.4296 3.03117 -10.2253 5.9386 -8.08195 8.08195
C-5.9386 10.2253 -3.03117 11.4296 0 11.4296
z
" id="C0_19_8eb3ee0663"/>
     <path d="
M0 7.0287
C1.86403 7.0287 3.65197 6.28811 4.97004 4.97004
C6.28811 3.65197 7.0287 1.86403 7.0287 0
C7.0287 -1.86403 6.28811 -3.65197 4.97004 -4.97004
C3.65197 -6.28811 1.86403 -7.0287 0 -7.0287
C-1.86403 -7.0287 -3.65197 -6.28811 -4.97004 -4.97004
C-6.28811 -3.65197 -7.0287 -1.86403 -7.0287 0
C-7.0287 1.86403 -6.28811 3.65197 -4.97004 4.97004
C-3.65197 6.28811 -1.86403 7.0287 0 7.0287
z
" id="C0_1a_c18dfca027"/>
     <path d="
M0 9.56743
C2.53731 9.56743 4.97104 8.55935 6.7652 6.7652
C8.55935 4.97104 9.56743 2.53731 9.56743 0
C9.56743 -2.53731 8.55935 -4.97104 6.7652 -6.7652
C4.97104 -8.55935 2.53731 -9.56743 0 -9.56743
C-2.53731 -9.56743 -4.97104 -8.55935 -6.7652 -6.7652
C-8.55935 -4.97104 -9.56743 -2.53731 -9.56743 0
C-9.56743 2.53731 -8.55935 4.97104 -6.7652 6.7652
C-4.97104 8.55935 -2.53731 9.56743 0 9.56743
z
" id="C0_1b_85d313449f"/>
     <path d="
M0 9.4173
C2.4975 9.4173 4.89304 8.42503 6.65903 6.65903
C8.42503 4.89304 9.4173 2.4975 9.4173 0
C9.4173 -2.4975 8.42503 -4.89304 6.65903 -6.65903
C4.89304 -8.42503 2.4975 -9.4173 0 -9.4173
C-2.4975 -9.4173 -4.89304 -8.42503 -6.65903 -6.65903
C-8.42503 -4.89304 -9.4173 -2.4975 -9.4173 0
C-9.4173 2.4975 -8.42503 4.89304 -6.65903 6.65903
C-4.89304 8.42503 -2.4975 9.4173 0 9.4173
z
" id="C0_1c_08def76f11"/>
     <path d="
M0 7.10531
C1.88435 7.10531 3.69178 6.35665 5.02422 5.02422
C6.35665 3.69178 7.10531 1.88435 7.10531 0
C7.10531 -1.88435 6.35665 -3.69178 5.02422 -5.02422
C3.69178 -6.35665 1.88435 -7.10531 0 -7.10531
C-1.88435 -7.10531 -3.69178 -6.35665 -5.02422 -5.02422
C-6.35665 -3.69178 -7.10531 -1.88435 -7.10531 0
C-7.10531 1.88435 -6.35665 3.69178 -5.02422 5.02422
C-3.69178 6.35665 -1.88435 7.10531 0 7.10531
z
" id="C0_1d_538a12b157"/>
     <path d="
M0 11.3832
C3.01886 11.3832 5.91447 10.1838 8.04913 8.04913
C10.1838 5.91447 11.3832 3.01886 11.3832 0
C11.3832 -3.01886 10.1838 -5.91447 8.04913 -8.04913
C5.91447 -10.1838 3.01886 -11.3832 0 -11.3832
C-3.01886 -11.3832 -5.91447 -10.1838 -8.04913 -8.04913
C-10.1838 -5.91447 -11.3832 -3.01886 -11.3832 0
C-11.3832 3.01886 -10.1838 5.91447 -8.04913 8.04913
C-5.91447 10.1838 -3.01886 11.3832 0 11.3832
z
" id="C0_1e_8000f01517"/>
     <path d="
M0 7.01759
C1.86109 7.01759 3.6462 6.27817 4.96218 4.96218
C6.27817 3.6462 7.01759 1.86109 7.01759 0
C7.01759 -1.86109 6.27817 -3.6462 4.96218 -4.96218
C3.6462 -6.27817 1.86109 -7.01759 0 -7.01759
C-1.86109 -7.01759 -3.6462 -6.27817 -4.96218 -4.96218
C-6.27817 -3.6462 -7.01759 -1.86109 -7.01759 0
C-7.01759 1.86109 -6.27817 3.6462 -4.96218 4.96218
C-3.6462 6.27817 -1.86109 7.01759 0 7.01759
z
" id="C0_1f_599e2497f2"/>
     <path d="
M0 11.4311
C3.03156 11.4311 5.93936 10.2266 8.083 8.083
C10.2266 5.93936 11.4311 3.03156 11.4311 0
C11.4311 -3.03156 10.2266 -5.93936 8.083 -8.083
C5.93936 -10.2266 3.03156 -11.4311 0 -11.4311
C-3.03156 -11.4311 -5.93936 -10.2266 -8.083 -8.083
C-10.2266 -5.93936 -11.4311 -3.03156 -11.4311 0
C-11.4311 3.03156 -10.2266 5.93936 -8.083 8.083
C-5.93936 10.2266 -3.03156 11.4311 0 11.4311
z
" id="C0_20_cd3a21426e"/>
     <path d="
M0 9.40083
C2.49313 9.40083 4.88448 8.4103 6.64739 6.64739
C8.4103 4.88448 9.40083 2.49313 9.40083 0
C9.40083 -2.49313 8.4103 -4.88448 6.64739 -6.64739
C4.88448 -8.4103 2.49313 -9.40083 0 -9.40083
C-2.49313 -9.40083 -4.88448 -8.4103 -6.64739 -6.64739
C-8.4103 -4.88448 -9.40083 -2.49313 -9.40083 0
C-9.40083 2.49313 -8.4103 4.88448 -6.64739 6.64739
C-4.88448 8.4103 -2.49313 9.40083 0 9.40083
z
" id="C0_21_9960893420"/>
     <path d="
M0 9.55966
C2.53525 9.55966 4.96701 8.55239 6.7597 6.7597
C8.55239 4.96701 9.55966 2.53525 9.55966 0
C9.55966 -2.53525 8.55239 -4.96701 6.7597 -6.7597
C4.96701 -8.55239 2.53525 -9.55966 0 -9.55966
C-2.53525 -9.55966 -4.96701 -8.55239 -6.7597 -6.7597
C-8.55239 -4.96701 -9.55966 -2.53525 -9.55966 0
C-9.55966 2.53525 -8.55239 4.96701 -6.7597 6.7597
C-4.96701 8.55239 -2.53525 9.55966 0 9.55966
z
" id="C0_22_ee58dd0359"/>
     <path d="
M0 11.3729
C3.01612 11.3729 5.90911 10.1746 8.04183 8.04183
C10.1746 5.90911 11.3729 3.01612 11.3729 0
C11.3729 -3.01612 10.1746 -5.90911 8.04183 -8.04183
C5.90911 -10.1746 3.01612 -11.3729 0 -11.3729
C-3.01612 -11.3729 -5.90911 -10.1746 -8.04183 -8.04183
C-10.1746 -5.90911 -11.3729 -3.01612 -11.3729 0
C-11.3729 3.01612 -10.1746 5.90911 -8.04183 8.04183
C-5.90911 10.1746 -3.01612 11.3729 0 11.3729
z
" id="C0_23_7917983a26"/>
    </defs>
    <g clip-path="url(#pa3b7868a4b)">
     <use style="fill:#0000ff;stroke:#000000;" x="198.514285714" xlink:href="#C0_0_9e5ec1131e" y="309.134053469"/>
    </g>
    <g clip-path="url(#pa3b7868a4b)">
     <use style="fill:#0000ff;stroke:#000000;" x="170.900447125" xlink:href="#C0_1_913db26d63" y="293.191196326"/>
    </g>
    <g clip-path="url(#pa3b7868a4b)">
     <use style="fill:#0000ff;stroke:#000000;" x="170.900447125" xlink:href="#C0_2_4bb4a421d7" y="261.305482041"/>
    </g>
    <g clip-path="url(#pa3b7868a4b)">
     <use style="fill:#0000ff;stroke:#000000;" x="143.286608536" xlink:href="#C0_3_399ed460ab" y="245.362624898"/>
    </g>
    <g clip-path="url(#pa3b7868a4b)">
     <use style="fill:#0000ff;stroke:#000000;" x="143.286608536" xlink:href="#C0_4_69efde95a7" y="213.476910612"/>
    </g>
    <g clip-path="url(#pa3b7868a4b)">
     <use style="fill:#0000ff;stroke:#000000;" x="115.672769947" xlink:href="#C0_5_f74eda11bc" y="197.534053469"/>
    </g>
    <g clip-path="url(#pa3b7868a4b)">
     <use style="fill:#0000ff;stroke:#000000;" x="115.672769947" xlink:href="#C0_6_d440a9d285" y="165.648339184"/>
    </g>
    <g clip-path="url(#pa3b7868a4b)">
     <use style="fill:#0000ff;stroke:#000000;" x="88.0589313573" xlink:href="#C0_7_5620971515" y="149.705482041"/>
    </g>
    <g clip-path="url(#pa3b7868a4b)">
     <use style="fill:#0000ff;stroke:#000000;" x="88.0589313573" xlink:href="#C0_8_45fb878db4" y="117.819767755"/>
    </g>
    <g clip-path="url(#pa3b7868a4b)">
     <use style="fill:#0000ff;stroke:#000000;" x="60.4450927681" xlink:href="#C0_9_23f8f6c148" y="101.876910612"/>
    </g>
    <g clip-path="url(#pa3b7868a4b)">
     <use style="fill:#0000ff;stroke:#000000;" x="60.4450927681" xlink:href="#C0_a_1d02865152" y="69.9911963264"/>
    </g>
    <g clip-path="url(#pa3b7868a4b)">
     <use style="fill:#0000ff;stroke:#000000;" x="32.8312541788" xlink:href="#C0_b_ea7d0c9f3d" y="54.0483391836"/>
    </g>
    <g clip-path="url(#pa3b7868a4b)">
     <use style="fill:#0000ff;stroke:#000000;" x="253.741962893" xlink:href="#C0_c_eebbec352c" y="309.134053469"/>
    </g>
    <g clip-path="url(#pa3b7868a4b)">
     <use style="fill:#0000ff;stroke:#000000;" x="226.128124304" xlink:href="#C0_d_13c057dd9c" y="293.191196326"/>
    </g>
    <g clip-path="url(#pa3b7868a4b)">
     <use style="fill:#0000ff;stroke:#000000;" x="226.128124304" xlink:href="#C0_e_38924ffce7" y="261.305482041"/>
    </g>
    <g clip-path="url(#pa3b7868a4b)">
     <use style="fill:#0000ff;stroke:#000000;" x="198.514285714" xlink:href="#C0_f_55abe391e5" y="245.362624898"/>
    </g>
    <g clip-path="url(#pa3b7868a4b)">
     <use style="fill:#0000ff;stroke:#000000;" x="198.514285714" xlink:href="#C0_10_7bcc400161" y="213.476910612"/>
    </g>
    <g clip-path="url(#pa3b7868a4b)">
     <use style="fill:#0000ff;stroke:#000000;" x="170.900447125" xlink:href="#C0_11_403320ee40" y="197.534053469"/>
    </g>
    <g clip-path="url(#pa3b7868a4b)">
     <use style="fill:#0000ff;stroke:#000000;" x="170.900447125" xlink:href="#C0_12_aa22272d7a" y="165.648339184"/>
    </g>
    <g clip-path="url(#pa3b7868a4b)">
     <use style="fill:#0000ff;stroke:#000000;" x="143.286608536" xlink:href="#C0_13_cc55da0ca7" y="149.705482041"/>
    </g>
    <g clip-path="url(#pa3b7868a4b)">
     <use style="fill:#0000ff;stroke:#000000;" x="143.286608536" xlink:href="#C0_14_1247ae2ba4" y="117.819767755"/>
    </g>
    <g clip-path="url(#pa3b7868a4b)">
     <use style="fill:#0000ff;stroke:#000000;" x="115.672769947" xlink:href="#C0_15_5d0dad5ded" y="101.876910612"/>
    </g>
    <g clip-path="url(#pa3b7868a4b)">
     <use style="fill:#0000ff;stroke:#000000;" x="115.672769947" xlink:href="#C0_16_731266d0f7" y="69.9911963264"/>
    </g>
    <g clip-path="url(#pa3b7868a4b)">
     <use style="fill:#0000ff;stroke:#000000;" x="88.0589313573" xlink:href="#C0_17_219fcb943d" y="54.0483391836"/>
    </g>
    <g clip-path="url(#pa3b7868a4b)">
     <use style="fill:#0000ff;stroke:#000000;" x="308.969640071" xlink:href="#C0_18_ad0af117fa" y="309.134053469"/>
    </g>
    <g clip-path="url(#pa3b7868a4b)">
     <use style="fill:#0000ff;stroke:#000000;" x="281.355801482" xlink:href="#C0_19_8eb3ee0663" y="293.191196326"/>
    </g>
    <g clip-path="url(#pa3b7868a4b)">
     <use style="fill:#0000ff;stroke:#000000;" x="281.355801482" xlink:href="#C0_1a_c18dfca027" y="261.305482041"/>
    </g>
    <g clip-path="url(#pa3b7868a4b)">
     <use style="fill:#0000ff;stroke:#000000;" x="253.741962893" xlink:href="#C0_1b_85d313449f" y="245.362624898"/>
    </g>
    <g clip-path="url(#pa3b7868a4b)">
     <use style="fill:#0000ff;stroke:#000000;" x="253.741962893" xlink:href="#C0_1c_08def76f11" y="213.476910612"/>
    </g>
    <g clip-path="url(#pa3b7868a4b)">
     <use style="fill:#0000ff;stroke:#000000;" x="226.128124304" xlink:href="#C0_1d_538a12b157" y="197.534053469"/>
    </g>
    <g clip-path="url(#pa3b7868a4b)">
     <use style="fill:#0000ff;stroke:#000000;" x="226.128124304" xlink:href="#C0_1e_8000f01517" y="165.648339184"/>
    </g>
    <g clip-path="url(#pa3b7868a4b)">
     <use style="fill:#0000ff;stroke:#000000;" x="198.514285714" xlink:href="#C0_1f_599e2497f2" y="149.705482041"/>
    </g>
    <g clip-path="url(#pa3b7868a4b)">
     <use style="fill:#0000ff;stroke:#000000;" x="198.514285714" xlink:href="#C0_20_cd3a21426e" y="117.819767755"/>
    </g>
    <g clip-path="url(#pa3b7868a4b)">
     <use style="fill:#0000ff;stroke:#000000;" x="170.900447125" xlink:href="#C0_21_9960893420" y="101.876910612"/>
    </g>
    <g clip-path="url(#pa3b7868a4b)">
     <use style="fill:#0000ff;stroke:#000000;" x="170.900447125" xlink:href="#C0_22_ee58dd0359" y="69.9911963264"/>
    </g>
    <g clip-path="url(#pa3b7868a4b)">
     <use style="fill:#0000ff;stroke:#000000;" x="143.286608536" xlink:href="#C0_23_7917983a26" y="54.0483391836"/>
    </g>
    <g clip-path="url(#pa3b7868a4b)">
     <use style="fill:#0000ff;stroke:#000000;" x="364.19731725" xlink:href="#C0_0_9e5ec1131e" y="309.134053469"/>
    </g>
    <g clip-path="url(#pa3b7868a4b)">
     <use style="fill:#0000ff;stroke:#000000;" x="336.58347866" xlink:href="#C0_1_913db26d63" y="293.191196326"/>
    </g>
    <g clip-path="url(#pa3b7868a4b)">
     <use style="fill:#0000ff;stroke:#000000;" x="336.58347866" xlink:href="#C0_2_4bb4a421d7" y="261.305482041"/>
    </g>
    <g clip-path="url(#pa3b7868a4b)">
     <use style="fill:#0000ff;stroke:#000000;" x="308.969640071" xlink:href="#C0_3_399ed460ab" y="245.362624898"/>
    </g>
    <g clip-path="url(#pa3b7868a4b)">
     <use style="fill:#0000ff;stroke:#000000;" x="308.969640071" xlink:href="#C0_4_69efde95a7" y="213.476910612"/>
    </g>
    <g clip-path="url(#pa3b7868a4b)">
     <use style="fill:#0000ff;stroke:#000000;" x="281.355801482" xlink:href="#C0_5_f74eda11bc" y="197.534053469"/>
    </g>
    <g clip-path="url(#pa3b7868a4b)">
     <use style="fill:#0000ff;stroke:#000000;" x="281.355801482" xlink:href="#C0_6_d440a9d285" y="165.648339184"/>
    </g>
    <g clip-path="url(#pa3b7868a4b)">
     <use style="fill:#0000ff;stroke:#000000;" x="253.741962893" xlink:href="#C0_7_5620971515" y="149.705482041"/>
    </g>
    <g clip-path="url(#pa3b7868a4b)">
     <use style="fill:#0000ff;stroke:#000000;" x="253.741962893" xlink:href="#C0_8_45fb878db4" y="117.819767755"/>
    </g>
    <g clip-path="url(#pa3b7868a4b)">
     <use style="fill:#0000ff;stroke:#000000;" x="226.128124304" xlink:href="#C0_9_23f8f6c148" y="101.876910612"/>
    </g>
    <g clip-path="url(#pa3b7868a4b)">
     <use style="fill:#0000ff;stroke:#000000;" x="226.128124304" xlink:href="#C0_a_1d02865152" y="69.9911963264"/>
    </g>
    <g clip-path="url(#pa3b7868a4b)">
     <use style="fill:#0000ff;stroke:#000000;" x="198.514285714" xlink:href="#C0_b_ea7d0c9f3d" y="54.0483391836"/>
    </g>
    <g clip-path="url(#pa3b7868a4b)">
     <use style="fill:#0000ff;stroke:#000000;" x="419.424994428" xlink:href="#C0_c_eebbec352c" y="309.134053469"/>
    </g>
    <g clip-path="url(#pa3b7868a4b)">
     <use style="fill:#0000ff;stroke:#000000;" x="391.811155839" xlink:href="#C0_d_13c057dd9c" y="293.191196326"/>
    </g>
    <g clip-path="url(#pa3b7868a4b)">
     <use style="fill:#0000ff;stroke:#000000;" x="391.811155839" xlink:href="#C0_e_38924ffce7" y="261.305482041"/>
    </g>
    <g clip-path="url(#pa3b7868a4b)">
     <use style="fill:#0000ff;stroke:#000000;" x="364.19731725" xlink:href="#C0_f_55abe391e5" y="245.362624898"/>
    </g>
    <g clip-path="url(#pa3b7868a4b)">
     <use style="fill:#0000ff;stroke:#000000;" x="364.19731725" xlink:href="#C0_10_7bcc400161" y="213.476910612"/>
    </g>
    <g clip-path="url(#pa3b7868a4b)">
     <use style="fill:#0000ff;stroke:#000000;" x="336.58347866" xlink:href="#C0_11_403320ee40" y="197.534053469"/>
    </g>
    <g clip-path="url(#pa3b7868a4b)">
     <use style="fill:#0000ff;stroke:#000000;" x="336.58347866" xlink:href="#C0_12_aa22272d7a" y="165.648339184"/>
    </g>
    <g clip-path="url(#pa3b7868a4b)">
     <use style="fill:#0000ff;stroke:#000000;" x="308.969640071" xlink:href="#C0_13_cc55da0ca7" y="149.705482041"/>
    </g>
    <g clip-path="url(#pa3b7868a4b)">
     <use style="fill:#0000ff;stroke:#000000;" x="308.969640071" xlink:href="#C0_14_1247ae2ba4" y="117.819767755"/>
    </g>
    <g clip-path="url(#pa3b7868a4b)">
     <use style="fill:#0000ff;stroke:#000000;" x="281.355801482" xlink:href="#C0_15_5d0dad5ded" y="101.876910612"/>
    </g>
    <g clip-path="url(#pa3b7868a4b)">
     <use style="fill:#0000ff;stroke:#000000;" x="281.355801482" xlink:href="#C0_16_731266d0f7" y="69.9911963264"/>
    </g>
    <g clip-path="url(#pa3b7868a4b)">
     <use style="fill:#0000ff;stroke:#000000;" x="253.741962893" xlink:href="#C0_17_219fcb943d" y="54.0483391836"/>
    </g>
   </g>
   <g id="line2d_1">
    <path clip-path="url(#pa3b7868a4b)" d="
M198.514 309.134
L170.9 293.191" style="fill:none;opacity:0.5;stroke:#000000;stroke-linecap:square;stroke-width:2;"/>
   </g>
   <g id="line2d_2">
    <path clip-path="url(#pa3b7868a4b)" d="
M198.514 309.134
L226.128 293.191" style="fill:none;opacity:0.5;stroke:#000000;stroke-linecap:square;stroke-width:2;"/>
   </g>
   <g id="line2d_3">
    <path clip-path="url(#pa3b7868a4b)" d="
M170.9 293.191
L170.9 261.305" style="fill:none;opacity:0.5;stroke:#000000;stroke-linecap:square;stroke-width:2;"/>
   </g>
   <g id="line2d_4">
    <path clip-path="url(#pa3b7868a4b)" d="
M170.9 261.305
L143.287 245.363" style="fill:none;opacity:0.5;stroke:#000000;stroke-linecap:square;stroke-width:2;"/>
   </g>
   <g id="line2d_5">
    <path clip-path="url(#pa3b7868a4b)" d="
M170.9 261.305
L198.514 245.363" style="fill:none;opacity:0.5;stroke:#000000;stroke-linecap:square;stroke-width:2;"/>
   </g>
   <g id="line2d_6">
    <path clip-path="url(#pa3b7868a4b)" d="
M143.287 245.363
L143.287 213.477" style="fill:none;opacity:0.5;stroke:#000000;stroke-linecap:square;stroke-width:2;"/>
   </g>
   <g id="line2d_7">
    <path clip-path="url(#pa3b7868a4b)" d="
M143.287 213.477
L115.673 197.534" style="fill:none;opacity:0.5;stroke:#000000;stroke-linecap:square;stroke-width:2;"/>
   </g>
   <g id="line2d_8">
    <path clip-path="url(#pa3b7868a4b)" d="
M143.287 213.477
L170.9 197.534" style="fill:none;opacity:0.5;stroke:#000000;stroke-linecap:square;stroke-width:2;"/>
   </g>
   <g id="line2d_9">
    <path clip-path="url(#pa3b7868a4b)" d="
M115.673 197.534
L115.673 165.648" style="fill:none;opacity:0.5;stroke:#000000;stroke-linecap:square;stroke-width:2;"/>
   </g>
   <g id="line2d_10">
    <path clip-path="url(#pa3b7868a4b)" d="
M115.673 165.648
L88.0589 149.705" style="fill:none;opacity:0.5;stroke:#000000;stroke-linecap:square;stroke-width:2;"/>
   </g>
   <g id="line2d_11">
    <path clip-path="url(#pa3b7868a4b)" d="
M115.673 165.648
L143.287 149.705" style="fill:none;opacity:0.5;stroke:#000000;stroke-linecap:square;stroke-width:2;"/>
   </g>
   <g id="line2d_12">
    <path clip-path="url(#pa3b7868a4b)" d="
M88.0589 149.705
L88.0589 117.82" style="fill:none;opacity:0.5;stroke:#000000;stroke-linecap:square;stroke-width:2;"/>
   </g>
   <g id="line2d_13">
    <path clip-path="url(#pa3b7868a4b)" d="
M88.0589 117.82
L60.4451 101.877" style="fill:none;opacity:0.5;stroke:#000000;stroke-linecap:square;stroke-width:2;"/>
   </g>
   <g id="line2d_14">
    <path clip-path="url(#pa3b7868a4b)" d="
M88.0589 117.82
L115.673 101.877" style="fill:none;opacity:0.5;stroke:#000000;stroke-linecap:square;stroke-width:2;"/>
   </g>
   <g id="line2d_15">
    <path clip-path="url(#pa3b7868a4b)" d="
M60.4451 101.877
L60.4451 69.9912" style="fill:none;opacity:0.5;stroke:#000000;stroke-linecap:square;stroke-width:2;"/>
   </g>
   <g id="line2d_16">
    <path clip-path="url(#pa3b7868a4b)" d="
M60.4451 69.9912
L32.8313 54.0483" style="fill:none;opacity:0.5;stroke:#000000;stroke-linecap:square;stroke-width:2;"/>
   </g>
   <g id="line2d_17">
    <path clip-path="url(#pa3b7868a4b)" d="
M60.4451 69.9912
L88.0589 54.0483" style="fill:none;opacity:0.5;stroke:#000000;stroke-linecap:square;stroke-width:2;"/>
   </g>
   <g id="line2d_18">
    <path clip-path="url(#pa3b7868a4b)" d="
M253.742 309.134
L226.128 293.191" style="fill:none;opacity:0.5;stroke:#000000;stroke-linecap:square;stroke-width:2;"/>
   </g>
   <g id="line2d_19">
    <path clip-path="url(#pa3b7868a4b)" d="
M253.742 309.134
L281.356 293.191" style="fill:none;opacity:0.5;stroke:#000000;stroke-linecap:square;stroke-width:2;"/>
   </g>
   <g id="line2d_20">
    <path clip-path="url(#pa3b7868a4b)" d="
M226.128 293.191
L226.128 261.305" style="fill:none;opacity:0.5;stroke:#000000;stroke-linecap:square;stroke-width:2;"/>
   </g>
   <g id="line2d_21">
    <path clip-path="url(#pa3b7868a4b)" d="
M226.128 261.305
L198.514 245.363" style="fill:none;opacity:0.5;stroke:#000000;stroke-linecap:square;stroke-width:2;"/>
   </g>
   <g id="line2d_22">
    <path clip-path="url(#pa3b7868a4b)" d="
M226.128 261.305
L253.742 245.363" style="fill:none;opacity:0.5;stroke:#000000;stroke-linecap:square;stroke-width:2;"/>
   </g>
   <g id="line2d_23">
    <path clip-path="url(#pa3b7868a4b)" d="
M198.514 245.363
L198.514 213.477" style="fill:none;opacity:0.5;stroke:#000000;stroke-linecap:square;stroke-width:2;"/>
   </g>
   <g id="line2d_24">
    <path clip-path="url(#pa3b7868a4b)" d="
M198.514 213.477
L170.9 197.534" style="fill:none;opacity:0.5;stroke:#000000;stroke-linecap:square;stroke-width:2;"/>
   </g>
   <g id="line2d_25">
    <path clip-path="url(#pa3b7868a4b)" d="
M198.514 213.477
L226.128 197.534" style="fill:none;opacity:0.5;stroke:#000000;stroke-linecap:square;stroke-width:2;"/>
   </g>
   <g id="line2d_26">
    <path clip-path="url(#pa3b7868a4b)" d="
M170.9 197.534
L170.9 165.648" style="fill:none;opacity:0.5;stroke:#000000;stroke-linecap:square;stroke-width:2;"/>
   </g>
   <g id="line2d_27">
    <path clip-path="url(#pa3b7868a4b)" d="
M170.9 165.648
L143.287 149.705" style="fill:none;opacity:0.5;stroke:#000000;stroke-linecap:square;stroke-width:2;"/>
   </g>
   <g id="line2d_28">
    <path clip-path="url(#pa3b7868a4b)" d="
M170.9 165.648
L198.514 149.705" style="fill:none;opacity:0.5;stroke:#000000;stroke-linecap:square;stroke-width:2;"/>
   </g>
   <g id="line2d_29">
    <path clip-path="url(#pa3b7868a4b)" d="
M143.287 149.705
L143.287 117.82" style="fill:none;opacity:0.5;stroke:#000000;stroke-linecap:square;stroke-width:2;"/>
   </g>
   <g id="line2d_30">
    <path clip-path="url(#pa3b7868a4b)" d="
M143.287 117.82
L115.673 101.877" style="fill:none;opacity:0.5;stroke:#000000;stroke-linecap:square;stroke-width:2;"/>
   </g>
   <g id="line2d_31">
    <path clip-path="url(#pa3b7868a4b)" d="
M143.287 117.82
L170.9 101.877" style="fill:none;opacity:0.5;stroke:#000000;stroke-linecap:square;stroke-width:2;"/>
   </g>
   <g id="line2d_32">
    <path clip-path="url(#pa3b7868a4b)" d="
M115.673 101.877
L115.673 69.9912" style="fill:none;opacity:0.5;stroke:#000000;stroke-linecap:square;stroke-width:2;"/>
   </g>
   <g id="line2d_33">
    <path clip-path="url(#pa3b7868a4b)" d="
M115.673 69.9912
L88.0589 54.0483" style="fill:none;opacity:0.5;stroke:#000000;stroke-linecap:square;stroke-width:2;"/>
   </g>
   <g id="line2d_34">
    <path clip-path="url(#pa3b7868a4b)" d="
M115.673 69.9912
L143.287 54.0483" style="fill:none;opacity:0.5;stroke:#000000;stroke-linecap:square;stroke-width:2;"/>
   </g>
   <g id="line2d_35">
    <path clip-path="url(#pa3b7868a4b)" d="
M308.97 309.134
L281.356 293.191" style="fill:none;opacity:0.5;stroke:#000000;stroke-linecap:square;stroke-width:2;"/>
   </g>
   <g id="line2d_36">
    <path clip-path="url(#pa3b7868a4b)" d="
M308.97 309.134
L336.583 293.191" style="fill:none;opacity:0.5;stroke:#000000;stroke-linecap:square;stroke-width:2;"/>
   </g>
   <g id="line2d_37">
    <path clip-path="url(#pa3b7868a4b)" d="
M281.356 293.191
L281.356 261.305" style="fill:none;opacity:0.5;stroke:#000000;stroke-linecap:square;stroke-width:2;"/>
   </g>
   <g id="line2d_38">
    <path clip-path="url(#pa3b7868a4b)" d="
M281.356 261.305
L253.742 245.363" style="fill:none;opacity:0.5;stroke:#000000;stroke-linecap:square;stroke-width:2;"/>
   </g>
   <g id="line2d_39">
    <path clip-path="url(#pa3b7868a4b)" d="
M281.356 261.305
L308.97 245.363" style="fill:none;opacity:0.5;stroke:#000000;stroke-linecap:square;stroke-width:2;"/>
   </g>
   <g id="line2d_40">
    <path clip-path="url(#pa3b7868a4b)" d="
M253.742 245.363
L253.742 213.477" style="fill:none;opacity:0.5;stroke:#000000;stroke-linecap:square;stroke-width:2;"/>
   </g>
   <g id="line2d_41">
    <path clip-path="url(#pa3b7868a4b)" d="
M253.742 213.477
L226.128 197.534" style="fill:none;opacity:0.5;stroke:#000000;stroke-linecap:square;stroke-width:2;"/>
   </g>
   <g id="line2d_42">
    <path clip-path="url(#pa3b7868a4b)" d="
M253.742 213.477
L281.356 197.534" style="fill:none;opacity:0.5;stroke:#000000;stroke-linecap:square;stroke-width:2;"/>
   </g>
   <g id="line2d_43">
    <path clip-path="url(#pa3b7868a4b)" d="
M226.128 197.534
L226.128 165.648" style="fill:none;opacity:0.5;stroke:#000000;stroke-linecap:square;stroke-width:2;"/>
   </g>
   <g id="line2d_44">
    <path clip-path="url(#pa3b7868a4b)" d="
M226.128 165.648
L198.514 149.705" style="fill:none;opacity:0.5;stroke:#000000;stroke-linecap:square;stroke-width:2;"/>
   </g>
   <g id="line2d_45">
    <path clip-path="url(#pa3b7868a4b)" d="
M226.128 165.648
L253.742 149.705" style="fill:none;opacity:0.5;stroke:#000000;stroke-linecap:square;stroke-width:2;"/>
   </g>
   <g id="line2d_46">
    <path clip-path="url(#pa3b7868a4b)" d="
M198.514 149.705
L198.514 117.82" style="fill:none;opacity:0.5;stroke:#000000;stroke-linecap:square;stroke-width:2;"/>
   </g>
   <g id="line2d_47">
    <path clip-path="url(#pa3b7868a4b)" d="
M198.514 117.82
L170.9 101.877" style="fill:none;opacity:0.5;stroke:#000000;stroke-linecap:square;stroke-width:2;"/>
   </g>
   <g id="line2d_48">
    <path clip-path="url(#pa3b7868a4b)" d="
M198.514 117.82
L226.128 101.877" style="fill:none;opacity:0.5;stroke:#000000;stroke-linecap:square;stroke-width:2;"/>
   </g>
   <g id="line2d_49">
    <path clip-path="url(#pa3b7868a4b)" d="
M170.9 101.877
L170.9 69.9912" style="fill:none;opacity:0.5;stroke:#000000;stroke-linecap:square;stroke-width:2;"/>
   </g>
   <g id="line2d_50">
    <path clip-path="url(#pa3b7868a4b)" d="
M170.9 69.9912
L143.287 54.0483" style="fill:none;opacity:0.5;stroke:#000000;stroke-linecap:square;stroke-width:2;"/>
   </g>
   <g id="line2d_51">
    <path clip-path="url(#pa3b7868a4b)" d="
M170.9 69.9912
L198.514 54.0483" style="fill:none;opacity:0.5;stroke:#000000;stroke-linecap:square;stroke-width:2;"/>
   </g>
   <g id="line2d_52">
    <path clip-path="url(#pa3b7868a4b)" d="
M364.197 309.134
L336.583 293.191" style="fill:none;opacity:0.5;stroke:#000000;stroke-linecap:square;stroke-width:2;"/>
   </g>
   <g id="line2d_53">
    <path clip-path="url(#pa3b7868a4b)" d="
M364.197 309.134
L391.811 293.191" style="fill:none;opacity:0.5;stroke:#000000;stroke-linecap:square;stroke-width:2;"/>
   </g>
   <g id="line2d_54">
    <path clip-path="url(#pa3b7868a4b)" d="
M336.583 293.191
L336.583 261.305" style="fill:none;opacity:0.5;stroke:#000000;stroke-linecap:square;stroke-width:2;"/>
   </g>
   <g id="line2d_55">
    <path clip-path="url(#pa3b7868a4b)" d="
M336.583 261.305
L308.97 245.363" style="fill:none;opacity:0.5;stroke:#000000;stroke-linecap:square;stroke-width:2;"/>
   </g>
   <g id="line2d_56">
    <path clip-path="url(#pa3b7868a4b)" d="
M336.583 261.305
L364.197 245.363" style="fill:none;opacity:0.5;stroke:#000000;stroke-linecap:square;stroke-width:2;"/>
   </g>
   <g id="line2d_57">
    <path clip-path="url(#pa3b7868a4b)" d="
M308.97 245.363
L308.97 213.477" style="fill:none;opacity:0.5;stroke:#000000;stroke-linecap:square;stroke-width:2;"/>
   </g>
   <g id="line2d_58">
    <path clip-path="url(#pa3b7868a4b)" d="
M308.97 213.477
L281.356 197.534" style="fill:none;opacity:0.5;stroke:#000000;stroke-linecap:square;stroke-width:2;"/>
   </g>
   <g id="line2d_59">
    <path clip-path="url(#pa3b7868a4b)" d="
M308.97 213.477
L336.583 197.534" style="fill:none;opacity:0.5;stroke:#000000;stroke-linecap:square;stroke-width:2;"/>
   </g>
   <g id="line2d_60">
    <path clip-path="url(#pa3b7868a4b)" d="
M281.356 197.534
L281.356 165.648" style="fill:none;opacity:0.5;stroke:#000000;stroke-linecap:square;stroke-width:2;"/>
   </g>
   <g id="line2d_61">
    <path clip-path="url(#pa3b7868a4b)" d="
M281.356 165.648
L253.742 149.705" style="fill:none;opacity:0.5;stroke:#000000;stroke-linecap:square;stroke-width:2;"/>
   </g>
   <g id="line2d_62">
    <path clip-path="url(#pa3b7868a4b)" d="
M281.356 165.648
L308.97 149.705" style="fill:none;opacity:0.5;stroke:#000000;stroke-linecap:square;stroke-width:2;"/>
   </g>
   <g id="line2d_63">
    <path clip-path="url(#pa3b7868a4b)" d="
M253.742 149.705
L253.742 117.82" style="fill:none;opacity:0.5;stroke:#000000;stroke-linecap:square;stroke-width:2;"/>
   </g>
   <g id="line2d_64">
    <path clip-path="url(#pa3b7868a4b)" d="
M253.742 117.82
L226.128 101.877" style="fill:none;opacity:0.5;stroke:#000000;stroke-linecap:square;stroke-width:2;"/>
   </g>
   <g id="line2d_65">
    <path clip-path="url(#pa3b7868a4b)" d="
M253.742 117.82
L281.356 101.877" style="fill:none;opacity:0.5;stroke:#000000;stroke-linecap:square;stroke-width:2;"/>
   </g>
   <g id="line2d_66">
    <path clip-path="url(#pa3b7868a4b)" d="
M226.128 101.877
L226.128 69.9912" style="fill:none;opacity:0.5;stroke:#000000;stroke-linecap:square;stroke-width:2;"/>
   </g>
   <g id="line2d_67">
    <path clip-path="url(#pa3b7868a4b)" d="
M226.128 69.9912
L198.514 54.0483" style="fill:none;opacity:0.5;stroke:#000000;stroke-linecap:square;stroke-width:2;"/>
   </g>
   <g id="line2d_68">
    <path clip-path="url(#pa3b7868a4b)" d="
M226.128 69.9912
L253.742 54.0483" style="fill:none;opacity:0.5;stroke:#000000;stroke-linecap:square;stroke-width:2;"/>
   </g>
   <g id="line2d_69">
    <path clip-path="url(#pa3b7868a4b)" d="
M419.425 309.134
L391.811 293.191" style="fill:none;opacity:0.5;stroke:#000000;stroke-linecap:square;stroke-width:2;"/>
   </g>
   <g id="line2d_70">
    <path clip-path="url(#pa3b7868a4b)" d="
M391.811 293.191
L391.811 261.305" style="fill:none;opacity:0.5;stroke:#000000;stroke-linecap:square;stroke-width:2;"/>
   </g>
   <g id="line2d_71">
    <path clip-path="url(#pa3b7868a4b)" d="
M391.811 261.305
L364.197 245.363" style="fill:none;opacity:0.5;stroke:#000000;stroke-linecap:square;stroke-width:2;"/>
   </g>
   <g id="line2d_72">
    <path clip-path="url(#pa3b7868a4b)" d="
M364.197 245.363
L364.197 213.477" style="fill:none;opacity:0.5;stroke:#000000;stroke-linecap:square;stroke-width:2;"/>
   </g>
   <g id="line2d_73">
    <path clip-path="url(#pa3b7868a4b)" d="
M364.197 213.477
L336.583 197.534" style="fill:none;opacity:0.5;stroke:#000000;stroke-linecap:square;stroke-width:2;"/>
   </g>
   <g id="line2d_74">
    <path clip-path="url(#pa3b7868a4b)" d="
M336.583 197.534
L336.583 165.648" style="fill:none;opacity:0.5;stroke:#000000;stroke-linecap:square;stroke-width:2;"/>
   </g>
   <g id="line2d_75">
    <path clip-path="url(#pa3b7868a4b)" d="
M336.583 165.648
L308.97 149.705" style="fill:none;opacity:0.5;stroke:#000000;stroke-linecap:square;stroke-width:2;"/>
   </g>
   <g id="line2d_76">
    <path clip-path="url(#pa3b7868a4b)" d="
M308.97 149.705
L308.97 117.82" style="fill:none;opacity:0.5;stroke:#000000;stroke-linecap:square;stroke-width:2;"/>
   </g>
   <g id="line2d_77">
    <path clip-path="url(#pa3b7868a4b)" d="
M308.97 117.82
L281.356 101.877" style="fill:none;opacity:0.5;stroke:#000000;stroke-linecap:square;stroke-width:2;"/>
   </g>
   <g id="line2d_78">
    <path clip-path="url(#pa3b7868a4b)" d="
M281.356 101.877
L281.356 69.9912" style="fill:none;opacity:0.5;stroke:#000000;stroke-linecap:square;stroke-width:2;"/>
   </g>
   <g id="line2d_79">
    <path clip-path="url(#pa3b7868a4b)" d="
M281.356 69.9912
L253.742 54.0483" style="fill:none;opacity:0.5;stroke:#000000;stroke-linecap:square;stroke-width:2;"/>
   </g>
   <g id="matplotlib.axis_1"/>
   <g id="matplotlib.axis_2"/>
   <g id="patch_3">
    <path d="
M7.2 22.1626
L453.6 22.1626" style="fill:none;stroke:#000000;"/>
   </g>
   <g id="patch_4">
    <path d="
M453.6 341.02
L453.6 22.1626" style="fill:none;stroke:#000000;"/>
   </g>
   <g id="patch_5">
    <path d="
M7.2 341.02
L453.6 341.02" style="fill:none;stroke:#000000;"/>
   </g>
   <g id="patch_6">
    <path d="
M7.2 341.02
L7.2 22.1626" style="fill:none;stroke:#000000;"/>
   </g>
   <g id="text_1">
    <!-- $V_1 = 9.2, \ V_2 = 2.5$ -->
    <defs>
     <path d="
M61.9062 56.7188
C65.2969 62.1094 68.4062 64.5 73.5 64.9062
C74.5 65 75.2969 65 75.2969 66.7344
C75.2969 67.125 75.0938 67.7031 74.2031 67.7031
C72.4062 67.7031 68.0938 67.7031 66.2969 67.7031
C63.4062 67.7031 60.4062 67.7031 57.5938 67.7031
C56.7969 67.7031 55.7969 67.7031 55.7969 65.9375
C55.7969 65.0938 56.7031 65 57.0938 65
C60.7969 64.7031 61.2031 62.9062 61.2031 61.7031
C61.2031 60.1875 59.7969 57.8906 59.7031 57.7969
L28.2969 7.98438
L21.2969 61.8125
C21.2969 65 26.5 65 27.5938 65
C29.0938 65 30 65 30 66.7656
C30 67.7031 28.9062 67.7031 28.5938 67.7031
C26.9062 67.7031 24.9062 67.7031 23.2031 67.7031
L17.5938 67.7031
C10.2969 67.7031 7.29688 67.7031 7.20312 67.7031
C6.59375 67.7031 5.40625 67.7031 5.40625 66.0156
C5.40625 65 6.09375 65 7.70312 65
C12.7969 65 13.0938 64.0938 13.4062 61.6094
L21.4062 -0.109375
C21.7031 -2.20312 21.7031 -2.5 23.0938 -2.5
C24.2969 -2.5 24.7969 -2.20312 25.7969 -0.609375
z
" id="CMMI12-86"/>
     <path d="
M64.2969 31.5156
C65.7969 31.5156 67.2969 31.5156 67.2969 33.2031
C67.2969 35 65.5938 35 63.9062 35
L8 35
C6.29688 35 4.59375 35 4.59375 33.2031
C4.59375 31.5156 6.09375 31.5156 7.59375 31.5156
z

M63.9062 14
C65.5938 14 67.2969 14 67.2969 15.7969
C67.2969 17.4844 65.7969 17.4844 64.2969 17.4844
L7.59375 17.4844
C6.09375 17.4844 4.59375 17.4844 4.59375 15.7969
C4.59375 14 6.29688 14 8 14
z
" id="CMR17-61"/>
     <path d="
M41.7031 15.4531
L39.9062 15.4531
C38.9062 8.375 38.0938 7.17188 37.7031 6.5625
C37.2031 5.76562 30 5.76562 28.5938 5.76562
L9.40625 5.76562
C13 9.67188 20 16.75 28.5 24.9531
C34.5938 30.7344 41.7031 37.5312 41.7031 47.4219
C41.7031 59.2188 32.2969 66 21.7969 66
C10.7969 66 4.09375 56.3125 4.09375 47.3438
C4.09375 43.4375 7 42.9375 8.20312 42.9375
C9.20312 42.9375 12.2031 43.5469 12.2031 47.0312
C12.2031 50.1094 9.59375 51 8.20312 51
C7.59375 51 7 50.9062 6.59375 50.7031
C8.5 59.2188 14.2969 63.4062 20.4062 63.4062
C29.0938 63.4062 34.7969 56.5156 34.7969 47.4219
C34.7969 38.7344 29.7031 31.25 24 24.75
L4.09375 2.28125
L4.09375 0
L39.2969 0
z
" id="CMR17-50"/>
     <path d="
M11.4062 57.6875
C12.4062 57.2812 16.5 56 20.7031 56
C30 56 35.0938 61.0156 38 63.9219
C38 64.7344 38 65.25 37.4062 65.25
C37.2969 65.25 37.0938 65.25 36.2969 64.8281
C32.7969 63.3125 28.7031 62.0781 23.7031 62.0781
C20.7031 62.0781 16.2031 62.5 11.2969 64.7344
C10.2031 65.25 10 65.25 9.90625 65.25
C9.40625 65.25 9.29688 65.1406 9.29688 63.1562
L9.29688 34.2812
C9.29688 32.5 9.29688 32 10.2969 32
C10.7969 32 11 32.2031 11.5 32.9062
C14.7031 37.4844 19.0938 39.4062 24.0938 39.4062
C27.5938 39.4062 35.0938 37.2188 35.0938 20.1406
C35.0938 16.9531 35.0938 11.1719 32.0938 6.57812
C29.5938 2.48438 25.7031 0.390625 21.4062 0.390625
C14.7969 0.390625 8.09375 5 6.29688 12.7188
C6.70312 12.6094 7.5 12.4219 7.90625 12.4219
C9.20312 12.4219 11.7031 13.125 11.7031 16.2188
C11.7031 18.9062 9.79688 20 7.90625 20
C5.59375 20 4.09375 18.5938 4.09375 15.7969
C4.09375 7.09375 11 -2 21.5938 -2
C31.9062 -2 41.7031 6.875 41.7031 19.75
C41.7031 31.7188 33.9062 41 24.2031 41
C19.0938 41 14.7969 39.0938 11.4062 35.4531
z
" id="CMR17-53"/>
     <path d="
M35.2031 29.125
C35.2031 7.25 26.0938 0.484375 18.5938 0.484375
C16.2969 0.484375 10.7031 0.484375 8.40625 4.59375
C11 4.1875 12.9062 5.57812 12.9062 8.09375
C12.9062 10.8125 10.7031 11.7031 9.29688 11.7031
C8.40625 11.7031 5.70312 11.2969 5.70312 7.90625
C5.70312 1.10938 11.5938 -2 18.7969 -2
C30.2969 -2 42 10.5312 42 32.3906
C42 59.6406 30.7969 65.2969 23.2031 65.2969
C13.2969 65.2969 3.79688 56.6875 3.79688 43.4062
C3.79688 31.1094 11.9062 22 22.0938 22
C30.5 22 34.2031 29.7344 35.2031 33
z

M22.2969 23.5938
C19.5938 23.5938 15.7969 24.0938 12.7031 30.0312
C10.5938 33.8906 10.5938 38.4531 10.5938 43.2969
C10.5938 49.1562 10.5938 53.2031 13.4062 57.5625
C14.7969 59.6406 17.4062 63 23.2031 63
C35 63 35 45.0781 35 41.125
C35 34.0938 31.7969 23.5938 22.2969 23.5938" id="CMR17-57"/>
     <path d="
M26.5938 63.3125
C26.5938 65.4062 26.5 65.5 25.0938 65.5
C21.2031 61.1875 15.2969 59.7969 9.70312 59.7969
C9.40625 59.7969 8.90625 59.7969 8.79688 59.5
C8.70312 59.2969 8.70312 59.0938 8.70312 57
C11.7969 57 17 57.5938 21 59.9844
L21 7.20312
C21 3.6875 20.7969 2.5 12.2031 2.5
L9.20312 2.5
L9.20312 0
C14 0 19 0 23.7969 0
C28.5938 0 33.5938 0 38.4062 0
L38.4062 2.5
L35.4062 2.5
C26.7969 2.5 26.5938 3.59375 26.5938 7.15625
z
" id="CMR17-49"/>
     <path d="
M18.4062 4.79688
C18.4062 7.6875 16 9.67188 13.5938 9.67188
C10.7031 9.67188 8.70312 7.28125 8.70312 4.89062
C8.70312 2 11.0938 0 13.5 0
C16.4062 0 18.4062 2.39062 18.4062 4.79688" id="CMMI12-58"/>
     <path d="
M19.5 -0.484375
C19.5 5.35938 17.5938 9.67188 13.5 9.67188
C10.2969 9.67188 8.70312 7.07812 8.70312 4.89062
C8.70312 2.6875 10.2031 0 13.5938 0
C14.9062 0 16 0.40625 16.9062 1.29688
C17.0938 1.5 17.2031 1.5 17.2969 1.5
C17.5 1.5 17.5 0.078125 17.5 -0.421875
C17.5 -3.75 16.9062 -10.2969 11.0938 -16.875
C10 -18.0781 10 -18.2812 10 -18.4844
C10 -19 10.5 -19.5 11 -19.5
C11.7969 -19.5 19.5 -12.0469 19.5 -0.484375" id="CMMI12-59"/>
    </defs>
    <g transform="translate(174.39895959 17.1626248978)scale(0.144 -0.144)">
     <use transform="translate(0.0 14.9439145441)scale(0.996264009963)" xlink:href="#CMMI12-86"/>
     <use transform="translate(56.8695790444 0.0)scale(0.697381766617)" xlink:href="#CMR17-49"/>
     <use transform="translate(117.024901736 14.9439145441)scale(0.996264009963)" xlink:href="#CMR17-61"/>
     <use transform="translate(216.413698873 14.9439145441)scale(0.996264009963)" xlink:href="#CMR17-57"/>
     <use transform="translate(262.10417599 14.9439145441)scale(0.996264009963)" xlink:href="#CMMI12-58"/>
     <use transform="translate(289.20135308 14.9439145441)scale(0.996264009963)" xlink:href="#CMR17-50"/>
     <use transform="translate(334.891830197 14.9439145441)scale(0.996264009963)" xlink:href="#CMMI12-59"/>
     <use transform="translate(408.669378867 14.9439145441)scale(0.996264009963)" xlink:href="#CMMI12-86"/>
     <use transform="translate(465.538957912 0.0)scale(0.697381766617)" xlink:href="#CMR17-50"/>
     <use transform="translate(525.694280603 14.9439145441)scale(0.996264009963)" xlink:href="#CMR17-61"/>
     <use transform="translate(625.083077741 14.9439145441)scale(0.996264009963)" xlink:href="#CMR17-50"/>
     <use transform="translate(670.773554858 14.9439145441)scale(0.996264009963)" xlink:href="#CMMI12-58"/>
     <use transform="translate(697.870731948 14.9439145441)scale(0.996264009963)" xlink:href="#CMR17-53"/>
    </g>
   </g>
  </g>
 </g>
 <defs>
  <clipPath id="pa3b7868a4b">
   <rect height="318.857142857" width="446.4" x="7.2" y="22.1626248978"/>
  </clipPath>
 </defs>
</svg>
