<?xml version="1.0" encoding="utf-8" standalone="no"?>
<!DOCTYPE svg PUBLIC "-//W3C//DTD SVG 1.1//EN"
  "http://www.w3.org/Graphics/SVG/1.1/DTD/svg11.dtd">
<!-- Created with matplotlib (http://matplotlib.org/) -->
<svg height="348pt" version="1.1" viewBox="0 0 460 348" width="460pt" xmlns="http://www.w3.org/2000/svg" xmlns:xlink="http://www.w3.org/1999/xlink">
 <defs>
  <style type="text/css">
*{stroke-linecap:butt;stroke-linejoin:round;}
  </style>
 </defs>
 <g id="figure_1">
  <g id="patch_1">
   <path d="
M0 348.22
L460.8 348.22
L460.8 0
L0 0
z
" style="fill:#ffffff;"/>
  </g>
  <g id="axes_1">
   <g id="patch_2">
    <path d="
M7.2 341.02
L453.6 341.02
L453.6 22.1626
L7.2 22.1626
z
" style="fill:#ffffff;"/>
   </g>
   <g id="patch_3">
    <path clip-path="url(#pa3b7868a4b)" d="
M198.514 311.525
C199.148 311.525 199.757 311.274 200.205 310.825
C200.654 310.377 200.906 309.768 200.906 309.134
C200.906 308.5 200.654 307.892 200.205 307.443
C199.757 306.995 199.148 306.743 198.514 306.743
C197.88 306.743 197.272 306.995 196.823 307.443
C196.375 307.892 196.123 308.5 196.123 309.134
C196.123 309.768 196.375 310.377 196.823 310.825
C197.272 311.274 197.88 311.525 198.514 311.525
z
" style="stroke:#000000;"/>
   </g>
   <g id="patch_4">
    <path clip-path="url(#pa3b7868a4b)" d="
M192.992 305.945
C193.713 304.696 193.532 302.994 192.488 301.214
C191.445 299.434 189.624 297.721 187.427 296.452
C185.23 295.184 182.836 294.463 180.773 294.45
C178.709 294.436 177.144 295.131 176.423 296.38
C175.702 297.629 175.883 299.331 176.927 301.111
C177.97 302.892 179.791 304.605 181.988 305.873
C184.185 307.141 186.579 307.862 188.642 307.875
C190.706 307.889 192.27 307.195 192.992 305.945
z
" style="fill:#0000ff;stroke:#000000;"/>
   </g>
   <g id="patch_5">
    <path clip-path="url(#pa3b7868a4b)" d="
M170.9 295.583
C171.535 295.583 172.143 295.331 172.591 294.882
C173.04 294.434 173.292 293.825 173.292 293.191
C173.292 292.557 173.04 291.949 172.591 291.5
C172.143 291.052 171.535 290.8 170.9 290.8
C170.266 290.8 169.658 291.052 169.209 291.5
C168.761 291.949 168.509 292.557 168.509 293.191
C168.509 293.825 168.761 294.434 169.209 294.882
C169.658 295.331 170.266 295.583 170.9 295.583
z
" style="stroke:#000000;"/>
   </g>
   <g id="patch_6">
    <path clip-path="url(#pa3b7868a4b)" d="
M170.9 286.814
C171.757 286.814 172.578 285.806 173.184 284.012
C173.789 282.218 174.129 279.785 174.129 277.248
C174.129 274.711 173.789 272.278 173.184 270.484
C172.578 268.691 171.757 267.683 170.9 267.683
C170.044 267.683 169.223 268.691 168.617 270.484
C168.012 272.278 167.672 274.711 167.672 277.248
C167.672 279.785 168.012 282.218 168.617 284.012
C169.223 285.806 170.044 286.814 170.9 286.814
z
" style="fill:#ff6600;stroke:#000000;"/>
   </g>
   <g id="patch_7">
    <path clip-path="url(#pa3b7868a4b)" d="
M170.9 263.697
C171.535 263.697 172.143 263.445 172.591 262.996
C173.04 262.548 173.292 261.94 173.292 261.305
C173.292 260.671 173.04 260.063 172.591 259.614
C172.143 259.166 171.535 258.914 170.9 258.914
C170.266 258.914 169.658 259.166 169.209 259.614
C168.761 260.063 168.509 260.671 168.509 261.305
C168.509 261.94 168.761 262.548 169.209 262.996
C169.658 263.445 170.266 263.697 170.9 263.697
z
" style="stroke:#000000;"/>
   </g>
   <g id="patch_8">
    <path clip-path="url(#pa3b7868a4b)" d="
M165.378 258.117
C165.803 257.38 165.338 256.169 164.086 254.751
C162.833 253.333 160.895 251.824 158.698 250.555
C156.501 249.287 154.224 248.363 152.37 247.987
C150.516 247.611 149.235 247.814 148.809 248.551
C148.384 249.288 148.849 250.499 150.101 251.917
C151.354 253.335 153.292 254.844 155.489 256.113
C157.686 257.381 159.963 258.305 161.817 258.681
C163.671 259.057 164.952 258.854 165.378 258.117
z
" style="fill:#ff6600;stroke:#000000;"/>
   </g>
   <g id="patch_9">
    <path clip-path="url(#pa3b7868a4b)" d="
M143.287 247.754
C143.921 247.754 144.529 247.502 144.978 247.054
C145.426 246.605 145.678 245.997 145.678 245.363
C145.678 244.728 145.426 244.12 144.978 243.672
C144.529 243.223 143.921 242.971 143.287 242.971
C142.652 242.971 142.044 243.223 141.596 243.672
C141.147 244.12 140.895 244.728 140.895 245.363
C140.895 245.997 141.147 246.605 141.596 247.054
C142.044 247.502 142.652 247.754 143.287 247.754
z
" style="stroke:#000000;"/>
   </g>
   <g id="patch_10">
    <path clip-path="url(#pa3b7868a4b)" d="
M143.287 238.985
C144.733 238.985 146.12 237.978 147.143 236.184
C148.166 234.39 148.741 231.957 148.741 229.42
C148.741 226.883 148.166 224.45 147.143 222.656
C146.12 220.862 144.733 219.854 143.287 219.854
C141.84 219.854 140.453 220.862 139.43 222.656
C138.407 224.45 137.833 226.883 137.833 229.42
C137.833 231.957 138.407 234.39 139.43 236.184
C140.453 237.978 141.84 238.985 143.287 238.985
z
" style="fill:#0000ff;stroke:#000000;"/>
   </g>
   <g id="patch_11">
    <path clip-path="url(#pa3b7868a4b)" d="
M143.287 215.868
C143.921 215.868 144.529 215.616 144.978 215.168
C145.426 214.719 145.678 214.111 145.678 213.477
C145.678 212.843 145.426 212.234 144.978 211.786
C144.529 211.337 143.921 211.085 143.287 211.085
C142.652 211.085 142.044 211.337 141.596 211.786
C141.147 212.234 140.895 212.843 140.895 213.477
C140.895 214.111 141.147 214.719 141.596 215.168
C142.044 215.616 142.652 215.868 143.287 215.868
z
" style="stroke:#000000;"/>
   </g>
   <g id="patch_12">
    <path clip-path="url(#pa3b7868a4b)" d="
M137.764 210.288
C138.195 209.542 137.735 208.322 136.486 206.897
C135.238 205.473 133.302 203.959 131.105 202.691
C128.908 201.423 126.629 200.502 124.771 200.133
C122.913 199.764 121.626 199.976 121.196 200.723
C120.765 201.469 121.224 202.689 122.473 204.114
C123.722 205.538 125.658 207.052 127.855 208.32
C130.052 209.588 132.33 210.509 134.188 210.878
C136.047 211.247 137.333 211.035 137.764 210.288
z
" style="fill:#ff6600;stroke:#000000;"/>
   </g>
   <g id="patch_13">
    <path clip-path="url(#pa3b7868a4b)" d="
M115.673 199.925
C116.307 199.925 116.915 199.674 117.364 199.225
C117.812 198.777 118.064 198.168 118.064 197.534
C118.064 196.9 117.812 196.292 117.364 195.843
C116.915 195.395 116.307 195.143 115.673 195.143
C115.039 195.143 114.43 195.395 113.982 195.843
C113.533 196.292 113.281 196.9 113.281 197.534
C113.281 198.168 113.533 198.777 113.982 199.225
C114.43 199.674 115.039 199.925 115.673 199.925
z
" style="stroke:#000000;"/>
   </g>
   <g id="patch_14">
    <path clip-path="url(#pa3b7868a4b)" d="
M115.673 191.157
C116.514 191.157 117.322 190.149 117.917 188.355
C118.512 186.561 118.847 184.128 118.847 181.591
C118.847 179.054 118.512 176.621 117.917 174.827
C117.322 173.033 116.514 172.025 115.673 172.025
C114.831 172.025 114.024 173.033 113.429 174.827
C112.833 176.621 112.499 179.054 112.499 181.591
C112.499 184.128 112.833 186.561 113.429 188.355
C114.024 190.149 114.831 191.157 115.673 191.157
z
" style="fill:#ff6600;stroke:#000000;"/>
   </g>
   <g id="patch_15">
    <path clip-path="url(#pa3b7868a4b)" d="
M115.673 168.04
C116.307 168.04 116.915 167.788 117.364 167.339
C117.812 166.891 118.064 166.283 118.064 165.648
C118.064 165.014 117.812 164.406 117.364 163.957
C116.915 163.509 116.307 163.257 115.673 163.257
C115.039 163.257 114.43 163.509 113.982 163.957
C113.533 164.406 113.281 165.014 113.281 165.648
C113.281 166.283 113.533 166.891 113.982 167.339
C114.43 167.788 115.039 168.04 115.673 168.04
z
" style="stroke:#000000;"/>
   </g>
   <g id="patch_16">
    <path clip-path="url(#pa3b7868a4b)" d="
M110.15 162.46
C110.878 161.199 110.704 159.485 109.665 157.696
C108.626 155.908 106.808 154.19 104.611 152.921
C102.414 151.653 100.018 150.937 97.9495 150.932
C95.8811 150.927 94.3098 151.633 93.5817 152.894
C92.8536 154.155 93.028 155.869 94.0667 157.658
C95.1053 159.446 96.9233 161.164 99.1203 162.432
C101.317 163.701 103.714 164.416 105.782 164.422
C107.851 164.427 109.422 163.721 110.15 162.46
z
" style="fill:#0000ff;stroke:#000000;"/>
   </g>
   <g id="patch_17">
    <path clip-path="url(#pa3b7868a4b)" d="
M88.0589 152.097
C88.6931 152.097 89.3015 151.845 89.7499 151.396
C90.1984 150.948 90.4504 150.34 90.4504 149.705
C90.4504 149.071 90.1984 148.463 89.7499 148.014
C89.3015 147.566 88.6931 147.314 88.0589 147.314
C87.4247 147.314 86.8164 147.566 86.3679 148.014
C85.9195 148.463 85.6675 149.071 85.6675 149.705
C85.6675 150.34 85.9195 150.948 86.3679 151.396
C86.8164 151.845 87.4247 152.097 88.0589 152.097
z
" style="stroke:#000000;"/>
   </g>
   <g id="patch_18">
    <path clip-path="url(#pa3b7868a4b)" d="
M88.0589 143.328
C88.9117 143.328 89.7296 142.32 90.3326 140.527
C90.9356 138.733 91.2744 136.299 91.2744 133.763
C91.2744 131.226 90.9356 128.792 90.3326 126.999
C89.7296 125.205 88.9117 124.197 88.0589 124.197
C87.2062 124.197 86.3883 125.205 85.7853 126.999
C85.1823 128.792 84.8435 131.226 84.8435 133.763
C84.8435 136.299 85.1823 138.733 85.7853 140.527
C86.3883 142.32 87.2062 143.328 88.0589 143.328
z
" style="fill:#ff6600;stroke:#000000;"/>
   </g>
   <g id="patch_19">
    <path clip-path="url(#pa3b7868a4b)" d="
M88.0589 120.211
C88.6931 120.211 89.3015 119.959 89.7499 119.511
C90.1984 119.062 90.4504 118.454 90.4504 117.82
C90.4504 117.186 90.1984 116.577 89.7499 116.129
C89.3015 115.68 88.6931 115.428 88.0589 115.428
C87.4247 115.428 86.8164 115.68 86.3679 116.129
C85.9195 116.577 85.6675 117.186 85.6675 117.82
C85.6675 118.454 85.9195 119.062 86.3679 119.511
C86.8164 119.959 87.4247 120.211 88.0589 120.211
z
" style="stroke:#000000;"/>
   </g>
   <g id="patch_20">
    <path clip-path="url(#pa3b7868a4b)" d="
M82.5362 114.631
C82.9608 113.896 82.4952 112.686 81.242 111.269
C79.9888 109.852 78.0502 108.343 75.8532 107.075
C73.6562 105.807 71.3802 104.882 69.5265 104.505
C67.6727 104.128 66.3925 104.33 65.9679 105.065
C65.5432 105.801 66.0088 107.01 67.262 108.427
C68.5152 109.844 70.4538 111.353 72.6508 112.622
C74.8478 113.89 77.1238 114.815 78.9776 115.191
C80.8313 115.568 82.1115 115.367 82.5362 114.631
z
" style="fill:#ff6600;stroke:#000000;"/>
   </g>
   <g id="patch_21">
    <path clip-path="url(#pa3b7868a4b)" d="
M60.4451 104.268
C61.0793 104.268 61.6876 104.016 62.1361 103.568
C62.5845 103.119 62.8365 102.511 62.8365 101.877
C62.8365 101.243 62.5845 100.634 62.1361 100.186
C61.6876 99.7375 61.0793 99.4855 60.4451 99.4855
C59.8109 99.4855 59.2026 99.7375 58.7541 100.186
C58.3056 100.634 58.0537 101.243 58.0537 101.877
C58.0537 102.511 58.3056 103.119 58.7541 103.568
C59.2026 104.016 59.8109 104.268 60.4451 104.268
z
" style="stroke:#000000;"/>
   </g>
   <g id="patch_22">
    <path clip-path="url(#pa3b7868a4b)" d="
M60.4451 95.4998
C61.8912 95.4998 63.2783 94.4919 64.3009 92.698
C65.3234 90.9042 65.898 88.4709 65.898 85.9341
C65.898 83.3972 65.3234 80.9639 64.3009 79.1701
C63.2783 77.3762 61.8912 76.3683 60.4451 76.3683
C58.999 76.3683 57.6119 77.3762 56.5893 79.1701
C55.5668 80.9639 54.9922 83.3972 54.9922 85.9341
C54.9922 88.4709 55.5668 90.9042 56.5893 92.698
C57.6119 94.4919 58.999 95.4998 60.4451 95.4998
z
" style="fill:#0000ff;stroke:#000000;"/>
   </g>
   <g id="patch_23">
    <path clip-path="url(#pa3b7868a4b)" d="
M60.4451 72.3826
C61.0793 72.3826 61.6876 72.1306 62.1361 71.6822
C62.5845 71.2337 62.8365 70.6254 62.8365 69.9912
C62.8365 69.357 62.5845 68.7487 62.1361 68.3002
C61.6876 67.8517 61.0793 67.5998 60.4451 67.5998
C59.8109 67.5998 59.2026 67.8517 58.7541 68.3002
C58.3056 68.7487 58.0537 69.357 58.0537 69.9912
C58.0537 70.6254 58.3056 71.2337 58.7541 71.6822
C59.2026 72.1306 59.8109 72.3826 60.4451 72.3826
z
" style="stroke:#000000;"/>
   </g>
   <g id="patch_24">
    <path clip-path="url(#pa3b7868a4b)" d="
M54.9223 66.8026
C55.3496 66.0626 54.8865 64.8488 53.6352 63.4286
C52.3838 62.0084 50.4462 60.4977 48.2493 59.2293
C46.0523 57.9609 43.7752 57.0382 41.9196 56.6646
C40.064 56.291 38.7813 56.4969 38.354 57.2369
C37.9268 57.977 38.3898 59.1907 39.6412 60.6109
C40.8926 62.0311 42.8301 63.5418 45.0271 64.8102
C47.2241 66.0787 49.5011 67.0013 51.3567 67.3749
C53.2124 67.7485 54.4951 67.5427 54.9223 66.8026
z
" style="fill:#ff6600;stroke:#000000;"/>
   </g>
   <g id="patch_25">
    <path clip-path="url(#pa3b7868a4b)" d="
M32.8313 56.4398
C33.4655 56.4398 34.0738 56.1878 34.5222 55.7393
C34.9707 55.2909 35.2227 54.6826 35.2227 54.0483
C35.2227 53.4141 34.9707 52.8058 34.5222 52.3573
C34.0738 51.9089 33.4655 51.6569 32.8313 51.6569
C32.197 51.6569 31.5887 51.9089 31.1403 52.3573
C30.6918 52.8058 30.4398 53.4141 30.4398 54.0483
C30.4398 54.6826 30.6918 55.2909 31.1403 55.7393
C31.5887 56.1878 32.197 56.4398 32.8313 56.4398
z
" style="stroke:#000000;"/>
   </g>
   <g id="patch_26">
    <path clip-path="url(#pa3b7868a4b)" d="
M32.8313 47.6712
C33.6816 47.6712 34.4973 46.6633 35.0986 44.8695
C35.6999 43.0756 36.0378 40.6423 36.0378 38.1055
C36.0378 35.5686 35.6999 33.1353 35.0986 31.3415
C34.4973 29.5477 33.6816 28.5398 32.8313 28.5398
C31.9809 28.5398 31.1652 29.5477 30.5639 31.3415
C29.9626 33.1353 29.6247 35.5686 29.6247 38.1055
C29.6247 40.6423 29.9626 43.0756 30.5639 44.8695
C31.1652 46.6633 31.9809 47.6712 32.8313 47.6712
z
" style="fill:#ff6600;stroke:#000000;"/>
   </g>
   <g id="patch_27">
    <path clip-path="url(#pa3b7868a4b)" d="
M198.514 334.643
C199.365 334.643 200.18 333.635 200.782 331.841
C201.383 330.047 201.721 327.614 201.721 325.077
C201.721 322.54 201.383 320.107 200.782 318.313
C200.18 316.519 199.365 315.511 198.514 315.511
C197.664 315.511 196.848 316.519 196.247 318.313
C195.646 320.107 195.308 322.54 195.308 325.077
C195.308 327.614 195.646 330.047 196.247 331.841
C196.848 333.635 197.664 334.643 198.514 334.643
z
" style="fill:#ff6600;stroke:#000000;"/>
   </g>
   <g id="patch_28">
    <path clip-path="url(#pa3b7868a4b)" d="
M253.742 311.525
C254.376 311.525 254.985 311.274 255.433 310.825
C255.881 310.377 256.133 309.768 256.133 309.134
C256.133 308.5 255.881 307.892 255.433 307.443
C254.985 306.995 254.376 306.743 253.742 306.743
C253.108 306.743 252.499 306.995 252.051 307.443
C251.603 307.892 251.351 308.5 251.351 309.134
C251.351 309.768 251.603 310.377 252.051 310.825
C252.499 311.274 253.108 311.525 253.742 311.525
z
" style="stroke:#000000;"/>
   </g>
   <g id="patch_29">
    <path clip-path="url(#pa3b7868a4b)" d="
M248.219 305.945
C248.642 305.213 248.174 304.007 246.92 302.593
C245.665 301.178 243.726 299.671 241.529 298.402
C239.332 297.134 237.056 296.208 235.204 295.829
C233.352 295.45 232.074 295.648 231.651 296.38
C231.228 297.112 231.696 298.318 232.95 299.732
C234.205 301.147 236.144 302.654 238.341 303.923
C240.538 305.191 242.814 306.117 244.666 306.496
C246.518 306.876 247.797 306.678 248.219 305.945
z
" style="fill:#ff6600;stroke:#000000;"/>
   </g>
   <g id="patch_30">
    <path clip-path="url(#pa3b7868a4b)" d="
M226.128 295.583
C226.762 295.583 227.371 295.331 227.819 294.882
C228.268 294.434 228.52 293.825 228.52 293.191
C228.52 292.557 228.268 291.949 227.819 291.5
C227.371 291.052 226.762 290.8 226.128 290.8
C225.494 290.8 224.886 291.052 224.437 291.5
C223.989 291.949 223.737 292.557 223.737 293.191
C223.737 293.825 223.989 294.434 224.437 294.882
C224.886 295.331 225.494 295.583 226.128 295.583
z
" style="stroke:#000000;"/>
   </g>
   <g id="patch_31">
    <path clip-path="url(#pa3b7868a4b)" d="
M226.128 286.814
C227.574 286.814 228.961 285.806 229.984 284.012
C231.007 282.218 231.581 279.785 231.581 277.248
C231.581 274.711 231.007 272.278 229.984 270.484
C228.961 268.691 227.574 267.683 226.128 267.683
C224.682 267.683 223.295 268.691 222.272 270.484
C221.25 272.278 220.675 274.711 220.675 277.248
C220.675 279.785 221.25 282.218 222.272 284.012
C223.295 285.806 224.682 286.814 226.128 286.814
z
" style="fill:#0000ff;stroke:#000000;"/>
   </g>
   <g id="patch_32">
    <path clip-path="url(#pa3b7868a4b)" d="
M226.128 263.697
C226.762 263.697 227.371 263.445 227.819 262.996
C228.268 262.548 228.52 261.94 228.52 261.305
C228.52 260.671 228.268 260.063 227.819 259.614
C227.371 259.166 226.762 258.914 226.128 258.914
C225.494 258.914 224.886 259.166 224.437 259.614
C223.989 260.063 223.737 260.671 223.737 261.305
C223.737 261.94 223.989 262.548 224.437 262.996
C224.886 263.445 225.494 263.697 226.128 263.697
z
" style="stroke:#000000;"/>
   </g>
   <g id="patch_33">
    <path clip-path="url(#pa3b7868a4b)" d="
M220.605 258.117
C221.035 257.374 220.573 256.157 219.323 254.734
C218.073 253.312 216.136 251.8 213.939 250.531
C211.743 249.263 209.465 248.341 207.608 247.97
C205.751 247.599 204.466 247.808 204.037 248.551
C203.608 249.295 204.069 250.512 205.319 251.934
C206.569 253.357 208.506 254.869 210.703 256.137
C212.9 257.405 215.178 258.327 217.035 258.698
C218.892 259.069 220.176 258.86 220.605 258.117
z
" style="fill:#ff6600;stroke:#000000;"/>
   </g>
   <g id="patch_34">
    <path clip-path="url(#pa3b7868a4b)" d="
M198.514 247.754
C199.148 247.754 199.757 247.502 200.205 247.054
C200.654 246.605 200.906 245.997 200.906 245.363
C200.906 244.728 200.654 244.12 200.205 243.672
C199.757 243.223 199.148 242.971 198.514 242.971
C197.88 242.971 197.272 243.223 196.823 243.672
C196.375 244.12 196.123 244.728 196.123 245.363
C196.123 245.997 196.375 246.605 196.823 247.054
C197.272 247.502 197.88 247.754 198.514 247.754
z
" style="stroke:#000000;"/>
   </g>
   <g id="patch_35">
    <path clip-path="url(#pa3b7868a4b)" d="
M198.514 238.985
C199.358 238.985 200.167 237.978 200.763 236.184
C201.36 234.39 201.695 231.957 201.695 229.42
C201.695 226.883 201.36 224.45 200.763 222.656
C200.167 220.862 199.358 219.854 198.514 219.854
C197.671 219.854 196.862 220.862 196.265 222.656
C195.669 224.45 195.333 226.883 195.333 229.42
C195.333 231.957 195.669 234.39 196.265 236.184
C196.862 237.978 197.671 238.985 198.514 238.985
z
" style="fill:#ff6600;stroke:#000000;"/>
   </g>
   <g id="patch_36">
    <path clip-path="url(#pa3b7868a4b)" d="
M198.514 215.868
C199.148 215.868 199.757 215.616 200.205 215.168
C200.654 214.719 200.906 214.111 200.906 213.477
C200.906 212.843 200.654 212.234 200.205 211.786
C199.757 211.337 199.148 211.085 198.514 211.085
C197.88 211.085 197.272 211.337 196.823 211.786
C196.375 212.234 196.123 212.843 196.123 213.477
C196.123 214.111 196.375 214.719 196.823 215.168
C197.272 215.616 197.88 215.868 198.514 215.868
z
" style="stroke:#000000;"/>
   </g>
   <g id="patch_37">
    <path clip-path="url(#pa3b7868a4b)" d="
M192.992 210.288
C193.72 209.027 193.545 207.314 192.507 205.525
C191.468 203.736 189.65 202.018 187.453 200.75
C185.256 199.482 182.859 198.766 180.791 198.761
C178.723 198.756 177.151 199.461 176.423 200.723
C175.695 201.984 175.87 203.697 176.908 205.486
C177.947 207.275 179.765 208.993 181.962 210.261
C184.159 211.529 186.555 212.245 188.624 212.25
C190.692 212.255 192.263 211.55 192.992 210.288
z
" style="fill:#0000ff;stroke:#000000;"/>
   </g>
   <g id="patch_38">
    <path clip-path="url(#pa3b7868a4b)" d="
M170.9 199.925
C171.535 199.925 172.143 199.674 172.591 199.225
C173.04 198.777 173.292 198.168 173.292 197.534
C173.292 196.9 173.04 196.292 172.591 195.843
C172.143 195.395 171.535 195.143 170.9 195.143
C170.266 195.143 169.658 195.395 169.209 195.843
C168.761 196.292 168.509 196.9 168.509 197.534
C168.509 198.168 168.761 198.777 169.209 199.225
C169.658 199.674 170.266 199.925 170.9 199.925
z
" style="stroke:#000000;"/>
   </g>
   <g id="patch_39">
    <path clip-path="url(#pa3b7868a4b)" d="
M170.9 191.157
C171.751 191.157 172.568 190.149 173.169 188.355
C173.771 186.561 174.109 184.128 174.109 181.591
C174.109 179.054 173.771 176.621 173.169 174.827
C172.568 173.033 171.751 172.025 170.9 172.025
C170.05 172.025 169.233 173.033 168.632 174.827
C168.03 176.621 167.692 179.054 167.692 181.591
C167.692 184.128 168.03 186.561 168.632 188.355
C169.233 190.149 170.05 191.157 170.9 191.157
z
" style="fill:#ff6600;stroke:#000000;"/>
   </g>
   <g id="patch_40">
    <path clip-path="url(#pa3b7868a4b)" d="
M170.9 168.04
C171.535 168.04 172.143 167.788 172.591 167.339
C173.04 166.891 173.292 166.283 173.292 165.648
C173.292 165.014 173.04 164.406 172.591 163.957
C172.143 163.509 171.535 163.257 170.9 163.257
C170.266 163.257 169.658 163.509 169.209 163.957
C168.761 164.406 168.509 165.014 168.509 165.648
C168.509 166.283 168.761 166.891 169.209 167.339
C169.658 167.788 170.266 168.04 170.9 168.04
z
" style="stroke:#000000;"/>
   </g>
   <g id="patch_41">
    <path clip-path="url(#pa3b7868a4b)" d="
M165.378 162.46
C165.804 161.721 165.34 160.509 164.088 159.09
C162.836 157.671 160.898 156.161 158.701 154.892
C156.504 153.624 154.228 152.701 152.373 152.326
C150.518 151.951 149.236 152.156 148.809 152.894
C148.383 153.633 148.847 154.845 150.099 156.264
C151.351 157.683 153.289 159.193 155.486 160.462
C157.683 161.73 159.959 162.653 161.814 163.028
C163.669 163.403 164.951 163.198 165.378 162.46
z
" style="fill:#ff6600;stroke:#000000;"/>
   </g>
   <g id="patch_42">
    <path clip-path="url(#pa3b7868a4b)" d="
M143.287 152.097
C143.921 152.097 144.529 151.845 144.978 151.396
C145.426 150.948 145.678 150.34 145.678 149.705
C145.678 149.071 145.426 148.463 144.978 148.014
C144.529 147.566 143.921 147.314 143.287 147.314
C142.652 147.314 142.044 147.566 141.596 148.014
C141.147 148.463 140.895 149.071 140.895 149.705
C140.895 150.34 141.147 150.948 141.596 151.396
C142.044 151.845 142.652 152.097 143.287 152.097
z
" style="stroke:#000000;"/>
   </g>
   <g id="patch_43">
    <path clip-path="url(#pa3b7868a4b)" d="
M143.287 143.328
C144.733 143.328 146.12 142.32 147.143 140.527
C148.166 138.733 148.741 136.299 148.741 133.763
C148.741 131.226 148.166 128.792 147.143 126.999
C146.12 125.205 144.733 124.197 143.287 124.197
C141.84 124.197 140.453 125.205 139.43 126.999
C138.407 128.792 137.833 131.226 137.833 133.763
C137.833 136.299 138.407 138.733 139.43 140.527
C140.453 142.32 141.84 143.328 143.287 143.328
z
" style="fill:#0000ff;stroke:#000000;"/>
   </g>
   <g id="patch_44">
    <path clip-path="url(#pa3b7868a4b)" d="
M143.287 120.211
C143.921 120.211 144.529 119.959 144.978 119.511
C145.426 119.062 145.678 118.454 145.678 117.82
C145.678 117.186 145.426 116.577 144.978 116.129
C144.529 115.68 143.921 115.428 143.287 115.428
C142.652 115.428 142.044 115.68 141.596 116.129
C141.147 116.577 140.895 117.186 140.895 117.82
C140.895 118.454 141.147 119.062 141.596 119.511
C142.044 119.959 142.652 120.211 143.287 120.211
z
" style="stroke:#000000;"/>
   </g>
   <g id="patch_45">
    <path clip-path="url(#pa3b7868a4b)" d="
M137.764 114.631
C138.194 113.886 137.734 112.668 136.484 111.244
C135.235 109.821 133.298 108.308 131.101 107.04
C128.904 105.771 126.626 104.851 124.769 104.48
C122.911 104.11 121.626 104.321 121.196 105.065
C120.765 105.81 121.226 107.029 122.475 108.452
C123.725 109.876 125.661 111.389 127.858 112.657
C130.055 113.925 132.333 114.846 134.191 115.216
C136.048 115.587 137.334 115.376 137.764 114.631
z
" style="fill:#ff6600;stroke:#000000;"/>
   </g>
   <g id="patch_46">
    <path clip-path="url(#pa3b7868a4b)" d="
M115.673 104.268
C116.307 104.268 116.915 104.016 117.364 103.568
C117.812 103.119 118.064 102.511 118.064 101.877
C118.064 101.243 117.812 100.634 117.364 100.186
C116.915 99.7375 116.307 99.4855 115.673 99.4855
C115.039 99.4855 114.43 99.7375 113.982 100.186
C113.533 100.634 113.281 101.243 113.281 101.877
C113.281 102.511 113.533 103.119 113.982 103.568
C114.43 104.016 115.039 104.268 115.673 104.268
z
" style="stroke:#000000;"/>
   </g>
   <g id="patch_47">
    <path clip-path="url(#pa3b7868a4b)" d="
M115.673 95.4998
C116.52 95.4998 117.332 94.4919 117.932 92.698
C118.531 90.9042 118.867 88.4709 118.867 85.9341
C118.867 83.3972 118.531 80.9639 117.932 79.1701
C117.332 77.3762 116.52 76.3683 115.673 76.3683
C114.826 76.3683 114.013 77.3762 113.414 79.1701
C112.815 80.9639 112.478 83.3972 112.478 85.9341
C112.478 88.4709 112.815 90.9042 113.414 92.698
C114.013 94.4919 114.826 95.4998 115.673 95.4998
z
" style="fill:#ff6600;stroke:#000000;"/>
   </g>
   <g id="patch_48">
    <path clip-path="url(#pa3b7868a4b)" d="
M115.673 72.3826
C116.307 72.3826 116.915 72.1306 117.364 71.6822
C117.812 71.2337 118.064 70.6254 118.064 69.9912
C118.064 69.357 117.812 68.7487 117.364 68.3002
C116.915 67.8517 116.307 67.5998 115.673 67.5998
C115.039 67.5998 114.43 67.8517 113.982 68.3002
C113.533 68.7487 113.281 69.357 113.281 69.9912
C113.281 70.6254 113.533 71.2337 113.982 71.6822
C114.43 72.1306 115.039 72.3826 115.673 72.3826
z
" style="stroke:#000000;"/>
   </g>
   <g id="patch_49">
    <path clip-path="url(#pa3b7868a4b)" d="
M110.15 66.8026
C110.871 65.5533 110.69 63.8511 109.647 62.0708
C108.603 60.2905 106.783 58.5775 104.586 57.3091
C102.389 56.0407 99.9947 55.3204 97.9312 55.3068
C95.8677 55.2933 94.303 55.9876 93.5817 57.2369
C92.8604 58.4862 93.0415 60.1884 94.0849 61.9687
C95.1284 63.749 96.9492 65.462 99.1461 66.7304
C101.343 67.9989 103.737 68.7192 105.801 68.7327
C107.864 68.7462 109.429 68.0519 110.15 66.8026
z
" style="fill:#0000ff;stroke:#000000;"/>
   </g>
   <g id="patch_50">
    <path clip-path="url(#pa3b7868a4b)" d="
M88.0589 56.4398
C88.6931 56.4398 89.3015 56.1878 89.7499 55.7393
C90.1984 55.2909 90.4504 54.6826 90.4504 54.0483
C90.4504 53.4141 90.1984 52.8058 89.7499 52.3573
C89.3015 51.9089 88.6931 51.6569 88.0589 51.6569
C87.4247 51.6569 86.8164 51.9089 86.3679 52.3573
C85.9195 52.8058 85.6675 53.4141 85.6675 54.0483
C85.6675 54.6826 85.9195 55.2909 86.3679 55.7393
C86.8164 56.1878 87.4247 56.4398 88.0589 56.4398
z
" style="stroke:#000000;"/>
   </g>
   <g id="patch_51">
    <path clip-path="url(#pa3b7868a4b)" d="
M88.0589 47.6712
C88.9184 47.6712 89.7428 46.6633 90.3505 44.8695
C90.9582 43.0756 91.2997 40.6423 91.2997 38.1055
C91.2997 35.5686 90.9582 33.1353 90.3505 31.3415
C89.7428 29.5477 88.9184 28.5398 88.0589 28.5398
C87.1995 28.5398 86.3751 29.5477 85.7674 31.3415
C85.1596 33.1353 84.8182 35.5686 84.8182 38.1055
C84.8182 40.6423 85.1596 43.0756 85.7674 44.8695
C86.3751 46.6633 87.1995 47.6712 88.0589 47.6712
z
" style="fill:#ff6600;stroke:#000000;"/>
   </g>
   <g id="patch_52">
    <path clip-path="url(#pa3b7868a4b)" d="
M253.742 334.643
C254.601 334.643 255.426 333.635 256.034 331.841
C256.641 330.047 256.983 327.614 256.983 325.077
C256.983 322.54 256.641 320.107 256.034 318.313
C255.426 316.519 254.601 315.511 253.742 315.511
C252.882 315.511 252.058 316.519 251.45 318.313
C250.843 320.107 250.501 322.54 250.501 325.077
C250.501 327.614 250.843 330.047 251.45 331.841
C252.058 333.635 252.882 334.643 253.742 334.643
z
" style="fill:#ff6600;stroke:#000000;"/>
   </g>
   <g id="patch_53">
    <path clip-path="url(#pa3b7868a4b)" d="
M308.97 311.525
C309.604 311.525 310.212 311.274 310.661 310.825
C311.109 310.377 311.361 309.768 311.361 309.134
C311.361 308.5 311.109 307.892 310.661 307.443
C310.212 306.995 309.604 306.743 308.97 306.743
C308.335 306.743 307.727 306.995 307.279 307.443
C306.83 307.892 306.578 308.5 306.578 309.134
C306.578 309.768 306.83 310.377 307.279 310.825
C307.727 311.274 308.335 311.525 308.97 311.525
z
" style="stroke:#000000;"/>
   </g>
   <g id="patch_54">
    <path clip-path="url(#pa3b7868a4b)" d="
M303.447 305.945
C303.873 305.207 303.409 303.995 302.157 302.576
C300.905 301.157 298.967 299.647 296.77 298.378
C294.573 297.11 292.297 296.186 290.442 295.812
C288.587 295.437 287.305 295.641 286.879 296.38
C286.452 297.118 286.916 298.33 288.168 299.75
C289.42 301.169 291.358 302.679 293.555 303.947
C295.752 305.216 298.029 306.139 299.884 306.514
C301.739 306.888 303.021 306.684 303.447 305.945
z
" style="fill:#ff6600;stroke:#000000;"/>
   </g>
   <g id="patch_55">
    <path clip-path="url(#pa3b7868a4b)" d="
M281.356 295.583
C281.99 295.583 282.598 295.331 283.047 294.882
C283.495 294.434 283.747 293.825 283.747 293.191
C283.747 292.557 283.495 291.949 283.047 291.5
C282.598 291.052 281.99 290.8 281.356 290.8
C280.722 290.8 280.113 291.052 279.665 291.5
C279.216 291.949 278.964 292.557 278.964 293.191
C278.964 293.825 279.216 294.434 279.665 294.882
C280.113 295.331 280.722 295.583 281.356 295.583
z
" style="stroke:#000000;"/>
   </g>
   <g id="patch_56">
    <path clip-path="url(#pa3b7868a4b)" d="
M281.356 286.814
C282.203 286.814 283.016 285.806 283.615 284.012
C284.214 282.218 284.55 279.785 284.55 277.248
C284.55 274.711 284.214 272.278 283.615 270.484
C283.016 268.691 282.203 267.683 281.356 267.683
C280.509 267.683 279.696 268.691 279.097 270.484
C278.498 272.278 278.161 274.711 278.161 277.248
C278.161 279.785 278.498 282.218 279.097 284.012
C279.696 285.806 280.509 286.814 281.356 286.814
z
" style="fill:#ff6600;stroke:#000000;"/>
   </g>
   <g id="patch_57">
    <path clip-path="url(#pa3b7868a4b)" d="
M281.356 263.697
C281.99 263.697 282.598 263.445 283.047 262.996
C283.495 262.548 283.747 261.94 283.747 261.305
C283.747 260.671 283.495 260.063 283.047 259.614
C282.598 259.166 281.99 258.914 281.356 258.914
C280.722 258.914 280.113 259.166 279.665 259.614
C279.216 260.063 278.964 260.671 278.964 261.305
C278.964 261.94 279.216 262.548 279.665 262.996
C280.113 263.445 280.722 263.697 281.356 263.697
z
" style="stroke:#000000;"/>
   </g>
   <g id="patch_58">
    <path clip-path="url(#pa3b7868a4b)" d="
M275.833 258.117
C276.559 256.86 276.382 255.151 275.341 253.365
C274.301 251.58 272.482 249.864 270.285 248.595
C268.088 247.327 265.692 246.61 263.626 246.601
C261.559 246.593 259.99 247.294 259.265 248.551
C258.539 249.808 258.716 251.517 259.757 253.303
C260.797 255.088 262.616 256.804 264.813 258.073
C267.01 259.341 269.406 260.059 271.472 260.067
C273.539 260.075 275.107 259.374 275.833 258.117
z
" style="fill:#0000ff;stroke:#000000;"/>
   </g>
   <g id="patch_59">
    <path clip-path="url(#pa3b7868a4b)" d="
M253.742 247.754
C254.376 247.754 254.985 247.502 255.433 247.054
C255.881 246.605 256.133 245.997 256.133 245.363
C256.133 244.728 255.881 244.12 255.433 243.672
C254.985 243.223 254.376 242.971 253.742 242.971
C253.108 242.971 252.499 243.223 252.051 243.672
C251.603 244.12 251.351 244.728 251.351 245.363
C251.351 245.997 251.603 246.605 252.051 247.054
C252.499 247.502 253.108 247.754 253.742 247.754
z
" style="stroke:#000000;"/>
   </g>
   <g id="patch_60">
    <path clip-path="url(#pa3b7868a4b)" d="
M253.742 238.985
C254.594 238.985 255.412 237.978 256.015 236.184
C256.618 234.39 256.956 231.957 256.956 229.42
C256.956 226.883 256.618 224.45 256.015 222.656
C255.412 220.862 254.594 219.854 253.742 219.854
C252.89 219.854 252.072 220.862 251.469 222.656
C250.866 224.45 250.528 226.883 250.528 229.42
C250.528 231.957 250.866 234.39 251.469 236.184
C252.072 237.978 252.89 238.985 253.742 238.985
z
" style="fill:#ff6600;stroke:#000000;"/>
   </g>
   <g id="patch_61">
    <path clip-path="url(#pa3b7868a4b)" d="
M253.742 215.868
C254.376 215.868 254.985 215.616 255.433 215.168
C255.881 214.719 256.133 214.111 256.133 213.477
C256.133 212.843 255.881 212.234 255.433 211.786
C254.985 211.337 254.376 211.085 253.742 211.085
C253.108 211.085 252.499 211.337 252.051 211.786
C251.603 212.234 251.351 212.843 251.351 213.477
C251.351 214.111 251.603 214.719 252.051 215.168
C252.499 215.616 253.108 215.868 253.742 215.868
z
" style="stroke:#000000;"/>
   </g>
   <g id="patch_62">
    <path clip-path="url(#pa3b7868a4b)" d="
M248.219 210.288
C248.646 209.549 248.182 208.336 246.931 206.917
C245.679 205.497 243.741 203.987 241.544 202.718
C239.347 201.45 237.07 200.527 235.215 200.153
C233.36 199.778 232.078 199.983 231.651 200.723
C231.224 201.462 231.688 202.675 232.939 204.094
C234.191 205.514 236.129 207.024 238.326 208.293
C240.523 209.561 242.8 210.484 244.655 210.858
C246.51 211.233 247.792 211.028 248.219 210.288
z
" style="fill:#ff6600;stroke:#000000;"/>
   </g>
   <g id="patch_63">
    <path clip-path="url(#pa3b7868a4b)" d="
M226.128 199.925
C226.762 199.925 227.371 199.674 227.819 199.225
C228.268 198.777 228.52 198.168 228.52 197.534
C228.52 196.9 228.268 196.292 227.819 195.843
C227.371 195.395 226.762 195.143 226.128 195.143
C225.494 195.143 224.886 195.395 224.437 195.843
C223.989 196.292 223.737 196.9 223.737 197.534
C223.737 198.168 223.989 198.777 224.437 199.225
C224.886 199.674 225.494 199.925 226.128 199.925
z
" style="stroke:#000000;"/>
   </g>
   <g id="patch_64">
    <path clip-path="url(#pa3b7868a4b)" d="
M226.128 191.157
C227.575 191.157 228.962 190.149 229.985 188.355
C231.008 186.561 231.583 184.128 231.583 181.591
C231.583 179.054 231.008 176.621 229.985 174.827
C228.962 173.033 227.575 172.025 226.128 172.025
C224.682 172.025 223.294 173.033 222.271 174.827
C221.248 176.621 220.673 179.054 220.673 181.591
C220.673 184.128 221.248 186.561 222.271 188.355
C223.294 190.149 224.682 191.157 226.128 191.157
z
" style="fill:#0000ff;stroke:#000000;"/>
   </g>
   <g id="patch_65">
    <path clip-path="url(#pa3b7868a4b)" d="
M226.128 168.04
C226.762 168.04 227.371 167.788 227.819 167.339
C228.268 166.891 228.52 166.283 228.52 165.648
C228.52 165.014 228.268 164.406 227.819 163.957
C227.371 163.509 226.762 163.257 226.128 163.257
C225.494 163.257 224.886 163.509 224.437 163.957
C223.989 164.406 223.737 165.014 223.737 165.648
C223.737 166.283 223.989 166.891 224.437 167.339
C224.886 167.788 225.494 168.04 226.128 168.04
z
" style="stroke:#000000;"/>
   </g>
   <g id="patch_66">
    <path clip-path="url(#pa3b7868a4b)" d="
M220.605 162.46
C221.037 161.713 220.578 160.492 219.329 159.067
C218.081 157.642 216.145 156.128 213.948 154.86
C211.751 153.591 209.472 152.672 207.614 152.303
C205.755 151.934 204.468 152.147 204.037 152.894
C203.606 153.641 204.065 154.862 205.313 156.287
C206.562 157.712 208.498 159.226 210.695 160.494
C212.892 161.763 215.17 162.682 217.029 163.051
C218.887 163.42 220.174 163.207 220.605 162.46
z
" style="fill:#ff6600;stroke:#000000;"/>
   </g>
   <g id="patch_67">
    <path clip-path="url(#pa3b7868a4b)" d="
M198.514 152.097
C199.148 152.097 199.757 151.845 200.205 151.396
C200.654 150.948 200.906 150.34 200.906 149.705
C200.906 149.071 200.654 148.463 200.205 148.014
C199.757 147.566 199.148 147.314 198.514 147.314
C197.88 147.314 197.272 147.566 196.823 148.014
C196.375 148.463 196.123 149.071 196.123 149.705
C196.123 150.34 196.375 150.948 196.823 151.396
C197.272 151.845 197.88 152.097 198.514 152.097
z
" style="stroke:#000000;"/>
   </g>
   <g id="patch_68">
    <path clip-path="url(#pa3b7868a4b)" d="
M198.514 143.328
C199.358 143.328 200.166 142.32 200.763 140.527
C201.359 138.733 201.694 136.299 201.694 133.763
C201.694 131.226 201.359 128.792 200.763 126.999
C200.166 125.205 199.358 124.197 198.514 124.197
C197.671 124.197 196.862 125.205 196.266 126.999
C195.67 128.792 195.335 131.226 195.335 133.763
C195.335 136.299 195.67 138.733 196.266 140.527
C196.862 142.32 197.671 143.328 198.514 143.328
z
" style="fill:#ff6600;stroke:#000000;"/>
   </g>
   <g id="patch_69">
    <path clip-path="url(#pa3b7868a4b)" d="
M198.514 120.211
C199.148 120.211 199.757 119.959 200.205 119.511
C200.654 119.062 200.906 118.454 200.906 117.82
C200.906 117.186 200.654 116.577 200.205 116.129
C199.757 115.68 199.148 115.428 198.514 115.428
C197.88 115.428 197.272 115.68 196.823 116.129
C196.375 116.577 196.123 117.186 196.123 117.82
C196.123 118.454 196.375 119.062 196.823 119.511
C197.272 119.959 197.88 120.211 198.514 120.211
z
" style="stroke:#000000;"/>
   </g>
   <g id="patch_70">
    <path clip-path="url(#pa3b7868a4b)" d="
M192.992 114.631
C193.717 113.374 193.54 111.665 192.5 109.88
C191.459 108.094 189.64 106.378 187.443 105.11
C185.246 103.841 182.851 103.124 180.784 103.116
C178.718 103.107 177.149 103.809 176.423 105.065
C175.698 106.322 175.875 108.032 176.915 109.817
C177.955 111.603 179.774 113.319 181.971 114.587
C184.168 115.856 186.564 116.573 188.631 116.581
C190.697 116.589 192.266 115.888 192.992 114.631
z
" style="fill:#0000ff;stroke:#000000;"/>
   </g>
   <g id="patch_71">
    <path clip-path="url(#pa3b7868a4b)" d="
M170.9 104.268
C171.535 104.268 172.143 104.016 172.591 103.568
C173.04 103.119 173.292 102.511 173.292 101.877
C173.292 101.243 173.04 100.634 172.591 100.186
C172.143 99.7375 171.535 99.4855 170.9 99.4855
C170.266 99.4855 169.658 99.7375 169.209 100.186
C168.761 100.634 168.509 101.243 168.509 101.877
C168.509 102.511 168.761 103.119 169.209 103.568
C169.658 104.016 170.266 104.268 170.9 104.268
z
" style="stroke:#000000;"/>
   </g>
   <g id="patch_72">
    <path clip-path="url(#pa3b7868a4b)" d="
M170.9 95.4998
C171.757 95.4998 172.578 94.4919 173.184 92.698
C173.789 90.9042 174.129 88.4709 174.129 85.9341
C174.129 83.3972 173.789 80.9639 173.184 79.1701
C172.578 77.3762 171.757 76.3683 170.9 76.3683
C170.044 76.3683 169.223 77.3762 168.617 79.1701
C168.012 80.9639 167.671 83.3972 167.671 85.9341
C167.671 88.4709 168.012 90.9042 168.617 92.698
C169.223 94.4919 170.044 95.4998 170.9 95.4998
z
" style="fill:#ff6600;stroke:#000000;"/>
   </g>
   <g id="patch_73">
    <path clip-path="url(#pa3b7868a4b)" d="
M170.9 72.3826
C171.535 72.3826 172.143 72.1306 172.591 71.6822
C173.04 71.2337 173.292 70.6254 173.292 69.9912
C173.292 69.357 173.04 68.7487 172.591 68.3002
C172.143 67.8517 171.535 67.5998 170.9 67.5998
C170.266 67.5998 169.658 67.8517 169.209 68.3002
C168.761 68.7487 168.509 69.357 168.509 69.9912
C168.509 70.6254 168.761 71.2337 169.209 71.6822
C169.658 72.1306 170.266 72.3826 170.9 72.3826
z
" style="stroke:#000000;"/>
   </g>
   <g id="patch_74">
    <path clip-path="url(#pa3b7868a4b)" d="
M165.378 66.8026
C165.8 66.0719 165.331 64.867 164.076 63.4534
C162.821 62.0398 160.881 60.5328 158.684 59.2644
C156.487 57.9959 154.212 57.0696 152.361 56.6894
C150.509 56.3092 149.231 56.5062 148.809 57.2369
C148.387 57.9676 148.856 59.1725 150.111 60.5861
C151.366 61.9998 153.306 63.5067 155.503 64.7752
C157.7 66.0436 159.975 66.9699 161.826 67.3501
C163.678 67.7303 164.956 67.5334 165.378 66.8026
z
" style="fill:#ff6600;stroke:#000000;"/>
   </g>
   <g id="patch_75">
    <path clip-path="url(#pa3b7868a4b)" d="
M143.287 56.4398
C143.921 56.4398 144.529 56.1878 144.978 55.7393
C145.426 55.2909 145.678 54.6826 145.678 54.0483
C145.678 53.4141 145.426 52.8058 144.978 52.3573
C144.529 51.9089 143.921 51.6569 143.287 51.6569
C142.652 51.6569 142.044 51.9089 141.596 52.3573
C141.147 52.8058 140.895 53.4141 140.895 54.0483
C140.895 54.6826 141.147 55.2909 141.596 55.7393
C142.044 56.1878 142.652 56.4398 143.287 56.4398
z
" style="stroke:#000000;"/>
   </g>
   <g id="patch_76">
    <path clip-path="url(#pa3b7868a4b)" d="
M143.287 47.6712
C144.733 47.6712 146.12 46.6633 147.143 44.8695
C148.166 43.0756 148.741 40.6423 148.741 38.1055
C148.741 35.5686 148.166 33.1353 147.143 31.3415
C146.12 29.5477 144.733 28.5398 143.287 28.5398
C141.84 28.5398 140.453 29.5477 139.43 31.3415
C138.407 33.1353 137.833 35.5686 137.833 38.1055
C137.833 40.6423 138.407 43.0756 139.43 44.8695
C140.453 46.6633 141.84 47.6712 143.287 47.6712
z
" style="fill:#0000ff;stroke:#000000;"/>
   </g>
   <g id="patch_77">
    <path clip-path="url(#pa3b7868a4b)" d="
M308.97 334.643
C310.416 334.643 311.803 333.635 312.826 331.841
C313.849 330.047 314.424 327.614 314.424 325.077
C314.424 322.54 313.849 320.107 312.826 318.313
C311.803 316.519 310.416 315.511 308.97 315.511
C307.523 315.511 306.136 316.519 305.113 318.313
C304.09 320.107 303.516 322.54 303.516 325.077
C303.516 327.614 304.09 330.047 305.113 331.841
C306.136 333.635 307.523 334.643 308.97 334.643
z
" style="fill:#0000ff;stroke:#000000;"/>
   </g>
   <g id="patch_78">
    <path clip-path="url(#pa3b7868a4b)" d="
M364.197 311.525
C364.832 311.525 365.44 311.274 365.888 310.825
C366.337 310.377 366.589 309.768 366.589 309.134
C366.589 308.5 366.337 307.892 365.888 307.443
C365.44 306.995 364.832 306.743 364.197 306.743
C363.563 306.743 362.955 306.995 362.506 307.443
C362.058 307.892 361.806 308.5 361.806 309.134
C361.806 309.768 362.058 310.377 362.506 310.825
C362.955 311.274 363.563 311.525 364.197 311.525
z
" style="stroke:#000000;"/>
   </g>
   <g id="patch_79">
    <path clip-path="url(#pa3b7868a4b)" d="
M358.675 305.945
C359.396 304.696 359.215 302.994 358.171 301.214
C357.128 299.434 355.307 297.721 353.11 296.452
C350.913 295.184 348.519 294.463 346.456 294.45
C344.392 294.436 342.827 295.131 342.106 296.38
C341.385 297.629 341.566 299.331 342.61 301.111
C343.653 302.892 345.474 304.605 347.671 305.873
C349.868 307.141 352.262 307.862 354.325 307.875
C356.389 307.889 357.953 307.195 358.675 305.945
z
" style="fill:#0000ff;stroke:#000000;"/>
   </g>
   <g id="patch_80">
    <path clip-path="url(#pa3b7868a4b)" d="
M336.583 295.583
C337.218 295.583 337.826 295.331 338.274 294.882
C338.723 294.434 338.975 293.825 338.975 293.191
C338.975 292.557 338.723 291.949 338.274 291.5
C337.826 291.052 337.218 290.8 336.583 290.8
C335.949 290.8 335.341 291.052 334.892 291.5
C334.444 291.949 334.192 292.557 334.192 293.191
C334.192 293.825 334.444 294.434 334.892 294.882
C335.341 295.331 335.949 295.583 336.583 295.583
z
" style="stroke:#000000;"/>
   </g>
   <g id="patch_81">
    <path clip-path="url(#pa3b7868a4b)" d="
M336.583 286.814
C337.44 286.814 338.261 285.806 338.867 284.012
C339.472 282.218 339.812 279.785 339.812 277.248
C339.812 274.711 339.472 272.278 338.867 270.484
C338.261 268.691 337.44 267.683 336.583 267.683
C335.727 267.683 334.906 268.691 334.3 270.484
C333.695 272.278 333.355 274.711 333.355 277.248
C333.355 279.785 333.695 282.218 334.3 284.012
C334.906 285.806 335.727 286.814 336.583 286.814
z
" style="fill:#ff6600;stroke:#000000;"/>
   </g>
   <g id="patch_82">
    <path clip-path="url(#pa3b7868a4b)" d="
M336.583 263.697
C337.218 263.697 337.826 263.445 338.274 262.996
C338.723 262.548 338.975 261.94 338.975 261.305
C338.975 260.671 338.723 260.063 338.274 259.614
C337.826 259.166 337.218 258.914 336.583 258.914
C335.949 258.914 335.341 259.166 334.892 259.614
C334.444 260.063 334.192 260.671 334.192 261.305
C334.192 261.94 334.444 262.548 334.892 262.996
C335.341 263.445 335.949 263.697 336.583 263.697
z
" style="stroke:#000000;"/>
   </g>
   <g id="patch_83">
    <path clip-path="url(#pa3b7868a4b)" d="
M331.061 258.117
C331.486 257.38 331.021 256.169 329.769 254.751
C328.516 253.333 326.578 251.824 324.381 250.555
C322.184 249.287 319.907 248.363 318.053 247.987
C316.199 247.611 314.918 247.814 314.492 248.551
C314.067 249.288 314.532 250.499 315.784 251.917
C317.037 253.335 318.975 254.844 321.172 256.113
C323.369 257.381 325.646 258.305 327.5 258.681
C329.354 259.057 330.635 258.854 331.061 258.117
z
" style="fill:#ff6600;stroke:#000000;"/>
   </g>
   <g id="patch_84">
    <path clip-path="url(#pa3b7868a4b)" d="
M308.97 247.754
C309.604 247.754 310.212 247.502 310.661 247.054
C311.109 246.605 311.361 245.997 311.361 245.363
C311.361 244.728 311.109 244.12 310.661 243.672
C310.212 243.223 309.604 242.971 308.97 242.971
C308.335 242.971 307.727 243.223 307.279 243.672
C306.83 244.12 306.578 244.728 306.578 245.363
C306.578 245.997 306.83 246.605 307.279 247.054
C307.727 247.502 308.335 247.754 308.97 247.754
z
" style="stroke:#000000;"/>
   </g>
   <g id="patch_85">
    <path clip-path="url(#pa3b7868a4b)" d="
M308.97 238.985
C310.416 238.985 311.803 237.978 312.826 236.184
C313.849 234.39 314.424 231.957 314.424 229.42
C314.424 226.883 313.849 224.45 312.826 222.656
C311.803 220.862 310.416 219.854 308.97 219.854
C307.523 219.854 306.136 220.862 305.113 222.656
C304.09 224.45 303.516 226.883 303.516 229.42
C303.516 231.957 304.09 234.39 305.113 236.184
C306.136 237.978 307.523 238.985 308.97 238.985
z
" style="fill:#0000ff;stroke:#000000;"/>
   </g>
   <g id="patch_86">
    <path clip-path="url(#pa3b7868a4b)" d="
M308.97 215.868
C309.604 215.868 310.212 215.616 310.661 215.168
C311.109 214.719 311.361 214.111 311.361 213.477
C311.361 212.843 311.109 212.234 310.661 211.786
C310.212 211.337 309.604 211.085 308.97 211.085
C308.335 211.085 307.727 211.337 307.279 211.786
C306.83 212.234 306.578 212.843 306.578 213.477
C306.578 214.111 306.83 214.719 307.279 215.168
C307.727 215.616 308.335 215.868 308.97 215.868
z
" style="stroke:#000000;"/>
   </g>
   <g id="patch_87">
    <path clip-path="url(#pa3b7868a4b)" d="
M303.447 210.288
C303.878 209.542 303.418 208.322 302.17 206.897
C300.921 205.473 298.985 203.959 296.788 202.691
C294.591 201.423 292.312 200.502 290.454 200.133
C288.596 199.764 287.31 199.976 286.879 200.723
C286.448 201.469 286.907 202.689 288.156 204.114
C289.405 205.538 291.341 207.052 293.538 208.32
C295.735 209.588 298.013 210.509 299.871 210.878
C301.73 211.247 303.016 211.035 303.447 210.288
z
" style="fill:#ff6600;stroke:#000000;"/>
   </g>
   <g id="patch_88">
    <path clip-path="url(#pa3b7868a4b)" d="
M281.356 199.925
C281.99 199.925 282.598 199.674 283.047 199.225
C283.495 198.777 283.747 198.168 283.747 197.534
C283.747 196.9 283.495 196.292 283.047 195.843
C282.598 195.395 281.99 195.143 281.356 195.143
C280.722 195.143 280.113 195.395 279.665 195.843
C279.216 196.292 278.964 196.9 278.964 197.534
C278.964 198.168 279.216 198.777 279.665 199.225
C280.113 199.674 280.722 199.925 281.356 199.925
z
" style="stroke:#000000;"/>
   </g>
   <g id="patch_89">
    <path clip-path="url(#pa3b7868a4b)" d="
M281.356 191.157
C282.198 191.157 283.005 190.149 283.6 188.355
C284.195 186.561 284.53 184.128 284.53 181.591
C284.53 179.054 284.195 176.621 283.6 174.827
C283.005 173.033 282.198 172.025 281.356 172.025
C280.514 172.025 279.707 173.033 279.112 174.827
C278.516 176.621 278.182 179.054 278.182 181.591
C278.182 184.128 278.516 186.561 279.112 188.355
C279.707 190.149 280.514 191.157 281.356 191.157
z
" style="fill:#ff6600;stroke:#000000;"/>
   </g>
   <g id="patch_90">
    <path clip-path="url(#pa3b7868a4b)" d="
M281.356 168.04
C281.99 168.04 282.598 167.788 283.047 167.339
C283.495 166.891 283.747 166.283 283.747 165.648
C283.747 165.014 283.495 164.406 283.047 163.957
C282.598 163.509 281.99 163.257 281.356 163.257
C280.722 163.257 280.113 163.509 279.665 163.957
C279.216 164.406 278.964 165.014 278.964 165.648
C278.964 166.283 279.216 166.891 279.665 167.339
C280.113 167.788 280.722 168.04 281.356 168.04
z
" style="stroke:#000000;"/>
   </g>
   <g id="patch_91">
    <path clip-path="url(#pa3b7868a4b)" d="
M275.833 162.46
C276.561 161.199 276.387 159.485 275.348 157.696
C274.309 155.908 272.491 154.19 270.294 152.921
C268.097 151.653 265.701 150.937 263.633 150.932
C261.564 150.927 259.993 151.633 259.265 152.894
C258.537 154.155 258.711 155.869 259.75 157.658
C260.788 159.446 262.606 161.164 264.803 162.432
C267 163.701 269.397 164.416 271.465 164.422
C273.534 164.427 275.105 163.721 275.833 162.46
z
" style="fill:#0000ff;stroke:#000000;"/>
   </g>
   <g id="patch_92">
    <path clip-path="url(#pa3b7868a4b)" d="
M253.742 152.097
C254.376 152.097 254.985 151.845 255.433 151.396
C255.881 150.948 256.133 150.34 256.133 149.705
C256.133 149.071 255.881 148.463 255.433 148.014
C254.985 147.566 254.376 147.314 253.742 147.314
C253.108 147.314 252.499 147.566 252.051 148.014
C251.603 148.463 251.351 149.071 251.351 149.705
C251.351 150.34 251.603 150.948 252.051 151.396
C252.499 151.845 253.108 152.097 253.742 152.097
z
" style="stroke:#000000;"/>
   </g>
   <g id="patch_93">
    <path clip-path="url(#pa3b7868a4b)" d="
M253.742 143.328
C254.595 143.328 255.413 142.32 256.016 140.527
C256.619 138.733 256.957 136.299 256.957 133.763
C256.957 131.226 256.619 128.792 256.016 126.999
C255.413 125.205 254.595 124.197 253.742 124.197
C252.889 124.197 252.071 125.205 251.468 126.999
C250.865 128.792 250.527 131.226 250.527 133.763
C250.527 136.299 250.865 138.733 251.468 140.527
C252.071 142.32 252.889 143.328 253.742 143.328
z
" style="fill:#ff6600;stroke:#000000;"/>
   </g>
   <g id="patch_94">
    <path clip-path="url(#pa3b7868a4b)" d="
M253.742 120.211
C254.376 120.211 254.985 119.959 255.433 119.511
C255.881 119.062 256.133 118.454 256.133 117.82
C256.133 117.186 255.881 116.577 255.433 116.129
C254.985 115.68 254.376 115.428 253.742 115.428
C253.108 115.428 252.499 115.68 252.051 116.129
C251.603 116.577 251.351 117.186 251.351 117.82
C251.351 118.454 251.603 119.062 252.051 119.511
C252.499 119.959 253.108 120.211 253.742 120.211
z
" style="stroke:#000000;"/>
   </g>
   <g id="patch_95">
    <path clip-path="url(#pa3b7868a4b)" d="
M248.219 114.631
C248.644 113.896 248.178 112.686 246.925 111.269
C245.672 109.852 243.733 108.343 241.536 107.075
C239.339 105.807 237.063 104.882 235.209 104.505
C233.356 104.128 232.076 104.33 231.651 105.065
C231.226 105.801 231.692 107.01 232.945 108.427
C234.198 109.844 236.137 111.353 238.334 112.622
C240.531 113.89 242.807 114.815 244.661 115.191
C246.514 115.568 247.795 115.367 248.219 114.631
z
" style="fill:#ff6600;stroke:#000000;"/>
   </g>
   <g id="patch_96">
    <path clip-path="url(#pa3b7868a4b)" d="
M226.128 104.268
C226.762 104.268 227.371 104.016 227.819 103.568
C228.268 103.119 228.52 102.511 228.52 101.877
C228.52 101.243 228.268 100.634 227.819 100.186
C227.371 99.7375 226.762 99.4855 226.128 99.4855
C225.494 99.4855 224.886 99.7375 224.437 100.186
C223.989 100.634 223.737 101.243 223.737 101.877
C223.737 102.511 223.989 103.119 224.437 103.568
C224.886 104.016 225.494 104.268 226.128 104.268
z
" style="stroke:#000000;"/>
   </g>
   <g id="patch_97">
    <path clip-path="url(#pa3b7868a4b)" d="
M226.128 95.4998
C227.574 95.4998 228.961 94.4919 229.984 92.698
C231.006 90.9042 231.581 88.4709 231.581 85.9341
C231.581 83.3972 231.006 80.9639 229.984 79.1701
C228.961 77.3762 227.574 76.3683 226.128 76.3683
C224.682 76.3683 223.295 77.3762 222.272 79.1701
C221.25 80.9639 220.675 83.3972 220.675 85.9341
C220.675 88.4709 221.25 90.9042 222.272 92.698
C223.295 94.4919 224.682 95.4998 226.128 95.4998
z
" style="fill:#0000ff;stroke:#000000;"/>
   </g>
   <g id="patch_98">
    <path clip-path="url(#pa3b7868a4b)" d="
M226.128 72.3826
C226.762 72.3826 227.371 72.1306 227.819 71.6822
C228.268 71.2337 228.52 70.6254 228.52 69.9912
C228.52 69.357 228.268 68.7487 227.819 68.3002
C227.371 67.8517 226.762 67.5998 226.128 67.5998
C225.494 67.5998 224.886 67.8517 224.437 68.3002
C223.989 68.7487 223.737 69.357 223.737 69.9912
C223.737 70.6254 223.989 71.2337 224.437 71.6822
C224.886 72.1306 225.494 72.3826 226.128 72.3826
z
" style="stroke:#000000;"/>
   </g>
   <g id="patch_99">
    <path clip-path="url(#pa3b7868a4b)" d="
M220.605 66.8026
C221.033 66.0626 220.57 64.8488 219.318 63.4286
C218.067 62.0084 216.129 60.4977 213.932 59.2293
C211.735 57.9609 209.458 57.0382 207.603 56.6646
C205.747 56.291 204.464 56.4969 204.037 57.2369
C203.61 57.977 204.073 59.1907 205.324 60.6109
C206.576 62.0311 208.513 63.5418 210.71 64.8102
C212.907 66.0787 215.184 67.0013 217.04 67.3749
C218.895 67.7485 220.178 67.5427 220.605 66.8026
z
" style="fill:#ff6600;stroke:#000000;"/>
   </g>
   <g id="patch_100">
    <path clip-path="url(#pa3b7868a4b)" d="
M198.514 56.4398
C199.148 56.4398 199.757 56.1878 200.205 55.7393
C200.654 55.2909 200.906 54.6826 200.906 54.0483
C200.906 53.4141 200.654 52.8058 200.205 52.3573
C199.757 51.9089 199.148 51.6569 198.514 51.6569
C197.88 51.6569 197.272 51.9089 196.823 52.3573
C196.375 52.8058 196.123 53.4141 196.123 54.0483
C196.123 54.6826 196.375 55.2909 196.823 55.7393
C197.272 56.1878 197.88 56.4398 198.514 56.4398
z
" style="stroke:#000000;"/>
   </g>
   <g id="patch_101">
    <path clip-path="url(#pa3b7868a4b)" d="
M198.514 47.6712
C199.365 47.6712 200.18 46.6633 200.782 44.8695
C201.383 43.0756 201.721 40.6423 201.721 38.1055
C201.721 35.5686 201.383 33.1353 200.782 31.3415
C200.18 29.5477 199.365 28.5398 198.514 28.5398
C197.664 28.5398 196.848 29.5477 196.247 31.3415
C195.646 33.1353 195.308 35.5686 195.308 38.1055
C195.308 40.6423 195.646 43.0756 196.247 44.8695
C196.848 46.6633 197.664 47.6712 198.514 47.6712
z
" style="fill:#ff6600;stroke:#000000;"/>
   </g>
   <g id="patch_102">
    <path clip-path="url(#pa3b7868a4b)" d="
M364.197 334.643
C365.048 334.643 365.863 333.635 366.465 331.841
C367.066 330.047 367.404 327.614 367.404 325.077
C367.404 322.54 367.066 320.107 366.465 318.313
C365.863 316.519 365.048 315.511 364.197 315.511
C363.347 315.511 362.531 316.519 361.93 318.313
C361.329 320.107 360.991 322.54 360.991 325.077
C360.991 327.614 361.329 330.047 361.93 331.841
C362.531 333.635 363.347 334.643 364.197 334.643
z
" style="fill:#ff6600;stroke:#000000;"/>
   </g>
   <g id="patch_103">
    <path clip-path="url(#pa3b7868a4b)" d="
M419.425 311.525
C420.059 311.525 420.668 311.274 421.116 310.825
C421.564 310.377 421.816 309.768 421.816 309.134
C421.816 308.5 421.564 307.892 421.116 307.443
C420.668 306.995 420.059 306.743 419.425 306.743
C418.791 306.743 418.182 306.995 417.734 307.443
C417.286 307.892 417.034 308.5 417.034 309.134
C417.034 309.768 417.286 310.377 417.734 310.825
C418.182 311.274 418.791 311.525 419.425 311.525
z
" style="stroke:#000000;"/>
   </g>
   <g id="patch_104">
    <path clip-path="url(#pa3b7868a4b)" d="
M413.902 305.945
C414.325 305.213 413.857 304.007 412.603 302.593
C411.348 301.178 409.409 299.671 407.212 298.402
C405.015 297.134 402.74 296.208 400.887 295.829
C399.035 295.45 397.757 295.648 397.334 296.38
C396.911 297.112 397.379 298.318 398.633 299.732
C399.888 301.147 401.827 302.654 404.024 303.923
C406.221 305.191 408.497 306.117 410.349 306.496
C412.201 306.876 413.48 306.678 413.902 305.945
z
" style="fill:#ff6600;stroke:#000000;"/>
   </g>
   <g id="patch_105">
    <path clip-path="url(#pa3b7868a4b)" d="
M391.811 295.583
C392.445 295.583 393.054 295.331 393.502 294.882
C393.951 294.434 394.203 293.825 394.203 293.191
C394.203 292.557 393.951 291.949 393.502 291.5
C393.054 291.052 392.445 290.8 391.811 290.8
C391.177 290.8 390.569 291.052 390.12 291.5
C389.672 291.949 389.42 292.557 389.42 293.191
C389.42 293.825 389.672 294.434 390.12 294.882
C390.569 295.331 391.177 295.583 391.811 295.583
z
" style="stroke:#000000;"/>
   </g>
   <g id="patch_106">
    <path clip-path="url(#pa3b7868a4b)" d="
M391.811 286.814
C393.257 286.814 394.644 285.806 395.667 284.012
C396.69 282.218 397.264 279.785 397.264 277.248
C397.264 274.711 396.69 272.278 395.667 270.484
C394.644 268.691 393.257 267.683 391.811 267.683
C390.365 267.683 388.978 268.691 387.955 270.484
C386.933 272.278 386.358 274.711 386.358 277.248
C386.358 279.785 386.933 282.218 387.955 284.012
C388.978 285.806 390.365 286.814 391.811 286.814
z
" style="fill:#0000ff;stroke:#000000;"/>
   </g>
   <g id="patch_107">
    <path clip-path="url(#pa3b7868a4b)" d="
M391.811 263.697
C392.445 263.697 393.054 263.445 393.502 262.996
C393.951 262.548 394.203 261.94 394.203 261.305
C394.203 260.671 393.951 260.063 393.502 259.614
C393.054 259.166 392.445 258.914 391.811 258.914
C391.177 258.914 390.569 259.166 390.12 259.614
C389.672 260.063 389.42 260.671 389.42 261.305
C389.42 261.94 389.672 262.548 390.12 262.996
C390.569 263.445 391.177 263.697 391.811 263.697
z
" style="stroke:#000000;"/>
   </g>
   <g id="patch_108">
    <path clip-path="url(#pa3b7868a4b)" d="
M386.288 258.117
C386.718 257.374 386.256 256.157 385.006 254.734
C383.756 253.312 381.82 251.8 379.623 250.531
C377.426 249.263 375.148 248.341 373.291 247.97
C371.434 247.599 370.149 247.808 369.72 248.551
C369.291 249.295 369.752 250.512 371.002 251.934
C372.252 253.357 374.189 254.869 376.386 256.137
C378.583 257.405 380.861 258.327 382.718 258.698
C384.575 259.069 385.859 258.86 386.288 258.117
z
" style="fill:#ff6600;stroke:#000000;"/>
   </g>
   <g id="patch_109">
    <path clip-path="url(#pa3b7868a4b)" d="
M364.197 247.754
C364.832 247.754 365.44 247.502 365.888 247.054
C366.337 246.605 366.589 245.997 366.589 245.363
C366.589 244.728 366.337 244.12 365.888 243.672
C365.44 243.223 364.832 242.971 364.197 242.971
C363.563 242.971 362.955 243.223 362.506 243.672
C362.058 244.12 361.806 244.728 361.806 245.363
C361.806 245.997 362.058 246.605 362.506 247.054
C362.955 247.502 363.563 247.754 364.197 247.754
z
" style="stroke:#000000;"/>
   </g>
   <g id="patch_110">
    <path clip-path="url(#pa3b7868a4b)" d="
M364.197 238.985
C365.041 238.985 365.85 237.978 366.446 236.184
C367.043 234.39 367.378 231.957 367.378 229.42
C367.378 226.883 367.043 224.45 366.446 222.656
C365.85 220.862 365.041 219.854 364.197 219.854
C363.354 219.854 362.545 220.862 361.948 222.656
C361.352 224.45 361.017 226.883 361.017 229.42
C361.017 231.957 361.352 234.39 361.948 236.184
C362.545 237.978 363.354 238.985 364.197 238.985
z
" style="fill:#ff6600;stroke:#000000;"/>
   </g>
   <g id="patch_111">
    <path clip-path="url(#pa3b7868a4b)" d="
M364.197 215.868
C364.832 215.868 365.44 215.616 365.888 215.168
C366.337 214.719 366.589 214.111 366.589 213.477
C366.589 212.843 366.337 212.234 365.888 211.786
C365.44 211.337 364.832 211.085 364.197 211.085
C363.563 211.085 362.955 211.337 362.506 211.786
C362.058 212.234 361.806 212.843 361.806 213.477
C361.806 214.111 362.058 214.719 362.506 215.168
C362.955 215.616 363.563 215.868 364.197 215.868
z
" style="stroke:#000000;"/>
   </g>
   <g id="patch_112">
    <path clip-path="url(#pa3b7868a4b)" d="
M358.675 210.288
C359.403 209.027 359.228 207.314 358.19 205.525
C357.151 203.736 355.333 202.018 353.136 200.75
C350.939 199.482 348.542 198.766 346.474 198.761
C344.406 198.756 342.834 199.461 342.106 200.723
C341.378 201.984 341.553 203.697 342.591 205.486
C343.63 207.275 345.448 208.993 347.645 210.261
C349.842 211.529 352.238 212.245 354.307 212.25
C356.375 212.255 357.946 211.55 358.675 210.288
z
" style="fill:#0000ff;stroke:#000000;"/>
   </g>
   <g id="patch_113">
    <path clip-path="url(#pa3b7868a4b)" d="
M336.583 199.925
C337.218 199.925 337.826 199.674 338.274 199.225
C338.723 198.777 338.975 198.168 338.975 197.534
C338.975 196.9 338.723 196.292 338.274 195.843
C337.826 195.395 337.218 195.143 336.583 195.143
C335.949 195.143 335.341 195.395 334.892 195.843
C334.444 196.292 334.192 196.9 334.192 197.534
C334.192 198.168 334.444 198.777 334.892 199.225
C335.341 199.674 335.949 199.925 336.583 199.925
z
" style="stroke:#000000;"/>
   </g>
   <g id="patch_114">
    <path clip-path="url(#pa3b7868a4b)" d="
M336.583 191.157
C337.434 191.157 338.251 190.149 338.852 188.355
C339.454 186.561 339.792 184.128 339.792 181.591
C339.792 179.054 339.454 176.621 338.852 174.827
C338.251 173.033 337.434 172.025 336.583 172.025
C335.733 172.025 334.916 173.033 334.315 174.827
C333.713 176.621 333.375 179.054 333.375 181.591
C333.375 184.128 333.713 186.561 334.315 188.355
C334.916 190.149 335.733 191.157 336.583 191.157
z
" style="fill:#ff6600;stroke:#000000;"/>
   </g>
   <g id="patch_115">
    <path clip-path="url(#pa3b7868a4b)" d="
M336.583 168.04
C337.218 168.04 337.826 167.788 338.274 167.339
C338.723 166.891 338.975 166.283 338.975 165.648
C338.975 165.014 338.723 164.406 338.274 163.957
C337.826 163.509 337.218 163.257 336.583 163.257
C335.949 163.257 335.341 163.509 334.892 163.957
C334.444 164.406 334.192 165.014 334.192 165.648
C334.192 166.283 334.444 166.891 334.892 167.339
C335.341 167.788 335.949 168.04 336.583 168.04
z
" style="stroke:#000000;"/>
   </g>
   <g id="patch_116">
    <path clip-path="url(#pa3b7868a4b)" d="
M331.061 162.46
C331.487 161.721 331.023 160.509 329.771 159.09
C328.519 157.671 326.581 156.161 324.384 154.892
C322.187 153.624 319.911 152.701 318.056 152.326
C316.201 151.951 314.919 152.156 314.492 152.894
C314.066 153.633 314.53 154.845 315.782 156.264
C317.034 157.683 318.972 159.193 321.169 160.462
C323.366 161.73 325.642 162.653 327.497 163.028
C329.352 163.403 330.634 163.198 331.061 162.46
z
" style="fill:#ff6600;stroke:#000000;"/>
   </g>
   <g id="patch_117">
    <path clip-path="url(#pa3b7868a4b)" d="
M308.97 152.097
C309.604 152.097 310.212 151.845 310.661 151.396
C311.109 150.948 311.361 150.34 311.361 149.705
C311.361 149.071 311.109 148.463 310.661 148.014
C310.212 147.566 309.604 147.314 308.97 147.314
C308.335 147.314 307.727 147.566 307.279 148.014
C306.83 148.463 306.578 149.071 306.578 149.705
C306.578 150.34 306.83 150.948 307.279 151.396
C307.727 151.845 308.335 152.097 308.97 152.097
z
" style="stroke:#000000;"/>
   </g>
   <g id="patch_118">
    <path clip-path="url(#pa3b7868a4b)" d="
M308.97 143.328
C310.416 143.328 311.803 142.32 312.826 140.527
C313.849 138.733 314.424 136.299 314.424 133.763
C314.424 131.226 313.849 128.792 312.826 126.999
C311.803 125.205 310.416 124.197 308.97 124.197
C307.523 124.197 306.136 125.205 305.113 126.999
C304.09 128.792 303.516 131.226 303.516 133.763
C303.516 136.299 304.09 138.733 305.113 140.527
C306.136 142.32 307.523 143.328 308.97 143.328
z
" style="fill:#0000ff;stroke:#000000;"/>
   </g>
   <g id="patch_119">
    <path clip-path="url(#pa3b7868a4b)" d="
M308.97 120.211
C309.604 120.211 310.212 119.959 310.661 119.511
C311.109 119.062 311.361 118.454 311.361 117.82
C311.361 117.186 311.109 116.577 310.661 116.129
C310.212 115.68 309.604 115.428 308.97 115.428
C308.335 115.428 307.727 115.68 307.279 116.129
C306.83 116.577 306.578 117.186 306.578 117.82
C306.578 118.454 306.83 119.062 307.279 119.511
C307.727 119.959 308.335 120.211 308.97 120.211
z
" style="stroke:#000000;"/>
   </g>
   <g id="patch_120">
    <path clip-path="url(#pa3b7868a4b)" d="
M303.447 114.631
C303.877 113.886 303.417 112.668 302.167 111.244
C300.918 109.821 298.981 108.308 296.784 107.04
C294.587 105.771 292.309 104.851 290.452 104.48
C288.594 104.11 287.309 104.321 286.879 105.065
C286.449 105.81 286.909 107.029 288.158 108.452
C289.408 109.876 291.344 111.389 293.541 112.657
C295.738 113.925 298.016 114.846 299.874 115.216
C301.731 115.587 303.017 115.376 303.447 114.631
z
" style="fill:#ff6600;stroke:#000000;"/>
   </g>
   <g id="patch_121">
    <path clip-path="url(#pa3b7868a4b)" d="
M281.356 104.268
C281.99 104.268 282.598 104.016 283.047 103.568
C283.495 103.119 283.747 102.511 283.747 101.877
C283.747 101.243 283.495 100.634 283.047 100.186
C282.598 99.7375 281.99 99.4855 281.356 99.4855
C280.722 99.4855 280.113 99.7375 279.665 100.186
C279.216 100.634 278.964 101.243 278.964 101.877
C278.964 102.511 279.216 103.119 279.665 103.568
C280.113 104.016 280.722 104.268 281.356 104.268
z
" style="stroke:#000000;"/>
   </g>
   <g id="patch_122">
    <path clip-path="url(#pa3b7868a4b)" d="
M281.356 95.4998
C282.203 95.4998 283.016 94.4919 283.615 92.698
C284.214 90.9042 284.55 88.4709 284.55 85.9341
C284.55 83.3972 284.214 80.9639 283.615 79.1701
C283.016 77.3762 282.203 76.3683 281.356 76.3683
C280.509 76.3683 279.696 77.3762 279.097 79.1701
C278.498 80.9639 278.161 83.3972 278.161 85.9341
C278.161 88.4709 278.498 90.9042 279.097 92.698
C279.696 94.4919 280.509 95.4998 281.356 95.4998
z
" style="fill:#ff6600;stroke:#000000;"/>
   </g>
   <g id="patch_123">
    <path clip-path="url(#pa3b7868a4b)" d="
M281.356 72.3826
C281.99 72.3826 282.598 72.1306 283.047 71.6822
C283.495 71.2337 283.747 70.6254 283.747 69.9912
C283.747 69.357 283.495 68.7487 283.047 68.3002
C282.598 67.8517 281.99 67.5998 281.356 67.5998
C280.722 67.5998 280.113 67.8517 279.665 68.3002
C279.216 68.7487 278.964 69.357 278.964 69.9912
C278.964 70.6254 279.216 71.2337 279.665 71.6822
C280.113 72.1306 280.722 72.3826 281.356 72.3826
z
" style="stroke:#000000;"/>
   </g>
   <g id="patch_124">
    <path clip-path="url(#pa3b7868a4b)" d="
M275.833 66.8026
C276.554 65.5533 276.373 63.8511 275.33 62.0708
C274.286 60.2905 272.466 58.5775 270.269 57.3091
C268.072 56.0407 265.678 55.3204 263.614 55.3068
C261.551 55.2933 259.986 55.9876 259.265 57.2369
C258.543 58.4862 258.724 60.1884 259.768 61.9687
C260.811 63.749 262.632 65.462 264.829 66.7304
C267.026 67.9989 269.42 68.7192 271.484 68.7327
C273.547 68.7462 275.112 68.0519 275.833 66.8026
z
" style="fill:#0000ff;stroke:#000000;"/>
   </g>
   <g id="patch_125">
    <path clip-path="url(#pa3b7868a4b)" d="
M253.742 56.4398
C254.376 56.4398 254.985 56.1878 255.433 55.7393
C255.881 55.2909 256.133 54.6826 256.133 54.0483
C256.133 53.4141 255.881 52.8058 255.433 52.3573
C254.985 51.9089 254.376 51.6569 253.742 51.6569
C253.108 51.6569 252.499 51.9089 252.051 52.3573
C251.603 52.8058 251.351 53.4141 251.351 54.0483
C251.351 54.6826 251.603 55.2909 252.051 55.7393
C252.499 56.1878 253.108 56.4398 253.742 56.4398
z
" style="stroke:#000000;"/>
   </g>
   <g id="patch_126">
    <path clip-path="url(#pa3b7868a4b)" d="
M253.742 47.6712
C254.601 47.6712 255.426 46.6633 256.034 44.8695
C256.641 43.0756 256.983 40.6423 256.983 38.1055
C256.983 35.5686 256.641 33.1353 256.034 31.3415
C255.426 29.5477 254.601 28.5398 253.742 28.5398
C252.882 28.5398 252.058 29.5477 251.45 31.3415
C250.843 33.1353 250.501 35.5686 250.501 38.1055
C250.501 40.6423 250.843 43.0756 251.45 44.8695
C252.058 46.6633 252.882 47.6712 253.742 47.6712
z
" style="fill:#ff6600;stroke:#000000;"/>
   </g>
   <g id="patch_127">
    <path clip-path="url(#pa3b7868a4b)" d="
M419.425 334.643
C420.284 334.643 421.109 333.635 421.717 331.841
C422.324 330.047 422.666 327.614 422.666 325.077
C422.666 322.54 422.324 320.107 421.717 318.313
C421.109 316.519 420.284 315.511 419.425 315.511
C418.566 315.511 417.741 316.519 417.133 318.313
C416.526 320.107 416.184 322.54 416.184 325.077
C416.184 327.614 416.526 330.047 417.133 331.841
C417.741 333.635 418.566 334.643 419.425 334.643
z
" style="fill:#ff6600;stroke:#000000;"/>
   </g>
   <g id="patch_128">
    <path clip-path="url(#pa3b7868a4b)" d="
M204.037 305.945
C204.41 306.591 205.64 306.706 207.457 306.265
C209.274 305.825 211.529 304.865 213.726 303.596
C215.923 302.328 217.882 300.855 219.172 299.501
C220.463 298.148 220.978 297.025 220.605 296.38
C220.233 295.734 219.002 295.619 217.185 296.06
C215.369 296.5 213.113 297.461 210.916 298.729
C208.719 299.997 206.76 301.471 205.47 302.824
C204.18 304.177 203.664 305.3 204.037 305.945
z
" style="fill:#ff6600;stroke:#000000;"/>
   </g>
   <g id="patch_129">
    <path clip-path="url(#pa3b7868a4b)" d="
M176.423 258.117
C177.088 259.268 178.598 259.867 180.621 259.784
C182.644 259.701 185.015 258.941 187.212 257.673
C189.409 256.404 191.253 254.73 192.336 253.02
C193.42 251.309 193.656 249.702 192.992 248.551
C192.327 247.401 190.817 246.801 188.794 246.884
C186.771 246.968 184.399 247.727 182.202 248.995
C180.006 250.264 178.162 251.938 177.078 253.648
C175.995 255.359 175.759 256.966 176.423 258.117
z
" style="fill:#0000ff;stroke:#000000;"/>
   </g>
   <g id="patch_130">
    <path clip-path="url(#pa3b7868a4b)" d="
M148.809 210.288
C149.172 210.916 150.392 211.014 152.202 210.561
C154.012 210.108 156.263 209.141 158.46 207.872
C160.657 206.604 162.62 205.138 163.918 203.797
C165.215 202.456 165.74 201.35 165.378 200.723
C165.015 200.095 163.795 199.997 161.985 200.45
C160.175 200.903 157.924 201.87 155.727 203.139
C153.53 204.407 151.567 205.873 150.269 207.214
C148.972 208.555 148.447 209.661 148.809 210.288
z
" style="fill:#ff6600;stroke:#000000;"/>
   </g>
   <g id="patch_131">
    <path clip-path="url(#pa3b7868a4b)" d="
M121.196 162.46
C121.563 163.095 122.787 163.201 124.601 162.754
C126.414 162.306 128.667 161.342 130.864 160.074
C133.061 158.806 135.022 157.336 136.316 155.99
C137.61 154.643 138.131 153.53 137.764 152.894
C137.397 152.258 136.172 152.153 134.359 152.6
C132.546 153.047 130.293 154.011 128.096 155.28
C125.899 156.548 123.937 158.017 122.643 159.364
C121.349 160.71 120.829 161.824 121.196 162.46
z
" style="fill:#ff6600;stroke:#000000;"/>
   </g>
   <g id="patch_132">
    <path clip-path="url(#pa3b7868a4b)" d="
M93.5817 114.631
C94.246 115.782 95.756 116.381 97.7793 116.298
C99.8025 116.215 102.174 115.455 104.371 114.187
C106.568 112.918 108.411 111.245 109.495 109.534
C110.579 107.824 110.814 106.216 110.15 105.065
C109.486 103.915 107.976 103.315 105.952 103.399
C103.929 103.482 101.558 104.241 99.361 105.51
C97.164 106.778 95.3206 108.452 94.2369 110.163
C93.1531 111.873 92.9174 113.481 93.5817 114.631
z
" style="fill:#0000ff;stroke:#000000;"/>
   </g>
   <g id="patch_133">
    <path clip-path="url(#pa3b7868a4b)" d="
M65.9679 66.8026
C66.3361 67.4405 67.5622 67.5483 69.3761 67.1024
C71.19 66.6565 73.4436 65.6933 75.6406 64.4248
C77.8376 63.1564 79.7985 61.6863 81.0917 60.3384
C82.3848 58.9905 82.9044 57.8747 82.5362 57.2369
C82.1679 56.5991 80.9418 56.4912 79.1279 56.9371
C77.314 57.383 75.0604 58.3463 72.8634 59.6147
C70.6665 60.8831 68.7055 62.3532 67.4124 63.7011
C66.1193 65.0491 65.5996 66.1648 65.9679 66.8026
z
" style="fill:#ff6600;stroke:#000000;"/>
   </g>
   <g id="patch_134">
    <path clip-path="url(#pa3b7868a4b)" d="
M259.265 305.945
C259.933 307.102 261.446 307.708 263.472 307.629
C265.498 307.55 267.87 306.793 270.067 305.525
C272.264 304.257 274.106 302.58 275.188 300.865
C276.269 299.15 276.501 297.537 275.833 296.38
C275.165 295.223 273.652 294.617 271.626 294.696
C269.6 294.775 267.227 295.532 265.03 296.8
C262.833 298.069 260.991 299.745 259.91 301.46
C258.829 303.175 258.597 304.789 259.265 305.945
z
" style="fill:#0000ff;stroke:#000000;"/>
   </g>
   <g id="patch_135">
    <path clip-path="url(#pa3b7868a4b)" d="
M231.651 258.117
C232.015 258.747 233.237 258.848 235.048 258.397
C236.859 257.946 239.111 256.98 241.307 255.711
C243.504 254.443 245.467 252.976 246.763 251.633
C248.059 250.29 248.583 249.182 248.219 248.551
C247.855 247.921 246.633 247.82 244.822 248.271
C243.011 248.722 240.76 249.688 238.563 250.957
C236.366 252.225 234.403 253.692 233.107 255.035
C231.811 256.378 231.287 257.486 231.651 258.117
z
" style="fill:#ff6600;stroke:#000000;"/>
   </g>
   <g id="patch_136">
    <path clip-path="url(#pa3b7868a4b)" d="
M204.037 210.288
C204.403 210.923 205.628 211.028 207.44 210.58
C209.253 210.131 211.506 209.167 213.703 207.899
C215.9 206.63 217.862 205.161 219.156 203.816
C220.45 202.47 220.972 201.357 220.605 200.723
C220.239 200.088 219.015 199.983 217.202 200.431
C215.389 200.879 213.137 201.844 210.94 203.112
C208.743 204.381 206.781 205.85 205.486 207.195
C204.192 208.541 203.671 209.654 204.037 210.288
z
" style="fill:#ff6600;stroke:#000000;"/>
   </g>
   <g id="patch_137">
    <path clip-path="url(#pa3b7868a4b)" d="
M176.423 162.46
C177.087 163.61 178.597 164.209 180.62 164.126
C182.643 164.042 185.014 163.282 187.211 162.014
C189.408 160.745 191.252 159.072 192.336 157.362
C193.42 155.651 193.656 154.044 192.992 152.894
C192.327 151.744 190.818 151.145 188.795 151.228
C186.772 151.312 184.4 152.071 182.203 153.34
C180.006 154.608 178.163 156.282 177.079 157.992
C175.995 159.702 175.759 161.31 176.423 162.46
z
" style="fill:#0000ff;stroke:#000000;"/>
   </g>
   <g id="patch_138">
    <path clip-path="url(#pa3b7868a4b)" d="
M148.809 114.631
C149.172 115.26 150.393 115.359 152.203 114.906
C154.013 114.453 156.265 113.487 158.462 112.218
C160.659 110.95 162.622 109.483 163.919 108.142
C165.216 106.801 165.741 105.694 165.378 105.065
C165.015 104.437 163.794 104.338 161.984 104.791
C160.174 105.243 157.922 106.21 155.725 107.479
C153.528 108.747 151.565 110.213 150.268 111.555
C148.971 112.896 148.447 114.003 148.809 114.631
z
" style="fill:#ff6600;stroke:#000000;"/>
   </g>
   <g id="patch_139">
    <path clip-path="url(#pa3b7868a4b)" d="
M121.196 66.8026
C121.57 67.4506 122.801 67.5682 124.619 67.1295
C126.437 66.6908 128.693 65.7316 130.89 64.4632
C133.087 63.1948 135.046 61.7207 136.335 60.3656
C137.624 59.0104 138.138 57.8849 137.764 57.2369
C137.39 56.5889 136.158 56.4713 134.34 56.91
C132.522 57.3487 130.266 58.3079 128.069 59.5763
C125.872 60.8448 123.913 62.3189 122.624 63.674
C121.335 65.0291 120.821 66.1546 121.196 66.8026
z
" style="fill:#ff6600;stroke:#000000;"/>
   </g>
   <g id="patch_140">
    <path clip-path="url(#pa3b7868a4b)" d="
M314.492 305.945
C314.862 306.585 316.089 306.695 317.904 306.25
C319.718 305.806 321.972 304.844 324.169 303.575
C326.366 302.307 328.327 300.836 329.619 299.487
C330.912 298.137 331.43 297.02 331.061 296.38
C330.691 295.74 329.464 295.63 327.649 296.075
C325.835 296.519 323.581 297.482 321.384 298.75
C319.187 300.019 317.226 301.489 315.934 302.839
C314.642 304.188 314.123 305.306 314.492 305.945
z
" style="fill:#ff6600;stroke:#000000;"/>
   </g>
   <g id="patch_141">
    <path clip-path="url(#pa3b7868a4b)" d="
M286.879 258.117
C287.246 258.753 288.471 258.86 290.284 258.413
C292.098 257.966 294.351 257.002 296.548 255.733
C298.745 254.465 300.706 252.996 302 251.649
C303.294 250.302 303.814 249.188 303.447 248.551
C303.079 247.915 301.854 247.808 300.041 248.255
C298.228 248.702 295.974 249.666 293.777 250.935
C291.58 252.203 289.619 253.673 288.325 255.019
C287.032 256.366 286.511 257.481 286.879 258.117
z
" style="fill:#ff6600;stroke:#000000;"/>
   </g>
   <g id="patch_142">
    <path clip-path="url(#pa3b7868a4b)" d="
M259.265 210.288
C259.929 211.439 261.439 212.038 263.462 211.954
C265.485 211.871 267.856 211.111 270.053 209.842
C272.25 208.574 274.093 206.9 275.177 205.19
C276.261 203.48 276.497 201.873 275.833 200.723
C275.169 199.572 273.659 198.973 271.636 199.057
C269.613 199.14 267.242 199.9 265.045 201.168
C262.848 202.437 261.004 204.111 259.921 205.821
C258.837 207.531 258.601 209.138 259.265 210.288
z
" style="fill:#0000ff;stroke:#000000;"/>
   </g>
   <g id="patch_143">
    <path clip-path="url(#pa3b7868a4b)" d="
M231.651 162.46
C232.013 163.086 233.233 163.184 235.042 162.73
C236.851 162.276 239.102 161.308 241.299 160.04
C243.496 158.772 245.46 157.306 246.758 155.966
C248.055 154.626 248.581 153.521 248.219 152.894
C247.857 152.267 246.637 152.17 244.828 152.624
C243.019 153.078 240.768 154.045 238.571 155.314
C236.374 156.582 234.41 158.048 233.113 159.388
C231.815 160.728 231.289 161.833 231.651 162.46
z
" style="fill:#ff6600;stroke:#000000;"/>
   </g>
   <g id="patch_144">
    <path clip-path="url(#pa3b7868a4b)" d="
M204.037 114.631
C204.406 115.27 205.632 115.378 207.446 114.932
C209.26 114.487 211.514 113.524 213.711 112.256
C215.908 110.987 217.869 109.517 219.162 108.169
C220.455 106.82 220.974 105.704 220.605 105.065
C220.237 104.427 219.01 104.319 217.196 104.764
C215.382 105.21 213.128 106.173 210.931 107.441
C208.734 108.71 206.774 110.18 205.481 111.528
C204.188 112.877 203.668 113.993 204.037 114.631
z
" style="fill:#ff6600;stroke:#000000;"/>
   </g>
   <g id="patch_145">
    <path clip-path="url(#pa3b7868a4b)" d="
M176.423 66.8026
C177.091 67.9597 178.605 68.5655 180.631 68.4867
C182.657 68.4079 185.029 67.651 187.226 66.3826
C189.423 65.1141 191.265 63.4378 192.346 61.7227
C193.427 60.0077 193.66 58.3939 192.992 57.2369
C192.324 56.0799 190.81 55.474 188.784 55.5528
C186.758 55.6316 184.385 56.3885 182.189 57.657
C179.992 58.9254 178.15 60.6017 177.068 62.3168
C175.987 64.0319 175.755 65.6456 176.423 66.8026
z
" style="fill:#0000ff;stroke:#000000;"/>
   </g>
   <g id="patch_146">
    <path clip-path="url(#pa3b7868a4b)" d="
M369.72 305.945
C370.093 306.591 371.323 306.706 373.14 306.265
C374.957 305.825 377.212 304.865 379.409 303.596
C381.606 302.328 383.565 300.855 384.856 299.501
C386.146 298.148 386.661 297.025 386.288 296.38
C385.916 295.734 384.685 295.619 382.869 296.06
C381.052 296.5 378.796 297.461 376.599 298.729
C374.402 299.997 372.443 301.471 371.153 302.824
C369.863 304.177 369.347 305.3 369.72 305.945
z
" style="fill:#ff6600;stroke:#000000;"/>
   </g>
   <g id="patch_147">
    <path clip-path="url(#pa3b7868a4b)" d="
M342.106 258.117
C342.771 259.268 344.281 259.867 346.304 259.784
C348.327 259.701 350.698 258.941 352.895 257.673
C355.092 256.404 356.936 254.73 358.019 253.02
C359.103 251.309 359.339 249.702 358.675 248.551
C358.01 247.401 356.5 246.801 354.477 246.884
C352.454 246.968 350.083 247.727 347.886 248.995
C345.689 250.264 343.845 251.938 342.761 253.648
C341.678 255.359 341.442 256.966 342.106 258.117
z
" style="fill:#0000ff;stroke:#000000;"/>
   </g>
   <g id="patch_148">
    <path clip-path="url(#pa3b7868a4b)" d="
M314.492 210.288
C314.855 210.916 316.075 211.014 317.885 210.561
C319.695 210.108 321.946 209.141 324.143 207.872
C326.34 206.604 328.303 205.138 329.601 203.797
C330.898 202.456 331.423 201.35 331.061 200.723
C330.698 200.095 329.478 199.997 327.668 200.45
C325.858 200.903 323.607 201.87 321.41 203.139
C319.213 204.407 317.25 205.873 315.952 207.214
C314.655 208.555 314.13 209.661 314.492 210.288
z
" style="fill:#ff6600;stroke:#000000;"/>
   </g>
   <g id="patch_149">
    <path clip-path="url(#pa3b7868a4b)" d="
M286.879 162.46
C287.246 163.095 288.471 163.201 290.284 162.754
C292.097 162.306 294.35 161.342 296.547 160.074
C298.744 158.806 300.705 157.336 301.999 155.99
C303.293 154.643 303.814 153.53 303.447 152.894
C303.08 152.258 301.855 152.153 300.042 152.6
C298.229 153.047 295.976 154.011 293.779 155.28
C291.582 156.548 289.62 158.017 288.326 159.364
C287.032 160.71 286.512 161.824 286.879 162.46
z
" style="fill:#ff6600;stroke:#000000;"/>
   </g>
   <g id="patch_150">
    <path clip-path="url(#pa3b7868a4b)" d="
M259.265 114.631
C259.929 115.782 261.439 116.381 263.462 116.298
C265.486 116.215 267.857 115.455 270.054 114.187
C272.251 112.918 274.094 111.245 275.178 109.534
C276.262 107.824 276.497 106.216 275.833 105.065
C275.169 103.915 273.659 103.315 271.635 103.399
C269.612 103.482 267.241 104.241 265.044 105.51
C262.847 106.778 261.004 108.452 259.92 110.163
C258.836 111.873 258.6 113.481 259.265 114.631
z
" style="fill:#0000ff;stroke:#000000;"/>
   </g>
   <g id="patch_151">
    <path clip-path="url(#pa3b7868a4b)" d="
M231.651 66.8026
C232.019 67.4405 233.245 67.5483 235.059 67.1024
C236.873 66.6565 239.127 65.6933 241.324 64.4248
C243.521 63.1564 245.482 61.6863 246.775 60.3384
C248.068 58.9905 248.587 57.8747 248.219 57.2369
C247.851 56.5991 246.625 56.4912 244.811 56.9371
C242.997 57.383 240.743 58.3463 238.546 59.6147
C236.349 60.8831 234.389 62.3532 233.095 63.7011
C231.802 65.0491 231.283 66.1648 231.651 66.8026
z
" style="fill:#ff6600;stroke:#000000;"/>
   </g>
   <g id="matplotlib.axis_1"/>
   <g id="matplotlib.axis_2"/>
   <g id="patch_152">
    <path d="
M7.2 22.1626
L453.6 22.1626" style="fill:none;stroke:#000000;"/>
   </g>
   <g id="patch_153">
    <path d="
M453.6 341.02
L453.6 22.1626" style="fill:none;stroke:#000000;"/>
   </g>
   <g id="patch_154">
    <path d="
M7.2 341.02
L453.6 341.02" style="fill:none;stroke:#000000;"/>
   </g>
   <g id="patch_155">
    <path d="
M7.2 341.02
L7.2 22.1626" style="fill:none;stroke:#000000;"/>
   </g>
   <g id="text_1">
    <!-- $V_1 = 5.6, \ V_2 = 1.6$ -->
    <defs>
     <path d="
M61.9062 56.7188
C65.2969 62.1094 68.4062 64.5 73.5 64.9062
C74.5 65 75.2969 65 75.2969 66.7344
C75.2969 67.125 75.0938 67.7031 74.2031 67.7031
C72.4062 67.7031 68.0938 67.7031 66.2969 67.7031
C63.4062 67.7031 60.4062 67.7031 57.5938 67.7031
C56.7969 67.7031 55.7969 67.7031 55.7969 65.9375
C55.7969 65.0938 56.7031 65 57.0938 65
C60.7969 64.7031 61.2031 62.9062 61.2031 61.7031
C61.2031 60.1875 59.7969 57.8906 59.7031 57.7969
L28.2969 7.98438
L21.2969 61.8125
C21.2969 65 26.5 65 27.5938 65
C29.0938 65 30 65 30 66.7656
C30 67.7031 28.9062 67.7031 28.5938 67.7031
C26.9062 67.7031 24.9062 67.7031 23.2031 67.7031
L17.5938 67.7031
C10.2969 67.7031 7.29688 67.7031 7.20312 67.7031
C6.59375 67.7031 5.40625 67.7031 5.40625 66.0156
C5.40625 65 6.09375 65 7.70312 65
C12.7969 65 13.0938 64.0938 13.4062 61.6094
L21.4062 -0.109375
C21.7031 -2.20312 21.7031 -2.5 23.0938 -2.5
C24.2969 -2.5 24.7969 -2.20312 25.7969 -0.609375
z
" id="CMMI12-86"/>
     <path d="
M64.2969 31.5156
C65.7969 31.5156 67.2969 31.5156 67.2969 33.2031
C67.2969 35 65.5938 35 63.9062 35
L8 35
C6.29688 35 4.59375 35 4.59375 33.2031
C4.59375 31.5156 6.09375 31.5156 7.59375 31.5156
z

M63.9062 14
C65.5938 14 67.2969 14 67.2969 15.7969
C67.2969 17.4844 65.7969 17.4844 64.2969 17.4844
L7.59375 17.4844
C6.09375 17.4844 4.59375 17.4844 4.59375 15.7969
C4.59375 14 6.29688 14 8 14
z
" id="CMR17-61"/>
     <path d="
M41.7031 15.4531
L39.9062 15.4531
C38.9062 8.375 38.0938 7.17188 37.7031 6.5625
C37.2031 5.76562 30 5.76562 28.5938 5.76562
L9.40625 5.76562
C13 9.67188 20 16.75 28.5 24.9531
C34.5938 30.7344 41.7031 37.5312 41.7031 47.4219
C41.7031 59.2188 32.2969 66 21.7969 66
C10.7969 66 4.09375 56.3125 4.09375 47.3438
C4.09375 43.4375 7 42.9375 8.20312 42.9375
C9.20312 42.9375 12.2031 43.5469 12.2031 47.0312
C12.2031 50.1094 9.59375 51 8.20312 51
C7.59375 51 7 50.9062 6.59375 50.7031
C8.5 59.2188 14.2969 63.4062 20.4062 63.4062
C29.0938 63.4062 34.7969 56.5156 34.7969 47.4219
C34.7969 38.7344 29.7031 31.25 24 24.75
L4.09375 2.28125
L4.09375 0
L39.2969 0
z
" id="CMR17-50"/>
     <path d="
M11.4062 57.6875
C12.4062 57.2812 16.5 56 20.7031 56
C30 56 35.0938 61.0156 38 63.9219
C38 64.7344 38 65.25 37.4062 65.25
C37.2969 65.25 37.0938 65.25 36.2969 64.8281
C32.7969 63.3125 28.7031 62.0781 23.7031 62.0781
C20.7031 62.0781 16.2031 62.5 11.2969 64.7344
C10.2031 65.25 10 65.25 9.90625 65.25
C9.40625 65.25 9.29688 65.1406 9.29688 63.1562
L9.29688 34.2812
C9.29688 32.5 9.29688 32 10.2969 32
C10.7969 32 11 32.2031 11.5 32.9062
C14.7031 37.4844 19.0938 39.4062 24.0938 39.4062
C27.5938 39.4062 35.0938 37.2188 35.0938 20.1406
C35.0938 16.9531 35.0938 11.1719 32.0938 6.57812
C29.5938 2.48438 25.7031 0.390625 21.4062 0.390625
C14.7969 0.390625 8.09375 5 6.29688 12.7188
C6.70312 12.6094 7.5 12.4219 7.90625 12.4219
C9.20312 12.4219 11.7031 13.125 11.7031 16.2188
C11.7031 18.9062 9.79688 20 7.90625 20
C5.59375 20 4.09375 18.5938 4.09375 15.7969
C4.09375 7.09375 11 -2 21.5938 -2
C31.9062 -2 41.7031 6.875 41.7031 19.75
C41.7031 31.7188 33.9062 41 24.2031 41
C19.0938 41 14.7969 39.0938 11.4062 35.4531
z
" id="CMR17-53"/>
     <path d="
M10.5938 34
C10.5938 57.6562 21.7969 63 28.2969 63
C30.4062 63 35.5 62.6406 37.5 59
C35.9062 59 32.9062 59 32.9062 55.5156
C32.9062 52.8281 35.0938 51.9219 36.5 51.9219
C37.4062 51.9219 40.0938 52.3125 40.0938 55.625
C40.0938 61.7812 35.0938 65.2969 28.2031 65.2969
C16.2969 65.2969 3.79688 52.9688 3.79688 31
C3.79688 3.95312 15.0938 -2 23.0938 -2
C32.7969 -2 42 6.67188 42 20.0469
C42 32.5156 33.9062 41.5938 23.7031 41.5938
C17.5938 41.5938 13.0938 37.6094 10.5938 30.625
z

M23.0938 0.390625
C10.7969 0.390625 10.7969 18.75 10.7969 22.4375
C10.7969 29.625 14.2031 40 23.5 40
C25.2031 40 30.0938 40 33.4062 33.125
C35.2031 29.2188 35.2031 25.1406 35.2031 20.1406
C35.2031 14.75 35.2031 10.7812 33.0938 6.78125
C30.9062 2.67188 27.7031 0.390625 23.0938 0.390625" id="CMR17-54"/>
     <path d="
M26.5938 63.3125
C26.5938 65.4062 26.5 65.5 25.0938 65.5
C21.2031 61.1875 15.2969 59.7969 9.70312 59.7969
C9.40625 59.7969 8.90625 59.7969 8.79688 59.5
C8.70312 59.2969 8.70312 59.0938 8.70312 57
C11.7969 57 17 57.5938 21 59.9844
L21 7.20312
C21 3.6875 20.7969 2.5 12.2031 2.5
L9.20312 2.5
L9.20312 0
C14 0 19 0 23.7969 0
C28.5938 0 33.5938 0 38.4062 0
L38.4062 2.5
L35.4062 2.5
C26.7969 2.5 26.5938 3.59375 26.5938 7.15625
z
" id="CMR17-49"/>
     <path d="
M18.4062 4.79688
C18.4062 7.6875 16 9.67188 13.5938 9.67188
C10.7031 9.67188 8.70312 7.28125 8.70312 4.89062
C8.70312 2 11.0938 0 13.5 0
C16.4062 0 18.4062 2.39062 18.4062 4.79688" id="CMMI12-58"/>
     <path d="
M19.5 -0.484375
C19.5 5.35938 17.5938 9.67188 13.5 9.67188
C10.2969 9.67188 8.70312 7.07812 8.70312 4.89062
C8.70312 2.6875 10.2031 0 13.5938 0
C14.9062 0 16 0.40625 16.9062 1.29688
C17.0938 1.5 17.2031 1.5 17.2969 1.5
C17.5 1.5 17.5 0.078125 17.5 -0.421875
C17.5 -3.75 16.9062 -10.2969 11.0938 -16.875
C10 -18.0781 10 -18.2812 10 -18.4844
C10 -19 10.5 -19.5 11 -19.5
C11.7969 -19.5 19.5 -12.0469 19.5 -0.484375" id="CMMI12-59"/>
    </defs>
    <g transform="translate(174.39895959 17.1626248978)scale(0.144 -0.144)">
     <use transform="translate(0.0 14.9439145441)scale(0.996264009963)" xlink:href="#CMMI12-86"/>
     <use transform="translate(56.8695790444 0.0)scale(0.697381766617)" xlink:href="#CMR17-49"/>
     <use transform="translate(117.024901736 14.9439145441)scale(0.996264009963)" xlink:href="#CMR17-61"/>
     <use transform="translate(216.413698873 14.9439145441)scale(0.996264009963)" xlink:href="#CMR17-53"/>
     <use transform="translate(262.10417599 14.9439145441)scale(0.996264009963)" xlink:href="#CMMI12-58"/>
     <use transform="translate(289.20135308 14.9439145441)scale(0.996264009963)" xlink:href="#CMR17-54"/>
     <use transform="translate(334.891830197 14.9439145441)scale(0.996264009963)" xlink:href="#CMMI12-59"/>
     <use transform="translate(408.669378867 14.9439145441)scale(0.996264009963)" xlink:href="#CMMI12-86"/>
     <use transform="translate(465.538957912 0.0)scale(0.697381766617)" xlink:href="#CMR17-50"/>
     <use transform="translate(525.694280603 14.9439145441)scale(0.996264009963)" xlink:href="#CMR17-61"/>
     <use transform="translate(625.083077741 14.9439145441)scale(0.996264009963)" xlink:href="#CMR17-49"/>
     <use transform="translate(670.773554858 14.9439145441)scale(0.996264009963)" xlink:href="#CMMI12-58"/>
     <use transform="translate(697.870731948 14.9439145441)scale(0.996264009963)" xlink:href="#CMR17-54"/>
    </g>
   </g>
  </g>
 </g>
 <defs>
  <clipPath id="pa3b7868a4b">
   <rect height="318.857142857" width="446.4" x="7.2" y="22.1626248978"/>
  </clipPath>
 </defs>
</svg>
