<?xml version="1.0" encoding="utf-8" standalone="no"?>
<!DOCTYPE svg PUBLIC "-//W3C//DTD SVG 1.1//EN"
  "http://www.w3.org/Graphics/SVG/1.1/DTD/svg11.dtd">
<!-- Created with matplotlib (http://matplotlib.org/) -->
<svg height="348pt" version="1.1" viewBox="0 0 460 348" width="460pt" xmlns="http://www.w3.org/2000/svg" xmlns:xlink="http://www.w3.org/1999/xlink">
 <defs>
  <style type="text/css">
*{stroke-linecap:butt;stroke-linejoin:round;}
  </style>
 </defs>
 <g id="figure_1">
  <g id="patch_1">
   <path d="
M0 348.22
L460.8 348.22
L460.8 0
L0 0
z
" style="fill:#ffffff;"/>
  </g>
  <g id="axes_1">
   <g id="patch_2">
    <path d="
M7.2 341.02
L453.6 341.02
L453.6 22.1626
L7.2 22.1626
z
" style="fill:#ffffff;"/>
   </g>
   <g id="PathCollection_1">
    <defs>
     <path d="
M0 12.7883
C3.39151 12.7883 6.64457 11.4409 9.04272 9.04272
C11.4409 6.64457 12.7883 3.39151 12.7883 0
C12.7883 -3.39151 11.4409 -6.64457 9.04272 -9.04272
C6.64457 -11.4409 3.39151 -12.7883 0 -12.7883
C-3.39151 -12.7883 -6.64457 -11.4409 -9.04272 -9.04272
C-11.4409 -6.64457 -12.7883 -3.39151 -12.7883 0
C-12.7883 3.39151 -11.4409 6.64457 -9.04272 9.04272
C-6.64457 11.4409 -3.39151 12.7883 0 12.7883
z
" id="C0_0_ad6abbe48f"/>
     <path d="
M0 4.05687
C1.0759 4.05687 2.10787 3.62942 2.86864 2.86864
C3.62942 2.10787 4.05687 1.0759 4.05687 0
C4.05687 -1.0759 3.62942 -2.10787 2.86864 -2.86864
C2.10787 -3.62942 1.0759 -4.05687 0 -4.05687
C-1.0759 -4.05687 -2.10787 -3.62942 -2.86864 -2.86864
C-3.62942 -2.10787 -4.05687 -1.0759 -4.05687 0
C-4.05687 1.0759 -3.62942 2.10787 -2.86864 2.86864
C-2.10787 3.62942 -1.0759 4.05687 0 4.05687
z
" id="C0_1_42d08c24e1"/>
     <path d="
M0 12.7883
C3.39151 12.7883 6.64457 11.4409 9.04273 9.04273
C11.4409 6.64457 12.7883 3.39151 12.7883 0
C12.7883 -3.39151 11.4409 -6.64457 9.04273 -9.04273
C6.64457 -11.4409 3.39151 -12.7883 0 -12.7883
C-3.39151 -12.7883 -6.64457 -11.4409 -9.04273 -9.04273
C-11.4409 -6.64457 -12.7883 -3.39151 -12.7883 0
C-12.7883 3.39151 -11.4409 6.64457 -9.04273 9.04273
C-6.64457 11.4409 -3.39151 12.7883 0 12.7883
z
" id="C0_2_ce4ee1f1f4"/>
     <path d="
M0 4.05687
C1.07589 4.05687 2.10787 3.62941 2.86864 2.86864
C3.62941 2.10787 4.05687 1.07589 4.05687 0
C4.05687 -1.07589 3.62941 -2.10787 2.86864 -2.86864
C2.10787 -3.62941 1.07589 -4.05687 0 -4.05687
C-1.07589 -4.05687 -2.10787 -3.62941 -2.86864 -2.86864
C-3.62941 -2.10787 -4.05687 -1.07589 -4.05687 0
C-4.05687 1.07589 -3.62941 2.10787 -2.86864 2.86864
C-2.10787 3.62941 -1.07589 4.05687 0 4.05687
z
" id="C0_3_6e626f29f6"/>
     <path d="
M0 12.7883
C3.39151 12.7883 6.64457 11.4409 9.04273 9.04273
C11.4409 6.64457 12.7883 3.39151 12.7883 0
C12.7883 -3.39151 11.4409 -6.64457 9.04273 -9.04273
C6.64457 -11.4409 3.39151 -12.7883 0 -12.7883
C-3.39151 -12.7883 -6.64457 -11.4409 -9.04273 -9.04273
C-11.4409 -6.64457 -12.7883 -3.39151 -12.7883 0
C-12.7883 3.39151 -11.4409 6.64457 -9.04273 9.04273
C-6.64457 11.4409 -3.39151 12.7883 0 12.7883
z
" id="C0_4_ce4ee1f1f4"/>
     <path d="
M0 4.05686
C1.07589 4.05686 2.10786 3.62941 2.86864 2.86864
C3.62941 2.10786 4.05686 1.07589 4.05686 0
C4.05686 -1.07589 3.62941 -2.10786 2.86864 -2.86864
C2.10786 -3.62941 1.07589 -4.05686 0 -4.05686
C-1.07589 -4.05686 -2.10786 -3.62941 -2.86864 -2.86864
C-3.62941 -2.10786 -4.05686 -1.07589 -4.05686 0
C-4.05686 1.07589 -3.62941 2.10786 -2.86864 2.86864
C-2.10786 3.62941 -1.07589 4.05686 0 4.05686
z
" id="C0_5_028109581b"/>
     <path d="
M0 12.7883
C3.39151 12.7883 6.64457 11.4409 9.04273 9.04273
C11.4409 6.64457 12.7883 3.39151 12.7883 0
C12.7883 -3.39151 11.4409 -6.64457 9.04273 -9.04273
C6.64457 -11.4409 3.39151 -12.7883 0 -12.7883
C-3.39151 -12.7883 -6.64457 -11.4409 -9.04273 -9.04273
C-11.4409 -6.64457 -12.7883 -3.39151 -12.7883 0
C-12.7883 3.39151 -11.4409 6.64457 -9.04273 9.04273
C-6.64457 11.4409 -3.39151 12.7883 0 12.7883
z
" id="C0_6_ce4ee1f1f4"/>
     <path d="
M0 4.05686
C1.07589 4.05686 2.10787 3.62941 2.86864 2.86864
C3.62941 2.10787 4.05686 1.07589 4.05686 0
C4.05686 -1.07589 3.62941 -2.10787 2.86864 -2.86864
C2.10787 -3.62941 1.07589 -4.05686 0 -4.05686
C-1.07589 -4.05686 -2.10787 -3.62941 -2.86864 -2.86864
C-3.62941 -2.10787 -4.05686 -1.07589 -4.05686 0
C-4.05686 1.07589 -3.62941 2.10787 -2.86864 2.86864
C-2.10787 3.62941 -1.07589 4.05686 0 4.05686
z
" id="C0_7_1304fc1443"/>
     <path d="
M0 12.7883
C3.39151 12.7883 6.64457 11.4409 9.04273 9.04273
C11.4409 6.64457 12.7883 3.39151 12.7883 0
C12.7883 -3.39151 11.4409 -6.64457 9.04273 -9.04273
C6.64457 -11.4409 3.39151 -12.7883 0 -12.7883
C-3.39151 -12.7883 -6.64457 -11.4409 -9.04273 -9.04273
C-11.4409 -6.64457 -12.7883 -3.39151 -12.7883 0
C-12.7883 3.39151 -11.4409 6.64457 -9.04273 9.04273
C-6.64457 11.4409 -3.39151 12.7883 0 12.7883
z
" id="C0_8_ce4ee1f1f4"/>
     <path d="
M0 4.05687
C1.07589 4.05687 2.10787 3.62941 2.86864 2.86864
C3.62941 2.10787 4.05687 1.07589 4.05687 0
C4.05687 -1.07589 3.62941 -2.10787 2.86864 -2.86864
C2.10787 -3.62941 1.07589 -4.05687 0 -4.05687
C-1.07589 -4.05687 -2.10787 -3.62941 -2.86864 -2.86864
C-3.62941 -2.10787 -4.05687 -1.07589 -4.05687 0
C-4.05687 1.07589 -3.62941 2.10787 -2.86864 2.86864
C-2.10787 3.62941 -1.07589 4.05687 0 4.05687
z
" id="C0_9_6e626f29f6"/>
     <path d="
M0 12.7883
C3.39151 12.7883 6.64457 11.4409 9.04273 9.04273
C11.4409 6.64457 12.7883 3.39151 12.7883 0
C12.7883 -3.39151 11.4409 -6.64457 9.04273 -9.04273
C6.64457 -11.4409 3.39151 -12.7883 0 -12.7883
C-3.39151 -12.7883 -6.64457 -11.4409 -9.04273 -9.04273
C-11.4409 -6.64457 -12.7883 -3.39151 -12.7883 0
C-12.7883 3.39151 -11.4409 6.64457 -9.04273 9.04273
C-6.64457 11.4409 -3.39151 12.7883 0 12.7883
z
" id="C0_a_ce4ee1f1f4"/>
     <path d="
M0 4.05688
C1.0759 4.05688 2.10787 3.62942 2.86865 2.86865
C3.62942 2.10787 4.05688 1.0759 4.05688 0
C4.05688 -1.0759 3.62942 -2.10787 2.86865 -2.86865
C2.10787 -3.62942 1.0759 -4.05688 0 -4.05688
C-1.0759 -4.05688 -2.10787 -3.62942 -2.86865 -2.86865
C-3.62942 -2.10787 -4.05688 -1.0759 -4.05688 0
C-4.05688 1.0759 -3.62942 2.10787 -2.86865 2.86865
C-2.10787 3.62942 -1.0759 4.05688 0 4.05688
z
" id="C0_b_2002d7e366"/>
     <path d="
M0 12.7883
C3.39151 12.7883 6.64457 11.4409 9.04272 9.04272
C11.4409 6.64457 12.7883 3.39151 12.7883 0
C12.7883 -3.39151 11.4409 -6.64457 9.04272 -9.04272
C6.64457 -11.4409 3.39151 -12.7883 0 -12.7883
C-3.39151 -12.7883 -6.64457 -11.4409 -9.04272 -9.04272
C-11.4409 -6.64457 -12.7883 -3.39151 -12.7883 0
C-12.7883 3.39151 -11.4409 6.64457 -9.04272 9.04272
C-6.64457 11.4409 -3.39151 12.7883 0 12.7883
z
" id="C0_c_ad6abbe48f"/>
     <path d="
M0 4.05687
C1.0759 4.05687 2.10787 3.62942 2.86864 2.86864
C3.62942 2.10787 4.05687 1.0759 4.05687 0
C4.05687 -1.0759 3.62942 -2.10787 2.86864 -2.86864
C2.10787 -3.62942 1.0759 -4.05687 0 -4.05687
C-1.0759 -4.05687 -2.10787 -3.62942 -2.86864 -2.86864
C-3.62942 -2.10787 -4.05687 -1.0759 -4.05687 0
C-4.05687 1.0759 -3.62942 2.10787 -2.86864 2.86864
C-2.10787 3.62942 -1.0759 4.05687 0 4.05687
z
" id="C0_d_42d08c24e1"/>
     <path d="
M0 12.7883
C3.39151 12.7883 6.64457 11.4409 9.04273 9.04273
C11.4409 6.64457 12.7883 3.39151 12.7883 0
C12.7883 -3.39151 11.4409 -6.64457 9.04273 -9.04273
C6.64457 -11.4409 3.39151 -12.7883 0 -12.7883
C-3.39151 -12.7883 -6.64457 -11.4409 -9.04273 -9.04273
C-11.4409 -6.64457 -12.7883 -3.39151 -12.7883 0
C-12.7883 3.39151 -11.4409 6.64457 -9.04273 9.04273
C-6.64457 11.4409 -3.39151 12.7883 0 12.7883
z
" id="C0_e_ce4ee1f1f4"/>
     <path d="
M0 4.05687
C1.07589 4.05687 2.10787 3.62941 2.86864 2.86864
C3.62941 2.10787 4.05687 1.07589 4.05687 0
C4.05687 -1.07589 3.62941 -2.10787 2.86864 -2.86864
C2.10787 -3.62941 1.07589 -4.05687 0 -4.05687
C-1.07589 -4.05687 -2.10787 -3.62941 -2.86864 -2.86864
C-3.62941 -2.10787 -4.05687 -1.07589 -4.05687 0
C-4.05687 1.07589 -3.62941 2.10787 -2.86864 2.86864
C-2.10787 3.62941 -1.07589 4.05687 0 4.05687
z
" id="C0_f_6e626f29f6"/>
     <path d="
M0 12.7883
C3.39151 12.7883 6.64457 11.4409 9.04273 9.04273
C11.4409 6.64457 12.7883 3.39151 12.7883 0
C12.7883 -3.39151 11.4409 -6.64457 9.04273 -9.04273
C6.64457 -11.4409 3.39151 -12.7883 0 -12.7883
C-3.39151 -12.7883 -6.64457 -11.4409 -9.04273 -9.04273
C-11.4409 -6.64457 -12.7883 -3.39151 -12.7883 0
C-12.7883 3.39151 -11.4409 6.64457 -9.04273 9.04273
C-6.64457 11.4409 -3.39151 12.7883 0 12.7883
z
" id="C0_10_ce4ee1f1f4"/>
     <path d="
M0 4.05686
C1.07589 4.05686 2.10786 3.62941 2.86864 2.86864
C3.62941 2.10786 4.05686 1.07589 4.05686 0
C4.05686 -1.07589 3.62941 -2.10786 2.86864 -2.86864
C2.10786 -3.62941 1.07589 -4.05686 0 -4.05686
C-1.07589 -4.05686 -2.10786 -3.62941 -2.86864 -2.86864
C-3.62941 -2.10786 -4.05686 -1.07589 -4.05686 0
C-4.05686 1.07589 -3.62941 2.10786 -2.86864 2.86864
C-2.10786 3.62941 -1.07589 4.05686 0 4.05686
z
" id="C0_11_028109581b"/>
     <path d="
M0 12.7883
C3.39151 12.7883 6.64457 11.4409 9.04273 9.04273
C11.4409 6.64457 12.7883 3.39151 12.7883 0
C12.7883 -3.39151 11.4409 -6.64457 9.04273 -9.04273
C6.64457 -11.4409 3.39151 -12.7883 0 -12.7883
C-3.39151 -12.7883 -6.64457 -11.4409 -9.04273 -9.04273
C-11.4409 -6.64457 -12.7883 -3.39151 -12.7883 0
C-12.7883 3.39151 -11.4409 6.64457 -9.04273 9.04273
C-6.64457 11.4409 -3.39151 12.7883 0 12.7883
z
" id="C0_12_ce4ee1f1f4"/>
     <path d="
M0 4.05686
C1.07589 4.05686 2.10787 3.62941 2.86864 2.86864
C3.62941 2.10787 4.05686 1.07589 4.05686 0
C4.05686 -1.07589 3.62941 -2.10787 2.86864 -2.86864
C2.10787 -3.62941 1.07589 -4.05686 0 -4.05686
C-1.07589 -4.05686 -2.10787 -3.62941 -2.86864 -2.86864
C-3.62941 -2.10787 -4.05686 -1.07589 -4.05686 0
C-4.05686 1.07589 -3.62941 2.10787 -2.86864 2.86864
C-2.10787 3.62941 -1.07589 4.05686 0 4.05686
z
" id="C0_13_1304fc1443"/>
     <path d="
M0 12.7883
C3.39151 12.7883 6.64457 11.4409 9.04273 9.04273
C11.4409 6.64457 12.7883 3.39151 12.7883 0
C12.7883 -3.39151 11.4409 -6.64457 9.04273 -9.04273
C6.64457 -11.4409 3.39151 -12.7883 0 -12.7883
C-3.39151 -12.7883 -6.64457 -11.4409 -9.04273 -9.04273
C-11.4409 -6.64457 -12.7883 -3.39151 -12.7883 0
C-12.7883 3.39151 -11.4409 6.64457 -9.04273 9.04273
C-6.64457 11.4409 -3.39151 12.7883 0 12.7883
z
" id="C0_14_ce4ee1f1f4"/>
     <path d="
M0 4.05687
C1.07589 4.05687 2.10787 3.62941 2.86864 2.86864
C3.62941 2.10787 4.05687 1.07589 4.05687 0
C4.05687 -1.07589 3.62941 -2.10787 2.86864 -2.86864
C2.10787 -3.62941 1.07589 -4.05687 0 -4.05687
C-1.07589 -4.05687 -2.10787 -3.62941 -2.86864 -2.86864
C-3.62941 -2.10787 -4.05687 -1.07589 -4.05687 0
C-4.05687 1.07589 -3.62941 2.10787 -2.86864 2.86864
C-2.10787 3.62941 -1.07589 4.05687 0 4.05687
z
" id="C0_15_6e626f29f6"/>
     <path d="
M0 12.7883
C3.39151 12.7883 6.64457 11.4409 9.04273 9.04273
C11.4409 6.64457 12.7883 3.39151 12.7883 0
C12.7883 -3.39151 11.4409 -6.64457 9.04273 -9.04273
C6.64457 -11.4409 3.39151 -12.7883 0 -12.7883
C-3.39151 -12.7883 -6.64457 -11.4409 -9.04273 -9.04273
C-11.4409 -6.64457 -12.7883 -3.39151 -12.7883 0
C-12.7883 3.39151 -11.4409 6.64457 -9.04273 9.04273
C-6.64457 11.4409 -3.39151 12.7883 0 12.7883
z
" id="C0_16_ce4ee1f1f4"/>
     <path d="
M0 4.05688
C1.0759 4.05688 2.10787 3.62942 2.86865 2.86865
C3.62942 2.10787 4.05688 1.0759 4.05688 0
C4.05688 -1.0759 3.62942 -2.10787 2.86865 -2.86865
C2.10787 -3.62942 1.0759 -4.05688 0 -4.05688
C-1.0759 -4.05688 -2.10787 -3.62942 -2.86865 -2.86865
C-3.62942 -2.10787 -4.05688 -1.0759 -4.05688 0
C-4.05688 1.0759 -3.62942 2.10787 -2.86865 2.86865
C-2.10787 3.62942 -1.0759 4.05688 0 4.05688
z
" id="C0_17_2002d7e366"/>
     <path d="
M0 12.7883
C3.39151 12.7883 6.64457 11.4409 9.04272 9.04272
C11.4409 6.64457 12.7883 3.39151 12.7883 0
C12.7883 -3.39151 11.4409 -6.64457 9.04272 -9.04272
C6.64457 -11.4409 3.39151 -12.7883 0 -12.7883
C-3.39151 -12.7883 -6.64457 -11.4409 -9.04272 -9.04272
C-11.4409 -6.64457 -12.7883 -3.39151 -12.7883 0
C-12.7883 3.39151 -11.4409 6.64457 -9.04272 9.04272
C-6.64457 11.4409 -3.39151 12.7883 0 12.7883
z
" id="C0_18_ad6abbe48f"/>
     <path d="
M0 4.05687
C1.0759 4.05687 2.10787 3.62942 2.86864 2.86864
C3.62942 2.10787 4.05687 1.0759 4.05687 0
C4.05687 -1.0759 3.62942 -2.10787 2.86864 -2.86864
C2.10787 -3.62942 1.0759 -4.05687 0 -4.05687
C-1.0759 -4.05687 -2.10787 -3.62942 -2.86864 -2.86864
C-3.62942 -2.10787 -4.05687 -1.0759 -4.05687 0
C-4.05687 1.0759 -3.62942 2.10787 -2.86864 2.86864
C-2.10787 3.62942 -1.0759 4.05687 0 4.05687
z
" id="C0_19_42d08c24e1"/>
     <path d="
M0 12.7883
C3.39151 12.7883 6.64457 11.4409 9.04273 9.04273
C11.4409 6.64457 12.7883 3.39151 12.7883 0
C12.7883 -3.39151 11.4409 -6.64457 9.04273 -9.04273
C6.64457 -11.4409 3.39151 -12.7883 0 -12.7883
C-3.39151 -12.7883 -6.64457 -11.4409 -9.04273 -9.04273
C-11.4409 -6.64457 -12.7883 -3.39151 -12.7883 0
C-12.7883 3.39151 -11.4409 6.64457 -9.04273 9.04273
C-6.64457 11.4409 -3.39151 12.7883 0 12.7883
z
" id="C0_1a_ce4ee1f1f4"/>
     <path d="
M0 4.05687
C1.07589 4.05687 2.10787 3.62941 2.86864 2.86864
C3.62941 2.10787 4.05687 1.07589 4.05687 0
C4.05687 -1.07589 3.62941 -2.10787 2.86864 -2.86864
C2.10787 -3.62941 1.07589 -4.05687 0 -4.05687
C-1.07589 -4.05687 -2.10787 -3.62941 -2.86864 -2.86864
C-3.62941 -2.10787 -4.05687 -1.07589 -4.05687 0
C-4.05687 1.07589 -3.62941 2.10787 -2.86864 2.86864
C-2.10787 3.62941 -1.07589 4.05687 0 4.05687
z
" id="C0_1b_6e626f29f6"/>
     <path d="
M0 12.7883
C3.39151 12.7883 6.64457 11.4409 9.04273 9.04273
C11.4409 6.64457 12.7883 3.39151 12.7883 0
C12.7883 -3.39151 11.4409 -6.64457 9.04273 -9.04273
C6.64457 -11.4409 3.39151 -12.7883 0 -12.7883
C-3.39151 -12.7883 -6.64457 -11.4409 -9.04273 -9.04273
C-11.4409 -6.64457 -12.7883 -3.39151 -12.7883 0
C-12.7883 3.39151 -11.4409 6.64457 -9.04273 9.04273
C-6.64457 11.4409 -3.39151 12.7883 0 12.7883
z
" id="C0_1c_ce4ee1f1f4"/>
     <path d="
M0 4.05686
C1.07589 4.05686 2.10786 3.62941 2.86864 2.86864
C3.62941 2.10786 4.05686 1.07589 4.05686 0
C4.05686 -1.07589 3.62941 -2.10786 2.86864 -2.86864
C2.10786 -3.62941 1.07589 -4.05686 0 -4.05686
C-1.07589 -4.05686 -2.10786 -3.62941 -2.86864 -2.86864
C-3.62941 -2.10786 -4.05686 -1.07589 -4.05686 0
C-4.05686 1.07589 -3.62941 2.10786 -2.86864 2.86864
C-2.10786 3.62941 -1.07589 4.05686 0 4.05686
z
" id="C0_1d_028109581b"/>
     <path d="
M0 12.7883
C3.39151 12.7883 6.64457 11.4409 9.04273 9.04273
C11.4409 6.64457 12.7883 3.39151 12.7883 0
C12.7883 -3.39151 11.4409 -6.64457 9.04273 -9.04273
C6.64457 -11.4409 3.39151 -12.7883 0 -12.7883
C-3.39151 -12.7883 -6.64457 -11.4409 -9.04273 -9.04273
C-11.4409 -6.64457 -12.7883 -3.39151 -12.7883 0
C-12.7883 3.39151 -11.4409 6.64457 -9.04273 9.04273
C-6.64457 11.4409 -3.39151 12.7883 0 12.7883
z
" id="C0_1e_ce4ee1f1f4"/>
     <path d="
M0 4.05686
C1.07589 4.05686 2.10787 3.62941 2.86864 2.86864
C3.62941 2.10787 4.05686 1.07589 4.05686 0
C4.05686 -1.07589 3.62941 -2.10787 2.86864 -2.86864
C2.10787 -3.62941 1.07589 -4.05686 0 -4.05686
C-1.07589 -4.05686 -2.10787 -3.62941 -2.86864 -2.86864
C-3.62941 -2.10787 -4.05686 -1.07589 -4.05686 0
C-4.05686 1.07589 -3.62941 2.10787 -2.86864 2.86864
C-2.10787 3.62941 -1.07589 4.05686 0 4.05686
z
" id="C0_1f_1304fc1443"/>
     <path d="
M0 12.7883
C3.39151 12.7883 6.64457 11.4409 9.04273 9.04273
C11.4409 6.64457 12.7883 3.39151 12.7883 0
C12.7883 -3.39151 11.4409 -6.64457 9.04273 -9.04273
C6.64457 -11.4409 3.39151 -12.7883 0 -12.7883
C-3.39151 -12.7883 -6.64457 -11.4409 -9.04273 -9.04273
C-11.4409 -6.64457 -12.7883 -3.39151 -12.7883 0
C-12.7883 3.39151 -11.4409 6.64457 -9.04273 9.04273
C-6.64457 11.4409 -3.39151 12.7883 0 12.7883
z
" id="C0_20_ce4ee1f1f4"/>
     <path d="
M0 4.05687
C1.07589 4.05687 2.10787 3.62941 2.86864 2.86864
C3.62941 2.10787 4.05687 1.07589 4.05687 0
C4.05687 -1.07589 3.62941 -2.10787 2.86864 -2.86864
C2.10787 -3.62941 1.07589 -4.05687 0 -4.05687
C-1.07589 -4.05687 -2.10787 -3.62941 -2.86864 -2.86864
C-3.62941 -2.10787 -4.05687 -1.07589 -4.05687 0
C-4.05687 1.07589 -3.62941 2.10787 -2.86864 2.86864
C-2.10787 3.62941 -1.07589 4.05687 0 4.05687
z
" id="C0_21_6e626f29f6"/>
     <path d="
M0 12.7883
C3.39151 12.7883 6.64457 11.4409 9.04273 9.04273
C11.4409 6.64457 12.7883 3.39151 12.7883 0
C12.7883 -3.39151 11.4409 -6.64457 9.04273 -9.04273
C6.64457 -11.4409 3.39151 -12.7883 0 -12.7883
C-3.39151 -12.7883 -6.64457 -11.4409 -9.04273 -9.04273
C-11.4409 -6.64457 -12.7883 -3.39151 -12.7883 0
C-12.7883 3.39151 -11.4409 6.64457 -9.04273 9.04273
C-6.64457 11.4409 -3.39151 12.7883 0 12.7883
z
" id="C0_22_ce4ee1f1f4"/>
     <path d="
M0 4.05688
C1.0759 4.05688 2.10787 3.62942 2.86865 2.86865
C3.62942 2.10787 4.05688 1.0759 4.05688 0
C4.05688 -1.0759 3.62942 -2.10787 2.86865 -2.86865
C2.10787 -3.62942 1.0759 -4.05688 0 -4.05688
C-1.0759 -4.05688 -2.10787 -3.62942 -2.86865 -2.86865
C-3.62942 -2.10787 -4.05688 -1.0759 -4.05688 0
C-4.05688 1.0759 -3.62942 2.10787 -2.86865 2.86865
C-2.10787 3.62942 -1.0759 4.05688 0 4.05688
z
" id="C0_23_2002d7e366"/>
    </defs>
    <g clip-path="url(#pa3b7868a4b)">
     <use style="fill:#0000ff;stroke:#000000;" x="198.514285714" xlink:href="#C0_0_ad6abbe48f" y="309.134053469"/>
    </g>
    <g clip-path="url(#pa3b7868a4b)">
     <use style="fill:#0000ff;stroke:#000000;" x="170.900447125" xlink:href="#C0_1_42d08c24e1" y="293.191196326"/>
    </g>
    <g clip-path="url(#pa3b7868a4b)">
     <use style="fill:#0000ff;stroke:#000000;" x="170.900447125" xlink:href="#C0_2_ce4ee1f1f4" y="261.305482041"/>
    </g>
    <g clip-path="url(#pa3b7868a4b)">
     <use style="fill:#0000ff;stroke:#000000;" x="143.286608536" xlink:href="#C0_3_6e626f29f6" y="245.362624898"/>
    </g>
    <g clip-path="url(#pa3b7868a4b)">
     <use style="fill:#0000ff;stroke:#000000;" x="143.286608536" xlink:href="#C0_4_ce4ee1f1f4" y="213.476910612"/>
    </g>
    <g clip-path="url(#pa3b7868a4b)">
     <use style="fill:#0000ff;stroke:#000000;" x="115.672769947" xlink:href="#C0_5_028109581b" y="197.534053469"/>
    </g>
    <g clip-path="url(#pa3b7868a4b)">
     <use style="fill:#0000ff;stroke:#000000;" x="115.672769947" xlink:href="#C0_6_ce4ee1f1f4" y="165.648339184"/>
    </g>
    <g clip-path="url(#pa3b7868a4b)">
     <use style="fill:#0000ff;stroke:#000000;" x="88.0589313573" xlink:href="#C0_7_1304fc1443" y="149.705482041"/>
    </g>
    <g clip-path="url(#pa3b7868a4b)">
     <use style="fill:#0000ff;stroke:#000000;" x="88.0589313573" xlink:href="#C0_8_ce4ee1f1f4" y="117.819767755"/>
    </g>
    <g clip-path="url(#pa3b7868a4b)">
     <use style="fill:#0000ff;stroke:#000000;" x="60.4450927681" xlink:href="#C0_9_6e626f29f6" y="101.876910612"/>
    </g>
    <g clip-path="url(#pa3b7868a4b)">
     <use style="fill:#0000ff;stroke:#000000;" x="60.4450927681" xlink:href="#C0_a_ce4ee1f1f4" y="69.9911963264"/>
    </g>
    <g clip-path="url(#pa3b7868a4b)">
     <use style="fill:#0000ff;stroke:#000000;" x="32.8312541788" xlink:href="#C0_b_2002d7e366" y="54.0483391836"/>
    </g>
    <g clip-path="url(#pa3b7868a4b)">
     <use style="fill:#0000ff;stroke:#000000;" x="253.741962893" xlink:href="#C0_c_ad6abbe48f" y="309.134053469"/>
    </g>
    <g clip-path="url(#pa3b7868a4b)">
     <use style="fill:#0000ff;stroke:#000000;" x="226.128124304" xlink:href="#C0_d_42d08c24e1" y="293.191196326"/>
    </g>
    <g clip-path="url(#pa3b7868a4b)">
     <use style="fill:#0000ff;stroke:#000000;" x="226.128124304" xlink:href="#C0_e_ce4ee1f1f4" y="261.305482041"/>
    </g>
    <g clip-path="url(#pa3b7868a4b)">
     <use style="fill:#0000ff;stroke:#000000;" x="198.514285714" xlink:href="#C0_f_6e626f29f6" y="245.362624898"/>
    </g>
    <g clip-path="url(#pa3b7868a4b)">
     <use style="fill:#0000ff;stroke:#000000;" x="198.514285714" xlink:href="#C0_10_ce4ee1f1f4" y="213.476910612"/>
    </g>
    <g clip-path="url(#pa3b7868a4b)">
     <use style="fill:#0000ff;stroke:#000000;" x="170.900447125" xlink:href="#C0_11_028109581b" y="197.534053469"/>
    </g>
    <g clip-path="url(#pa3b7868a4b)">
     <use style="fill:#0000ff;stroke:#000000;" x="170.900447125" xlink:href="#C0_12_ce4ee1f1f4" y="165.648339184"/>
    </g>
    <g clip-path="url(#pa3b7868a4b)">
     <use style="fill:#0000ff;stroke:#000000;" x="143.286608536" xlink:href="#C0_13_1304fc1443" y="149.705482041"/>
    </g>
    <g clip-path="url(#pa3b7868a4b)">
     <use style="fill:#0000ff;stroke:#000000;" x="143.286608536" xlink:href="#C0_14_ce4ee1f1f4" y="117.819767755"/>
    </g>
    <g clip-path="url(#pa3b7868a4b)">
     <use style="fill:#0000ff;stroke:#000000;" x="115.672769947" xlink:href="#C0_15_6e626f29f6" y="101.876910612"/>
    </g>
    <g clip-path="url(#pa3b7868a4b)">
     <use style="fill:#0000ff;stroke:#000000;" x="115.672769947" xlink:href="#C0_16_ce4ee1f1f4" y="69.9911963264"/>
    </g>
    <g clip-path="url(#pa3b7868a4b)">
     <use style="fill:#0000ff;stroke:#000000;" x="88.0589313573" xlink:href="#C0_17_2002d7e366" y="54.0483391836"/>
    </g>
    <g clip-path="url(#pa3b7868a4b)">
     <use style="fill:#0000ff;stroke:#000000;" x="308.969640071" xlink:href="#C0_18_ad6abbe48f" y="309.134053469"/>
    </g>
    <g clip-path="url(#pa3b7868a4b)">
     <use style="fill:#0000ff;stroke:#000000;" x="281.355801482" xlink:href="#C0_19_42d08c24e1" y="293.191196326"/>
    </g>
    <g clip-path="url(#pa3b7868a4b)">
     <use style="fill:#0000ff;stroke:#000000;" x="281.355801482" xlink:href="#C0_1a_ce4ee1f1f4" y="261.305482041"/>
    </g>
    <g clip-path="url(#pa3b7868a4b)">
     <use style="fill:#0000ff;stroke:#000000;" x="253.741962893" xlink:href="#C0_1b_6e626f29f6" y="245.362624898"/>
    </g>
    <g clip-path="url(#pa3b7868a4b)">
     <use style="fill:#0000ff;stroke:#000000;" x="253.741962893" xlink:href="#C0_1c_ce4ee1f1f4" y="213.476910612"/>
    </g>
    <g clip-path="url(#pa3b7868a4b)">
     <use style="fill:#0000ff;stroke:#000000;" x="226.128124304" xlink:href="#C0_1d_028109581b" y="197.534053469"/>
    </g>
    <g clip-path="url(#pa3b7868a4b)">
     <use style="fill:#0000ff;stroke:#000000;" x="226.128124304" xlink:href="#C0_1e_ce4ee1f1f4" y="165.648339184"/>
    </g>
    <g clip-path="url(#pa3b7868a4b)">
     <use style="fill:#0000ff;stroke:#000000;" x="198.514285714" xlink:href="#C0_1f_1304fc1443" y="149.705482041"/>
    </g>
    <g clip-path="url(#pa3b7868a4b)">
     <use style="fill:#0000ff;stroke:#000000;" x="198.514285714" xlink:href="#C0_20_ce4ee1f1f4" y="117.819767755"/>
    </g>
    <g clip-path="url(#pa3b7868a4b)">
     <use style="fill:#0000ff;stroke:#000000;" x="170.900447125" xlink:href="#C0_21_6e626f29f6" y="101.876910612"/>
    </g>
    <g clip-path="url(#pa3b7868a4b)">
     <use style="fill:#0000ff;stroke:#000000;" x="170.900447125" xlink:href="#C0_22_ce4ee1f1f4" y="69.9911963264"/>
    </g>
    <g clip-path="url(#pa3b7868a4b)">
     <use style="fill:#0000ff;stroke:#000000;" x="143.286608536" xlink:href="#C0_23_2002d7e366" y="54.0483391836"/>
    </g>
    <g clip-path="url(#pa3b7868a4b)">
     <use style="fill:#0000ff;stroke:#000000;" x="364.19731725" xlink:href="#C0_0_ad6abbe48f" y="309.134053469"/>
    </g>
    <g clip-path="url(#pa3b7868a4b)">
     <use style="fill:#0000ff;stroke:#000000;" x="336.58347866" xlink:href="#C0_1_42d08c24e1" y="293.191196326"/>
    </g>
    <g clip-path="url(#pa3b7868a4b)">
     <use style="fill:#0000ff;stroke:#000000;" x="336.58347866" xlink:href="#C0_2_ce4ee1f1f4" y="261.305482041"/>
    </g>
    <g clip-path="url(#pa3b7868a4b)">
     <use style="fill:#0000ff;stroke:#000000;" x="308.969640071" xlink:href="#C0_3_6e626f29f6" y="245.362624898"/>
    </g>
    <g clip-path="url(#pa3b7868a4b)">
     <use style="fill:#0000ff;stroke:#000000;" x="308.969640071" xlink:href="#C0_4_ce4ee1f1f4" y="213.476910612"/>
    </g>
    <g clip-path="url(#pa3b7868a4b)">
     <use style="fill:#0000ff;stroke:#000000;" x="281.355801482" xlink:href="#C0_5_028109581b" y="197.534053469"/>
    </g>
    <g clip-path="url(#pa3b7868a4b)">
     <use style="fill:#0000ff;stroke:#000000;" x="281.355801482" xlink:href="#C0_6_ce4ee1f1f4" y="165.648339184"/>
    </g>
    <g clip-path="url(#pa3b7868a4b)">
     <use style="fill:#0000ff;stroke:#000000;" x="253.741962893" xlink:href="#C0_7_1304fc1443" y="149.705482041"/>
    </g>
    <g clip-path="url(#pa3b7868a4b)">
     <use style="fill:#0000ff;stroke:#000000;" x="253.741962893" xlink:href="#C0_8_ce4ee1f1f4" y="117.819767755"/>
    </g>
    <g clip-path="url(#pa3b7868a4b)">
     <use style="fill:#0000ff;stroke:#000000;" x="226.128124304" xlink:href="#C0_9_6e626f29f6" y="101.876910612"/>
    </g>
    <g clip-path="url(#pa3b7868a4b)">
     <use style="fill:#0000ff;stroke:#000000;" x="226.128124304" xlink:href="#C0_a_ce4ee1f1f4" y="69.9911963264"/>
    </g>
    <g clip-path="url(#pa3b7868a4b)">
     <use style="fill:#0000ff;stroke:#000000;" x="198.514285714" xlink:href="#C0_b_2002d7e366" y="54.0483391836"/>
    </g>
    <g clip-path="url(#pa3b7868a4b)">
     <use style="fill:#0000ff;stroke:#000000;" x="419.424994428" xlink:href="#C0_c_ad6abbe48f" y="309.134053469"/>
    </g>
    <g clip-path="url(#pa3b7868a4b)">
     <use style="fill:#0000ff;stroke:#000000;" x="391.811155839" xlink:href="#C0_d_42d08c24e1" y="293.191196326"/>
    </g>
    <g clip-path="url(#pa3b7868a4b)">
     <use style="fill:#0000ff;stroke:#000000;" x="391.811155839" xlink:href="#C0_e_ce4ee1f1f4" y="261.305482041"/>
    </g>
    <g clip-path="url(#pa3b7868a4b)">
     <use style="fill:#0000ff;stroke:#000000;" x="364.19731725" xlink:href="#C0_f_6e626f29f6" y="245.362624898"/>
    </g>
    <g clip-path="url(#pa3b7868a4b)">
     <use style="fill:#0000ff;stroke:#000000;" x="364.19731725" xlink:href="#C0_10_ce4ee1f1f4" y="213.476910612"/>
    </g>
    <g clip-path="url(#pa3b7868a4b)">
     <use style="fill:#0000ff;stroke:#000000;" x="336.58347866" xlink:href="#C0_11_028109581b" y="197.534053469"/>
    </g>
    <g clip-path="url(#pa3b7868a4b)">
     <use style="fill:#0000ff;stroke:#000000;" x="336.58347866" xlink:href="#C0_12_ce4ee1f1f4" y="165.648339184"/>
    </g>
    <g clip-path="url(#pa3b7868a4b)">
     <use style="fill:#0000ff;stroke:#000000;" x="308.969640071" xlink:href="#C0_13_1304fc1443" y="149.705482041"/>
    </g>
    <g clip-path="url(#pa3b7868a4b)">
     <use style="fill:#0000ff;stroke:#000000;" x="308.969640071" xlink:href="#C0_14_ce4ee1f1f4" y="117.819767755"/>
    </g>
    <g clip-path="url(#pa3b7868a4b)">
     <use style="fill:#0000ff;stroke:#000000;" x="281.355801482" xlink:href="#C0_15_6e626f29f6" y="101.876910612"/>
    </g>
    <g clip-path="url(#pa3b7868a4b)">
     <use style="fill:#0000ff;stroke:#000000;" x="281.355801482" xlink:href="#C0_16_ce4ee1f1f4" y="69.9911963264"/>
    </g>
    <g clip-path="url(#pa3b7868a4b)">
     <use style="fill:#0000ff;stroke:#000000;" x="253.741962893" xlink:href="#C0_17_2002d7e366" y="54.0483391836"/>
    </g>
   </g>
   <g id="line2d_1">
    <path clip-path="url(#pa3b7868a4b)" d="
M198.514 309.134
L170.9 293.191" style="fill:none;opacity:0.5;stroke:#000000;stroke-linecap:square;stroke-width:2;"/>
   </g>
   <g id="line2d_2">
    <path clip-path="url(#pa3b7868a4b)" d="
M198.514 309.134
L226.128 293.191" style="fill:none;opacity:0.5;stroke:#000000;stroke-linecap:square;stroke-width:2;"/>
   </g>
   <g id="line2d_3">
    <path clip-path="url(#pa3b7868a4b)" d="
M170.9 293.191
L170.9 261.305" style="fill:none;opacity:0.5;stroke:#000000;stroke-linecap:square;stroke-width:2;"/>
   </g>
   <g id="line2d_4">
    <path clip-path="url(#pa3b7868a4b)" d="
M170.9 261.305
L143.287 245.363" style="fill:none;opacity:0.5;stroke:#000000;stroke-linecap:square;stroke-width:2;"/>
   </g>
   <g id="line2d_5">
    <path clip-path="url(#pa3b7868a4b)" d="
M170.9 261.305
L198.514 245.363" style="fill:none;opacity:0.5;stroke:#000000;stroke-linecap:square;stroke-width:2;"/>
   </g>
   <g id="line2d_6">
    <path clip-path="url(#pa3b7868a4b)" d="
M143.287 245.363
L143.287 213.477" style="fill:none;opacity:0.5;stroke:#000000;stroke-linecap:square;stroke-width:2;"/>
   </g>
   <g id="line2d_7">
    <path clip-path="url(#pa3b7868a4b)" d="
M143.287 213.477
L115.673 197.534" style="fill:none;opacity:0.5;stroke:#000000;stroke-linecap:square;stroke-width:2;"/>
   </g>
   <g id="line2d_8">
    <path clip-path="url(#pa3b7868a4b)" d="
M143.287 213.477
L170.9 197.534" style="fill:none;opacity:0.5;stroke:#000000;stroke-linecap:square;stroke-width:2;"/>
   </g>
   <g id="line2d_9">
    <path clip-path="url(#pa3b7868a4b)" d="
M115.673 197.534
L115.673 165.648" style="fill:none;opacity:0.5;stroke:#000000;stroke-linecap:square;stroke-width:2;"/>
   </g>
   <g id="line2d_10">
    <path clip-path="url(#pa3b7868a4b)" d="
M115.673 165.648
L88.0589 149.705" style="fill:none;opacity:0.5;stroke:#000000;stroke-linecap:square;stroke-width:2;"/>
   </g>
   <g id="line2d_11">
    <path clip-path="url(#pa3b7868a4b)" d="
M115.673 165.648
L143.287 149.705" style="fill:none;opacity:0.5;stroke:#000000;stroke-linecap:square;stroke-width:2;"/>
   </g>
   <g id="line2d_12">
    <path clip-path="url(#pa3b7868a4b)" d="
M88.0589 149.705
L88.0589 117.82" style="fill:none;opacity:0.5;stroke:#000000;stroke-linecap:square;stroke-width:2;"/>
   </g>
   <g id="line2d_13">
    <path clip-path="url(#pa3b7868a4b)" d="
M88.0589 117.82
L60.4451 101.877" style="fill:none;opacity:0.5;stroke:#000000;stroke-linecap:square;stroke-width:2;"/>
   </g>
   <g id="line2d_14">
    <path clip-path="url(#pa3b7868a4b)" d="
M88.0589 117.82
L115.673 101.877" style="fill:none;opacity:0.5;stroke:#000000;stroke-linecap:square;stroke-width:2;"/>
   </g>
   <g id="line2d_15">
    <path clip-path="url(#pa3b7868a4b)" d="
M60.4451 101.877
L60.4451 69.9912" style="fill:none;opacity:0.5;stroke:#000000;stroke-linecap:square;stroke-width:2;"/>
   </g>
   <g id="line2d_16">
    <path clip-path="url(#pa3b7868a4b)" d="
M60.4451 69.9912
L32.8313 54.0483" style="fill:none;opacity:0.5;stroke:#000000;stroke-linecap:square;stroke-width:2;"/>
   </g>
   <g id="line2d_17">
    <path clip-path="url(#pa3b7868a4b)" d="
M60.4451 69.9912
L88.0589 54.0483" style="fill:none;opacity:0.5;stroke:#000000;stroke-linecap:square;stroke-width:2;"/>
   </g>
   <g id="line2d_18">
    <path clip-path="url(#pa3b7868a4b)" d="
M253.742 309.134
L226.128 293.191" style="fill:none;opacity:0.5;stroke:#000000;stroke-linecap:square;stroke-width:2;"/>
   </g>
   <g id="line2d_19">
    <path clip-path="url(#pa3b7868a4b)" d="
M253.742 309.134
L281.356 293.191" style="fill:none;opacity:0.5;stroke:#000000;stroke-linecap:square;stroke-width:2;"/>
   </g>
   <g id="line2d_20">
    <path clip-path="url(#pa3b7868a4b)" d="
M226.128 293.191
L226.128 261.305" style="fill:none;opacity:0.5;stroke:#000000;stroke-linecap:square;stroke-width:2;"/>
   </g>
   <g id="line2d_21">
    <path clip-path="url(#pa3b7868a4b)" d="
M226.128 261.305
L198.514 245.363" style="fill:none;opacity:0.5;stroke:#000000;stroke-linecap:square;stroke-width:2;"/>
   </g>
   <g id="line2d_22">
    <path clip-path="url(#pa3b7868a4b)" d="
M226.128 261.305
L253.742 245.363" style="fill:none;opacity:0.5;stroke:#000000;stroke-linecap:square;stroke-width:2;"/>
   </g>
   <g id="line2d_23">
    <path clip-path="url(#pa3b7868a4b)" d="
M198.514 245.363
L198.514 213.477" style="fill:none;opacity:0.5;stroke:#000000;stroke-linecap:square;stroke-width:2;"/>
   </g>
   <g id="line2d_24">
    <path clip-path="url(#pa3b7868a4b)" d="
M198.514 213.477
L170.9 197.534" style="fill:none;opacity:0.5;stroke:#000000;stroke-linecap:square;stroke-width:2;"/>
   </g>
   <g id="line2d_25">
    <path clip-path="url(#pa3b7868a4b)" d="
M198.514 213.477
L226.128 197.534" style="fill:none;opacity:0.5;stroke:#000000;stroke-linecap:square;stroke-width:2;"/>
   </g>
   <g id="line2d_26">
    <path clip-path="url(#pa3b7868a4b)" d="
M170.9 197.534
L170.9 165.648" style="fill:none;opacity:0.5;stroke:#000000;stroke-linecap:square;stroke-width:2;"/>
   </g>
   <g id="line2d_27">
    <path clip-path="url(#pa3b7868a4b)" d="
M170.9 165.648
L143.287 149.705" style="fill:none;opacity:0.5;stroke:#000000;stroke-linecap:square;stroke-width:2;"/>
   </g>
   <g id="line2d_28">
    <path clip-path="url(#pa3b7868a4b)" d="
M170.9 165.648
L198.514 149.705" style="fill:none;opacity:0.5;stroke:#000000;stroke-linecap:square;stroke-width:2;"/>
   </g>
   <g id="line2d_29">
    <path clip-path="url(#pa3b7868a4b)" d="
M143.287 149.705
L143.287 117.82" style="fill:none;opacity:0.5;stroke:#000000;stroke-linecap:square;stroke-width:2;"/>
   </g>
   <g id="line2d_30">
    <path clip-path="url(#pa3b7868a4b)" d="
M143.287 117.82
L115.673 101.877" style="fill:none;opacity:0.5;stroke:#000000;stroke-linecap:square;stroke-width:2;"/>
   </g>
   <g id="line2d_31">
    <path clip-path="url(#pa3b7868a4b)" d="
M143.287 117.82
L170.9 101.877" style="fill:none;opacity:0.5;stroke:#000000;stroke-linecap:square;stroke-width:2;"/>
   </g>
   <g id="line2d_32">
    <path clip-path="url(#pa3b7868a4b)" d="
M115.673 101.877
L115.673 69.9912" style="fill:none;opacity:0.5;stroke:#000000;stroke-linecap:square;stroke-width:2;"/>
   </g>
   <g id="line2d_33">
    <path clip-path="url(#pa3b7868a4b)" d="
M115.673 69.9912
L88.0589 54.0483" style="fill:none;opacity:0.5;stroke:#000000;stroke-linecap:square;stroke-width:2;"/>
   </g>
   <g id="line2d_34">
    <path clip-path="url(#pa3b7868a4b)" d="
M115.673 69.9912
L143.287 54.0483" style="fill:none;opacity:0.5;stroke:#000000;stroke-linecap:square;stroke-width:2;"/>
   </g>
   <g id="line2d_35">
    <path clip-path="url(#pa3b7868a4b)" d="
M308.97 309.134
L281.356 293.191" style="fill:none;opacity:0.5;stroke:#000000;stroke-linecap:square;stroke-width:2;"/>
   </g>
   <g id="line2d_36">
    <path clip-path="url(#pa3b7868a4b)" d="
M308.97 309.134
L336.583 293.191" style="fill:none;opacity:0.5;stroke:#000000;stroke-linecap:square;stroke-width:2;"/>
   </g>
   <g id="line2d_37">
    <path clip-path="url(#pa3b7868a4b)" d="
M281.356 293.191
L281.356 261.305" style="fill:none;opacity:0.5;stroke:#000000;stroke-linecap:square;stroke-width:2;"/>
   </g>
   <g id="line2d_38">
    <path clip-path="url(#pa3b7868a4b)" d="
M281.356 261.305
L253.742 245.363" style="fill:none;opacity:0.5;stroke:#000000;stroke-linecap:square;stroke-width:2;"/>
   </g>
   <g id="line2d_39">
    <path clip-path="url(#pa3b7868a4b)" d="
M281.356 261.305
L308.97 245.363" style="fill:none;opacity:0.5;stroke:#000000;stroke-linecap:square;stroke-width:2;"/>
   </g>
   <g id="line2d_40">
    <path clip-path="url(#pa3b7868a4b)" d="
M253.742 245.363
L253.742 213.477" style="fill:none;opacity:0.5;stroke:#000000;stroke-linecap:square;stroke-width:2;"/>
   </g>
   <g id="line2d_41">
    <path clip-path="url(#pa3b7868a4b)" d="
M253.742 213.477
L226.128 197.534" style="fill:none;opacity:0.5;stroke:#000000;stroke-linecap:square;stroke-width:2;"/>
   </g>
   <g id="line2d_42">
    <path clip-path="url(#pa3b7868a4b)" d="
M253.742 213.477
L281.356 197.534" style="fill:none;opacity:0.5;stroke:#000000;stroke-linecap:square;stroke-width:2;"/>
   </g>
   <g id="line2d_43">
    <path clip-path="url(#pa3b7868a4b)" d="
M226.128 197.534
L226.128 165.648" style="fill:none;opacity:0.5;stroke:#000000;stroke-linecap:square;stroke-width:2;"/>
   </g>
   <g id="line2d_44">
    <path clip-path="url(#pa3b7868a4b)" d="
M226.128 165.648
L198.514 149.705" style="fill:none;opacity:0.5;stroke:#000000;stroke-linecap:square;stroke-width:2;"/>
   </g>
   <g id="line2d_45">
    <path clip-path="url(#pa3b7868a4b)" d="
M226.128 165.648
L253.742 149.705" style="fill:none;opacity:0.5;stroke:#000000;stroke-linecap:square;stroke-width:2;"/>
   </g>
   <g id="line2d_46">
    <path clip-path="url(#pa3b7868a4b)" d="
M198.514 149.705
L198.514 117.82" style="fill:none;opacity:0.5;stroke:#000000;stroke-linecap:square;stroke-width:2;"/>
   </g>
   <g id="line2d_47">
    <path clip-path="url(#pa3b7868a4b)" d="
M198.514 117.82
L170.9 101.877" style="fill:none;opacity:0.5;stroke:#000000;stroke-linecap:square;stroke-width:2;"/>
   </g>
   <g id="line2d_48">
    <path clip-path="url(#pa3b7868a4b)" d="
M198.514 117.82
L226.128 101.877" style="fill:none;opacity:0.5;stroke:#000000;stroke-linecap:square;stroke-width:2;"/>
   </g>
   <g id="line2d_49">
    <path clip-path="url(#pa3b7868a4b)" d="
M170.9 101.877
L170.9 69.9912" style="fill:none;opacity:0.5;stroke:#000000;stroke-linecap:square;stroke-width:2;"/>
   </g>
   <g id="line2d_50">
    <path clip-path="url(#pa3b7868a4b)" d="
M170.9 69.9912
L143.287 54.0483" style="fill:none;opacity:0.5;stroke:#000000;stroke-linecap:square;stroke-width:2;"/>
   </g>
   <g id="line2d_51">
    <path clip-path="url(#pa3b7868a4b)" d="
M170.9 69.9912
L198.514 54.0483" style="fill:none;opacity:0.5;stroke:#000000;stroke-linecap:square;stroke-width:2;"/>
   </g>
   <g id="line2d_52">
    <path clip-path="url(#pa3b7868a4b)" d="
M364.197 309.134
L336.583 293.191" style="fill:none;opacity:0.5;stroke:#000000;stroke-linecap:square;stroke-width:2;"/>
   </g>
   <g id="line2d_53">
    <path clip-path="url(#pa3b7868a4b)" d="
M364.197 309.134
L391.811 293.191" style="fill:none;opacity:0.5;stroke:#000000;stroke-linecap:square;stroke-width:2;"/>
   </g>
   <g id="line2d_54">
    <path clip-path="url(#pa3b7868a4b)" d="
M336.583 293.191
L336.583 261.305" style="fill:none;opacity:0.5;stroke:#000000;stroke-linecap:square;stroke-width:2;"/>
   </g>
   <g id="line2d_55">
    <path clip-path="url(#pa3b7868a4b)" d="
M336.583 261.305
L308.97 245.363" style="fill:none;opacity:0.5;stroke:#000000;stroke-linecap:square;stroke-width:2;"/>
   </g>
   <g id="line2d_56">
    <path clip-path="url(#pa3b7868a4b)" d="
M336.583 261.305
L364.197 245.363" style="fill:none;opacity:0.5;stroke:#000000;stroke-linecap:square;stroke-width:2;"/>
   </g>
   <g id="line2d_57">
    <path clip-path="url(#pa3b7868a4b)" d="
M308.97 245.363
L308.97 213.477" style="fill:none;opacity:0.5;stroke:#000000;stroke-linecap:square;stroke-width:2;"/>
   </g>
   <g id="line2d_58">
    <path clip-path="url(#pa3b7868a4b)" d="
M308.97 213.477
L281.356 197.534" style="fill:none;opacity:0.5;stroke:#000000;stroke-linecap:square;stroke-width:2;"/>
   </g>
   <g id="line2d_59">
    <path clip-path="url(#pa3b7868a4b)" d="
M308.97 213.477
L336.583 197.534" style="fill:none;opacity:0.5;stroke:#000000;stroke-linecap:square;stroke-width:2;"/>
   </g>
   <g id="line2d_60">
    <path clip-path="url(#pa3b7868a4b)" d="
M281.356 197.534
L281.356 165.648" style="fill:none;opacity:0.5;stroke:#000000;stroke-linecap:square;stroke-width:2;"/>
   </g>
   <g id="line2d_61">
    <path clip-path="url(#pa3b7868a4b)" d="
M281.356 165.648
L253.742 149.705" style="fill:none;opacity:0.5;stroke:#000000;stroke-linecap:square;stroke-width:2;"/>
   </g>
   <g id="line2d_62">
    <path clip-path="url(#pa3b7868a4b)" d="
M281.356 165.648
L308.97 149.705" style="fill:none;opacity:0.5;stroke:#000000;stroke-linecap:square;stroke-width:2;"/>
   </g>
   <g id="line2d_63">
    <path clip-path="url(#pa3b7868a4b)" d="
M253.742 149.705
L253.742 117.82" style="fill:none;opacity:0.5;stroke:#000000;stroke-linecap:square;stroke-width:2;"/>
   </g>
   <g id="line2d_64">
    <path clip-path="url(#pa3b7868a4b)" d="
M253.742 117.82
L226.128 101.877" style="fill:none;opacity:0.5;stroke:#000000;stroke-linecap:square;stroke-width:2;"/>
   </g>
   <g id="line2d_65">
    <path clip-path="url(#pa3b7868a4b)" d="
M253.742 117.82
L281.356 101.877" style="fill:none;opacity:0.5;stroke:#000000;stroke-linecap:square;stroke-width:2;"/>
   </g>
   <g id="line2d_66">
    <path clip-path="url(#pa3b7868a4b)" d="
M226.128 101.877
L226.128 69.9912" style="fill:none;opacity:0.5;stroke:#000000;stroke-linecap:square;stroke-width:2;"/>
   </g>
   <g id="line2d_67">
    <path clip-path="url(#pa3b7868a4b)" d="
M226.128 69.9912
L198.514 54.0483" style="fill:none;opacity:0.5;stroke:#000000;stroke-linecap:square;stroke-width:2;"/>
   </g>
   <g id="line2d_68">
    <path clip-path="url(#pa3b7868a4b)" d="
M226.128 69.9912
L253.742 54.0483" style="fill:none;opacity:0.5;stroke:#000000;stroke-linecap:square;stroke-width:2;"/>
   </g>
   <g id="line2d_69">
    <path clip-path="url(#pa3b7868a4b)" d="
M419.425 309.134
L391.811 293.191" style="fill:none;opacity:0.5;stroke:#000000;stroke-linecap:square;stroke-width:2;"/>
   </g>
   <g id="line2d_70">
    <path clip-path="url(#pa3b7868a4b)" d="
M391.811 293.191
L391.811 261.305" style="fill:none;opacity:0.5;stroke:#000000;stroke-linecap:square;stroke-width:2;"/>
   </g>
   <g id="line2d_71">
    <path clip-path="url(#pa3b7868a4b)" d="
M391.811 261.305
L364.197 245.363" style="fill:none;opacity:0.5;stroke:#000000;stroke-linecap:square;stroke-width:2;"/>
   </g>
   <g id="line2d_72">
    <path clip-path="url(#pa3b7868a4b)" d="
M364.197 245.363
L364.197 213.477" style="fill:none;opacity:0.5;stroke:#000000;stroke-linecap:square;stroke-width:2;"/>
   </g>
   <g id="line2d_73">
    <path clip-path="url(#pa3b7868a4b)" d="
M364.197 213.477
L336.583 197.534" style="fill:none;opacity:0.5;stroke:#000000;stroke-linecap:square;stroke-width:2;"/>
   </g>
   <g id="line2d_74">
    <path clip-path="url(#pa3b7868a4b)" d="
M336.583 197.534
L336.583 165.648" style="fill:none;opacity:0.5;stroke:#000000;stroke-linecap:square;stroke-width:2;"/>
   </g>
   <g id="line2d_75">
    <path clip-path="url(#pa3b7868a4b)" d="
M336.583 165.648
L308.97 149.705" style="fill:none;opacity:0.5;stroke:#000000;stroke-linecap:square;stroke-width:2;"/>
   </g>
   <g id="line2d_76">
    <path clip-path="url(#pa3b7868a4b)" d="
M308.97 149.705
L308.97 117.82" style="fill:none;opacity:0.5;stroke:#000000;stroke-linecap:square;stroke-width:2;"/>
   </g>
   <g id="line2d_77">
    <path clip-path="url(#pa3b7868a4b)" d="
M308.97 117.82
L281.356 101.877" style="fill:none;opacity:0.5;stroke:#000000;stroke-linecap:square;stroke-width:2;"/>
   </g>
   <g id="line2d_78">
    <path clip-path="url(#pa3b7868a4b)" d="
M281.356 101.877
L281.356 69.9912" style="fill:none;opacity:0.5;stroke:#000000;stroke-linecap:square;stroke-width:2;"/>
   </g>
   <g id="line2d_79">
    <path clip-path="url(#pa3b7868a4b)" d="
M281.356 69.9912
L253.742 54.0483" style="fill:none;opacity:0.5;stroke:#000000;stroke-linecap:square;stroke-width:2;"/>
   </g>
   <g id="matplotlib.axis_1"/>
   <g id="matplotlib.axis_2"/>
   <g id="patch_3">
    <path d="
M7.2 22.1626
L453.6 22.1626" style="fill:none;stroke:#000000;"/>
   </g>
   <g id="patch_4">
    <path d="
M453.6 341.02
L453.6 22.1626" style="fill:none;stroke:#000000;"/>
   </g>
   <g id="patch_5">
    <path d="
M7.2 341.02
L453.6 341.02" style="fill:none;stroke:#000000;"/>
   </g>
   <g id="patch_6">
    <path d="
M7.2 341.02
L7.2 22.1626" style="fill:none;stroke:#000000;"/>
   </g>
   <g id="text_1">
    <!-- $V_1 = 4.0, \ V_2 = 0.4$ -->
    <defs>
     <path d="
M61.9062 56.7188
C65.2969 62.1094 68.4062 64.5 73.5 64.9062
C74.5 65 75.2969 65 75.2969 66.7344
C75.2969 67.125 75.0938 67.7031 74.2031 67.7031
C72.4062 67.7031 68.0938 67.7031 66.2969 67.7031
C63.4062 67.7031 60.4062 67.7031 57.5938 67.7031
C56.7969 67.7031 55.7969 67.7031 55.7969 65.9375
C55.7969 65.0938 56.7031 65 57.0938 65
C60.7969 64.7031 61.2031 62.9062 61.2031 61.7031
C61.2031 60.1875 59.7969 57.8906 59.7031 57.7969
L28.2969 7.98438
L21.2969 61.8125
C21.2969 65 26.5 65 27.5938 65
C29.0938 65 30 65 30 66.7656
C30 67.7031 28.9062 67.7031 28.5938 67.7031
C26.9062 67.7031 24.9062 67.7031 23.2031 67.7031
L17.5938 67.7031
C10.2969 67.7031 7.29688 67.7031 7.20312 67.7031
C6.59375 67.7031 5.40625 67.7031 5.40625 66.0156
C5.40625 65 6.09375 65 7.70312 65
C12.7969 65 13.0938 64.0938 13.4062 61.6094
L21.4062 -0.109375
C21.7031 -2.20312 21.7031 -2.5 23.0938 -2.5
C24.2969 -2.5 24.7969 -2.20312 25.7969 -0.609375
z
" id="CMMI12-86"/>
     <path d="
M64.2969 31.5156
C65.7969 31.5156 67.2969 31.5156 67.2969 33.2031
C67.2969 35 65.5938 35 63.9062 35
L8 35
C6.29688 35 4.59375 35 4.59375 33.2031
C4.59375 31.5156 6.09375 31.5156 7.59375 31.5156
z

M63.9062 14
C65.5938 14 67.2969 14 67.2969 15.7969
C67.2969 17.4844 65.7969 17.4844 64.2969 17.4844
L7.59375 17.4844
C6.09375 17.4844 4.59375 17.4844 4.59375 15.7969
C4.59375 14 6.29688 14 8 14
z
" id="CMR17-61"/>
     <path d="
M41.7031 15.4531
L39.9062 15.4531
C38.9062 8.375 38.0938 7.17188 37.7031 6.5625
C37.2031 5.76562 30 5.76562 28.5938 5.76562
L9.40625 5.76562
C13 9.67188 20 16.75 28.5 24.9531
C34.5938 30.7344 41.7031 37.5312 41.7031 47.4219
C41.7031 59.2188 32.2969 66 21.7969 66
C10.7969 66 4.09375 56.3125 4.09375 47.3438
C4.09375 43.4375 7 42.9375 8.20312 42.9375
C9.20312 42.9375 12.2031 43.5469 12.2031 47.0312
C12.2031 50.1094 9.59375 51 8.20312 51
C7.59375 51 7 50.9062 6.59375 50.7031
C8.5 59.2188 14.2969 63.4062 20.4062 63.4062
C29.0938 63.4062 34.7969 56.5156 34.7969 47.4219
C34.7969 38.7344 29.7031 31.25 24 24.75
L4.09375 2.28125
L4.09375 0
L39.2969 0
z
" id="CMR17-50"/>
     <path d="
M33.5938 64.3281
C33.5938 66.4062 33.5 66.5 31.7031 66.5
L2 19.5938
L2 17
L27.7969 17
L27.7969 7.14062
C27.7969 3.5 27.5938 2.5 20.5938 2.5
L18.7031 2.5
L18.7031 0
C21.9062 0 27.2969 0 30.7031 0
C34.0938 0 39.5 0 42.7031 0
L42.7031 2.5
L40.7969 2.5
C33.7969 2.5 33.5938 3.5 33.5938 7.14062
L33.5938 17
L43.7969 17
L43.7969 19.5938
L33.5938 19.5938
z

M28.0938 57.7656
L28.0938 19.5938
L4 19.5938
z
" id="CMR17-52"/>
     <path d="
M26.5938 63.3125
C26.5938 65.4062 26.5 65.5 25.0938 65.5
C21.2031 61.1875 15.2969 59.7969 9.70312 59.7969
C9.40625 59.7969 8.90625 59.7969 8.79688 59.5
C8.70312 59.2969 8.70312 59.0938 8.70312 57
C11.7969 57 17 57.5938 21 59.9844
L21 7.20312
C21 3.6875 20.7969 2.5 12.2031 2.5
L9.20312 2.5
L9.20312 0
C14 0 19 0 23.7969 0
C28.5938 0 33.5938 0 38.4062 0
L38.4062 2.5
L35.4062 2.5
C26.7969 2.5 26.5938 3.59375 26.5938 7.15625
z
" id="CMR17-49"/>
     <path d="
M42 31.6406
C42 37.75 41.9062 48.125 37.7031 56.1094
C34 63.1094 28.0938 65.5938 22.9062 65.5938
C18.0938 65.5938 12 63.4062 8.20312 56.2031
C4.20312 48.7188 3.79688 39.4375 3.79688 31.6406
C3.79688 25.9531 3.90625 17.2812 7 9.67188
C11.2969 -0.609375 19 -2 22.9062 -2
C27.5 -2 34.5 -0.109375 38.5938 9.375
C41.5938 16.2812 42 24.3594 42 31.6406
M22.9062 -0.40625
C16.5 -0.40625 12.7031 5.07812 11.2969 12.6875
C10.2031 18.5625 10.2031 27.1562 10.2031 32.75
C10.2031 40.4375 10.2031 46.8281 11.5 52.9219
C13.4062 61.3906 19 64 22.9062 64
C27 64 32.2969 61.2969 34.2031 53.125
C35.5 47.4375 35.5938 40.7344 35.5938 32.75
C35.5938 26.25 35.5938 18.2656 34.4062 12.375
C32.2969 1.48438 26.4062 -0.40625 22.9062 -0.40625" id="CMR17-48"/>
     <path d="
M18.4062 4.79688
C18.4062 7.6875 16 9.67188 13.5938 9.67188
C10.7031 9.67188 8.70312 7.28125 8.70312 4.89062
C8.70312 2 11.0938 0 13.5 0
C16.4062 0 18.4062 2.39062 18.4062 4.79688" id="CMMI12-58"/>
     <path d="
M19.5 -0.484375
C19.5 5.35938 17.5938 9.67188 13.5 9.67188
C10.2969 9.67188 8.70312 7.07812 8.70312 4.89062
C8.70312 2.6875 10.2031 0 13.5938 0
C14.9062 0 16 0.40625 16.9062 1.29688
C17.0938 1.5 17.2031 1.5 17.2969 1.5
C17.5 1.5 17.5 0.078125 17.5 -0.421875
C17.5 -3.75 16.9062 -10.2969 11.0938 -16.875
C10 -18.0781 10 -18.2812 10 -18.4844
C10 -19 10.5 -19.5 11 -19.5
C11.7969 -19.5 19.5 -12.0469 19.5 -0.484375" id="CMMI12-59"/>
    </defs>
    <g transform="translate(174.39895959 17.1626248978)scale(0.144 -0.144)">
     <use transform="translate(0.0 14.9439145441)scale(0.996264009963)" xlink:href="#CMMI12-86"/>
     <use transform="translate(56.8695790444 0.0)scale(0.697381766617)" xlink:href="#CMR17-49"/>
     <use transform="translate(117.024901736 14.9439145441)scale(0.996264009963)" xlink:href="#CMR17-61"/>
     <use transform="translate(216.413698873 14.9439145441)scale(0.996264009963)" xlink:href="#CMR17-52"/>
     <use transform="translate(262.10417599 14.9439145441)scale(0.996264009963)" xlink:href="#CMMI12-58"/>
     <use transform="translate(289.20135308 14.9439145441)scale(0.996264009963)" xlink:href="#CMR17-48"/>
     <use transform="translate(334.891830197 14.9439145441)scale(0.996264009963)" xlink:href="#CMMI12-59"/>
     <use transform="translate(408.669378867 14.9439145441)scale(0.996264009963)" xlink:href="#CMMI12-86"/>
     <use transform="translate(465.538957912 0.0)scale(0.697381766617)" xlink:href="#CMR17-50"/>
     <use transform="translate(525.694280603 14.9439145441)scale(0.996264009963)" xlink:href="#CMR17-61"/>
     <use transform="translate(625.083077741 14.9439145441)scale(0.996264009963)" xlink:href="#CMR17-48"/>
     <use transform="translate(670.773554858 14.9439145441)scale(0.996264009963)" xlink:href="#CMMI12-58"/>
     <use transform="translate(697.870731948 14.9439145441)scale(0.996264009963)" xlink:href="#CMR17-52"/>
    </g>
   </g>
  </g>
 </g>
 <defs>
  <clipPath id="pa3b7868a4b">
   <rect height="318.857142857" width="446.4" x="7.2" y="22.1626248978"/>
  </clipPath>
 </defs>
</svg>
