<?xml version="1.0" encoding="utf-8" standalone="no"?>
<!DOCTYPE svg PUBLIC "-//W3C//DTD SVG 1.1//EN"
  "http://www.w3.org/Graphics/SVG/1.1/DTD/svg11.dtd">
<!-- Created with matplotlib (http://matplotlib.org/) -->
<svg height="374pt" version="1.1" viewBox="0 0 429 374" width="429pt" xmlns="http://www.w3.org/2000/svg" xmlns:xlink="http://www.w3.org/1999/xlink">
 <defs>
  <style type="text/css">
*{stroke-linecap:butt;stroke-linejoin:round;}
  </style>
 </defs>
 <g id="figure_1">
  <g id="patch_1">
   <path d="
M0 374.963
L429.12 374.963
L429.12 0
L0 0
z
" style="fill:#ffffff;"/>
  </g>
  <g id="axes_1">
   <g id="patch_2">
    <path d="
M7.2 367.763
L421.92 367.763
L421.92 22.1626
L7.2 22.1626
z
" style="fill:#ffffff;"/>
   </g>
   <g id="line2d_1">
    <path clip-path="url(#p59b5b4f9de)" d="
M214.56 333.203
L184.63 315.923" style="fill:none;opacity:0.5;stroke:#262626;stroke-linecap:square;stroke-width:2;"/>
   </g>
   <g id="line2d_2">
    <path clip-path="url(#p59b5b4f9de)" d="
M184.63 315.923
L184.63 281.363" style="fill:none;opacity:0.5;stroke:#262626;stroke-linecap:square;stroke-width:2;"/>
   </g>
   <g id="line2d_3">
    <path clip-path="url(#p59b5b4f9de)" d="
M184.63 281.363
L154.7 264.083" style="fill:none;opacity:0.5;stroke:#262626;stroke-linecap:square;stroke-width:2;"/>
   </g>
   <g id="line2d_4">
    <path clip-path="url(#p59b5b4f9de)" d="
M154.7 264.083
L154.7 229.523" style="fill:none;opacity:0.5;stroke:#262626;stroke-linecap:square;stroke-width:2;"/>
   </g>
   <g id="line2d_5">
    <path clip-path="url(#p59b5b4f9de)" d="
M154.7 229.523
L124.77 212.243" style="fill:none;opacity:0.5;stroke:#262626;stroke-linecap:square;stroke-width:2;"/>
   </g>
   <g id="line2d_6">
    <path clip-path="url(#p59b5b4f9de)" d="
M124.77 212.243
L124.77 177.683" style="fill:none;opacity:0.5;stroke:#262626;stroke-linecap:square;stroke-width:2;"/>
   </g>
   <g id="line2d_7">
    <path clip-path="url(#p59b5b4f9de)" d="
M124.77 177.683
L94.8406 160.403" style="fill:none;opacity:0.5;stroke:#262626;stroke-linecap:square;stroke-width:2;"/>
   </g>
   <g id="line2d_8">
    <path clip-path="url(#p59b5b4f9de)" d="
M94.8406 160.403
L94.8406 125.843" style="fill:none;opacity:0.5;stroke:#262626;stroke-linecap:square;stroke-width:2;"/>
   </g>
   <g id="line2d_9">
    <path clip-path="url(#p59b5b4f9de)" d="
M94.8406 125.843
L64.9108 108.563" style="fill:none;opacity:0.5;stroke:#262626;stroke-linecap:square;stroke-width:2;"/>
   </g>
   <g id="line2d_10">
    <path clip-path="url(#p59b5b4f9de)" d="
M64.9108 108.563
L64.9108 74.0026" style="fill:none;opacity:0.5;stroke:#262626;stroke-linecap:square;stroke-width:2;"/>
   </g>
   <g id="line2d_11">
    <path clip-path="url(#p59b5b4f9de)" d="
M64.9108 74.0026
L34.981 56.7226" style="fill:none;opacity:0.5;stroke:#262626;stroke-linecap:square;stroke-width:2;"/>
   </g>
   <g id="line2d_12">
    <path clip-path="url(#p59b5b4f9de)" d="
M274.42 333.203
L244.49 315.923" style="fill:none;opacity:0.5;stroke:#262626;stroke-linecap:square;stroke-width:2;"/>
   </g>
   <g id="line2d_13">
    <path clip-path="url(#p59b5b4f9de)" d="
M244.49 315.923
L244.49 281.363" style="fill:none;opacity:0.5;stroke:#262626;stroke-linecap:square;stroke-width:2;"/>
   </g>
   <g id="line2d_14">
    <path clip-path="url(#p59b5b4f9de)" d="
M244.49 281.363
L214.56 264.083" style="fill:none;opacity:0.5;stroke:#262626;stroke-linecap:square;stroke-width:2;"/>
   </g>
   <g id="line2d_15">
    <path clip-path="url(#p59b5b4f9de)" d="
M214.56 264.083
L214.56 229.523" style="fill:none;opacity:0.5;stroke:#262626;stroke-linecap:square;stroke-width:2;"/>
   </g>
   <g id="line2d_16">
    <path clip-path="url(#p59b5b4f9de)" d="
M214.56 229.523
L184.63 212.243" style="fill:none;opacity:0.5;stroke:#262626;stroke-linecap:square;stroke-width:2;"/>
   </g>
   <g id="line2d_17">
    <path clip-path="url(#p59b5b4f9de)" d="
M184.63 212.243
L184.63 177.683" style="fill:none;opacity:0.5;stroke:#262626;stroke-linecap:square;stroke-width:2;"/>
   </g>
   <g id="line2d_18">
    <path clip-path="url(#p59b5b4f9de)" d="
M184.63 177.683
L154.7 160.403" style="fill:none;opacity:0.5;stroke:#262626;stroke-linecap:square;stroke-width:2;"/>
   </g>
   <g id="line2d_19">
    <path clip-path="url(#p59b5b4f9de)" d="
M154.7 160.403
L154.7 125.843" style="fill:none;opacity:0.5;stroke:#262626;stroke-linecap:square;stroke-width:2;"/>
   </g>
   <g id="line2d_20">
    <path clip-path="url(#p59b5b4f9de)" d="
M154.7 125.843
L124.77 108.563" style="fill:none;opacity:0.5;stroke:#262626;stroke-linecap:square;stroke-width:2;"/>
   </g>
   <g id="line2d_21">
    <path clip-path="url(#p59b5b4f9de)" d="
M124.77 108.563
L124.77 74.0026" style="fill:none;opacity:0.5;stroke:#262626;stroke-linecap:square;stroke-width:2;"/>
   </g>
   <g id="line2d_22">
    <path clip-path="url(#p59b5b4f9de)" d="
M124.77 74.0026
L94.8406 56.7226" style="fill:none;opacity:0.5;stroke:#262626;stroke-linecap:square;stroke-width:2;"/>
   </g>
   <g id="line2d_23">
    <path clip-path="url(#p59b5b4f9de)" d="
M334.279 333.203
L304.35 315.923" style="fill:none;opacity:0.5;stroke:#262626;stroke-linecap:square;stroke-width:2;"/>
   </g>
   <g id="line2d_24">
    <path clip-path="url(#p59b5b4f9de)" d="
M304.35 315.923
L304.35 281.363" style="fill:none;opacity:0.5;stroke:#262626;stroke-linecap:square;stroke-width:2;"/>
   </g>
   <g id="line2d_25">
    <path clip-path="url(#p59b5b4f9de)" d="
M304.35 281.363
L274.42 264.083" style="fill:none;opacity:0.5;stroke:#262626;stroke-linecap:square;stroke-width:2;"/>
   </g>
   <g id="line2d_26">
    <path clip-path="url(#p59b5b4f9de)" d="
M274.42 264.083
L274.42 229.523" style="fill:none;opacity:0.5;stroke:#262626;stroke-linecap:square;stroke-width:2;"/>
   </g>
   <g id="line2d_27">
    <path clip-path="url(#p59b5b4f9de)" d="
M274.42 229.523
L244.49 212.243" style="fill:none;opacity:0.5;stroke:#262626;stroke-linecap:square;stroke-width:2;"/>
   </g>
   <g id="line2d_28">
    <path clip-path="url(#p59b5b4f9de)" d="
M244.49 212.243
L244.49 177.683" style="fill:none;opacity:0.5;stroke:#262626;stroke-linecap:square;stroke-width:2;"/>
   </g>
   <g id="line2d_29">
    <path clip-path="url(#p59b5b4f9de)" d="
M244.49 177.683
L214.56 160.403" style="fill:none;opacity:0.5;stroke:#262626;stroke-linecap:square;stroke-width:2;"/>
   </g>
   <g id="line2d_30">
    <path clip-path="url(#p59b5b4f9de)" d="
M214.56 160.403
L214.56 125.843" style="fill:none;opacity:0.5;stroke:#262626;stroke-linecap:square;stroke-width:2;"/>
   </g>
   <g id="line2d_31">
    <path clip-path="url(#p59b5b4f9de)" d="
M214.56 125.843
L184.63 108.563" style="fill:none;opacity:0.5;stroke:#262626;stroke-linecap:square;stroke-width:2;"/>
   </g>
   <g id="line2d_32">
    <path clip-path="url(#p59b5b4f9de)" d="
M184.63 108.563
L184.63 74.0026" style="fill:none;opacity:0.5;stroke:#262626;stroke-linecap:square;stroke-width:2;"/>
   </g>
   <g id="line2d_33">
    <path clip-path="url(#p59b5b4f9de)" d="
M184.63 74.0026
L154.7 56.7226" style="fill:none;opacity:0.5;stroke:#262626;stroke-linecap:square;stroke-width:2;"/>
   </g>
   <g id="line2d_34">
    <path clip-path="url(#p59b5b4f9de)" d="
M394.139 333.203
L364.209 315.923" style="fill:none;opacity:0.5;stroke:#262626;stroke-linecap:square;stroke-width:2;"/>
   </g>
   <g id="line2d_35">
    <path clip-path="url(#p59b5b4f9de)" d="
M364.209 315.923
L364.209 281.363" style="fill:none;opacity:0.5;stroke:#262626;stroke-linecap:square;stroke-width:2;"/>
   </g>
   <g id="line2d_36">
    <path clip-path="url(#p59b5b4f9de)" d="
M364.209 281.363
L334.279 264.083" style="fill:none;opacity:0.5;stroke:#262626;stroke-linecap:square;stroke-width:2;"/>
   </g>
   <g id="line2d_37">
    <path clip-path="url(#p59b5b4f9de)" d="
M334.279 264.083
L334.279 229.523" style="fill:none;opacity:0.5;stroke:#262626;stroke-linecap:square;stroke-width:2;"/>
   </g>
   <g id="line2d_38">
    <path clip-path="url(#p59b5b4f9de)" d="
M334.279 229.523
L304.35 212.243" style="fill:none;opacity:0.5;stroke:#262626;stroke-linecap:square;stroke-width:2;"/>
   </g>
   <g id="line2d_39">
    <path clip-path="url(#p59b5b4f9de)" d="
M304.35 212.243
L304.35 177.683" style="fill:none;opacity:0.5;stroke:#262626;stroke-linecap:square;stroke-width:2;"/>
   </g>
   <g id="line2d_40">
    <path clip-path="url(#p59b5b4f9de)" d="
M304.35 177.683
L274.42 160.403" style="fill:none;opacity:0.5;stroke:#262626;stroke-linecap:square;stroke-width:2;"/>
   </g>
   <g id="line2d_41">
    <path clip-path="url(#p59b5b4f9de)" d="
M274.42 160.403
L274.42 125.843" style="fill:none;opacity:0.5;stroke:#262626;stroke-linecap:square;stroke-width:2;"/>
   </g>
   <g id="line2d_42">
    <path clip-path="url(#p59b5b4f9de)" d="
M274.42 125.843
L244.49 108.563" style="fill:none;opacity:0.5;stroke:#262626;stroke-linecap:square;stroke-width:2;"/>
   </g>
   <g id="line2d_43">
    <path clip-path="url(#p59b5b4f9de)" d="
M244.49 108.563
L244.49 74.0026" style="fill:none;opacity:0.5;stroke:#262626;stroke-linecap:square;stroke-width:2;"/>
   </g>
   <g id="line2d_44">
    <path clip-path="url(#p59b5b4f9de)" d="
M244.49 74.0026
L214.56 56.7226" style="fill:none;opacity:0.5;stroke:#262626;stroke-linecap:square;stroke-width:2;"/>
   </g>
   <g id="line2d_45">
    <path clip-path="url(#p59b5b4f9de)" d="
M214.56 333.203
L244.49 315.923" style="fill:none;opacity:0.5;stroke:#262626;stroke-linecap:square;stroke-width:2;"/>
   </g>
   <g id="line2d_46">
    <path clip-path="url(#p59b5b4f9de)" d="
M184.63 281.363
L214.56 264.083" style="fill:none;opacity:0.5;stroke:#262626;stroke-linecap:square;stroke-width:2;"/>
   </g>
   <g id="line2d_47">
    <path clip-path="url(#p59b5b4f9de)" d="
M154.7 229.523
L184.63 212.243" style="fill:none;opacity:0.5;stroke:#262626;stroke-linecap:square;stroke-width:2;"/>
   </g>
   <g id="line2d_48">
    <path clip-path="url(#p59b5b4f9de)" d="
M124.77 177.683
L154.7 160.403" style="fill:none;opacity:0.5;stroke:#262626;stroke-linecap:square;stroke-width:2;"/>
   </g>
   <g id="line2d_49">
    <path clip-path="url(#p59b5b4f9de)" d="
M94.8406 125.843
L124.77 108.563" style="fill:none;opacity:0.5;stroke:#262626;stroke-linecap:square;stroke-width:2;"/>
   </g>
   <g id="line2d_50">
    <path clip-path="url(#p59b5b4f9de)" d="
M64.9108 74.0026
L94.8406 56.7226" style="fill:none;opacity:0.5;stroke:#262626;stroke-linecap:square;stroke-width:2;"/>
   </g>
   <g id="line2d_51">
    <path clip-path="url(#p59b5b4f9de)" d="
M274.42 333.203
L304.35 315.923" style="fill:none;opacity:0.5;stroke:#262626;stroke-linecap:square;stroke-width:2;"/>
   </g>
   <g id="line2d_52">
    <path clip-path="url(#p59b5b4f9de)" d="
M244.49 281.363
L274.42 264.083" style="fill:none;opacity:0.5;stroke:#262626;stroke-linecap:square;stroke-width:2;"/>
   </g>
   <g id="line2d_53">
    <path clip-path="url(#p59b5b4f9de)" d="
M214.56 229.523
L244.49 212.243" style="fill:none;opacity:0.5;stroke:#262626;stroke-linecap:square;stroke-width:2;"/>
   </g>
   <g id="line2d_54">
    <path clip-path="url(#p59b5b4f9de)" d="
M184.63 177.683
L214.56 160.403" style="fill:none;opacity:0.5;stroke:#262626;stroke-linecap:square;stroke-width:2;"/>
   </g>
   <g id="line2d_55">
    <path clip-path="url(#p59b5b4f9de)" d="
M154.7 125.843
L184.63 108.563" style="fill:none;opacity:0.5;stroke:#262626;stroke-linecap:square;stroke-width:2;"/>
   </g>
   <g id="line2d_56">
    <path clip-path="url(#p59b5b4f9de)" d="
M124.77 74.0026
L154.7 56.7226" style="fill:none;opacity:0.5;stroke:#262626;stroke-linecap:square;stroke-width:2;"/>
   </g>
   <g id="line2d_57">
    <path clip-path="url(#p59b5b4f9de)" d="
M334.279 333.203
L364.209 315.923" style="fill:none;opacity:0.5;stroke:#262626;stroke-linecap:square;stroke-width:2;"/>
   </g>
   <g id="line2d_58">
    <path clip-path="url(#p59b5b4f9de)" d="
M304.35 281.363
L334.279 264.083" style="fill:none;opacity:0.5;stroke:#262626;stroke-linecap:square;stroke-width:2;"/>
   </g>
   <g id="line2d_59">
    <path clip-path="url(#p59b5b4f9de)" d="
M274.42 229.523
L304.35 212.243" style="fill:none;opacity:0.5;stroke:#262626;stroke-linecap:square;stroke-width:2;"/>
   </g>
   <g id="line2d_60">
    <path clip-path="url(#p59b5b4f9de)" d="
M244.49 177.683
L274.42 160.403" style="fill:none;opacity:0.5;stroke:#262626;stroke-linecap:square;stroke-width:2;"/>
   </g>
   <g id="line2d_61">
    <path clip-path="url(#p59b5b4f9de)" d="
M214.56 125.843
L244.49 108.563" style="fill:none;opacity:0.5;stroke:#262626;stroke-linecap:square;stroke-width:2;"/>
   </g>
   <g id="line2d_62">
    <path clip-path="url(#p59b5b4f9de)" d="
M184.63 74.0026
L214.56 56.7226" style="fill:none;opacity:0.5;stroke:#262626;stroke-linecap:square;stroke-width:2;"/>
   </g>
   <g id="matplotlib.axis_1"/>
   <g id="matplotlib.axis_2"/>
   <g id="patch_3">
    <path d="
M7.2 22.1626
L421.92 22.1626" style="fill:none;stroke:#000000;"/>
   </g>
   <g id="patch_4">
    <path d="
M421.92 367.763
L421.92 22.1626" style="fill:none;stroke:#000000;"/>
   </g>
   <g id="patch_5">
    <path d="
M7.2 367.763
L421.92 367.763" style="fill:none;stroke:#000000;"/>
   </g>
   <g id="patch_6">
    <path d="
M7.2 367.763
L7.2 22.1626" style="fill:none;stroke:#000000;"/>
   </g>
   <g id="PathCollection_1">
    <defs>
     <path d="
M0 3.39753
C0.901036 3.39753 1.76529 3.03955 2.40242 2.40242
C3.03955 1.76529 3.39753 0.901036 3.39753 0
C3.39753 -0.901036 3.03955 -1.76529 2.40242 -2.40242
C1.76529 -3.03955 0.901036 -3.39753 0 -3.39753
C-0.901036 -3.39753 -1.76529 -3.03955 -2.40242 -2.40242
C-3.03955 -1.76529 -3.39753 -0.901036 -3.39753 0
C-3.39753 0.901036 -3.03955 1.76529 -2.40242 2.40242
C-1.76529 3.03955 -0.901036 3.39753 0 3.39753
z
" id="C0_0_fc803acac0"/>
     <path d="
M0 12.9825
C3.44299 12.9825 6.74543 11.6146 9.18 9.18
C11.6146 6.74543 12.9825 3.44299 12.9825 0
C12.9825 -3.44299 11.6146 -6.74543 9.18 -9.18
C6.74543 -11.6146 3.44299 -12.9825 0 -12.9825
C-3.44299 -12.9825 -6.74543 -11.6146 -9.18 -9.18
C-11.6146 -6.74543 -12.9825 -3.44299 -12.9825 0
C-12.9825 3.44299 -11.6146 6.74543 -9.18 9.18
C-6.74543 11.6146 -3.44299 12.9825 0 12.9825
z
" id="C0_1_1d26ad728e"/>
     <path d="
M0 12.9825
C3.44299 12.9825 6.74543 11.6146 9.18 9.18
C11.6146 6.74543 12.9825 3.44299 12.9825 0
C12.9825 -3.44299 11.6146 -6.74543 9.18 -9.18
C6.74543 -11.6146 3.44299 -12.9825 0 -12.9825
C-3.44299 -12.9825 -6.74543 -11.6146 -9.18 -9.18
C-11.6146 -6.74543 -12.9825 -3.44299 -12.9825 0
C-12.9825 3.44299 -11.6146 6.74543 -9.18 9.18
C-6.74543 11.6146 -3.44299 12.9825 0 12.9825
z
" id="C0_2_1d26ad728e"/>
     <path d="
M0 3.39752
C0.901032 3.39752 1.76528 3.03953 2.40241 2.40241
C3.03953 1.76528 3.39752 0.901032 3.39752 0
C3.39752 -0.901032 3.03953 -1.76528 2.40241 -2.40241
C1.76528 -3.03953 0.901032 -3.39752 0 -3.39752
C-0.901032 -3.39752 -1.76528 -3.03953 -2.40241 -2.40241
C-3.03953 -1.76528 -3.39752 -0.901032 -3.39752 0
C-3.39752 0.901032 -3.03953 1.76528 -2.40241 2.40241
C-1.76528 3.03953 -0.901032 3.39752 0 3.39752
z
" id="C0_3_fb6cf61f0f"/>
     <path d="
M0 13.0012
C3.44796 13.0012 6.75517 11.6313 9.19324 9.19324
C11.6313 6.75517 13.0012 3.44796 13.0012 0
C13.0012 -3.44796 11.6313 -6.75517 9.19324 -9.19324
C6.75517 -11.6313 3.44796 -13.0012 0 -13.0012
C-3.44796 -13.0012 -6.75517 -11.6313 -9.19324 -9.19324
C-11.6313 -6.75517 -13.0012 -3.44796 -13.0012 0
C-13.0012 3.44796 -11.6313 6.75517 -9.19324 9.19324
C-6.75517 11.6313 -3.44796 13.0012 0 13.0012
z
" id="C0_4_52df4e8d4e"/>
     <path d="
M0 3.31189
C0.878324 3.31189 1.72079 2.96293 2.34186 2.34186
C2.96293 1.72079 3.31189 0.878324 3.31189 0
C3.31189 -0.878324 2.96293 -1.72079 2.34186 -2.34186
C1.72079 -2.96293 0.878324 -3.31189 0 -3.31189
C-0.878324 -3.31189 -1.72079 -2.96293 -2.34186 -2.34186
C-2.96293 -1.72079 -3.31189 -0.878324 -3.31189 0
C-3.31189 0.878324 -2.96293 1.72079 -2.34186 2.34186
C-1.72079 2.96293 -0.878324 3.31189 0 3.31189
z
" id="C0_5_498aeef4ac"/>
     <path d="
M0 12.9791
C3.4421 12.9791 6.74368 11.6115 9.17761 9.17761
C11.6115 6.74368 12.9791 3.4421 12.9791 0
C12.9791 -3.4421 11.6115 -6.74368 9.17761 -9.17761
C6.74368 -11.6115 3.4421 -12.9791 0 -12.9791
C-3.4421 -12.9791 -6.74368 -11.6115 -9.17761 -9.17761
C-11.6115 -6.74368 -12.9791 -3.4421 -12.9791 0
C-12.9791 3.4421 -11.6115 6.74368 -9.17761 9.17761
C-6.74368 11.6115 -3.4421 12.9791 0 12.9791
z
" id="C0_6_52bf68e8df"/>
     <path d="
M0 3.38456
C0.897596 3.38456 1.75855 3.02794 2.39325 2.39325
C3.02794 1.75855 3.38456 0.897596 3.38456 0
C3.38456 -0.897596 3.02794 -1.75855 2.39325 -2.39325
C1.75855 -3.02794 0.897596 -3.38456 0 -3.38456
C-0.897596 -3.38456 -1.75855 -3.02794 -2.39325 -2.39325
C-3.02794 -1.75855 -3.38456 -0.897596 -3.38456 0
C-3.38456 0.897596 -3.02794 1.75855 -2.39325 2.39325
C-1.75855 3.02794 -0.897596 3.38456 0 3.38456
z
" id="C0_7_cf3c2871e3"/>
     <path d="
M0 3.38456
C0.897597 3.38456 1.75855 3.02795 2.39325 2.39325
C3.02795 1.75855 3.38456 0.897597 3.38456 0
C3.38456 -0.897597 3.02795 -1.75855 2.39325 -2.39325
C1.75855 -3.02795 0.897597 -3.38456 0 -3.38456
C-0.897597 -3.38456 -1.75855 -3.02795 -2.39325 -2.39325
C-3.02795 -1.75855 -3.38456 -0.897597 -3.38456 0
C-3.38456 0.897597 -3.02795 1.75855 -2.39325 2.39325
C-1.75855 3.02795 -0.897597 3.38456 0 3.38456
z
" id="C0_8_96879591f8"/>
     <path d="
M0 12.9791
C3.4421 12.9791 6.74367 11.6115 9.1776 9.1776
C11.6115 6.74367 12.9791 3.4421 12.9791 0
C12.9791 -3.4421 11.6115 -6.74367 9.1776 -9.1776
C6.74367 -11.6115 3.4421 -12.9791 0 -12.9791
C-3.4421 -12.9791 -6.74367 -11.6115 -9.1776 -9.1776
C-11.6115 -6.74367 -12.9791 -3.4421 -12.9791 0
C-12.9791 3.4421 -11.6115 6.74367 -9.1776 9.1776
C-6.74367 11.6115 -3.4421 12.9791 0 12.9791
z
" id="C0_9_3e71ebc7b8"/>
     <path d="
M0 3.31191
C0.878329 3.31191 1.7208 2.96295 2.34187 2.34187
C2.96295 1.7208 3.31191 0.878329 3.31191 0
C3.31191 -0.878329 2.96295 -1.7208 2.34187 -2.34187
C1.7208 -2.96295 0.878329 -3.31191 0 -3.31191
C-0.878329 -3.31191 -1.7208 -2.96295 -2.34187 -2.34187
C-2.96295 -1.7208 -3.31191 -0.878329 -3.31191 0
C-3.31191 0.878329 -2.96295 1.7208 -2.34187 2.34187
C-1.7208 2.96295 -0.878329 3.31191 0 3.31191
z
" id="C0_a_2202edcb6a"/>
     <path d="
M0 13.0012
C3.44796 13.0012 6.75516 11.6313 9.19324 9.19324
C11.6313 6.75516 13.0012 3.44796 13.0012 0
C13.0012 -3.44796 11.6313 -6.75516 9.19324 -9.19324
C6.75516 -11.6313 3.44796 -13.0012 0 -13.0012
C-3.44796 -13.0012 -6.75516 -11.6313 -9.19324 -9.19324
C-11.6313 -6.75516 -13.0012 -3.44796 -13.0012 0
C-13.0012 3.44796 -11.6313 6.75516 -9.19324 9.19324
C-6.75516 11.6313 -3.44796 13.0012 0 13.0012
z
" id="C0_b_46d57777af"/>
     <path d="
M0 13.0012
C3.44796 13.0012 6.75516 11.6313 9.19324 9.19324
C11.6313 6.75516 13.0012 3.44796 13.0012 0
C13.0012 -3.44796 11.6313 -6.75516 9.19324 -9.19324
C6.75516 -11.6313 3.44796 -13.0012 0 -13.0012
C-3.44796 -13.0012 -6.75516 -11.6313 -9.19324 -9.19324
C-11.6313 -6.75516 -13.0012 -3.44796 -13.0012 0
C-13.0012 3.44796 -11.6313 6.75516 -9.19324 9.19324
C-6.75516 11.6313 -3.44796 13.0012 0 13.0012
z
" id="C0_c_46d57777af"/>
     <path d="
M0 3.31191
C0.878329 3.31191 1.7208 2.96295 2.34187 2.34187
C2.96295 1.7208 3.31191 0.878329 3.31191 0
C3.31191 -0.878329 2.96295 -1.7208 2.34187 -2.34187
C1.7208 -2.96295 0.878329 -3.31191 0 -3.31191
C-0.878329 -3.31191 -1.7208 -2.96295 -2.34187 -2.34187
C-2.96295 -1.7208 -3.31191 -0.878329 -3.31191 0
C-3.31191 0.878329 -2.96295 1.7208 -2.34187 2.34187
C-1.7208 2.96295 -0.878329 3.31191 0 3.31191
z
" id="C0_d_2202edcb6a"/>
     <path d="
M0 12.9791
C3.4421 12.9791 6.74368 11.6115 9.1776 9.1776
C11.6115 6.74368 12.9791 3.4421 12.9791 0
C12.9791 -3.4421 11.6115 -6.74368 9.1776 -9.1776
C6.74368 -11.6115 3.4421 -12.9791 0 -12.9791
C-3.4421 -12.9791 -6.74368 -11.6115 -9.1776 -9.1776
C-11.6115 -6.74368 -12.9791 -3.4421 -12.9791 0
C-12.9791 3.4421 -11.6115 6.74368 -9.1776 9.1776
C-6.74368 11.6115 -3.4421 12.9791 0 12.9791
z
" id="C0_e_2e3db19af5"/>
     <path d="
M0 3.38457
C0.897597 3.38457 1.75855 3.02795 2.39325 2.39325
C3.02795 1.75855 3.38457 0.897597 3.38457 0
C3.38457 -0.897597 3.02795 -1.75855 2.39325 -2.39325
C1.75855 -3.02795 0.897597 -3.38457 0 -3.38457
C-0.897597 -3.38457 -1.75855 -3.02795 -2.39325 -2.39325
C-3.02795 -1.75855 -3.38457 -0.897597 -3.38457 0
C-3.38457 0.897597 -3.02795 1.75855 -2.39325 2.39325
C-1.75855 3.02795 -0.897597 3.38457 0 3.38457
z
" id="C0_f_ac550bd9d9"/>
     <path d="
M0 3.38457
C0.897597 3.38457 1.75855 3.02795 2.39325 2.39325
C3.02795 1.75855 3.38457 0.897597 3.38457 0
C3.38457 -0.897597 3.02795 -1.75855 2.39325 -2.39325
C1.75855 -3.02795 0.897597 -3.38457 0 -3.38457
C-0.897597 -3.38457 -1.75855 -3.02795 -2.39325 -2.39325
C-3.02795 -1.75855 -3.38457 -0.897597 -3.38457 0
C-3.38457 0.897597 -3.02795 1.75855 -2.39325 2.39325
C-1.75855 3.02795 -0.897597 3.38457 0 3.38457
z
" id="C0_10_ac550bd9d9"/>
     <path d="
M0 12.9791
C3.4421 12.9791 6.74368 11.6115 9.17761 9.17761
C11.6115 6.74368 12.9791 3.4421 12.9791 0
C12.9791 -3.4421 11.6115 -6.74368 9.17761 -9.17761
C6.74368 -11.6115 3.4421 -12.9791 0 -12.9791
C-3.4421 -12.9791 -6.74368 -11.6115 -9.17761 -9.17761
C-11.6115 -6.74368 -12.9791 -3.4421 -12.9791 0
C-12.9791 3.4421 -11.6115 6.74368 -9.17761 9.17761
C-6.74368 11.6115 -3.4421 12.9791 0 12.9791
z
" id="C0_11_52bf68e8df"/>
     <path d="
M0 3.3119
C0.878325 3.3119 1.72079 2.96293 2.34186 2.34186
C2.96293 1.72079 3.3119 0.878325 3.3119 0
C3.3119 -0.878325 2.96293 -1.72079 2.34186 -2.34186
C1.72079 -2.96293 0.878325 -3.3119 0 -3.3119
C-0.878325 -3.3119 -1.72079 -2.96293 -2.34186 -2.34186
C-2.96293 -1.72079 -3.3119 -0.878325 -3.3119 0
C-3.3119 0.878325 -2.96293 1.72079 -2.34186 2.34186
C-1.72079 2.96293 -0.878325 3.3119 0 3.3119
z
" id="C0_12_6e3529804b"/>
     <path d="
M0 13.0012
C3.44796 13.0012 6.75516 11.6313 9.19324 9.19324
C11.6313 6.75516 13.0012 3.44796 13.0012 0
C13.0012 -3.44796 11.6313 -6.75516 9.19324 -9.19324
C6.75516 -11.6313 3.44796 -13.0012 0 -13.0012
C-3.44796 -13.0012 -6.75516 -11.6313 -9.19324 -9.19324
C-11.6313 -6.75516 -13.0012 -3.44796 -13.0012 0
C-13.0012 3.44796 -11.6313 6.75516 -9.19324 9.19324
C-6.75516 11.6313 -3.44796 13.0012 0 13.0012
z
" id="C0_13_46d57777af"/>
     <path d="
M0 3.39752
C0.901032 3.39752 1.76528 3.03953 2.40241 2.40241
C3.03953 1.76528 3.39752 0.901032 3.39752 0
C3.39752 -0.901032 3.03953 -1.76528 2.40241 -2.40241
C1.76528 -3.03953 0.901032 -3.39752 0 -3.39752
C-0.901032 -3.39752 -1.76528 -3.03953 -2.40241 -2.40241
C-3.03953 -1.76528 -3.39752 -0.901032 -3.39752 0
C-3.39752 0.901032 -3.03953 1.76528 -2.40241 2.40241
C-1.76528 3.03953 -0.901032 3.39752 0 3.39752
z
" id="C0_14_fb6cf61f0f"/>
     <path d="
M0 12.9825
C3.44299 12.9825 6.74543 11.6146 9.18 9.18
C11.6146 6.74543 12.9825 3.44299 12.9825 0
C12.9825 -3.44299 11.6146 -6.74543 9.18 -9.18
C6.74543 -11.6146 3.44299 -12.9825 0 -12.9825
C-3.44299 -12.9825 -6.74543 -11.6146 -9.18 -9.18
C-11.6146 -6.74543 -12.9825 -3.44299 -12.9825 0
C-12.9825 3.44299 -11.6146 6.74543 -9.18 9.18
C-6.74543 11.6146 -3.44299 12.9825 0 12.9825
z
" id="C0_15_1d26ad728e"/>
     <path d="
M0 12.9825
C3.44299 12.9825 6.74543 11.6146 9.18 9.18
C11.6146 6.74543 12.9825 3.44299 12.9825 0
C12.9825 -3.44299 11.6146 -6.74543 9.18 -9.18
C6.74543 -11.6146 3.44299 -12.9825 0 -12.9825
C-3.44299 -12.9825 -6.74543 -11.6146 -9.18 -9.18
C-11.6146 -6.74543 -12.9825 -3.44299 -12.9825 0
C-12.9825 3.44299 -11.6146 6.74543 -9.18 9.18
C-6.74543 11.6146 -3.44299 12.9825 0 12.9825
z
" id="C0_16_1d26ad728e"/>
     <path d="
M0 3.39753
C0.901036 3.39753 1.76529 3.03955 2.40242 2.40242
C3.03955 1.76529 3.39753 0.901036 3.39753 0
C3.39753 -0.901036 3.03955 -1.76529 2.40242 -2.40242
C1.76529 -3.03955 0.901036 -3.39753 0 -3.39753
C-0.901036 -3.39753 -1.76529 -3.03955 -2.40242 -2.40242
C-3.03955 -1.76529 -3.39753 -0.901036 -3.39753 0
C-3.39753 0.901036 -3.03955 1.76529 -2.40242 2.40242
C-1.76529 3.03955 -0.901036 3.39753 0 3.39753
z
" id="C0_17_fc803acac0"/>
     <path d="
M0 3.38458
C0.8976 3.38458 1.75856 3.02796 2.39326 2.39326
C3.02796 1.75856 3.38458 0.8976 3.38458 0
C3.38458 -0.8976 3.02796 -1.75856 2.39326 -2.39326
C1.75856 -3.02796 0.8976 -3.38458 0 -3.38458
C-0.8976 -3.38458 -1.75856 -3.02796 -2.39326 -2.39326
C-3.02796 -1.75856 -3.38458 -0.8976 -3.38458 0
C-3.38458 0.8976 -3.02796 1.75856 -2.39326 2.39326
C-1.75856 3.02796 -0.8976 3.38458 0 3.38458
z
" id="C0_18_bde87f3a3f"/>
     <path d="
M0 12.9791
C3.44209 12.9791 6.74367 11.6115 9.1776 9.1776
C11.6115 6.74367 12.9791 3.44209 12.9791 0
C12.9791 -3.44209 11.6115 -6.74367 9.1776 -9.1776
C6.74367 -11.6115 3.44209 -12.9791 0 -12.9791
C-3.44209 -12.9791 -6.74367 -11.6115 -9.1776 -9.1776
C-11.6115 -6.74367 -12.9791 -3.44209 -12.9791 0
C-12.9791 3.44209 -11.6115 6.74367 -9.1776 9.1776
C-6.74367 11.6115 -3.44209 12.9791 0 12.9791
z
" id="C0_19_e91af8db8f"/>
     <path d="
M0 3.3119
C0.878327 3.3119 1.7208 2.96294 2.34187 2.34187
C2.96294 1.7208 3.3119 0.878327 3.3119 0
C3.3119 -0.878327 2.96294 -1.7208 2.34187 -2.34187
C1.7208 -2.96294 0.878327 -3.3119 0 -3.3119
C-0.878327 -3.3119 -1.7208 -2.96294 -2.34187 -2.34187
C-2.96294 -1.7208 -3.3119 -0.878327 -3.3119 0
C-3.3119 0.878327 -2.96294 1.7208 -2.34187 2.34187
C-1.7208 2.96294 -0.878327 3.3119 0 3.3119
z
" id="C0_1a_2bf221fe95"/>
     <path d="
M0 13.0012
C3.44796 13.0012 6.75516 11.6313 9.19324 9.19324
C11.6313 6.75516 13.0012 3.44796 13.0012 0
C13.0012 -3.44796 11.6313 -6.75516 9.19324 -9.19324
C6.75516 -11.6313 3.44796 -13.0012 0 -13.0012
C-3.44796 -13.0012 -6.75516 -11.6313 -9.19324 -9.19324
C-11.6313 -6.75516 -13.0012 -3.44796 -13.0012 0
C-13.0012 3.44796 -11.6313 6.75516 -9.19324 9.19324
C-6.75516 11.6313 -3.44796 13.0012 0 13.0012
z
" id="C0_1b_46d57777af"/>
     <path d="
M0 3.39751
C0.90103 3.39751 1.76528 3.03953 2.4024 2.4024
C3.03953 1.76528 3.39751 0.90103 3.39751 0
C3.39751 -0.90103 3.03953 -1.76528 2.4024 -2.4024
C1.76528 -3.03953 0.90103 -3.39751 0 -3.39751
C-0.90103 -3.39751 -1.76528 -3.03953 -2.4024 -2.4024
C-3.03953 -1.76528 -3.39751 -0.90103 -3.39751 0
C-3.39751 0.90103 -3.03953 1.76528 -2.4024 2.4024
C-1.76528 3.03953 -0.90103 3.39751 0 3.39751
z
" id="C0_1c_d2723f9d2b"/>
     <path d="
M0 12.9825
C3.44299 12.9825 6.74543 11.6146 9.18 9.18
C11.6146 6.74543 12.9825 3.44299 12.9825 0
C12.9825 -3.44299 11.6146 -6.74543 9.18 -9.18
C6.74543 -11.6146 3.44299 -12.9825 0 -12.9825
C-3.44299 -12.9825 -6.74543 -11.6146 -9.18 -9.18
C-11.6146 -6.74543 -12.9825 -3.44299 -12.9825 0
C-12.9825 3.44299 -11.6146 6.74543 -9.18 9.18
C-6.74543 11.6146 -3.44299 12.9825 0 12.9825
z
" id="C0_1d_1d26ad728e"/>
     <path d="
M0 12.9825
C3.44299 12.9825 6.74543 11.6146 9.18 9.18
C11.6146 6.74543 12.9825 3.44299 12.9825 0
C12.9825 -3.44299 11.6146 -6.74543 9.18 -9.18
C6.74543 -11.6146 3.44299 -12.9825 0 -12.9825
C-3.44299 -12.9825 -6.74543 -11.6146 -9.18 -9.18
C-11.6146 -6.74543 -12.9825 -3.44299 -12.9825 0
C-12.9825 3.44299 -11.6146 6.74543 -9.18 9.18
C-6.74543 11.6146 -3.44299 12.9825 0 12.9825
z
" id="C0_1e_1d26ad728e"/>
     <path d="
M0 3.39751
C0.901031 3.39751 1.76528 3.03953 2.4024 2.4024
C3.03953 1.76528 3.39751 0.901031 3.39751 0
C3.39751 -0.901031 3.03953 -1.76528 2.4024 -2.4024
C1.76528 -3.03953 0.901031 -3.39751 0 -3.39751
C-0.901031 -3.39751 -1.76528 -3.03953 -2.4024 -2.4024
C-3.03953 -1.76528 -3.39751 -0.901031 -3.39751 0
C-3.39751 0.901031 -3.03953 1.76528 -2.4024 2.4024
C-1.76528 3.03953 -0.901031 3.39751 0 3.39751
z
" id="C0_1f_fe9798db13"/>
     <path d="
M0 13.0012
C3.44796 13.0012 6.75516 11.6313 9.19324 9.19324
C11.6313 6.75516 13.0012 3.44796 13.0012 0
C13.0012 -3.44796 11.6313 -6.75516 9.19324 -9.19324
C6.75516 -11.6313 3.44796 -13.0012 0 -13.0012
C-3.44796 -13.0012 -6.75516 -11.6313 -9.19324 -9.19324
C-11.6313 -6.75516 -13.0012 -3.44796 -13.0012 0
C-13.0012 3.44796 -11.6313 6.75516 -9.19324 9.19324
C-6.75516 11.6313 -3.44796 13.0012 0 13.0012
z
" id="C0_20_46d57777af"/>
     <path d="
M0 3.3119
C0.878327 3.3119 1.7208 2.96294 2.34187 2.34187
C2.96294 1.7208 3.3119 0.878327 3.3119 0
C3.3119 -0.878327 2.96294 -1.7208 2.34187 -2.34187
C1.7208 -2.96294 0.878327 -3.3119 0 -3.3119
C-0.878327 -3.3119 -1.7208 -2.96294 -2.34187 -2.34187
C-2.96294 -1.7208 -3.3119 -0.878327 -3.3119 0
C-3.3119 0.878327 -2.96294 1.7208 -2.34187 2.34187
C-1.7208 2.96294 -0.878327 3.3119 0 3.3119
z
" id="C0_21_2bf221fe95"/>
     <path d="
M0 12.9791
C3.4421 12.9791 6.74367 11.6115 9.1776 9.1776
C11.6115 6.74367 12.9791 3.4421 12.9791 0
C12.9791 -3.4421 11.6115 -6.74367 9.1776 -9.1776
C6.74367 -11.6115 3.4421 -12.9791 0 -12.9791
C-3.4421 -12.9791 -6.74367 -11.6115 -9.1776 -9.1776
C-11.6115 -6.74367 -12.9791 -3.4421 -12.9791 0
C-12.9791 3.4421 -11.6115 6.74367 -9.1776 9.1776
C-6.74367 11.6115 -3.4421 12.9791 0 12.9791
z
" id="C0_22_3e71ebc7b8"/>
     <path d="
M0 3.38458
C0.8976 3.38458 1.75856 3.02796 2.39326 2.39326
C3.02796 1.75856 3.38458 0.8976 3.38458 0
C3.38458 -0.8976 3.02796 -1.75856 2.39326 -2.39326
C1.75856 -3.02796 0.8976 -3.38458 0 -3.38458
C-0.8976 -3.38458 -1.75856 -3.02796 -2.39326 -2.39326
C-3.02796 -1.75856 -3.38458 -0.8976 -3.38458 0
C-3.38458 0.8976 -3.02796 1.75856 -2.39326 2.39326
C-1.75856 3.02796 -0.8976 3.38458 0 3.38458
z
" id="C0_23_bde87f3a3f"/>
    </defs>
    <g clip-path="url(#p59b5b4f9de)">
     <use style="fill:#0000ff;stroke:#000000;" x="214.56" xlink:href="#C0_0_fc803acac0" y="333.202624898"/>
    </g>
    <g clip-path="url(#p59b5b4f9de)">
     <use style="fill:#0000ff;stroke:#000000;" x="184.630162045" xlink:href="#C0_1_1d26ad728e" y="315.922624898"/>
    </g>
    <g clip-path="url(#p59b5b4f9de)">
     <use style="fill:#0000ff;stroke:#000000;" x="184.630162045" xlink:href="#C0_2_1d26ad728e" y="281.362624898"/>
    </g>
    <g clip-path="url(#p59b5b4f9de)">
     <use style="fill:#0000ff;stroke:#000000;" x="154.70032409" xlink:href="#C0_3_fb6cf61f0f" y="264.082624898"/>
    </g>
    <g clip-path="url(#p59b5b4f9de)">
     <use style="fill:#0000ff;stroke:#000000;" x="154.70032409" xlink:href="#C0_4_52df4e8d4e" y="229.522624898"/>
    </g>
    <g clip-path="url(#p59b5b4f9de)">
     <use style="fill:#0000ff;stroke:#000000;" x="124.770486136" xlink:href="#C0_5_498aeef4ac" y="212.242624898"/>
    </g>
    <g clip-path="url(#p59b5b4f9de)">
     <use style="fill:#0000ff;stroke:#000000;" x="124.770486136" xlink:href="#C0_6_52bf68e8df" y="177.682624898"/>
    </g>
    <g clip-path="url(#p59b5b4f9de)">
     <use style="fill:#0000ff;stroke:#000000;" x="94.8406481808" xlink:href="#C0_7_cf3c2871e3" y="160.402624898"/>
    </g>
    <g clip-path="url(#p59b5b4f9de)">
     <use style="fill:#0000ff;stroke:#000000;" x="94.8406481808" xlink:href="#C0_8_96879591f8" y="125.842624898"/>
    </g>
    <g clip-path="url(#p59b5b4f9de)">
     <use style="fill:#0000ff;stroke:#000000;" x="64.910810226" xlink:href="#C0_9_3e71ebc7b8" y="108.562624898"/>
    </g>
    <g clip-path="url(#p59b5b4f9de)">
     <use style="fill:#0000ff;stroke:#000000;" x="64.910810226" xlink:href="#C0_a_2202edcb6a" y="74.0026248978"/>
    </g>
    <g clip-path="url(#p59b5b4f9de)">
     <use style="fill:#0000ff;stroke:#000000;" x="34.9809722713" xlink:href="#C0_b_46d57777af" y="56.7226248978"/>
    </g>
    <g clip-path="url(#p59b5b4f9de)">
     <use style="fill:#0000ff;stroke:#000000;" x="274.41967591" xlink:href="#C0_c_46d57777af" y="333.202624898"/>
    </g>
    <g clip-path="url(#p59b5b4f9de)">
     <use style="fill:#0000ff;stroke:#000000;" x="244.489837955" xlink:href="#C0_d_2202edcb6a" y="315.922624898"/>
    </g>
    <g clip-path="url(#p59b5b4f9de)">
     <use style="fill:#0000ff;stroke:#000000;" x="244.489837955" xlink:href="#C0_e_2e3db19af5" y="281.362624898"/>
    </g>
    <g clip-path="url(#p59b5b4f9de)">
     <use style="fill:#0000ff;stroke:#000000;" x="214.56" xlink:href="#C0_f_ac550bd9d9" y="264.082624898"/>
    </g>
    <g clip-path="url(#p59b5b4f9de)">
     <use style="fill:#0000ff;stroke:#000000;" x="214.56" xlink:href="#C0_10_ac550bd9d9" y="229.522624898"/>
    </g>
    <g clip-path="url(#p59b5b4f9de)">
     <use style="fill:#0000ff;stroke:#000000;" x="184.630162045" xlink:href="#C0_11_52bf68e8df" y="212.242624898"/>
    </g>
    <g clip-path="url(#p59b5b4f9de)">
     <use style="fill:#0000ff;stroke:#000000;" x="184.630162045" xlink:href="#C0_12_6e3529804b" y="177.682624898"/>
    </g>
    <g clip-path="url(#p59b5b4f9de)">
     <use style="fill:#0000ff;stroke:#000000;" x="154.70032409" xlink:href="#C0_13_46d57777af" y="160.402624898"/>
    </g>
    <g clip-path="url(#p59b5b4f9de)">
     <use style="fill:#0000ff;stroke:#000000;" x="154.70032409" xlink:href="#C0_14_fb6cf61f0f" y="125.842624898"/>
    </g>
    <g clip-path="url(#p59b5b4f9de)">
     <use style="fill:#0000ff;stroke:#000000;" x="124.770486136" xlink:href="#C0_15_1d26ad728e" y="108.562624898"/>
    </g>
    <g clip-path="url(#p59b5b4f9de)">
     <use style="fill:#0000ff;stroke:#000000;" x="124.770486136" xlink:href="#C0_16_1d26ad728e" y="74.0026248978"/>
    </g>
    <g clip-path="url(#p59b5b4f9de)">
     <use style="fill:#0000ff;stroke:#000000;" x="94.8406481808" xlink:href="#C0_17_fc803acac0" y="56.7226248978"/>
    </g>
    <g clip-path="url(#p59b5b4f9de)">
     <use style="fill:#0000ff;stroke:#000000;" x="334.279351819" xlink:href="#C0_18_bde87f3a3f" y="333.202624898"/>
    </g>
    <g clip-path="url(#p59b5b4f9de)">
     <use style="fill:#0000ff;stroke:#000000;" x="304.349513864" xlink:href="#C0_19_e91af8db8f" y="315.922624898"/>
    </g>
    <g clip-path="url(#p59b5b4f9de)">
     <use style="fill:#0000ff;stroke:#000000;" x="304.349513864" xlink:href="#C0_1a_2bf221fe95" y="281.362624898"/>
    </g>
    <g clip-path="url(#p59b5b4f9de)">
     <use style="fill:#0000ff;stroke:#000000;" x="274.41967591" xlink:href="#C0_1b_46d57777af" y="264.082624898"/>
    </g>
    <g clip-path="url(#p59b5b4f9de)">
     <use style="fill:#0000ff;stroke:#000000;" x="274.41967591" xlink:href="#C0_1c_d2723f9d2b" y="229.522624898"/>
    </g>
    <g clip-path="url(#p59b5b4f9de)">
     <use style="fill:#0000ff;stroke:#000000;" x="244.489837955" xlink:href="#C0_1d_1d26ad728e" y="212.242624898"/>
    </g>
    <g clip-path="url(#p59b5b4f9de)">
     <use style="fill:#0000ff;stroke:#000000;" x="244.489837955" xlink:href="#C0_1e_1d26ad728e" y="177.682624898"/>
    </g>
    <g clip-path="url(#p59b5b4f9de)">
     <use style="fill:#0000ff;stroke:#000000;" x="214.56" xlink:href="#C0_1f_fe9798db13" y="160.402624898"/>
    </g>
    <g clip-path="url(#p59b5b4f9de)">
     <use style="fill:#0000ff;stroke:#000000;" x="214.56" xlink:href="#C0_20_46d57777af" y="125.842624898"/>
    </g>
    <g clip-path="url(#p59b5b4f9de)">
     <use style="fill:#0000ff;stroke:#000000;" x="184.630162045" xlink:href="#C0_21_2bf221fe95" y="108.562624898"/>
    </g>
    <g clip-path="url(#p59b5b4f9de)">
     <use style="fill:#0000ff;stroke:#000000;" x="184.630162045" xlink:href="#C0_22_3e71ebc7b8" y="74.0026248978"/>
    </g>
    <g clip-path="url(#p59b5b4f9de)">
     <use style="fill:#0000ff;stroke:#000000;" x="154.70032409" xlink:href="#C0_23_bde87f3a3f" y="56.7226248978"/>
    </g>
    <g clip-path="url(#p59b5b4f9de)">
     <use style="fill:#0000ff;stroke:#000000;" x="394.139027729" xlink:href="#C0_0_fc803acac0" y="333.202624898"/>
    </g>
    <g clip-path="url(#p59b5b4f9de)">
     <use style="fill:#0000ff;stroke:#000000;" x="364.209189774" xlink:href="#C0_1_1d26ad728e" y="315.922624898"/>
    </g>
    <g clip-path="url(#p59b5b4f9de)">
     <use style="fill:#0000ff;stroke:#000000;" x="364.209189774" xlink:href="#C0_2_1d26ad728e" y="281.362624898"/>
    </g>
    <g clip-path="url(#p59b5b4f9de)">
     <use style="fill:#0000ff;stroke:#000000;" x="334.279351819" xlink:href="#C0_3_fb6cf61f0f" y="264.082624898"/>
    </g>
    <g clip-path="url(#p59b5b4f9de)">
     <use style="fill:#0000ff;stroke:#000000;" x="334.279351819" xlink:href="#C0_4_52df4e8d4e" y="229.522624898"/>
    </g>
    <g clip-path="url(#p59b5b4f9de)">
     <use style="fill:#0000ff;stroke:#000000;" x="304.349513864" xlink:href="#C0_5_498aeef4ac" y="212.242624898"/>
    </g>
    <g clip-path="url(#p59b5b4f9de)">
     <use style="fill:#0000ff;stroke:#000000;" x="304.349513864" xlink:href="#C0_6_52bf68e8df" y="177.682624898"/>
    </g>
    <g clip-path="url(#p59b5b4f9de)">
     <use style="fill:#0000ff;stroke:#000000;" x="274.41967591" xlink:href="#C0_7_cf3c2871e3" y="160.402624898"/>
    </g>
    <g clip-path="url(#p59b5b4f9de)">
     <use style="fill:#0000ff;stroke:#000000;" x="274.41967591" xlink:href="#C0_8_96879591f8" y="125.842624898"/>
    </g>
    <g clip-path="url(#p59b5b4f9de)">
     <use style="fill:#0000ff;stroke:#000000;" x="244.489837955" xlink:href="#C0_9_3e71ebc7b8" y="108.562624898"/>
    </g>
    <g clip-path="url(#p59b5b4f9de)">
     <use style="fill:#0000ff;stroke:#000000;" x="244.489837955" xlink:href="#C0_a_2202edcb6a" y="74.0026248978"/>
    </g>
    <g clip-path="url(#p59b5b4f9de)">
     <use style="fill:#0000ff;stroke:#000000;" x="214.56" xlink:href="#C0_b_46d57777af" y="56.7226248978"/>
    </g>
   </g>
   <g id="text_1">
    <!-- $V_1 = 5.2, \ V_2 = 3.2$ -->
    <defs>
     <path d="
M61.9062 56.7188
C65.2969 62.1094 68.4062 64.5 73.5 64.9062
C74.5 65 75.2969 65 75.2969 66.7344
C75.2969 67.125 75.0938 67.7031 74.2031 67.7031
C72.4062 67.7031 68.0938 67.7031 66.2969 67.7031
C63.4062 67.7031 60.4062 67.7031 57.5938 67.7031
C56.7969 67.7031 55.7969 67.7031 55.7969 65.9375
C55.7969 65.0938 56.7031 65 57.0938 65
C60.7969 64.7031 61.2031 62.9062 61.2031 61.7031
C61.2031 60.1875 59.7969 57.8906 59.7031 57.7969
L28.2969 7.98438
L21.2969 61.8125
C21.2969 65 26.5 65 27.5938 65
C29.0938 65 30 65 30 66.7656
C30 67.7031 28.9062 67.7031 28.5938 67.7031
C26.9062 67.7031 24.9062 67.7031 23.2031 67.7031
L17.5938 67.7031
C10.2969 67.7031 7.29688 67.7031 7.20312 67.7031
C6.59375 67.7031 5.40625 67.7031 5.40625 66.0156
C5.40625 65 6.09375 65 7.70312 65
C12.7969 65 13.0938 64.0938 13.4062 61.6094
L21.4062 -0.109375
C21.7031 -2.20312 21.7031 -2.5 23.0938 -2.5
C24.2969 -2.5 24.7969 -2.20312 25.7969 -0.609375
z
" id="CMMI12-86"/>
     <path d="
M64.2969 31.5156
C65.7969 31.5156 67.2969 31.5156 67.2969 33.2031
C67.2969 35 65.5938 35 63.9062 35
L8 35
C6.29688 35 4.59375 35 4.59375 33.2031
C4.59375 31.5156 6.09375 31.5156 7.59375 31.5156
z

M63.9062 14
C65.5938 14 67.2969 14 67.2969 15.7969
C67.2969 17.4844 65.7969 17.4844 64.2969 17.4844
L7.59375 17.4844
C6.09375 17.4844 4.59375 17.4844 4.59375 15.7969
C4.59375 14 6.29688 14 8 14
z
" id="CMR17-61"/>
     <path d="
M41.7031 15.4531
L39.9062 15.4531
C38.9062 8.375 38.0938 7.17188 37.7031 6.5625
C37.2031 5.76562 30 5.76562 28.5938 5.76562
L9.40625 5.76562
C13 9.67188 20 16.75 28.5 24.9531
C34.5938 30.7344 41.7031 37.5312 41.7031 47.4219
C41.7031 59.2188 32.2969 66 21.7969 66
C10.7969 66 4.09375 56.3125 4.09375 47.3438
C4.09375 43.4375 7 42.9375 8.20312 42.9375
C9.20312 42.9375 12.2031 43.5469 12.2031 47.0312
C12.2031 50.1094 9.59375 51 8.20312 51
C7.59375 51 7 50.9062 6.59375 50.7031
C8.5 59.2188 14.2969 63.4062 20.4062 63.4062
C29.0938 63.4062 34.7969 56.5156 34.7969 47.4219
C34.7969 38.7344 29.7031 31.25 24 24.75
L4.09375 2.28125
L4.09375 0
L39.2969 0
z
" id="CMR17-50"/>
     <path d="
M22.0938 33.7031
C31 33.7031 34.9062 25.9688 34.9062 17.0312
C34.9062 5 28.5 0.390625 22.7031 0.390625
C17.4062 0.390625 8.79688 3.03125 6.09375 10.8281
C6.59375 10.625 7.09375 10.625 7.59375 10.625
C10 10.625 11.7969 12.2188 11.7969 14.8125
C11.7969 17.7031 9.59375 19 7.59375 19
C5.90625 19 3.29688 18.2031 3.29688 14.4688
C3.29688 5.23438 12.2969 -2 22.9062 -2
C34 -2 42.5 6.71875 42.5 16.9531
C42.5 26.6719 34.5 33.6875 25 34.7969
C32.5938 36.375 39.9062 43.0625 39.9062 52.0156
C39.9062 59.6875 32 65.2969 23 65.2969
C13.9062 65.2969 5.90625 59.8281 5.90625 52.0156
C5.90625 48.5938 8.5 48 9.79688 48
C11.9062 48 13.7031 49.2969 13.7031 51.8906
C13.7031 54.4688 11.9062 55.7656 9.79688 55.7656
C9.40625 55.7656 8.90625 55.7656 8.5 55.5625
C11.4062 61.8594 19.2969 63 22.7969 63
C26.2969 63 32.9062 61.3281 32.9062 51.875
C32.9062 49.1094 32.5 44.1875 29.0938 39.8438
C26.0938 36 22.7031 36 19.4062 35.5938
C18.9062 35.5938 16.5938 35.5938 16.2031 35.5938
C15.5 35.4844 15.0938 35.3906 15.0938 34.5938
C15.0938 33.8125 15.2031 33.7031 17.2031 33.7031
z
" id="CMR17-51"/>
     <path d="
M11.4062 57.6875
C12.4062 57.2812 16.5 56 20.7031 56
C30 56 35.0938 61.0156 38 63.9219
C38 64.7344 38 65.25 37.4062 65.25
C37.2969 65.25 37.0938 65.25 36.2969 64.8281
C32.7969 63.3125 28.7031 62.0781 23.7031 62.0781
C20.7031 62.0781 16.2031 62.5 11.2969 64.7344
C10.2031 65.25 10 65.25 9.90625 65.25
C9.40625 65.25 9.29688 65.1406 9.29688 63.1562
L9.29688 34.2812
C9.29688 32.5 9.29688 32 10.2969 32
C10.7969 32 11 32.2031 11.5 32.9062
C14.7031 37.4844 19.0938 39.4062 24.0938 39.4062
C27.5938 39.4062 35.0938 37.2188 35.0938 20.1406
C35.0938 16.9531 35.0938 11.1719 32.0938 6.57812
C29.5938 2.48438 25.7031 0.390625 21.4062 0.390625
C14.7969 0.390625 8.09375 5 6.29688 12.7188
C6.70312 12.6094 7.5 12.4219 7.90625 12.4219
C9.20312 12.4219 11.7031 13.125 11.7031 16.2188
C11.7031 18.9062 9.79688 20 7.90625 20
C5.59375 20 4.09375 18.5938 4.09375 15.7969
C4.09375 7.09375 11 -2 21.5938 -2
C31.9062 -2 41.7031 6.875 41.7031 19.75
C41.7031 31.7188 33.9062 41 24.2031 41
C19.0938 41 14.7969 39.0938 11.4062 35.4531
z
" id="CMR17-53"/>
     <path d="
M26.5938 63.3125
C26.5938 65.4062 26.5 65.5 25.0938 65.5
C21.2031 61.1875 15.2969 59.7969 9.70312 59.7969
C9.40625 59.7969 8.90625 59.7969 8.79688 59.5
C8.70312 59.2969 8.70312 59.0938 8.70312 57
C11.7969 57 17 57.5938 21 59.9844
L21 7.20312
C21 3.6875 20.7969 2.5 12.2031 2.5
L9.20312 2.5
L9.20312 0
C14 0 19 0 23.7969 0
C28.5938 0 33.5938 0 38.4062 0
L38.4062 2.5
L35.4062 2.5
C26.7969 2.5 26.5938 3.59375 26.5938 7.15625
z
" id="CMR17-49"/>
     <path d="
M18.4062 4.79688
C18.4062 7.6875 16 9.67188 13.5938 9.67188
C10.7031 9.67188 8.70312 7.28125 8.70312 4.89062
C8.70312 2 11.0938 0 13.5 0
C16.4062 0 18.4062 2.39062 18.4062 4.79688" id="CMMI12-58"/>
     <path d="
M19.5 -0.484375
C19.5 5.35938 17.5938 9.67188 13.5 9.67188
C10.2969 9.67188 8.70312 7.07812 8.70312 4.89062
C8.70312 2.6875 10.2031 0 13.5938 0
C14.9062 0 16 0.40625 16.9062 1.29688
C17.0938 1.5 17.2031 1.5 17.2969 1.5
C17.5 1.5 17.5 0.078125 17.5 -0.421875
C17.5 -3.75 16.9062 -10.2969 11.0938 -16.875
C10 -18.0781 10 -18.2812 10 -18.4844
C10 -19 10.5 -19.5 11 -19.5
C11.7969 -19.5 19.5 -12.0469 19.5 -0.484375" id="CMMI12-59"/>
    </defs>
    <g transform="translate(158.55895959 17.1626248978)scale(0.144 -0.144)">
     <use transform="translate(0.0 14.9439145441)scale(0.996264009963)" xlink:href="#CMMI12-86"/>
     <use transform="translate(56.8695790444 0.0)scale(0.697381766617)" xlink:href="#CMR17-49"/>
     <use transform="translate(117.024901736 14.9439145441)scale(0.996264009963)" xlink:href="#CMR17-61"/>
     <use transform="translate(216.413698873 14.9439145441)scale(0.996264009963)" xlink:href="#CMR17-53"/>
     <use transform="translate(262.10417599 14.9439145441)scale(0.996264009963)" xlink:href="#CMMI12-58"/>
     <use transform="translate(289.20135308 14.9439145441)scale(0.996264009963)" xlink:href="#CMR17-50"/>
     <use transform="translate(334.891830197 14.9439145441)scale(0.996264009963)" xlink:href="#CMMI12-59"/>
     <use transform="translate(408.669378867 14.9439145441)scale(0.996264009963)" xlink:href="#CMMI12-86"/>
     <use transform="translate(465.538957912 0.0)scale(0.697381766617)" xlink:href="#CMR17-50"/>
     <use transform="translate(525.694280603 14.9439145441)scale(0.996264009963)" xlink:href="#CMR17-61"/>
     <use transform="translate(625.083077741 14.9439145441)scale(0.996264009963)" xlink:href="#CMR17-51"/>
     <use transform="translate(670.773554858 14.9439145441)scale(0.996264009963)" xlink:href="#CMMI12-58"/>
     <use transform="translate(697.870731948 14.9439145441)scale(0.996264009963)" xlink:href="#CMR17-50"/>
    </g>
   </g>
  </g>
 </g>
 <defs>
  <clipPath id="p59b5b4f9de">
   <rect height="345.6" width="414.72" x="7.2" y="22.1626248978"/>
  </clipPath>
 </defs>
</svg>
