<?xml version="1.0" encoding="utf-8" standalone="no"?>
<!DOCTYPE svg PUBLIC "-//W3C//DTD SVG 1.1//EN"
  "http://www.w3.org/Graphics/SVG/1.1/DTD/svg11.dtd">
<!-- Created with matplotlib (http://matplotlib.org/) -->
<svg height="348pt" version="1.1" viewBox="0 0 460 348" width="460pt" xmlns="http://www.w3.org/2000/svg" xmlns:xlink="http://www.w3.org/1999/xlink">
 <defs>
  <style type="text/css">
*{stroke-linecap:butt;stroke-linejoin:round;}
  </style>
 </defs>
 <g id="figure_1">
  <g id="patch_1">
   <path d="
M0 348.22
L460.8 348.22
L460.8 0
L0 0
z
" style="fill:#ffffff;"/>
  </g>
  <g id="axes_1">
   <g id="patch_2">
    <path d="
M7.2 341.02
L453.6 341.02
L453.6 22.1626
L7.2 22.1626
z
" style="fill:#ffffff;"/>
   </g>
   <g id="PathCollection_1">
    <defs>
     <path d="
M0 6.39677
C1.69644 6.39677 3.32363 5.72277 4.5232 4.5232
C5.72277 3.32363 6.39677 1.69644 6.39677 0
C6.39677 -1.69644 5.72277 -3.32363 4.5232 -4.5232
C3.32363 -5.72277 1.69644 -6.39677 0 -6.39677
C-1.69644 -6.39677 -3.32363 -5.72277 -4.5232 -4.5232
C-5.72277 -3.32363 -6.39677 -1.69644 -6.39677 0
C-6.39677 1.69644 -5.72277 3.32363 -4.5232 4.5232
C-3.32363 5.72277 -1.69644 6.39677 0 6.39677
z
" id="C0_0_6b14d9a1cb"/>
     <path d="
M0 11.7935
C3.12767 11.7935 6.12765 10.5508 8.33925 8.33925
C10.5508 6.12765 11.7935 3.12767 11.7935 0
C11.7935 -3.12767 10.5508 -6.12765 8.33925 -8.33925
C6.12765 -10.5508 3.12767 -11.7935 0 -11.7935
C-3.12767 -11.7935 -6.12765 -10.5508 -8.33925 -8.33925
C-10.5508 -6.12765 -11.7935 -3.12767 -11.7935 0
C-11.7935 3.12767 -10.5508 6.12765 -8.33925 8.33925
C-6.12765 10.5508 -3.12767 11.7935 0 11.7935
z
" id="C0_1_dcfa92dfb7"/>
     <path d="
M0 13.1182
C3.47899 13.1182 6.81595 11.736 9.27596 9.27596
C11.736 6.81595 13.1182 3.47899 13.1182 0
C13.1182 -3.47899 11.736 -6.81595 9.27596 -9.27596
C6.81595 -11.736 3.47899 -13.1182 0 -13.1182
C-3.47899 -13.1182 -6.81595 -11.736 -9.27596 -9.27596
C-11.736 -6.81595 -13.1182 -3.47899 -13.1182 0
C-13.1182 3.47899 -11.736 6.81595 -9.27596 9.27596
C-6.81595 11.736 -3.47899 13.1182 0 13.1182
z
" id="C0_2_9d9a2c99ea"/>
     <path d="
M0 2.81249
C0.745881 2.81249 1.46131 2.51615 1.98873 1.98873
C2.51615 1.46131 2.81249 0.745881 2.81249 0
C2.81249 -0.745881 2.51615 -1.46131 1.98873 -1.98873
C1.46131 -2.51615 0.745881 -2.81249 0 -2.81249
C-0.745881 -2.81249 -1.46131 -2.51615 -1.98873 -1.98873
C-2.51615 -1.46131 -2.81249 -0.745881 -2.81249 0
C-2.81249 0.745881 -2.51615 1.46131 -1.98873 1.98873
C-1.46131 2.51615 -0.745881 2.81249 0 2.81249
z
" id="C0_3_1babbc8ed8"/>
     <path d="
M0 6.39554
C1.69612 6.39554 3.32299 5.72167 4.52233 4.52233
C5.72167 3.32299 6.39554 1.69612 6.39554 0
C6.39554 -1.69612 5.72167 -3.32299 4.52233 -4.52233
C3.32299 -5.72167 1.69612 -6.39554 0 -6.39554
C-1.69612 -6.39554 -3.32299 -5.72167 -4.52233 -4.52233
C-5.72167 -3.32299 -6.39554 -1.69612 -6.39554 0
C-6.39554 1.69612 -5.72167 3.32299 -4.52233 4.52233
C-3.32299 5.72167 -1.69612 6.39554 0 6.39554
z
" id="C0_4_4607370198"/>
     <path d="
M0 11.7933
C3.12763 11.7933 6.12758 10.5507 8.33915 8.33915
C10.5507 6.12758 11.7933 3.12763 11.7933 0
C11.7933 -3.12763 10.5507 -6.12758 8.33915 -8.33915
C6.12758 -10.5507 3.12763 -11.7933 0 -11.7933
C-3.12763 -11.7933 -6.12758 -10.5507 -8.33915 -8.33915
C-10.5507 -6.12758 -11.7933 -3.12763 -11.7933 0
C-11.7933 3.12763 -10.5507 6.12758 -8.33915 8.33915
C-6.12758 10.5507 -3.12763 11.7933 0 11.7933
z
" id="C0_5_257523103a"/>
     <path d="
M0 6.39665
C1.69641 6.39665 3.32357 5.72266 4.52312 4.52312
C5.72266 3.32357 6.39665 1.69641 6.39665 0
C6.39665 -1.69641 5.72266 -3.32357 4.52312 -4.52312
C3.32357 -5.72266 1.69641 -6.39665 0 -6.39665
C-1.69641 -6.39665 -3.32357 -5.72266 -4.52312 -4.52312
C-5.72266 -3.32357 -6.39665 -1.69641 -6.39665 0
C-6.39665 1.69641 -5.72266 3.32357 -4.52312 4.52312
C-3.32357 5.72266 -1.69641 6.39665 0 6.39665
z
" id="C0_6_7315a8fe9a"/>
     <path d="
M0 11.7939
C3.12779 11.7939 6.1279 10.5513 8.33958 8.33958
C10.5513 6.1279 11.7939 3.12779 11.7939 0
C11.7939 -3.12779 10.5513 -6.1279 8.33958 -8.33958
C6.1279 -10.5513 3.12779 -11.7939 0 -11.7939
C-3.12779 -11.7939 -6.1279 -10.5513 -8.33958 -8.33958
C-10.5513 -6.1279 -11.7939 -3.12779 -11.7939 0
C-11.7939 3.12779 -10.5513 6.1279 -8.33958 8.33958
C-6.1279 10.5513 -3.12779 11.7939 0 11.7939
z
" id="C0_7_a9e30bbd71"/>
     <path d="
M0 13.1183
C3.47901 13.1183 6.81601 11.7361 9.27604 9.27604
C11.7361 6.81601 13.1183 3.47901 13.1183 0
C13.1183 -3.47901 11.7361 -6.81601 9.27604 -9.27604
C6.81601 -11.7361 3.47901 -13.1183 0 -13.1183
C-3.47901 -13.1183 -6.81601 -11.7361 -9.27604 -9.27604
C-11.7361 -6.81601 -13.1183 -3.47901 -13.1183 0
C-13.1183 3.47901 -11.7361 6.81601 -9.27604 9.27604
C-6.81601 11.7361 -3.47901 13.1183 0 13.1183
z
" id="C0_8_b8945b044a"/>
     <path d="
M0 2.81301
C0.746018 2.81301 1.46158 2.51661 1.9891 1.9891
C2.51661 1.46158 2.81301 0.746018 2.81301 0
C2.81301 -0.746018 2.51661 -1.46158 1.9891 -1.9891
C1.46158 -2.51661 0.746018 -2.81301 0 -2.81301
C-0.746018 -2.81301 -1.46158 -2.51661 -1.9891 -1.9891
C-2.51661 -1.46158 -2.81301 -0.746018 -2.81301 0
C-2.81301 0.746018 -2.51661 1.46158 -1.9891 1.9891
C-1.46158 2.51661 -0.746018 2.81301 0 2.81301
z
" id="C0_9_a9729638f4"/>
     <path d="
M0 6.3964
C1.69634 6.3964 3.32344 5.72243 4.52294 4.52294
C5.72243 3.32344 6.3964 1.69634 6.3964 0
C6.3964 -1.69634 5.72243 -3.32344 4.52294 -4.52294
C3.32344 -5.72243 1.69634 -6.3964 0 -6.3964
C-1.69634 -6.3964 -3.32344 -5.72243 -4.52294 -4.52294
C-5.72243 -3.32344 -6.3964 -1.69634 -6.3964 0
C-6.3964 1.69634 -5.72243 3.32344 -4.52294 4.52294
C-3.32344 5.72243 -1.69634 6.3964 0 6.3964
z
" id="C0_a_1c133d7b75"/>
     <path d="
M0 11.7933
C3.12761 11.7933 6.12755 10.5507 8.3391 8.3391
C10.5507 6.12755 11.7933 3.12761 11.7933 0
C11.7933 -3.12761 10.5507 -6.12755 8.3391 -8.3391
C6.12755 -10.5507 3.12761 -11.7933 0 -11.7933
C-3.12761 -11.7933 -6.12755 -10.5507 -8.3391 -8.3391
C-10.5507 -6.12755 -11.7933 -3.12761 -11.7933 0
C-11.7933 3.12761 -10.5507 6.12755 -8.3391 8.3391
C-6.12755 10.5507 -3.12761 11.7933 0 11.7933
z
" id="C0_b_c9b6714411"/>
     <path d="
M0 13.118
C3.47894 13.118 6.81586 11.7358 9.27584 9.27584
C11.7358 6.81586 13.118 3.47894 13.118 0
C13.118 -3.47894 11.7358 -6.81586 9.27584 -9.27584
C6.81586 -11.7358 3.47894 -13.118 0 -13.118
C-3.47894 -13.118 -6.81586 -11.7358 -9.27584 -9.27584
C-11.7358 -6.81586 -13.118 -3.47894 -13.118 0
C-13.118 3.47894 -11.7358 6.81586 -9.27584 9.27584
C-6.81586 11.7358 -3.47894 13.118 0 13.118
z
" id="C0_c_90d571237e"/>
     <path d="
M0 2.81339
C0.746121 2.81339 1.46178 2.51696 1.98937 1.98937
C2.51696 1.46178 2.81339 0.746121 2.81339 0
C2.81339 -0.746121 2.51696 -1.46178 1.98937 -1.98937
C1.46178 -2.51696 0.746121 -2.81339 0 -2.81339
C-0.746121 -2.81339 -1.46178 -2.51696 -1.98937 -1.98937
C-2.51696 -1.46178 -2.81339 -0.746121 -2.81339 0
C-2.81339 0.746121 -2.51696 1.46178 -1.98937 1.98937
C-1.46178 2.51696 -0.746121 2.81339 0 2.81339
z
" id="C0_d_a1f18634a4"/>
     <path d="
M0 6.39618
C1.69629 6.39618 3.32332 5.72224 4.52278 4.52278
C5.72224 3.32332 6.39618 1.69629 6.39618 0
C6.39618 -1.69629 5.72224 -3.32332 4.52278 -4.52278
C3.32332 -5.72224 1.69629 -6.39618 0 -6.39618
C-1.69629 -6.39618 -3.32332 -5.72224 -4.52278 -4.52278
C-5.72224 -3.32332 -6.39618 -1.69629 -6.39618 0
C-6.39618 1.69629 -5.72224 3.32332 -4.52278 4.52278
C-3.32332 5.72224 -1.69629 6.39618 0 6.39618
z
" id="C0_e_ffb683c7bb"/>
     <path d="
M0 11.7932
C3.12759 11.7932 6.1275 10.5506 8.33904 8.33904
C10.5506 6.1275 11.7932 3.12759 11.7932 0
C11.7932 -3.12759 10.5506 -6.1275 8.33904 -8.33904
C6.1275 -10.5506 3.12759 -11.7932 0 -11.7932
C-3.12759 -11.7932 -6.1275 -10.5506 -8.33904 -8.33904
C-10.5506 -6.1275 -11.7932 -3.12759 -11.7932 0
C-11.7932 3.12759 -10.5506 6.1275 -8.33904 8.33904
C-6.1275 10.5506 -3.12759 11.7932 0 11.7932
z
" id="C0_f_10ae90e187"/>
     <path d="
M0 6.39642
C1.69635 6.39642 3.32345 5.72245 4.52295 4.52295
C5.72245 3.32345 6.39642 1.69635 6.39642 0
C6.39642 -1.69635 5.72245 -3.32345 4.52295 -4.52295
C3.32345 -5.72245 1.69635 -6.39642 0 -6.39642
C-1.69635 -6.39642 -3.32345 -5.72245 -4.52295 -4.52295
C-5.72245 -3.32345 -6.39642 -1.69635 -6.39642 0
C-6.39642 1.69635 -5.72245 3.32345 -4.52295 4.52295
C-3.32345 5.72245 -1.69635 6.39642 0 6.39642
z
" id="C0_10_9ee43638fc"/>
     <path d="
M0 11.7941
C3.12783 11.7941 6.12797 10.5514 8.33968 8.33968
C10.5514 6.12797 11.7941 3.12783 11.7941 0
C11.7941 -3.12783 10.5514 -6.12797 8.33968 -8.33968
C6.12797 -10.5514 3.12783 -11.7941 0 -11.7941
C-3.12783 -11.7941 -6.12797 -10.5514 -8.33968 -8.33968
C-10.5514 -6.12797 -11.7941 -3.12783 -11.7941 0
C-11.7941 3.12783 -10.5514 6.12797 -8.33968 8.33968
C-6.12797 10.5514 -3.12783 11.7941 0 11.7941
z
" id="C0_11_f87db5c06a"/>
     <path d="
M0 13.1185
C3.47907 13.1185 6.81611 11.7362 9.27618 9.27618
C11.7362 6.81611 13.1185 3.47907 13.1185 0
C13.1185 -3.47907 11.7362 -6.81611 9.27618 -9.27618
C6.81611 -11.7362 3.47907 -13.1185 0 -13.1185
C-3.47907 -13.1185 -6.81611 -11.7362 -9.27618 -9.27618
C-11.7362 -6.81611 -13.1185 -3.47907 -13.1185 0
C-13.1185 3.47907 -11.7362 6.81611 -9.27618 9.27618
C-6.81611 11.7362 -3.47907 13.1185 0 13.1185
z
" id="C0_12_8b54a3a04f"/>
     <path d="
M0 2.81182
C0.745703 2.81182 1.46096 2.51555 1.98826 1.98826
C2.51555 1.46096 2.81182 0.745703 2.81182 0
C2.81182 -0.745703 2.51555 -1.46096 1.98826 -1.98826
C1.46096 -2.51555 0.745703 -2.81182 0 -2.81182
C-0.745703 -2.81182 -1.46096 -2.51555 -1.98826 -1.98826
C-2.51555 -1.46096 -2.81182 -0.745703 -2.81182 0
C-2.81182 0.745703 -2.51555 1.46096 -1.98826 1.98826
C-1.46096 2.51555 -0.745703 2.81182 0 2.81182
z
" id="C0_13_f3790b48e7"/>
     <path d="
M0 6.39558
C1.69613 6.39558 3.32302 5.7217 4.52236 4.52236
C5.7217 3.32302 6.39558 1.69613 6.39558 0
C6.39558 -1.69613 5.7217 -3.32302 4.52236 -4.52236
C3.32302 -5.7217 1.69613 -6.39558 0 -6.39558
C-1.69613 -6.39558 -3.32302 -5.7217 -4.52236 -4.52236
C-5.7217 -3.32302 -6.39558 -1.69613 -6.39558 0
C-6.39558 1.69613 -5.7217 3.32302 -4.52236 4.52236
C-3.32302 5.7217 -1.69613 6.39558 0 6.39558
z
" id="C0_14_c467930048"/>
     <path d="
M0 11.7934
C3.12765 11.7934 6.12762 10.5508 8.3392 8.3392
C10.5508 6.12762 11.7934 3.12765 11.7934 0
C11.7934 -3.12765 10.5508 -6.12762 8.3392 -8.3392
C6.12762 -10.5508 3.12765 -11.7934 0 -11.7934
C-3.12765 -11.7934 -6.12762 -10.5508 -8.3392 -8.3392
C-10.5508 -6.12762 -11.7934 -3.12765 -11.7934 0
C-11.7934 3.12765 -10.5508 6.12762 -8.3392 8.3392
C-6.12762 10.5508 -3.12765 11.7934 0 11.7934
z
" id="C0_15_421b0b4838"/>
     <path d="
M0 6.39707
C1.69652 6.39707 3.32379 5.72304 4.52341 4.52341
C5.72304 3.32379 6.39707 1.69652 6.39707 0
C6.39707 -1.69652 5.72304 -3.32379 4.52341 -4.52341
C3.32379 -5.72304 1.69652 -6.39707 0 -6.39707
C-1.69652 -6.39707 -3.32379 -5.72304 -4.52341 -4.52341
C-5.72304 -3.32379 -6.39707 -1.69652 -6.39707 0
C-6.39707 1.69652 -5.72304 3.32379 -4.52341 4.52341
C-3.32379 5.72304 -1.69652 6.39707 0 6.39707
z
" id="C0_16_a3d7e27691"/>
     <path d="
M0 11.7933
C3.12763 11.7933 6.12758 10.5507 8.33914 8.33914
C10.5507 6.12758 11.7933 3.12763 11.7933 0
C11.7933 -3.12763 10.5507 -6.12758 8.33914 -8.33914
C6.12758 -10.5507 3.12763 -11.7933 0 -11.7933
C-3.12763 -11.7933 -6.12758 -10.5507 -8.33914 -8.33914
C-10.5507 -6.12758 -11.7933 -3.12763 -11.7933 0
C-11.7933 3.12763 -10.5507 6.12758 -8.33914 8.33914
C-6.12758 10.5507 -3.12763 11.7933 0 11.7933
z
" id="C0_17_569de4a9a7"/>
     <path d="
M0 6.39668
C1.69642 6.39668 3.32359 5.72268 4.52313 4.52313
C5.72268 3.32359 6.39668 1.69642 6.39668 0
C6.39668 -1.69642 5.72268 -3.32359 4.52313 -4.52313
C3.32359 -5.72268 1.69642 -6.39668 0 -6.39668
C-1.69642 -6.39668 -3.32359 -5.72268 -4.52313 -4.52313
C-5.72268 -3.32359 -6.39668 -1.69642 -6.39668 0
C-6.39668 1.69642 -5.72268 3.32359 -4.52313 4.52313
C-3.32359 5.72268 -1.69642 6.39668 0 6.39668
z
" id="C0_18_4a3ad45b64"/>
     <path d="
M0 11.7931
C3.12757 11.7931 6.12746 10.5505 8.33899 8.33899
C10.5505 6.12746 11.7931 3.12757 11.7931 0
C11.7931 -3.12757 10.5505 -6.12746 8.33899 -8.33899
C6.12746 -10.5505 3.12757 -11.7931 0 -11.7931
C-3.12757 -11.7931 -6.12746 -10.5505 -8.33899 -8.33899
C-10.5505 -6.12746 -11.7931 -3.12757 -11.7931 0
C-11.7931 3.12757 -10.5505 6.12746 -8.33899 8.33899
C-6.12746 10.5505 -3.12757 11.7931 0 11.7931
z
" id="C0_19_57280fd270"/>
     <path d="
M0 6.3965
C1.69637 6.3965 3.32349 5.72252 4.52301 4.52301
C5.72252 3.32349 6.3965 1.69637 6.3965 0
C6.3965 -1.69637 5.72252 -3.32349 4.52301 -4.52301
C3.32349 -5.72252 1.69637 -6.3965 0 -6.3965
C-1.69637 -6.3965 -3.32349 -5.72252 -4.52301 -4.52301
C-5.72252 -3.32349 -6.3965 -1.69637 -6.3965 0
C-6.3965 1.69637 -5.72252 3.32349 -4.52301 4.52301
C-3.32349 5.72252 -1.69637 6.3965 0 6.3965
z
" id="C0_1a_815f78c733"/>
     <path d="
M0 11.7939
C3.12779 11.7939 6.12789 10.5512 8.33957 8.33957
C10.5512 6.12789 11.7939 3.12779 11.7939 0
C11.7939 -3.12779 10.5512 -6.12789 8.33957 -8.33957
C6.12789 -10.5512 3.12779 -11.7939 0 -11.7939
C-3.12779 -11.7939 -6.12789 -10.5512 -8.33957 -8.33957
C-10.5512 -6.12789 -11.7939 -3.12779 -11.7939 0
C-11.7939 3.12779 -10.5512 6.12789 -8.33957 8.33957
C-6.12789 10.5512 -3.12779 11.7939 0 11.7939
z
" id="C0_1b_4630e9e1e3"/>
     <path d="
M0 13.1184
C3.47905 13.1184 6.81608 11.7362 9.27614 9.27614
C11.7362 6.81608 13.1184 3.47905 13.1184 0
C13.1184 -3.47905 11.7362 -6.81608 9.27614 -9.27614
C6.81608 -11.7362 3.47905 -13.1184 0 -13.1184
C-3.47905 -13.1184 -6.81608 -11.7362 -9.27614 -9.27614
C-11.7362 -6.81608 -13.1184 -3.47905 -13.1184 0
C-13.1184 3.47905 -11.7362 6.81608 -9.27614 9.27614
C-6.81608 11.7362 -3.47905 13.1184 0 13.1184
z
" id="C0_1c_6919db9bfb"/>
     <path d="
M0 2.81158
C0.74564 2.81158 1.46084 2.51533 1.98809 1.98809
C2.51533 1.46084 2.81158 0.74564 2.81158 0
C2.81158 -0.74564 2.51533 -1.46084 1.98809 -1.98809
C1.46084 -2.51533 0.74564 -2.81158 0 -2.81158
C-0.74564 -2.81158 -1.46084 -2.51533 -1.98809 -1.98809
C-2.51533 -1.46084 -2.81158 -0.74564 -2.81158 0
C-2.81158 0.74564 -2.51533 1.46084 -1.98809 1.98809
C-1.46084 2.51533 -0.74564 2.81158 0 2.81158
z
" id="C0_1d_9d5fa72cdb"/>
     <path d="
M0 6.39528
C1.69605 6.39528 3.32286 5.72143 4.52214 4.52214
C5.72143 3.32286 6.39528 1.69605 6.39528 0
C6.39528 -1.69605 5.72143 -3.32286 4.52214 -4.52214
C3.32286 -5.72143 1.69605 -6.39528 0 -6.39528
C-1.69605 -6.39528 -3.32286 -5.72143 -4.52214 -4.52214
C-5.72143 -3.32286 -6.39528 -1.69605 -6.39528 0
C-6.39528 1.69605 -5.72143 3.32286 -4.52214 4.52214
C-3.32286 5.72143 -1.69605 6.39528 0 6.39528
z
" id="C0_1e_c52607ef72"/>
     <path d="
M0 11.7935
C3.12766 11.7935 6.12764 10.5508 8.33923 8.33923
C10.5508 6.12764 11.7935 3.12766 11.7935 0
C11.7935 -3.12766 10.5508 -6.12764 8.33923 -8.33923
C6.12764 -10.5508 3.12766 -11.7935 0 -11.7935
C-3.12766 -11.7935 -6.12764 -10.5508 -8.33923 -8.33923
C-10.5508 -6.12764 -11.7935 -3.12766 -11.7935 0
C-11.7935 3.12766 -10.5508 6.12764 -8.33923 8.33923
C-6.12764 10.5508 -3.12766 11.7935 0 11.7935
z
" id="C0_1f_c472366cb6"/>
     <path d="
M0 6.39694
C1.69649 6.39694 3.32372 5.72292 4.52332 4.52332
C5.72292 3.32372 6.39694 1.69649 6.39694 0
C6.39694 -1.69649 5.72292 -3.32372 4.52332 -4.52332
C3.32372 -5.72292 1.69649 -6.39694 0 -6.39694
C-1.69649 -6.39694 -3.32372 -5.72292 -4.52332 -4.52332
C-5.72292 -3.32372 -6.39694 -1.69649 -6.39694 0
C-6.39694 1.69649 -5.72292 3.32372 -4.52332 4.52332
C-3.32372 5.72292 -1.69649 6.39694 0 6.39694
z
" id="C0_20_a6e310d3b9"/>
     <path d="
M0 11.7936
C3.1277 11.7936 6.12772 10.551 8.33933 8.33933
C10.551 6.12772 11.7936 3.1277 11.7936 0
C11.7936 -3.1277 10.551 -6.12772 8.33933 -8.33933
C6.12772 -10.551 3.1277 -11.7936 0 -11.7936
C-3.1277 -11.7936 -6.12772 -10.551 -8.33933 -8.33933
C-10.551 -6.12772 -11.7936 -3.1277 -11.7936 0
C-11.7936 3.1277 -10.551 6.12772 -8.33933 8.33933
C-6.12772 10.551 -3.1277 11.7936 0 11.7936
z
" id="C0_21_cd29d07733"/>
     <path d="
M0 13.1181
C3.47896 13.1181 6.8159 11.7359 9.2759 9.2759
C11.7359 6.8159 13.1181 3.47896 13.1181 0
C13.1181 -3.47896 11.7359 -6.8159 9.2759 -9.2759
C6.8159 -11.7359 3.47896 -13.1181 0 -13.1181
C-3.47896 -13.1181 -6.8159 -11.7359 -9.2759 -9.2759
C-11.7359 -6.8159 -13.1181 -3.47896 -13.1181 0
C-13.1181 3.47896 -11.7359 6.8159 -9.2759 9.2759
C-6.8159 11.7359 -3.47896 13.1181 0 13.1181
z
" id="C0_22_ca6720cf96"/>
     <path d="
M0 2.81383
C0.746237 2.81383 1.46201 2.51735 1.98968 1.98968
C2.51735 1.46201 2.81383 0.746237 2.81383 0
C2.81383 -0.746237 2.51735 -1.46201 1.98968 -1.98968
C1.46201 -2.51735 0.746237 -2.81383 0 -2.81383
C-0.746237 -2.81383 -1.46201 -2.51735 -1.98968 -1.98968
C-2.51735 -1.46201 -2.81383 -0.746237 -2.81383 0
C-2.81383 0.746237 -2.51735 1.46201 -1.98968 1.98968
C-1.46201 2.51735 -0.746237 2.81383 0 2.81383
z
" id="C0_23_64b90f1b54"/>
    </defs>
    <g clip-path="url(#pa3b7868a4b)">
     <use style="fill:#0000ff;stroke:#000000;" x="198.514285714" xlink:href="#C0_0_6b14d9a1cb" y="309.134053469"/>
    </g>
    <g clip-path="url(#pa3b7868a4b)">
     <use style="fill:#0000ff;stroke:#000000;" x="170.900447125" xlink:href="#C0_1_dcfa92dfb7" y="293.191196326"/>
    </g>
    <g clip-path="url(#pa3b7868a4b)">
     <use style="fill:#0000ff;stroke:#000000;" x="170.900447125" xlink:href="#C0_2_9d9a2c99ea" y="261.305482041"/>
    </g>
    <g clip-path="url(#pa3b7868a4b)">
     <use style="fill:#0000ff;stroke:#000000;" x="143.286608536" xlink:href="#C0_3_1babbc8ed8" y="245.362624898"/>
    </g>
    <g clip-path="url(#pa3b7868a4b)">
     <use style="fill:#0000ff;stroke:#000000;" x="143.286608536" xlink:href="#C0_4_4607370198" y="213.476910612"/>
    </g>
    <g clip-path="url(#pa3b7868a4b)">
     <use style="fill:#0000ff;stroke:#000000;" x="115.672769947" xlink:href="#C0_5_257523103a" y="197.534053469"/>
    </g>
    <g clip-path="url(#pa3b7868a4b)">
     <use style="fill:#0000ff;stroke:#000000;" x="115.672769947" xlink:href="#C0_6_7315a8fe9a" y="165.648339184"/>
    </g>
    <g clip-path="url(#pa3b7868a4b)">
     <use style="fill:#0000ff;stroke:#000000;" x="88.0589313573" xlink:href="#C0_7_a9e30bbd71" y="149.705482041"/>
    </g>
    <g clip-path="url(#pa3b7868a4b)">
     <use style="fill:#0000ff;stroke:#000000;" x="88.0589313573" xlink:href="#C0_8_b8945b044a" y="117.819767755"/>
    </g>
    <g clip-path="url(#pa3b7868a4b)">
     <use style="fill:#0000ff;stroke:#000000;" x="60.4450927681" xlink:href="#C0_9_a9729638f4" y="101.876910612"/>
    </g>
    <g clip-path="url(#pa3b7868a4b)">
     <use style="fill:#0000ff;stroke:#000000;" x="60.4450927681" xlink:href="#C0_a_1c133d7b75" y="69.9911963264"/>
    </g>
    <g clip-path="url(#pa3b7868a4b)">
     <use style="fill:#0000ff;stroke:#000000;" x="32.8312541788" xlink:href="#C0_b_c9b6714411" y="54.0483391836"/>
    </g>
    <g clip-path="url(#pa3b7868a4b)">
     <use style="fill:#0000ff;stroke:#000000;" x="253.741962893" xlink:href="#C0_c_90d571237e" y="309.134053469"/>
    </g>
    <g clip-path="url(#pa3b7868a4b)">
     <use style="fill:#0000ff;stroke:#000000;" x="226.128124304" xlink:href="#C0_d_a1f18634a4" y="293.191196326"/>
    </g>
    <g clip-path="url(#pa3b7868a4b)">
     <use style="fill:#0000ff;stroke:#000000;" x="226.128124304" xlink:href="#C0_e_ffb683c7bb" y="261.305482041"/>
    </g>
    <g clip-path="url(#pa3b7868a4b)">
     <use style="fill:#0000ff;stroke:#000000;" x="198.514285714" xlink:href="#C0_f_10ae90e187" y="245.362624898"/>
    </g>
    <g clip-path="url(#pa3b7868a4b)">
     <use style="fill:#0000ff;stroke:#000000;" x="198.514285714" xlink:href="#C0_10_9ee43638fc" y="213.476910612"/>
    </g>
    <g clip-path="url(#pa3b7868a4b)">
     <use style="fill:#0000ff;stroke:#000000;" x="170.900447125" xlink:href="#C0_11_f87db5c06a" y="197.534053469"/>
    </g>
    <g clip-path="url(#pa3b7868a4b)">
     <use style="fill:#0000ff;stroke:#000000;" x="170.900447125" xlink:href="#C0_12_8b54a3a04f" y="165.648339184"/>
    </g>
    <g clip-path="url(#pa3b7868a4b)">
     <use style="fill:#0000ff;stroke:#000000;" x="143.286608536" xlink:href="#C0_13_f3790b48e7" y="149.705482041"/>
    </g>
    <g clip-path="url(#pa3b7868a4b)">
     <use style="fill:#0000ff;stroke:#000000;" x="143.286608536" xlink:href="#C0_14_c467930048" y="117.819767755"/>
    </g>
    <g clip-path="url(#pa3b7868a4b)">
     <use style="fill:#0000ff;stroke:#000000;" x="115.672769947" xlink:href="#C0_15_421b0b4838" y="101.876910612"/>
    </g>
    <g clip-path="url(#pa3b7868a4b)">
     <use style="fill:#0000ff;stroke:#000000;" x="115.672769947" xlink:href="#C0_16_a3d7e27691" y="69.9911963264"/>
    </g>
    <g clip-path="url(#pa3b7868a4b)">
     <use style="fill:#0000ff;stroke:#000000;" x="88.0589313573" xlink:href="#C0_17_569de4a9a7" y="54.0483391836"/>
    </g>
    <g clip-path="url(#pa3b7868a4b)">
     <use style="fill:#0000ff;stroke:#000000;" x="308.969640071" xlink:href="#C0_18_4a3ad45b64" y="309.134053469"/>
    </g>
    <g clip-path="url(#pa3b7868a4b)">
     <use style="fill:#0000ff;stroke:#000000;" x="281.355801482" xlink:href="#C0_19_57280fd270" y="293.191196326"/>
    </g>
    <g clip-path="url(#pa3b7868a4b)">
     <use style="fill:#0000ff;stroke:#000000;" x="281.355801482" xlink:href="#C0_1a_815f78c733" y="261.305482041"/>
    </g>
    <g clip-path="url(#pa3b7868a4b)">
     <use style="fill:#0000ff;stroke:#000000;" x="253.741962893" xlink:href="#C0_1b_4630e9e1e3" y="245.362624898"/>
    </g>
    <g clip-path="url(#pa3b7868a4b)">
     <use style="fill:#0000ff;stroke:#000000;" x="253.741962893" xlink:href="#C0_1c_6919db9bfb" y="213.476910612"/>
    </g>
    <g clip-path="url(#pa3b7868a4b)">
     <use style="fill:#0000ff;stroke:#000000;" x="226.128124304" xlink:href="#C0_1d_9d5fa72cdb" y="197.534053469"/>
    </g>
    <g clip-path="url(#pa3b7868a4b)">
     <use style="fill:#0000ff;stroke:#000000;" x="226.128124304" xlink:href="#C0_1e_c52607ef72" y="165.648339184"/>
    </g>
    <g clip-path="url(#pa3b7868a4b)">
     <use style="fill:#0000ff;stroke:#000000;" x="198.514285714" xlink:href="#C0_1f_c472366cb6" y="149.705482041"/>
    </g>
    <g clip-path="url(#pa3b7868a4b)">
     <use style="fill:#0000ff;stroke:#000000;" x="198.514285714" xlink:href="#C0_20_a6e310d3b9" y="117.819767755"/>
    </g>
    <g clip-path="url(#pa3b7868a4b)">
     <use style="fill:#0000ff;stroke:#000000;" x="170.900447125" xlink:href="#C0_21_cd29d07733" y="101.876910612"/>
    </g>
    <g clip-path="url(#pa3b7868a4b)">
     <use style="fill:#0000ff;stroke:#000000;" x="170.900447125" xlink:href="#C0_22_ca6720cf96" y="69.9911963264"/>
    </g>
    <g clip-path="url(#pa3b7868a4b)">
     <use style="fill:#0000ff;stroke:#000000;" x="143.286608536" xlink:href="#C0_23_64b90f1b54" y="54.0483391836"/>
    </g>
    <g clip-path="url(#pa3b7868a4b)">
     <use style="fill:#0000ff;stroke:#000000;" x="364.19731725" xlink:href="#C0_0_6b14d9a1cb" y="309.134053469"/>
    </g>
    <g clip-path="url(#pa3b7868a4b)">
     <use style="fill:#0000ff;stroke:#000000;" x="336.58347866" xlink:href="#C0_1_dcfa92dfb7" y="293.191196326"/>
    </g>
    <g clip-path="url(#pa3b7868a4b)">
     <use style="fill:#0000ff;stroke:#000000;" x="336.58347866" xlink:href="#C0_2_9d9a2c99ea" y="261.305482041"/>
    </g>
    <g clip-path="url(#pa3b7868a4b)">
     <use style="fill:#0000ff;stroke:#000000;" x="308.969640071" xlink:href="#C0_3_1babbc8ed8" y="245.362624898"/>
    </g>
    <g clip-path="url(#pa3b7868a4b)">
     <use style="fill:#0000ff;stroke:#000000;" x="308.969640071" xlink:href="#C0_4_4607370198" y="213.476910612"/>
    </g>
    <g clip-path="url(#pa3b7868a4b)">
     <use style="fill:#0000ff;stroke:#000000;" x="281.355801482" xlink:href="#C0_5_257523103a" y="197.534053469"/>
    </g>
    <g clip-path="url(#pa3b7868a4b)">
     <use style="fill:#0000ff;stroke:#000000;" x="281.355801482" xlink:href="#C0_6_7315a8fe9a" y="165.648339184"/>
    </g>
    <g clip-path="url(#pa3b7868a4b)">
     <use style="fill:#0000ff;stroke:#000000;" x="253.741962893" xlink:href="#C0_7_a9e30bbd71" y="149.705482041"/>
    </g>
    <g clip-path="url(#pa3b7868a4b)">
     <use style="fill:#0000ff;stroke:#000000;" x="253.741962893" xlink:href="#C0_8_b8945b044a" y="117.819767755"/>
    </g>
    <g clip-path="url(#pa3b7868a4b)">
     <use style="fill:#0000ff;stroke:#000000;" x="226.128124304" xlink:href="#C0_9_a9729638f4" y="101.876910612"/>
    </g>
    <g clip-path="url(#pa3b7868a4b)">
     <use style="fill:#0000ff;stroke:#000000;" x="226.128124304" xlink:href="#C0_a_1c133d7b75" y="69.9911963264"/>
    </g>
    <g clip-path="url(#pa3b7868a4b)">
     <use style="fill:#0000ff;stroke:#000000;" x="198.514285714" xlink:href="#C0_b_c9b6714411" y="54.0483391836"/>
    </g>
    <g clip-path="url(#pa3b7868a4b)">
     <use style="fill:#0000ff;stroke:#000000;" x="419.424994428" xlink:href="#C0_c_90d571237e" y="309.134053469"/>
    </g>
    <g clip-path="url(#pa3b7868a4b)">
     <use style="fill:#0000ff;stroke:#000000;" x="391.811155839" xlink:href="#C0_d_a1f18634a4" y="293.191196326"/>
    </g>
    <g clip-path="url(#pa3b7868a4b)">
     <use style="fill:#0000ff;stroke:#000000;" x="391.811155839" xlink:href="#C0_e_ffb683c7bb" y="261.305482041"/>
    </g>
    <g clip-path="url(#pa3b7868a4b)">
     <use style="fill:#0000ff;stroke:#000000;" x="364.19731725" xlink:href="#C0_f_10ae90e187" y="245.362624898"/>
    </g>
    <g clip-path="url(#pa3b7868a4b)">
     <use style="fill:#0000ff;stroke:#000000;" x="364.19731725" xlink:href="#C0_10_9ee43638fc" y="213.476910612"/>
    </g>
    <g clip-path="url(#pa3b7868a4b)">
     <use style="fill:#0000ff;stroke:#000000;" x="336.58347866" xlink:href="#C0_11_f87db5c06a" y="197.534053469"/>
    </g>
    <g clip-path="url(#pa3b7868a4b)">
     <use style="fill:#0000ff;stroke:#000000;" x="336.58347866" xlink:href="#C0_12_8b54a3a04f" y="165.648339184"/>
    </g>
    <g clip-path="url(#pa3b7868a4b)">
     <use style="fill:#0000ff;stroke:#000000;" x="308.969640071" xlink:href="#C0_13_f3790b48e7" y="149.705482041"/>
    </g>
    <g clip-path="url(#pa3b7868a4b)">
     <use style="fill:#0000ff;stroke:#000000;" x="308.969640071" xlink:href="#C0_14_c467930048" y="117.819767755"/>
    </g>
    <g clip-path="url(#pa3b7868a4b)">
     <use style="fill:#0000ff;stroke:#000000;" x="281.355801482" xlink:href="#C0_15_421b0b4838" y="101.876910612"/>
    </g>
    <g clip-path="url(#pa3b7868a4b)">
     <use style="fill:#0000ff;stroke:#000000;" x="281.355801482" xlink:href="#C0_16_a3d7e27691" y="69.9911963264"/>
    </g>
    <g clip-path="url(#pa3b7868a4b)">
     <use style="fill:#0000ff;stroke:#000000;" x="253.741962893" xlink:href="#C0_17_569de4a9a7" y="54.0483391836"/>
    </g>
   </g>
   <g id="line2d_1">
    <path clip-path="url(#pa3b7868a4b)" d="
M198.514 309.134
L170.9 293.191" style="fill:none;opacity:0.5;stroke:#000000;stroke-linecap:square;stroke-width:2;"/>
   </g>
   <g id="line2d_2">
    <path clip-path="url(#pa3b7868a4b)" d="
M198.514 309.134
L226.128 293.191" style="fill:none;opacity:0.5;stroke:#000000;stroke-linecap:square;stroke-width:2;"/>
   </g>
   <g id="line2d_3">
    <path clip-path="url(#pa3b7868a4b)" d="
M170.9 293.191
L170.9 261.305" style="fill:none;opacity:0.5;stroke:#000000;stroke-linecap:square;stroke-width:2;"/>
   </g>
   <g id="line2d_4">
    <path clip-path="url(#pa3b7868a4b)" d="
M170.9 261.305
L143.287 245.363" style="fill:none;opacity:0.5;stroke:#000000;stroke-linecap:square;stroke-width:2;"/>
   </g>
   <g id="line2d_5">
    <path clip-path="url(#pa3b7868a4b)" d="
M170.9 261.305
L198.514 245.363" style="fill:none;opacity:0.5;stroke:#000000;stroke-linecap:square;stroke-width:2;"/>
   </g>
   <g id="line2d_6">
    <path clip-path="url(#pa3b7868a4b)" d="
M143.287 245.363
L143.287 213.477" style="fill:none;opacity:0.5;stroke:#000000;stroke-linecap:square;stroke-width:2;"/>
   </g>
   <g id="line2d_7">
    <path clip-path="url(#pa3b7868a4b)" d="
M143.287 213.477
L115.673 197.534" style="fill:none;opacity:0.5;stroke:#000000;stroke-linecap:square;stroke-width:2;"/>
   </g>
   <g id="line2d_8">
    <path clip-path="url(#pa3b7868a4b)" d="
M143.287 213.477
L170.9 197.534" style="fill:none;opacity:0.5;stroke:#000000;stroke-linecap:square;stroke-width:2;"/>
   </g>
   <g id="line2d_9">
    <path clip-path="url(#pa3b7868a4b)" d="
M115.673 197.534
L115.673 165.648" style="fill:none;opacity:0.5;stroke:#000000;stroke-linecap:square;stroke-width:2;"/>
   </g>
   <g id="line2d_10">
    <path clip-path="url(#pa3b7868a4b)" d="
M115.673 165.648
L88.0589 149.705" style="fill:none;opacity:0.5;stroke:#000000;stroke-linecap:square;stroke-width:2;"/>
   </g>
   <g id="line2d_11">
    <path clip-path="url(#pa3b7868a4b)" d="
M115.673 165.648
L143.287 149.705" style="fill:none;opacity:0.5;stroke:#000000;stroke-linecap:square;stroke-width:2;"/>
   </g>
   <g id="line2d_12">
    <path clip-path="url(#pa3b7868a4b)" d="
M88.0589 149.705
L88.0589 117.82" style="fill:none;opacity:0.5;stroke:#000000;stroke-linecap:square;stroke-width:2;"/>
   </g>
   <g id="line2d_13">
    <path clip-path="url(#pa3b7868a4b)" d="
M88.0589 117.82
L60.4451 101.877" style="fill:none;opacity:0.5;stroke:#000000;stroke-linecap:square;stroke-width:2;"/>
   </g>
   <g id="line2d_14">
    <path clip-path="url(#pa3b7868a4b)" d="
M88.0589 117.82
L115.673 101.877" style="fill:none;opacity:0.5;stroke:#000000;stroke-linecap:square;stroke-width:2;"/>
   </g>
   <g id="line2d_15">
    <path clip-path="url(#pa3b7868a4b)" d="
M60.4451 101.877
L60.4451 69.9912" style="fill:none;opacity:0.5;stroke:#000000;stroke-linecap:square;stroke-width:2;"/>
   </g>
   <g id="line2d_16">
    <path clip-path="url(#pa3b7868a4b)" d="
M60.4451 69.9912
L32.8313 54.0483" style="fill:none;opacity:0.5;stroke:#000000;stroke-linecap:square;stroke-width:2;"/>
   </g>
   <g id="line2d_17">
    <path clip-path="url(#pa3b7868a4b)" d="
M60.4451 69.9912
L88.0589 54.0483" style="fill:none;opacity:0.5;stroke:#000000;stroke-linecap:square;stroke-width:2;"/>
   </g>
   <g id="line2d_18">
    <path clip-path="url(#pa3b7868a4b)" d="
M253.742 309.134
L226.128 293.191" style="fill:none;opacity:0.5;stroke:#000000;stroke-linecap:square;stroke-width:2;"/>
   </g>
   <g id="line2d_19">
    <path clip-path="url(#pa3b7868a4b)" d="
M253.742 309.134
L281.356 293.191" style="fill:none;opacity:0.5;stroke:#000000;stroke-linecap:square;stroke-width:2;"/>
   </g>
   <g id="line2d_20">
    <path clip-path="url(#pa3b7868a4b)" d="
M226.128 293.191
L226.128 261.305" style="fill:none;opacity:0.5;stroke:#000000;stroke-linecap:square;stroke-width:2;"/>
   </g>
   <g id="line2d_21">
    <path clip-path="url(#pa3b7868a4b)" d="
M226.128 261.305
L198.514 245.363" style="fill:none;opacity:0.5;stroke:#000000;stroke-linecap:square;stroke-width:2;"/>
   </g>
   <g id="line2d_22">
    <path clip-path="url(#pa3b7868a4b)" d="
M226.128 261.305
L253.742 245.363" style="fill:none;opacity:0.5;stroke:#000000;stroke-linecap:square;stroke-width:2;"/>
   </g>
   <g id="line2d_23">
    <path clip-path="url(#pa3b7868a4b)" d="
M198.514 245.363
L198.514 213.477" style="fill:none;opacity:0.5;stroke:#000000;stroke-linecap:square;stroke-width:2;"/>
   </g>
   <g id="line2d_24">
    <path clip-path="url(#pa3b7868a4b)" d="
M198.514 213.477
L170.9 197.534" style="fill:none;opacity:0.5;stroke:#000000;stroke-linecap:square;stroke-width:2;"/>
   </g>
   <g id="line2d_25">
    <path clip-path="url(#pa3b7868a4b)" d="
M198.514 213.477
L226.128 197.534" style="fill:none;opacity:0.5;stroke:#000000;stroke-linecap:square;stroke-width:2;"/>
   </g>
   <g id="line2d_26">
    <path clip-path="url(#pa3b7868a4b)" d="
M170.9 197.534
L170.9 165.648" style="fill:none;opacity:0.5;stroke:#000000;stroke-linecap:square;stroke-width:2;"/>
   </g>
   <g id="line2d_27">
    <path clip-path="url(#pa3b7868a4b)" d="
M170.9 165.648
L143.287 149.705" style="fill:none;opacity:0.5;stroke:#000000;stroke-linecap:square;stroke-width:2;"/>
   </g>
   <g id="line2d_28">
    <path clip-path="url(#pa3b7868a4b)" d="
M170.9 165.648
L198.514 149.705" style="fill:none;opacity:0.5;stroke:#000000;stroke-linecap:square;stroke-width:2;"/>
   </g>
   <g id="line2d_29">
    <path clip-path="url(#pa3b7868a4b)" d="
M143.287 149.705
L143.287 117.82" style="fill:none;opacity:0.5;stroke:#000000;stroke-linecap:square;stroke-width:2;"/>
   </g>
   <g id="line2d_30">
    <path clip-path="url(#pa3b7868a4b)" d="
M143.287 117.82
L115.673 101.877" style="fill:none;opacity:0.5;stroke:#000000;stroke-linecap:square;stroke-width:2;"/>
   </g>
   <g id="line2d_31">
    <path clip-path="url(#pa3b7868a4b)" d="
M143.287 117.82
L170.9 101.877" style="fill:none;opacity:0.5;stroke:#000000;stroke-linecap:square;stroke-width:2;"/>
   </g>
   <g id="line2d_32">
    <path clip-path="url(#pa3b7868a4b)" d="
M115.673 101.877
L115.673 69.9912" style="fill:none;opacity:0.5;stroke:#000000;stroke-linecap:square;stroke-width:2;"/>
   </g>
   <g id="line2d_33">
    <path clip-path="url(#pa3b7868a4b)" d="
M115.673 69.9912
L88.0589 54.0483" style="fill:none;opacity:0.5;stroke:#000000;stroke-linecap:square;stroke-width:2;"/>
   </g>
   <g id="line2d_34">
    <path clip-path="url(#pa3b7868a4b)" d="
M115.673 69.9912
L143.287 54.0483" style="fill:none;opacity:0.5;stroke:#000000;stroke-linecap:square;stroke-width:2;"/>
   </g>
   <g id="line2d_35">
    <path clip-path="url(#pa3b7868a4b)" d="
M308.97 309.134
L281.356 293.191" style="fill:none;opacity:0.5;stroke:#000000;stroke-linecap:square;stroke-width:2;"/>
   </g>
   <g id="line2d_36">
    <path clip-path="url(#pa3b7868a4b)" d="
M308.97 309.134
L336.583 293.191" style="fill:none;opacity:0.5;stroke:#000000;stroke-linecap:square;stroke-width:2;"/>
   </g>
   <g id="line2d_37">
    <path clip-path="url(#pa3b7868a4b)" d="
M281.356 293.191
L281.356 261.305" style="fill:none;opacity:0.5;stroke:#000000;stroke-linecap:square;stroke-width:2;"/>
   </g>
   <g id="line2d_38">
    <path clip-path="url(#pa3b7868a4b)" d="
M281.356 261.305
L253.742 245.363" style="fill:none;opacity:0.5;stroke:#000000;stroke-linecap:square;stroke-width:2;"/>
   </g>
   <g id="line2d_39">
    <path clip-path="url(#pa3b7868a4b)" d="
M281.356 261.305
L308.97 245.363" style="fill:none;opacity:0.5;stroke:#000000;stroke-linecap:square;stroke-width:2;"/>
   </g>
   <g id="line2d_40">
    <path clip-path="url(#pa3b7868a4b)" d="
M253.742 245.363
L253.742 213.477" style="fill:none;opacity:0.5;stroke:#000000;stroke-linecap:square;stroke-width:2;"/>
   </g>
   <g id="line2d_41">
    <path clip-path="url(#pa3b7868a4b)" d="
M253.742 213.477
L226.128 197.534" style="fill:none;opacity:0.5;stroke:#000000;stroke-linecap:square;stroke-width:2;"/>
   </g>
   <g id="line2d_42">
    <path clip-path="url(#pa3b7868a4b)" d="
M253.742 213.477
L281.356 197.534" style="fill:none;opacity:0.5;stroke:#000000;stroke-linecap:square;stroke-width:2;"/>
   </g>
   <g id="line2d_43">
    <path clip-path="url(#pa3b7868a4b)" d="
M226.128 197.534
L226.128 165.648" style="fill:none;opacity:0.5;stroke:#000000;stroke-linecap:square;stroke-width:2;"/>
   </g>
   <g id="line2d_44">
    <path clip-path="url(#pa3b7868a4b)" d="
M226.128 165.648
L198.514 149.705" style="fill:none;opacity:0.5;stroke:#000000;stroke-linecap:square;stroke-width:2;"/>
   </g>
   <g id="line2d_45">
    <path clip-path="url(#pa3b7868a4b)" d="
M226.128 165.648
L253.742 149.705" style="fill:none;opacity:0.5;stroke:#000000;stroke-linecap:square;stroke-width:2;"/>
   </g>
   <g id="line2d_46">
    <path clip-path="url(#pa3b7868a4b)" d="
M198.514 149.705
L198.514 117.82" style="fill:none;opacity:0.5;stroke:#000000;stroke-linecap:square;stroke-width:2;"/>
   </g>
   <g id="line2d_47">
    <path clip-path="url(#pa3b7868a4b)" d="
M198.514 117.82
L170.9 101.877" style="fill:none;opacity:0.5;stroke:#000000;stroke-linecap:square;stroke-width:2;"/>
   </g>
   <g id="line2d_48">
    <path clip-path="url(#pa3b7868a4b)" d="
M198.514 117.82
L226.128 101.877" style="fill:none;opacity:0.5;stroke:#000000;stroke-linecap:square;stroke-width:2;"/>
   </g>
   <g id="line2d_49">
    <path clip-path="url(#pa3b7868a4b)" d="
M170.9 101.877
L170.9 69.9912" style="fill:none;opacity:0.5;stroke:#000000;stroke-linecap:square;stroke-width:2;"/>
   </g>
   <g id="line2d_50">
    <path clip-path="url(#pa3b7868a4b)" d="
M170.9 69.9912
L143.287 54.0483" style="fill:none;opacity:0.5;stroke:#000000;stroke-linecap:square;stroke-width:2;"/>
   </g>
   <g id="line2d_51">
    <path clip-path="url(#pa3b7868a4b)" d="
M170.9 69.9912
L198.514 54.0483" style="fill:none;opacity:0.5;stroke:#000000;stroke-linecap:square;stroke-width:2;"/>
   </g>
   <g id="line2d_52">
    <path clip-path="url(#pa3b7868a4b)" d="
M364.197 309.134
L336.583 293.191" style="fill:none;opacity:0.5;stroke:#000000;stroke-linecap:square;stroke-width:2;"/>
   </g>
   <g id="line2d_53">
    <path clip-path="url(#pa3b7868a4b)" d="
M364.197 309.134
L391.811 293.191" style="fill:none;opacity:0.5;stroke:#000000;stroke-linecap:square;stroke-width:2;"/>
   </g>
   <g id="line2d_54">
    <path clip-path="url(#pa3b7868a4b)" d="
M336.583 293.191
L336.583 261.305" style="fill:none;opacity:0.5;stroke:#000000;stroke-linecap:square;stroke-width:2;"/>
   </g>
   <g id="line2d_55">
    <path clip-path="url(#pa3b7868a4b)" d="
M336.583 261.305
L308.97 245.363" style="fill:none;opacity:0.5;stroke:#000000;stroke-linecap:square;stroke-width:2;"/>
   </g>
   <g id="line2d_56">
    <path clip-path="url(#pa3b7868a4b)" d="
M336.583 261.305
L364.197 245.363" style="fill:none;opacity:0.5;stroke:#000000;stroke-linecap:square;stroke-width:2;"/>
   </g>
   <g id="line2d_57">
    <path clip-path="url(#pa3b7868a4b)" d="
M308.97 245.363
L308.97 213.477" style="fill:none;opacity:0.5;stroke:#000000;stroke-linecap:square;stroke-width:2;"/>
   </g>
   <g id="line2d_58">
    <path clip-path="url(#pa3b7868a4b)" d="
M308.97 213.477
L281.356 197.534" style="fill:none;opacity:0.5;stroke:#000000;stroke-linecap:square;stroke-width:2;"/>
   </g>
   <g id="line2d_59">
    <path clip-path="url(#pa3b7868a4b)" d="
M308.97 213.477
L336.583 197.534" style="fill:none;opacity:0.5;stroke:#000000;stroke-linecap:square;stroke-width:2;"/>
   </g>
   <g id="line2d_60">
    <path clip-path="url(#pa3b7868a4b)" d="
M281.356 197.534
L281.356 165.648" style="fill:none;opacity:0.5;stroke:#000000;stroke-linecap:square;stroke-width:2;"/>
   </g>
   <g id="line2d_61">
    <path clip-path="url(#pa3b7868a4b)" d="
M281.356 165.648
L253.742 149.705" style="fill:none;opacity:0.5;stroke:#000000;stroke-linecap:square;stroke-width:2;"/>
   </g>
   <g id="line2d_62">
    <path clip-path="url(#pa3b7868a4b)" d="
M281.356 165.648
L308.97 149.705" style="fill:none;opacity:0.5;stroke:#000000;stroke-linecap:square;stroke-width:2;"/>
   </g>
   <g id="line2d_63">
    <path clip-path="url(#pa3b7868a4b)" d="
M253.742 149.705
L253.742 117.82" style="fill:none;opacity:0.5;stroke:#000000;stroke-linecap:square;stroke-width:2;"/>
   </g>
   <g id="line2d_64">
    <path clip-path="url(#pa3b7868a4b)" d="
M253.742 117.82
L226.128 101.877" style="fill:none;opacity:0.5;stroke:#000000;stroke-linecap:square;stroke-width:2;"/>
   </g>
   <g id="line2d_65">
    <path clip-path="url(#pa3b7868a4b)" d="
M253.742 117.82
L281.356 101.877" style="fill:none;opacity:0.5;stroke:#000000;stroke-linecap:square;stroke-width:2;"/>
   </g>
   <g id="line2d_66">
    <path clip-path="url(#pa3b7868a4b)" d="
M226.128 101.877
L226.128 69.9912" style="fill:none;opacity:0.5;stroke:#000000;stroke-linecap:square;stroke-width:2;"/>
   </g>
   <g id="line2d_67">
    <path clip-path="url(#pa3b7868a4b)" d="
M226.128 69.9912
L198.514 54.0483" style="fill:none;opacity:0.5;stroke:#000000;stroke-linecap:square;stroke-width:2;"/>
   </g>
   <g id="line2d_68">
    <path clip-path="url(#pa3b7868a4b)" d="
M226.128 69.9912
L253.742 54.0483" style="fill:none;opacity:0.5;stroke:#000000;stroke-linecap:square;stroke-width:2;"/>
   </g>
   <g id="line2d_69">
    <path clip-path="url(#pa3b7868a4b)" d="
M419.425 309.134
L391.811 293.191" style="fill:none;opacity:0.5;stroke:#000000;stroke-linecap:square;stroke-width:2;"/>
   </g>
   <g id="line2d_70">
    <path clip-path="url(#pa3b7868a4b)" d="
M391.811 293.191
L391.811 261.305" style="fill:none;opacity:0.5;stroke:#000000;stroke-linecap:square;stroke-width:2;"/>
   </g>
   <g id="line2d_71">
    <path clip-path="url(#pa3b7868a4b)" d="
M391.811 261.305
L364.197 245.363" style="fill:none;opacity:0.5;stroke:#000000;stroke-linecap:square;stroke-width:2;"/>
   </g>
   <g id="line2d_72">
    <path clip-path="url(#pa3b7868a4b)" d="
M364.197 245.363
L364.197 213.477" style="fill:none;opacity:0.5;stroke:#000000;stroke-linecap:square;stroke-width:2;"/>
   </g>
   <g id="line2d_73">
    <path clip-path="url(#pa3b7868a4b)" d="
M364.197 213.477
L336.583 197.534" style="fill:none;opacity:0.5;stroke:#000000;stroke-linecap:square;stroke-width:2;"/>
   </g>
   <g id="line2d_74">
    <path clip-path="url(#pa3b7868a4b)" d="
M336.583 197.534
L336.583 165.648" style="fill:none;opacity:0.5;stroke:#000000;stroke-linecap:square;stroke-width:2;"/>
   </g>
   <g id="line2d_75">
    <path clip-path="url(#pa3b7868a4b)" d="
M336.583 165.648
L308.97 149.705" style="fill:none;opacity:0.5;stroke:#000000;stroke-linecap:square;stroke-width:2;"/>
   </g>
   <g id="line2d_76">
    <path clip-path="url(#pa3b7868a4b)" d="
M308.97 149.705
L308.97 117.82" style="fill:none;opacity:0.5;stroke:#000000;stroke-linecap:square;stroke-width:2;"/>
   </g>
   <g id="line2d_77">
    <path clip-path="url(#pa3b7868a4b)" d="
M308.97 117.82
L281.356 101.877" style="fill:none;opacity:0.5;stroke:#000000;stroke-linecap:square;stroke-width:2;"/>
   </g>
   <g id="line2d_78">
    <path clip-path="url(#pa3b7868a4b)" d="
M281.356 101.877
L281.356 69.9912" style="fill:none;opacity:0.5;stroke:#000000;stroke-linecap:square;stroke-width:2;"/>
   </g>
   <g id="line2d_79">
    <path clip-path="url(#pa3b7868a4b)" d="
M281.356 69.9912
L253.742 54.0483" style="fill:none;opacity:0.5;stroke:#000000;stroke-linecap:square;stroke-width:2;"/>
   </g>
   <g id="matplotlib.axis_1"/>
   <g id="matplotlib.axis_2"/>
   <g id="patch_3">
    <path d="
M7.2 22.1626
L453.6 22.1626" style="fill:none;stroke:#000000;"/>
   </g>
   <g id="patch_4">
    <path d="
M453.6 341.02
L453.6 22.1626" style="fill:none;stroke:#000000;"/>
   </g>
   <g id="patch_5">
    <path d="
M7.2 341.02
L453.6 341.02" style="fill:none;stroke:#000000;"/>
   </g>
   <g id="patch_6">
    <path d="
M7.2 341.02
L7.2 22.1626" style="fill:none;stroke:#000000;"/>
   </g>
   <g id="text_1">
    <!-- $V_1 = 0.8, \ V_2 = 3.2$ -->
    <defs>
     <path d="
M61.9062 56.7188
C65.2969 62.1094 68.4062 64.5 73.5 64.9062
C74.5 65 75.2969 65 75.2969 66.7344
C75.2969 67.125 75.0938 67.7031 74.2031 67.7031
C72.4062 67.7031 68.0938 67.7031 66.2969 67.7031
C63.4062 67.7031 60.4062 67.7031 57.5938 67.7031
C56.7969 67.7031 55.7969 67.7031 55.7969 65.9375
C55.7969 65.0938 56.7031 65 57.0938 65
C60.7969 64.7031 61.2031 62.9062 61.2031 61.7031
C61.2031 60.1875 59.7969 57.8906 59.7031 57.7969
L28.2969 7.98438
L21.2969 61.8125
C21.2969 65 26.5 65 27.5938 65
C29.0938 65 30 65 30 66.7656
C30 67.7031 28.9062 67.7031 28.5938 67.7031
C26.9062 67.7031 24.9062 67.7031 23.2031 67.7031
L17.5938 67.7031
C10.2969 67.7031 7.29688 67.7031 7.20312 67.7031
C6.59375 67.7031 5.40625 67.7031 5.40625 66.0156
C5.40625 65 6.09375 65 7.70312 65
C12.7969 65 13.0938 64.0938 13.4062 61.6094
L21.4062 -0.109375
C21.7031 -2.20312 21.7031 -2.5 23.0938 -2.5
C24.2969 -2.5 24.7969 -2.20312 25.7969 -0.609375
z
" id="CMMI12-86"/>
     <path d="
M64.2969 31.5156
C65.7969 31.5156 67.2969 31.5156 67.2969 33.2031
C67.2969 35 65.5938 35 63.9062 35
L8 35
C6.29688 35 4.59375 35 4.59375 33.2031
C4.59375 31.5156 6.09375 31.5156 7.59375 31.5156
z

M63.9062 14
C65.5938 14 67.2969 14 67.2969 15.7969
C67.2969 17.4844 65.7969 17.4844 64.2969 17.4844
L7.59375 17.4844
C6.09375 17.4844 4.59375 17.4844 4.59375 15.7969
C4.59375 14 6.29688 14 8 14
z
" id="CMR17-61"/>
     <path d="
M41.7031 15.4531
L39.9062 15.4531
C38.9062 8.375 38.0938 7.17188 37.7031 6.5625
C37.2031 5.76562 30 5.76562 28.5938 5.76562
L9.40625 5.76562
C13 9.67188 20 16.75 28.5 24.9531
C34.5938 30.7344 41.7031 37.5312 41.7031 47.4219
C41.7031 59.2188 32.2969 66 21.7969 66
C10.7969 66 4.09375 56.3125 4.09375 47.3438
C4.09375 43.4375 7 42.9375 8.20312 42.9375
C9.20312 42.9375 12.2031 43.5469 12.2031 47.0312
C12.2031 50.1094 9.59375 51 8.20312 51
C7.59375 51 7 50.9062 6.59375 50.7031
C8.5 59.2188 14.2969 63.4062 20.4062 63.4062
C29.0938 63.4062 34.7969 56.5156 34.7969 47.4219
C34.7969 38.7344 29.7031 31.25 24 24.75
L4.09375 2.28125
L4.09375 0
L39.2969 0
z
" id="CMR17-50"/>
     <path d="
M22.0938 33.7031
C31 33.7031 34.9062 25.9688 34.9062 17.0312
C34.9062 5 28.5 0.390625 22.7031 0.390625
C17.4062 0.390625 8.79688 3.03125 6.09375 10.8281
C6.59375 10.625 7.09375 10.625 7.59375 10.625
C10 10.625 11.7969 12.2188 11.7969 14.8125
C11.7969 17.7031 9.59375 19 7.59375 19
C5.90625 19 3.29688 18.2031 3.29688 14.4688
C3.29688 5.23438 12.2969 -2 22.9062 -2
C34 -2 42.5 6.71875 42.5 16.9531
C42.5 26.6719 34.5 33.6875 25 34.7969
C32.5938 36.375 39.9062 43.0625 39.9062 52.0156
C39.9062 59.6875 32 65.2969 23 65.2969
C13.9062 65.2969 5.90625 59.8281 5.90625 52.0156
C5.90625 48.5938 8.5 48 9.79688 48
C11.9062 48 13.7031 49.2969 13.7031 51.8906
C13.7031 54.4688 11.9062 55.7656 9.79688 55.7656
C9.40625 55.7656 8.90625 55.7656 8.5 55.5625
C11.4062 61.8594 19.2969 63 22.7969 63
C26.2969 63 32.9062 61.3281 32.9062 51.875
C32.9062 49.1094 32.5 44.1875 29.0938 39.8438
C26.0938 36 22.7031 36 19.4062 35.5938
C18.9062 35.5938 16.5938 35.5938 16.2031 35.5938
C15.5 35.4844 15.0938 35.3906 15.0938 34.5938
C15.0938 33.8125 15.2031 33.7031 17.2031 33.7031
z
" id="CMR17-51"/>
     <path d="
M27.2031 35.375
C33.5 38.5625 39.9062 43.3281 39.9062 50.9844
C39.9062 60.0312 31.0938 65.2969 23 65.2969
C13.9062 65.2969 5.90625 58.7344 5.90625 49.6875
C5.90625 47.2031 6.5 42.9219 10.4062 39.1406
C11.4062 38.1562 15.5938 35.1719 18.2969 33.2812
C13.7969 30.9844 3.29688 25.5312 3.29688 14.5938
C3.29688 4.35938 13.0938 -2 22.7969 -2
C33.5 -2 42.5 5.65625 42.5 15.7969
C42.5 24.8438 36.4062 29.0312 32.4062 31.7031
z

M14.0938 44.125
C13.2969 44.625 9.29688 47.7031 9.29688 52.375
C9.29688 58.4375 15.5938 63 22.7969 63
C30.7031 63 36.5 57.4531 36.5 50.9844
C36.5 41.7344 26.0938 36.4688 25.5938 36.4688
C25.5 36.4688 25.4062 36.4688 24.5938 37.0781
z

M32.5 23.7344
C34 22.6406 38.7969 19.375 38.7969 13.2969
C38.7969 5.95312 31.4062 0.390625 23 0.390625
C13.9062 0.390625 7 6.84375 7 14.6875
C7 22.5469 13.0938 29.0938 20 32.1875
z
" id="CMR17-56"/>
     <path d="
M26.5938 63.3125
C26.5938 65.4062 26.5 65.5 25.0938 65.5
C21.2031 61.1875 15.2969 59.7969 9.70312 59.7969
C9.40625 59.7969 8.90625 59.7969 8.79688 59.5
C8.70312 59.2969 8.70312 59.0938 8.70312 57
C11.7969 57 17 57.5938 21 59.9844
L21 7.20312
C21 3.6875 20.7969 2.5 12.2031 2.5
L9.20312 2.5
L9.20312 0
C14 0 19 0 23.7969 0
C28.5938 0 33.5938 0 38.4062 0
L38.4062 2.5
L35.4062 2.5
C26.7969 2.5 26.5938 3.59375 26.5938 7.15625
z
" id="CMR17-49"/>
     <path d="
M42 31.6406
C42 37.75 41.9062 48.125 37.7031 56.1094
C34 63.1094 28.0938 65.5938 22.9062 65.5938
C18.0938 65.5938 12 63.4062 8.20312 56.2031
C4.20312 48.7188 3.79688 39.4375 3.79688 31.6406
C3.79688 25.9531 3.90625 17.2812 7 9.67188
C11.2969 -0.609375 19 -2 22.9062 -2
C27.5 -2 34.5 -0.109375 38.5938 9.375
C41.5938 16.2812 42 24.3594 42 31.6406
M22.9062 -0.40625
C16.5 -0.40625 12.7031 5.07812 11.2969 12.6875
C10.2031 18.5625 10.2031 27.1562 10.2031 32.75
C10.2031 40.4375 10.2031 46.8281 11.5 52.9219
C13.4062 61.3906 19 64 22.9062 64
C27 64 32.2969 61.2969 34.2031 53.125
C35.5 47.4375 35.5938 40.7344 35.5938 32.75
C35.5938 26.25 35.5938 18.2656 34.4062 12.375
C32.2969 1.48438 26.4062 -0.40625 22.9062 -0.40625" id="CMR17-48"/>
     <path d="
M18.4062 4.79688
C18.4062 7.6875 16 9.67188 13.5938 9.67188
C10.7031 9.67188 8.70312 7.28125 8.70312 4.89062
C8.70312 2 11.0938 0 13.5 0
C16.4062 0 18.4062 2.39062 18.4062 4.79688" id="CMMI12-58"/>
     <path d="
M19.5 -0.484375
C19.5 5.35938 17.5938 9.67188 13.5 9.67188
C10.2969 9.67188 8.70312 7.07812 8.70312 4.89062
C8.70312 2.6875 10.2031 0 13.5938 0
C14.9062 0 16 0.40625 16.9062 1.29688
C17.0938 1.5 17.2031 1.5 17.2969 1.5
C17.5 1.5 17.5 0.078125 17.5 -0.421875
C17.5 -3.75 16.9062 -10.2969 11.0938 -16.875
C10 -18.0781 10 -18.2812 10 -18.4844
C10 -19 10.5 -19.5 11 -19.5
C11.7969 -19.5 19.5 -12.0469 19.5 -0.484375" id="CMMI12-59"/>
    </defs>
    <g transform="translate(174.39895959 17.1626248978)scale(0.144 -0.144)">
     <use transform="translate(0.0 14.9439145441)scale(0.996264009963)" xlink:href="#CMMI12-86"/>
     <use transform="translate(56.8695790444 0.0)scale(0.697381766617)" xlink:href="#CMR17-49"/>
     <use transform="translate(117.024901736 14.9439145441)scale(0.996264009963)" xlink:href="#CMR17-61"/>
     <use transform="translate(216.413698873 14.9439145441)scale(0.996264009963)" xlink:href="#CMR17-48"/>
     <use transform="translate(262.10417599 14.9439145441)scale(0.996264009963)" xlink:href="#CMMI12-58"/>
     <use transform="translate(289.20135308 14.9439145441)scale(0.996264009963)" xlink:href="#CMR17-56"/>
     <use transform="translate(334.891830197 14.9439145441)scale(0.996264009963)" xlink:href="#CMMI12-59"/>
     <use transform="translate(408.669378867 14.9439145441)scale(0.996264009963)" xlink:href="#CMMI12-86"/>
     <use transform="translate(465.538957912 0.0)scale(0.697381766617)" xlink:href="#CMR17-50"/>
     <use transform="translate(525.694280603 14.9439145441)scale(0.996264009963)" xlink:href="#CMR17-61"/>
     <use transform="translate(625.083077741 14.9439145441)scale(0.996264009963)" xlink:href="#CMR17-51"/>
     <use transform="translate(670.773554858 14.9439145441)scale(0.996264009963)" xlink:href="#CMMI12-58"/>
     <use transform="translate(697.870731948 14.9439145441)scale(0.996264009963)" xlink:href="#CMR17-50"/>
    </g>
   </g>
  </g>
 </g>
 <defs>
  <clipPath id="pa3b7868a4b">
   <rect height="318.857142857" width="446.4" x="7.2" y="22.1626248978"/>
  </clipPath>
 </defs>
</svg>
